<svg width="24" height="22" viewBox="0 0 24 22" fill="none" xmlns="http://www.w3.org/2000/svg">
<path d="M10.1994 21.8292C11.1934 21.8292 11.9993 21.0284 11.9993 20.0406C11.9993 19.0527 11.1934 18.252 10.1994 18.252C9.20528 18.252 8.39941 19.0527 8.39941 20.0406C8.39941 21.0284 9.20528 21.8292 10.1994 21.8292Z" fill="#555555"/>
<path d="M18.5993 21.8292C19.5933 21.8292 20.3992 21.0284 20.3992 20.0406C20.3992 19.0527 19.5933 18.252 18.5993 18.252C17.6052 18.252 16.7993 19.0527 16.7993 20.0406C16.7993 21.0284 17.6052 21.8292 18.5993 21.8292Z" fill="#555555"/>
<path d="M23.7858 5.65075C23.6754 5.49225 23.528 5.36269 23.3562 5.27318C23.1844 5.18368 22.9934 5.13689 22.7994 5.13682H6.39943L5.01467 1.83385C4.8331 1.39889 4.52564 1.0273 4.13128 0.766185C3.73692 0.505075 3.27341 0.366208 2.79953 0.367193H0V2.75201H2.79953L8.49218 16.3276C8.58336 16.5448 8.73718 16.7303 8.93427 16.8608C9.13136 16.9913 9.36291 17.0609 9.59975 17.0609H19.1995C19.6999 17.0609 20.1475 16.7521 20.3239 16.2882L23.9238 6.74896C23.9918 6.56845 24.0148 6.37425 23.9908 6.18298C23.9667 5.99171 23.8964 5.80909 23.7858 5.65075Z" fill="#555555"/>
</svg>
