<svg width="100" height="101" viewBox="0 0 100 101" fill="none" xmlns="http://www.w3.org/2000/svg">
<path fill-rule="evenodd" clip-rule="evenodd" d="M36.3634 95.5782C36.3634 96.7837 35.8845 97.9399 35.032 98.7923C34.1796 99.6447 33.0234 100.124 31.8179 100.124C30.6124 100.124 29.4562 99.6447 28.6038 98.7923C27.7514 97.9399 27.2725 96.7837 27.2725 95.5782C27.2725 94.3726 27.7514 93.2165 28.6038 92.364C29.4562 91.5116 30.6124 91.0327 31.8179 91.0327C33.0234 91.0327 34.1796 91.5116 35.032 92.364C35.8845 93.2165 36.3634 94.3726 36.3634 95.5782ZM54.5452 95.5782C54.5452 96.7837 54.0663 97.9399 53.2139 98.7923C52.3614 99.6447 51.2053 100.124 49.9997 100.124C48.7942 100.124 47.6381 99.6447 46.7856 98.7923C45.9332 97.9399 45.4543 96.7837 45.4543 95.5782C45.4543 94.3726 45.9332 93.2165 46.7856 92.364C47.6381 91.5116 48.7942 91.0327 49.9997 91.0327C51.2053 91.0327 52.3614 91.5116 53.2139 92.364C54.0663 93.2165 54.5452 94.3726 54.5452 95.5782ZM68.1816 100.124C69.3871 100.124 70.5432 99.6447 71.3957 98.7923C72.2481 97.9399 72.727 96.7837 72.727 95.5782C72.727 94.3726 72.2481 93.2165 71.3957 92.364C70.5432 91.5116 69.3871 91.0327 68.1816 91.0327C66.976 91.0327 65.8199 91.5116 64.9674 92.364C64.115 93.2165 63.6361 94.3726 63.6361 95.5782C63.6361 96.7837 64.115 97.9399 64.9674 98.7923C65.8199 99.6447 66.976 100.124 68.1816 100.124Z" fill="#555555"/>
<path fill-rule="evenodd" clip-rule="evenodd" d="M36.3636 4.66899C36.3636 5.87452 35.8847 7.03067 35.0323 7.88311C34.1799 8.73555 33.0237 9.21444 31.8182 9.21444C30.6127 9.21444 29.4565 8.73555 28.6041 7.88311C27.7516 7.03067 27.2727 5.87452 27.2727 4.66899C27.2727 3.46346 27.7516 2.30731 28.6041 1.45487C29.4565 0.60243 30.6127 0.123535 31.8182 0.123535C33.0237 0.123535 34.1799 0.60243 35.0323 1.45487C35.8847 2.30731 36.3636 3.46346 36.3636 4.66899ZM54.5455 4.66899C54.5455 5.87452 54.0666 7.03067 53.2141 7.88311C52.3617 8.73555 51.2055 9.21444 50 9.21444C48.7945 9.21444 47.6383 8.73555 46.7859 7.88311C45.9334 7.03067 45.4545 5.87452 45.4545 4.66899C45.4545 3.46346 45.9334 2.30731 46.7859 1.45487C47.6383 0.60243 48.7945 0.123535 50 0.123535C51.2055 0.123535 52.3617 0.60243 53.2141 1.45487C54.0666 2.30731 54.5455 3.46346 54.5455 4.66899ZM68.1818 9.21444C69.3873 9.21444 70.5435 8.73555 71.3959 7.88311C72.2484 7.03067 72.7273 5.87452 72.7273 4.66899C72.7273 3.46346 72.2484 2.30731 71.3959 1.45487C70.5435 0.60243 69.3873 0.123535 68.1818 0.123535C66.9763 0.123535 65.8201 0.60243 64.9677 1.45487C64.1153 2.30731 63.6364 3.46346 63.6364 4.66899C63.6364 5.87452 64.1153 7.03067 64.9677 7.88311C65.8201 8.73555 66.9763 9.21444 68.1818 9.21444ZM36.3636 95.5781C36.3636 96.7836 35.8847 97.9398 35.0323 98.7922C34.1799 99.6446 33.0237 100.124 31.8182 100.124C30.6127 100.124 29.4565 99.6446 28.6041 98.7922C27.7516 97.9398 27.2727 96.7836 27.2727 95.5781C27.2727 94.3726 27.7516 93.2164 28.6041 92.364C29.4565 91.5115 30.6127 91.0326 31.8182 91.0326C33.0237 91.0326 34.1799 91.5115 35.0323 92.364C35.8847 93.2164 36.3636 94.3726 36.3636 95.5781ZM54.5455 95.5781C54.5455 96.7836 54.0666 97.9398 53.2141 98.7922C52.3617 99.6446 51.2055 100.124 50 100.124C48.7945 100.124 47.6383 99.6446 46.7859 98.7922C45.9334 97.9398 45.4545 96.7836 45.4545 95.5781C45.4545 94.3726 45.9334 93.2164 46.7859 92.364C47.6383 91.5115 48.7945 91.0326 50 91.0326C51.2055 91.0326 52.3617 91.5115 53.2141 92.364C54.0666 93.2164 54.5455 94.3726 54.5455 95.5781ZM68.1818 100.124C69.3873 100.124 70.5435 99.6446 71.3959 98.7922C72.2484 97.9398 72.7273 96.7836 72.7273 95.5781C72.7273 94.3726 72.2484 93.2164 71.3959 92.364C70.5435 91.5115 69.3873 91.0326 68.1818 91.0326C66.9763 91.0326 65.8201 91.5115 64.9677 92.364C64.1153 93.2164 63.6364 94.3726 63.6364 95.5781C63.6364 96.7836 64.1153 97.9398 64.9677 98.7922C65.8201 99.6446 66.9763 100.124 68.1818 100.124ZM100 68.3054C100 67.0998 99.5211 65.9437 98.6687 65.0912C97.8162 64.2388 96.6601 63.7599 95.4545 63.7599C94.249 63.7599 93.0929 64.2388 92.2404 65.0912C91.388 65.9437 90.9091 67.0998 90.9091 68.3054C90.9091 69.5109 91.388 70.667 92.2404 71.5195C93.0929 72.3719 94.249 72.8508 95.4545 72.8508C96.6601 72.8508 97.8162 72.3719 98.6687 71.5195C99.5211 70.667 100 69.5109 100 68.3054ZM100 50.1235C100 48.918 99.5211 47.7619 98.6687 46.9094C97.8162 46.057 96.6601 45.5781 95.4545 45.5781C94.249 45.5781 93.0929 46.057 92.2404 46.9094C91.388 47.7619 90.9091 48.918 90.9091 50.1235C90.9091 51.3291 91.388 52.4852 92.2404 53.3377C93.0929 54.1901 94.249 54.669 95.4545 54.669C96.6601 54.669 97.8162 54.1901 98.6687 53.3377C99.5211 52.4852 100 51.3291 100 50.1235ZM95.4545 27.3963C96.6601 27.3963 97.8162 27.8752 98.6687 28.7276C99.5211 29.58 100 30.7362 100 31.9417C100 33.1472 99.5211 34.3034 98.6687 35.1558C97.8162 36.0083 96.6601 36.4872 95.4545 36.4872C94.249 36.4872 93.0929 36.0083 92.2404 35.1558C91.388 34.3034 90.9091 33.1472 90.9091 31.9417C90.9091 30.7362 91.388 29.58 92.2404 28.7276C93.0929 27.8752 94.249 27.3963 95.4545 27.3963ZM4.54545 63.7599C5.75098 63.7599 6.90714 64.2388 7.75958 65.0912C8.61201 65.9437 9.09091 67.0998 9.09091 68.3054C9.09091 69.5109 8.61201 70.667 7.75958 71.5195C6.90714 72.3719 5.75098 72.8508 4.54545 72.8508C3.33993 72.8508 2.18377 72.3719 1.33133 71.5195C0.478895 70.667 0 69.5109 0 68.3054C0 67.0998 0.478895 65.9437 1.33133 65.0912C2.18377 64.2388 3.33993 63.7599 4.54545 63.7599ZM4.54545 45.5781C5.75098 45.5781 6.90714 46.057 7.75958 46.9094C8.61201 47.7619 9.09091 48.918 9.09091 50.1235C9.09091 51.3291 8.61201 52.4852 7.75958 53.3377C6.90714 54.1901 5.75098 54.669 4.54545 54.669C3.33993 54.669 2.18377 54.1901 1.33133 53.3377C0.478895 52.4852 0 51.3291 0 50.1235C0 48.918 0.478895 47.7619 1.33133 46.9094C2.18377 46.057 3.33993 45.5781 4.54545 45.5781ZM9.09091 31.9417C9.09091 30.7362 8.61201 29.58 7.75958 28.7276C6.90714 27.8752 5.75098 27.3963 4.54545 27.3963C3.33993 27.3963 2.18377 27.8752 1.33133 28.7276C0.478895 29.58 0 30.7362 0 31.9417C0 33.1472 0.478895 34.3034 1.33133 35.1558C2.18377 36.0083 3.33993 36.4872 4.54545 36.4872C5.75098 36.4872 6.90714 36.0083 7.75958 35.1558C8.61201 34.3034 9.09091 33.1472 9.09091 31.9417ZM72.7273 22.8508H27.2727C26.0672 22.8508 24.911 23.3297 24.0586 24.1821C23.2062 25.0346 22.7273 26.1907 22.7273 27.3963V72.8508C22.7273 74.0563 23.2062 75.2125 24.0586 76.0649C24.911 76.9174 26.0672 77.3963 27.2727 77.3963H72.7273C73.9328 77.3963 75.089 76.9174 75.9414 76.0649C76.7938 75.2125 77.2727 74.0563 77.2727 72.8508V27.3963C77.2727 26.1907 76.7938 25.0346 75.9414 24.1821C75.089 23.3297 73.9328 22.8508 72.7273 22.8508ZM27.2727 13.7599C23.6561 13.7599 20.1877 15.1966 17.6304 17.7539C15.073 20.3112 13.6364 23.7797 13.6364 27.3963V72.8508C13.6364 76.4674 15.073 79.9359 17.6304 82.4932C20.1877 85.0505 23.6561 86.4872 27.2727 86.4872H72.7273C76.3439 86.4872 79.8123 85.0505 82.3696 82.4932C84.927 79.9359 86.3636 76.4674 86.3636 72.8508V27.3963C86.3636 23.7797 84.927 20.3112 82.3696 17.7539C79.8123 15.1966 76.3439 13.7599 72.7273 13.7599H27.2727ZM59.0909 41.0326H40.9091V59.2144H59.0909V41.0326ZM31.8182 31.9417V68.3054H68.1818V31.9417H31.8182Z" fill="#555555"/>
</svg>
