<svg width="100" height="100" viewBox="0 0 100 100" fill="none" xmlns="http://www.w3.org/2000/svg">
<path fill-rule="evenodd" clip-rule="evenodd" d="M36.3634 95.4546C36.3634 96.6602 35.8845 97.8163 35.032 98.6688C34.1796 99.5212 33.0234 100 31.8179 100C30.6124 100 29.4562 99.5212 28.6038 98.6688C27.7514 97.8163 27.2725 96.6602 27.2725 95.4546C27.2725 94.2491 27.7514 93.0929 28.6038 92.2405C29.4562 91.3881 30.6124 90.9092 31.8179 90.9092C33.0234 90.9092 34.1796 91.3881 35.032 92.2405C35.8845 93.0929 36.3634 94.2491 36.3634 95.4546ZM54.5452 95.4546C54.5452 96.6602 54.0663 97.8163 53.2139 98.6688C52.3614 99.5212 51.2053 100 49.9997 100C48.7942 100 47.6381 99.5212 46.7856 98.6688C45.9332 97.8163 45.4543 96.6602 45.4543 95.4546C45.4543 94.2491 45.9332 93.0929 46.7856 92.2405C47.6381 91.3881 48.7942 90.9092 49.9997 90.9092C51.2053 90.9092 52.3614 91.3881 53.2139 92.2405C54.0663 93.0929 54.5452 94.2491 54.5452 95.4546ZM68.1816 100C69.3871 100 70.5432 99.5212 71.3957 98.6688C72.2481 97.8163 72.727 96.6602 72.727 95.4546C72.727 94.2491 72.2481 93.0929 71.3957 92.2405C70.5432 91.3881 69.3871 90.9092 68.1816 90.9092C66.976 90.9092 65.8199 91.3881 64.9674 92.2405C64.115 93.0929 63.6361 94.2491 63.6361 95.4546C63.6361 96.6602 64.115 97.8163 64.9674 98.6688C65.8199 99.5212 66.976 100 68.1816 100Z" fill="white"/>
<path fill-rule="evenodd" clip-rule="evenodd" d="M36.3636 4.54545C36.3636 5.75098 35.8847 6.90714 35.0323 7.75958C34.1799 8.61201 33.0237 9.09091 31.8182 9.09091C30.6127 9.09091 29.4565 8.61201 28.6041 7.75958C27.7516 6.90714 27.2727 5.75098 27.2727 4.54545C27.2727 3.33993 27.7516 2.18377 28.6041 1.33133C29.4565 0.478895 30.6127 0 31.8182 0C33.0237 0 34.1799 0.478895 35.0323 1.33133C35.8847 2.18377 36.3636 3.33993 36.3636 4.54545ZM54.5455 4.54545C54.5455 5.75098 54.0666 6.90714 53.2141 7.75958C52.3617 8.61201 51.2055 9.09091 50 9.09091C48.7945 9.09091 47.6383 8.61201 46.7859 7.75958C45.9334 6.90714 45.4545 5.75098 45.4545 4.54545C45.4545 3.33993 45.9334 2.18377 46.7859 1.33133C47.6383 0.478895 48.7945 0 50 0C51.2055 0 52.3617 0.478895 53.2141 1.33133C54.0666 2.18377 54.5455 3.33993 54.5455 4.54545ZM68.1818 9.09091C69.3873 9.09091 70.5435 8.61201 71.3959 7.75958C72.2484 6.90714 72.7273 5.75098 72.7273 4.54545C72.7273 3.33993 72.2484 2.18377 71.3959 1.33133C70.5435 0.478895 69.3873 0 68.1818 0C66.9763 0 65.8201 0.478895 64.9677 1.33133C64.1153 2.18377 63.6364 3.33993 63.6364 4.54545C63.6364 5.75098 64.1153 6.90714 64.9677 7.75958C65.8201 8.61201 66.9763 9.09091 68.1818 9.09091ZM36.3636 95.4545C36.3636 96.6601 35.8847 97.8162 35.0323 98.6687C34.1799 99.5211 33.0237 100 31.8182 100C30.6127 100 29.4565 99.5211 28.6041 98.6687C27.7516 97.8162 27.2727 96.6601 27.2727 95.4545C27.2727 94.249 27.7516 93.0929 28.6041 92.2404C29.4565 91.388 30.6127 90.9091 31.8182 90.9091C33.0237 90.9091 34.1799 91.388 35.0323 92.2404C35.8847 93.0929 36.3636 94.249 36.3636 95.4545ZM54.5455 95.4545C54.5455 96.6601 54.0666 97.8162 53.2141 98.6687C52.3617 99.5211 51.2055 100 50 100C48.7945 100 47.6383 99.5211 46.7859 98.6687C45.9334 97.8162 45.4545 96.6601 45.4545 95.4545C45.4545 94.249 45.9334 93.0929 46.7859 92.2404C47.6383 91.388 48.7945 90.9091 50 90.9091C51.2055 90.9091 52.3617 91.388 53.2141 92.2404C54.0666 93.0929 54.5455 94.249 54.5455 95.4545ZM68.1818 100C69.3873 100 70.5435 99.5211 71.3959 98.6687C72.2484 97.8162 72.7273 96.6601 72.7273 95.4545C72.7273 94.249 72.2484 93.0929 71.3959 92.2404C70.5435 91.388 69.3873 90.9091 68.1818 90.9091C66.9763 90.9091 65.8201 91.388 64.9677 92.2404C64.1153 93.0929 63.6364 94.249 63.6364 95.4545C63.6364 96.6601 64.1153 97.8162 64.9677 98.6687C65.8201 99.5211 66.9763 100 68.1818 100ZM100 68.1818C100 66.9763 99.5211 65.8201 98.6687 64.9677C97.8162 64.1153 96.6601 63.6364 95.4545 63.6364C94.249 63.6364 93.0929 64.1153 92.2404 64.9677C91.388 65.8201 90.9091 66.9763 90.9091 68.1818C90.9091 69.3873 91.388 70.5435 92.2404 71.3959C93.0929 72.2484 94.249 72.7273 95.4545 72.7273C96.6601 72.7273 97.8162 72.2484 98.6687 71.3959C99.5211 70.5435 100 69.3873 100 68.1818ZM100 50C100 48.7945 99.5211 47.6383 98.6687 46.7859C97.8162 45.9334 96.6601 45.4545 95.4545 45.4545C94.249 45.4545 93.0929 45.9334 92.2404 46.7859C91.388 47.6383 90.9091 48.7945 90.9091 50C90.9091 51.2055 91.388 52.3617 92.2404 53.2141C93.0929 54.0666 94.249 54.5455 95.4545 54.5455C96.6601 54.5455 97.8162 54.0666 98.6687 53.2141C99.5211 52.3617 100 51.2055 100 50ZM95.4545 27.2727C96.6601 27.2727 97.8162 27.7516 98.6687 28.6041C99.5211 29.4565 100 30.6127 100 31.8182C100 33.0237 99.5211 34.1799 98.6687 35.0323C97.8162 35.8847 96.6601 36.3636 95.4545 36.3636C94.249 36.3636 93.0929 35.8847 92.2404 35.0323C91.388 34.1799 90.9091 33.0237 90.9091 31.8182C90.9091 30.6127 91.388 29.4565 92.2404 28.6041C93.0929 27.7516 94.249 27.2727 95.4545 27.2727ZM4.54545 63.6364C5.75098 63.6364 6.90714 64.1153 7.75958 64.9677C8.61201 65.8201 9.09091 66.9763 9.09091 68.1818C9.09091 69.3873 8.61201 70.5435 7.75958 71.3959C6.90714 72.2484 5.75098 72.7273 4.54545 72.7273C3.33993 72.7273 2.18377 72.2484 1.33133 71.3959C0.478895 70.5435 0 69.3873 0 68.1818C0 66.9763 0.478895 65.8201 1.33133 64.9677C2.18377 64.1153 3.33993 63.6364 4.54545 63.6364ZM4.54545 45.4545C5.75098 45.4545 6.90714 45.9334 7.75958 46.7859C8.61201 47.6383 9.09091 48.7945 9.09091 50C9.09091 51.2055 8.61201 52.3617 7.75958 53.2141C6.90714 54.0666 5.75098 54.5455 4.54545 54.5455C3.33993 54.5455 2.18377 54.0666 1.33133 53.2141C0.478895 52.3617 0 51.2055 0 50C0 48.7945 0.478895 47.6383 1.33133 46.7859C2.18377 45.9334 3.33993 45.4545 4.54545 45.4545ZM9.09091 31.8182C9.09091 30.6127 8.61201 29.4565 7.75958 28.6041C6.90714 27.7516 5.75098 27.2727 4.54545 27.2727C3.33993 27.2727 2.18377 27.7516 1.33133 28.6041C0.478895 29.4565 0 30.6127 0 31.8182C0 33.0237 0.478895 34.1799 1.33133 35.0323C2.18377 35.8847 3.33993 36.3636 4.54545 36.3636C5.75098 36.3636 6.90714 35.8847 7.75958 35.0323C8.61201 34.1799 9.09091 33.0237 9.09091 31.8182ZM72.7273 22.7273H27.2727C26.0672 22.7273 24.911 23.2062 24.0586 24.0586C23.2062 24.911 22.7273 26.0672 22.7273 27.2727V72.7273C22.7273 73.9328 23.2062 75.089 24.0586 75.9414C24.911 76.7938 26.0672 77.2727 27.2727 77.2727H72.7273C73.9328 77.2727 75.089 76.7938 75.9414 75.9414C76.7938 75.089 77.2727 73.9328 77.2727 72.7273V27.2727C77.2727 26.0672 76.7938 24.911 75.9414 24.0586C75.089 23.2062 73.9328 22.7273 72.7273 22.7273ZM27.2727 13.6364C23.6561 13.6364 20.1877 15.073 17.6304 17.6304C15.073 20.1877 13.6364 23.6561 13.6364 27.2727V72.7273C13.6364 76.3439 15.073 79.8123 17.6304 82.3696C20.1877 84.927 23.6561 86.3636 27.2727 86.3636H72.7273C76.3439 86.3636 79.8123 84.927 82.3696 82.3696C84.927 79.8123 86.3636 76.3439 86.3636 72.7273V27.2727C86.3636 23.6561 84.927 20.1877 82.3696 17.6304C79.8123 15.073 76.3439 13.6364 72.7273 13.6364H27.2727ZM59.0909 40.9091H40.9091V59.0909H59.0909V40.9091ZM31.8182 31.8182V68.1818H68.1818V31.8182H31.8182Z" fill="white"/>
</svg>
