<svg width="100" height="100" viewBox="0 0 100 100" fill="none" xmlns="http://www.w3.org/2000/svg">
<path d="M29.4922 82.2267C29.4922 78.8509 28.0555 75.8058 25.7637 73.6656L25.7649 73.6494C25.9725 70.781 26.1407 67.7572 26.2684 64.637C32.2671 65.7671 36.5177 68.0415 38.9239 71.4199C42.0266 75.7757 41.2003 80.8916 40.8731 82.3556C39.7825 87.2367 42.6729 92.1814 47.5694 93.1221C50.3995 93.6656 53.2237 93.9371 56.0292 93.9371C65.8652 93.9371 75.7292 90.5754 83.8722 83.8496C94.1182 75.3867 99.9967 63.0493 100 50.0011C100.007 25.2702 78.498 5.09376 56.0359 5.90021C43.7634 6.34103 32.734 12.3867 25.1295 19.0414C25.0323 18.1346 24.9305 17.2516 24.8241 16.3953C24.2663 11.9067 23.6073 8.34845 22.8655 5.81935C22.3549 4.07794 21.1588 0 17.7735 0C14.3881 0 13.192 4.07794 12.6815 5.81935C11.9397 8.34845 11.2809 11.9067 10.7229 16.3953C9.60178 25.4159 8.98439 37.3503 8.98439 50.0001C8.98439 58.2646 9.26017 66.4423 9.78205 73.6492L9.78322 73.6656C7.49142 75.8058 6.0547 78.8509 6.0547 82.2267V88.2814C6.0547 91.4576 3.28204 94.1408 0 94.1408V100H11.9141C21.5918 100 29.4922 91.9793 29.4922 82.2267ZM56.246 11.7559C75.1232 11.0785 94.1469 28.3128 94.1408 49.9993C94.1377 61.2945 89.0349 71.9857 80.141 79.332C71.3515 86.5918 59.882 89.5205 48.6749 87.3679C47.0436 87.0547 46.2233 85.2812 46.5917 83.6334C47.1821 80.9904 48.0823 74.1779 43.6966 68.0204C40.2555 63.1894 34.4635 60.0673 26.459 58.7198C26.527 55.8501 26.562 49.7817 26.562 49.6724C27.7036 51.0026 29.2157 51.9603 30.9456 52.4237C35.6372 53.681 40.4585 50.8794 41.71 46.2089C42.9643 41.5276 40.1763 36.6989 35.4952 35.4446C31.9796 34.5026 28.4698 35.8296 26.3846 38.4063C26.2544 34.2444 26.0538 30.2522 25.7881 26.5206C32.4176 19.5164 43.6261 12.2092 56.246 11.7559ZM30.3907 43.1757C30.8098 41.6116 32.4145 40.6848 33.9788 41.104C35.5391 41.5222 36.4686 43.1317 36.0505 44.6921C35.6323 46.2526 34.0219 47.1819 32.4622 46.7638C30.8983 46.3448 29.9715 44.7401 30.3907 43.1757ZM16.2489 19.6176C16.7549 14.902 17.2963 11.7057 17.7735 9.55432C18.2506 11.7057 18.792 14.902 19.2981 19.6176C20.2041 28.0612 20.7032 38.8512 20.7032 50.0001C20.7032 50.9786 20.6991 51.9556 20.6913 52.9298H14.8557C14.8479 51.9556 14.8438 50.9786 14.8438 50.0001C14.8438 38.8512 15.3428 28.0612 16.2489 19.6176ZM14.9502 58.7872H20.5967C20.4963 62.9245 20.3254 66.9482 20.0881 70.7386C19.3395 70.588 18.5657 70.5079 17.7735 70.5079C16.9813 70.5079 16.2075 70.588 15.4588 70.7386C15.2217 66.9482 15.0508 62.9247 14.9502 58.7872ZM11.9141 88.2814V82.2267C11.9141 78.9959 14.5426 76.3673 17.7735 76.3673C21.0043 76.3673 23.6329 78.9959 23.6329 82.2267C23.6329 88.7961 18.3758 94.1408 11.9141 94.1408H10.3016C11.3535 92.375 11.9141 90.3685 11.9141 88.2814Z" fill="white"/>
<path d="M78.6472 39.6419C82.082 36.2074 82.0828 30.6476 78.6472 27.2122C75.2206 23.7855 69.6444 23.7853 66.2175 27.2122C62.7827 30.6468 62.7819 36.2066 66.2175 39.6419C69.6443 43.0687 75.2202 43.0689 78.6472 39.6419ZM70.3607 31.3556C71.503 30.2134 73.3614 30.2132 74.504 31.3556C75.6491 32.5007 75.6491 34.3537 74.504 35.4988C73.3613 36.6412 71.503 36.641 70.3607 35.4988C69.2157 34.3537 69.2155 32.5005 70.3607 31.3556Z" fill="white"/>
<path d="M52.0682 35.8509C56.7492 34.5966 59.5375 29.7677 58.2832 25.0866C57.0285 20.4055 52.1996 17.6175 47.5187 18.8718C42.8377 20.1261 40.0496 24.955 41.3039 29.6362C42.5611 34.328 47.3756 37.1081 52.0682 35.8509ZM49.0353 24.5313C50.599 24.1124 52.2062 25.0462 52.6236 26.6028C53.0418 28.1632 52.1123 29.7729 50.5519 30.1909C48.9881 30.6099 47.383 29.6837 46.9639 28.1194C46.5455 26.5591 47.4748 24.9495 49.0353 24.5313Z" fill="white"/>
<path d="M53.4357 74.9138C54.6885 79.5881 59.5123 82.3848 64.2004 81.1285C68.8814 79.8742 71.6693 75.0453 70.415 70.3642C69.1578 65.673 64.3443 62.8919 59.6506 64.1494C54.9695 65.4037 52.1814 70.2326 53.4357 74.9138ZM61.1674 69.809C62.7342 69.389 64.3373 70.3195 64.7553 71.8804C65.1734 73.441 64.2441 75.0506 62.6838 75.4687C61.1232 75.8869 59.5139 74.9572 59.0957 73.3972C58.6775 71.8367 59.6068 70.2271 61.1674 69.809Z" fill="white"/>
<path d="M70.009 53.7915C68.7547 58.4728 71.5428 63.3015 76.2238 64.556C80.9121 65.8122 85.7299 63.0368 86.9881 58.3411C88.2451 53.6493 85.4658 48.8341 80.7734 47.5769C76.0818 46.319 71.2666 49.0989 70.009 53.7915ZM81.3283 56.8245C80.9098 58.3882 79.3045 59.3154 77.7404 58.8962C76.1801 58.4781 75.2508 56.8685 75.6689 55.3079C76.0869 53.7472 77.6896 52.8165 79.2568 53.2364C80.817 53.6544 81.7465 55.264 81.3283 56.8245Z" fill="white"/>
</svg>
