<svg width="100" height="83" viewBox="0 0 100 83" fill="none" xmlns="http://www.w3.org/2000/svg">
<path fill-rule="evenodd" clip-rule="evenodd" d="M7.6087 6.52174C7.32042 6.52174 7.04395 6.63626 6.8401 6.8401C6.63626 7.04394 6.52174 7.32042 6.52174 7.6087V75C6.52174 75.6 7.0087 76.087 7.6087 76.087H21.4261L58.6957 36.8565C59.3952 36.1204 60.235 35.5317 61.1656 35.1252C62.0962 34.7187 63.0987 34.5026 64.1141 34.4896C65.1296 34.4767 66.1373 34.6671 67.078 35.0497C68.0187 35.4323 68.8732 35.9993 69.5913 36.7174L93.4783 60.6087V7.6087C93.4783 7.32042 93.3637 7.04394 93.1599 6.8401C92.9561 6.63626 92.6796 6.52174 92.3913 6.52174H7.6087ZM22.8087 82.6087H92.3913C94.4093 82.6087 96.3446 81.8071 97.7715 80.3802C99.1984 78.9532 100 77.018 100 75V7.6087C100 5.59074 99.1984 3.65544 97.7715 2.22854C96.3446 0.801629 94.4093 0 92.3913 0H7.6087C5.59074 0 3.65544 0.801629 2.22854 2.22854C0.801628 3.65544 0 5.59074 0 7.6087V75C0 79.2 3.4087 82.6087 7.6087 82.6087H22.8087ZM93.4783 75V69.8261L64.9783 41.3304C64.8758 41.2277 64.7539 41.1465 64.6196 41.0916C64.4853 41.0368 64.3414 41.0093 64.1963 41.0109C64.0513 41.0126 63.908 41.0432 63.775 41.1011C63.6419 41.1589 63.5218 41.2428 63.4217 41.3478L30.4217 76.087H92.3913C92.6796 76.087 92.9561 75.9724 93.1599 75.7686C93.3637 75.5648 93.4783 75.2883 93.4783 75ZM36.9565 29.3478C36.9565 30.347 36.7597 31.3364 36.3773 32.2595C35.995 33.1827 35.4345 34.0215 34.728 34.728C34.0215 35.4345 33.1827 35.995 32.2595 36.3773C31.3364 36.7597 30.347 36.9565 29.3478 36.9565C28.3486 36.9565 27.3592 36.7597 26.4361 36.3773C25.513 35.995 24.6742 35.4345 23.9677 34.728C23.2611 34.0215 22.7007 33.1827 22.3183 32.2595C21.9359 31.3364 21.7391 30.347 21.7391 29.3478C21.7391 27.3299 22.5408 25.3946 23.9677 23.9677C25.3946 22.5408 27.3299 21.7391 29.3478 21.7391C31.3658 21.7391 33.3011 22.5408 34.728 23.9677C36.1549 25.3946 36.9565 27.3299 36.9565 29.3478ZM43.4783 29.3478C43.4783 33.0955 41.9895 36.6896 39.3396 39.3396C36.6896 41.9895 33.0955 43.4783 29.3478 43.4783C25.6002 43.4783 22.0061 41.9895 19.3561 39.3396C16.7061 36.6896 15.2174 33.0955 15.2174 29.3478C15.2174 25.6002 16.7061 22.0061 19.3561 19.3561C22.0061 16.7061 25.6002 15.2174 29.3478 15.2174C33.0955 15.2174 36.6896 16.7061 39.3396 19.3561C41.9895 22.0061 43.4783 25.6002 43.4783 29.3478Z" fill="#555555"/>
</svg>
