<svg width="100" height="94" viewBox="0 0 100 94" fill="none" xmlns="http://www.w3.org/2000/svg">
<path d="M63.3358 86.6702C67.0179 86.6702 70.0027 83.6854 70.0027 80.0033C70.0027 76.3213 67.0179 73.3364 63.3358 73.3364C59.6538 73.3364 56.6689 76.3213 56.6689 80.0033C56.6689 83.6854 59.6538 86.6702 63.3358 86.6702Z" fill="white"/>
<path d="M63.3358 20.0008C67.0179 20.0008 70.0027 17.0159 70.0027 13.3339C70.0027 9.65187 67.0179 6.66699 63.3358 6.66699C59.6538 6.66699 56.6689 9.65187 56.6689 13.3339C56.6689 17.0159 59.6538 20.0008 63.3358 20.0008Z" fill="white"/>
<path d="M6.6669 53.3353C10.3489 53.3353 13.3338 50.3504 13.3338 46.6684C13.3338 42.9863 10.3489 40.0015 6.6669 40.0015C2.98487 40.0015 0 42.9863 0 46.6684C0 50.3504 2.98487 53.3353 6.6669 53.3353Z" fill="white"/>
<path d="M86.6698 33.3345C83.7217 33.3433 80.8599 34.3298 78.5326 36.1395C76.2053 37.9492 74.5442 40.4798 73.8094 43.3349H59.5289C59.0568 41.455 58.1771 39.7019 56.9521 38.1998C55.7271 36.6977 54.1869 35.4833 52.4404 34.6427C50.6939 33.802 48.7839 33.3557 46.8458 33.3353C44.9076 33.3149 42.9887 33.7209 41.2249 34.5246L30.6345 21.2908C32.3765 19.003 33.3246 16.2093 33.3346 13.3338C33.3346 10.6966 32.5526 8.11868 31.0875 5.92595C29.6223 3.73321 27.5399 2.02419 25.1034 1.01498C22.667 0.00577729 19.986 -0.258276 17.3995 0.256211C14.813 0.770699 12.4371 2.04062 10.5724 3.90539C8.70761 5.77015 7.43769 8.14601 6.9232 10.7325C6.40872 13.319 6.67277 16 7.68197 18.4364C8.69118 20.8729 10.4002 22.9553 12.5929 24.4205C14.7857 25.8856 17.3636 26.6676 20.0008 26.6676C21.8804 26.6633 23.7375 26.2575 25.4477 25.4776L36.0347 38.7114C34.2847 40.9948 33.3362 43.7914 33.3362 46.6683C33.3362 49.5452 34.2847 52.3419 36.0347 54.6253L25.4477 67.8591C23.7375 67.0791 21.8804 66.6734 20.0008 66.669C17.3636 66.669 14.7857 67.451 12.5929 68.9162C10.4002 70.3813 8.69118 72.4638 7.68197 74.9002C6.67277 77.3366 6.40872 80.0176 6.9232 82.6041C7.43769 85.1906 8.70761 87.5665 10.5724 89.4313C12.4371 91.296 14.813 92.5659 17.3995 93.0804C19.986 93.5949 22.667 93.3309 25.1034 92.3217C27.5399 91.3125 29.6223 89.6034 31.0875 87.4107C32.5526 85.218 33.3346 82.64 33.3346 80.0028C33.3248 77.1273 32.3768 74.3335 30.6345 72.0459L41.2215 58.8121C42.9855 59.6164 44.9048 60.0229 46.8433 60.0027C48.7819 59.9826 50.6923 59.5364 52.4392 58.6958C54.1861 57.8551 55.7267 56.6405 56.9519 55.138C58.1771 53.6356 59.0569 51.8821 59.5289 50.0018H73.8094C74.4371 52.4104 75.7276 54.5947 77.5344 56.3068C79.3411 58.0188 81.5917 59.1899 84.0306 59.6872C86.4695 60.1844 88.999 59.9878 91.3318 59.1197C93.6645 58.2516 95.7072 56.7468 97.2277 54.7762C98.7483 52.8056 99.6858 50.448 99.9338 47.9714C100.182 45.4947 99.7305 42.9981 98.6309 40.7651C97.5314 38.532 95.8277 36.652 93.7134 35.3386C91.5991 34.0251 89.1589 33.3308 86.6698 33.3345ZM13.3339 13.3338C13.3339 12.0152 13.7249 10.7262 14.4575 9.62988C15.19 8.53351 16.2313 7.679 17.4495 7.1744C18.6677 6.66979 20.0082 6.53777 21.3014 6.79501C22.5947 7.05225 23.7826 7.68722 24.715 8.6196C25.6474 9.55198 26.2824 10.7399 26.5396 12.0332C26.7968 13.3264 26.6648 14.6669 26.1602 15.8851C25.6556 17.1033 24.8011 18.1446 23.7047 18.8771C22.6084 19.6097 21.3194 20.0007 20.0008 20.0007C18.2332 19.9989 16.5384 19.296 15.2885 18.0461C14.0386 16.7962 13.3357 15.1014 13.3339 13.3338ZM20.0008 86.6697C18.6822 86.6697 17.3932 86.2787 16.2969 85.5462C15.2005 84.8136 14.346 83.7724 13.8414 82.5542C13.3368 81.3359 13.2048 79.9954 13.462 78.7022C13.7192 77.4089 14.3542 76.221 15.2866 75.2886C16.219 74.3562 17.4069 73.7213 18.7002 73.464C19.9934 73.2068 21.3339 73.3388 22.5521 73.8434C23.7703 74.348 24.8116 75.2025 25.5441 76.2989C26.2767 77.3953 26.6677 78.6842 26.6677 80.0028C26.6659 81.7705 25.963 83.4652 24.7131 84.7151C23.4632 85.965 21.7684 86.668 20.0008 86.6697ZM46.6684 53.3352C45.3498 53.3352 44.0608 52.9442 42.9645 52.2117C41.8681 51.4791 41.0136 50.4379 40.509 49.2196C40.0044 48.0014 39.8724 46.6609 40.1296 45.3677C40.3869 44.0744 41.0218 42.8865 41.9542 41.9541C42.8866 41.0217 44.0745 40.3868 45.3678 40.1295C46.661 39.8723 48.0015 40.0043 49.2197 40.5089C50.4379 41.0135 51.4792 41.868 52.2117 42.9644C52.9443 44.0608 53.3353 45.3497 53.3353 46.6683C53.3335 48.436 52.6306 50.1307 51.3807 51.3806C50.1308 52.6305 48.436 53.3335 46.6684 53.3352ZM86.6698 53.3352C85.3512 53.3352 84.0622 52.9442 82.9659 52.2117C81.8695 51.4791 81.015 50.4379 80.5104 49.2196C80.0058 48.0014 79.8738 46.6609 80.131 45.3677C80.3883 44.0744 81.0232 42.8865 81.9556 41.9541C82.888 41.0217 84.0759 40.3868 85.3692 40.1295C86.6624 39.8723 88.0029 40.0043 89.2211 40.5089C90.4393 41.0135 91.4806 41.868 92.2131 42.9644C92.9457 44.0608 93.3367 45.3497 93.3367 46.6683C93.335 48.436 92.632 50.1307 91.3821 51.3806C90.1322 52.6305 88.4374 53.3335 86.6698 53.3352Z" fill="white"/>
</svg>
