<svg width="100" height="95" viewBox="0 0 100 95" fill="none" xmlns="http://www.w3.org/2000/svg">
<path d="M63.3358 87.5452C67.0179 87.5452 70.0027 84.5604 70.0027 80.8783C70.0027 77.1963 67.0179 74.2114 63.3358 74.2114C59.6538 74.2114 56.6689 77.1963 56.6689 80.8783C56.6689 84.5604 59.6538 87.5452 63.3358 87.5452Z" fill="#555555"/>
<path d="M63.3358 20.8758C67.0179 20.8758 70.0027 17.8909 70.0027 14.2089C70.0027 10.5269 67.0179 7.54199 63.3358 7.54199C59.6538 7.54199 56.6689 10.5269 56.6689 14.2089C56.6689 17.8909 59.6538 20.8758 63.3358 20.8758Z" fill="#555555"/>
<path d="M6.6669 54.2103C10.3489 54.2103 13.3338 51.2254 13.3338 47.5434C13.3338 43.8613 10.3489 40.8765 6.6669 40.8765C2.98487 40.8765 0 43.8613 0 47.5434C0 51.2254 2.98487 54.2103 6.6669 54.2103Z" fill="#555555"/>
<path d="M86.6698 34.2095C83.7217 34.2183 80.8599 35.2048 78.5326 37.0145C76.2053 38.8242 74.5442 41.3548 73.8094 44.2099H59.5289C59.0568 42.33 58.1771 40.5769 56.9521 39.0748C55.7271 37.5727 54.1869 36.3583 52.4404 35.5177C50.6939 34.677 48.7839 34.2307 46.8458 34.2103C44.9076 34.1899 42.9887 34.5959 41.2249 35.3996L30.6345 22.1658C32.3765 19.878 33.3246 17.0843 33.3346 14.2088C33.3346 11.5716 32.5526 8.99368 31.0875 6.80095C29.6223 4.60821 27.5399 2.89919 25.1034 1.88998C22.667 0.880777 19.986 0.616724 17.3995 1.13121C14.813 1.6457 12.4371 2.91562 10.5724 4.78039C8.70761 6.64515 7.43769 9.02101 6.9232 11.6075C6.40872 14.194 6.67277 16.875 7.68197 19.3114C8.69118 21.7479 10.4002 23.8303 12.5929 25.2955C14.7857 26.7606 17.3636 27.5426 20.0008 27.5426C21.8804 27.5383 23.7375 27.1325 25.4477 26.3526L36.0347 39.5864C34.2847 41.8698 33.3362 44.6664 33.3362 47.5433C33.3362 50.4202 34.2847 53.2169 36.0347 55.5003L25.4477 68.7341C23.7375 67.9541 21.8804 67.5484 20.0008 67.544C17.3636 67.544 14.7857 68.326 12.5929 69.7912C10.4002 71.2563 8.69118 73.3388 7.68197 75.7752C6.67277 78.2116 6.40872 80.8926 6.9232 83.4791C7.43769 86.0656 8.70761 88.4415 10.5724 90.3063C12.4371 92.171 14.813 93.4409 17.3995 93.9554C19.986 94.4699 22.667 94.2059 25.1034 93.1967C27.5399 92.1875 29.6223 90.4784 31.0875 88.2857C32.5526 86.093 33.3346 83.515 33.3346 80.8778C33.3248 78.0023 32.3768 75.2085 30.6345 72.9209L41.2215 59.6871C42.9855 60.4914 44.9048 60.8979 46.8433 60.8777C48.7819 60.8576 50.6923 60.4114 52.4392 59.5708C54.1861 58.7301 55.7267 57.5155 56.9519 56.013C58.1771 54.5106 59.0569 52.7571 59.5289 50.8768H73.8094C74.4371 53.2854 75.7276 55.4697 77.5344 57.1818C79.3411 58.8938 81.5917 60.0649 84.0306 60.5622C86.4695 61.0594 88.999 60.8628 91.3318 59.9947C93.6645 59.1266 95.7072 57.6218 97.2277 55.6512C98.7483 53.6806 99.6858 51.323 99.9338 48.8464C100.182 46.3697 99.7305 43.8731 98.6309 41.6401C97.5314 39.407 95.8277 37.527 93.7134 36.2136C91.5991 34.9001 89.1589 34.2058 86.6698 34.2095ZM13.3339 14.2088C13.3339 12.8902 13.7249 11.6012 14.4575 10.5049C15.19 9.40851 16.2313 8.554 17.4495 8.0494C18.6677 7.54479 20.0082 7.41277 21.3014 7.67001C22.5947 7.92725 23.7826 8.56222 24.715 9.4946C25.6474 10.427 26.2824 11.6149 26.5396 12.9082C26.7968 14.2014 26.6648 15.5419 26.1602 16.7601C25.6556 17.9783 24.8011 19.0196 23.7047 19.7521C22.6084 20.4847 21.3194 20.8757 20.0008 20.8757C18.2332 20.8739 16.5384 20.171 15.2885 18.9211C14.0386 17.6712 13.3357 15.9764 13.3339 14.2088ZM20.0008 87.5447C18.6822 87.5447 17.3932 87.1537 16.2969 86.4212C15.2005 85.6886 14.346 84.6474 13.8414 83.4292C13.3368 82.2109 13.2048 80.8704 13.462 79.5772C13.7192 78.2839 14.3542 77.096 15.2866 76.1636C16.219 75.2312 17.4069 74.5963 18.7002 74.339C19.9934 74.0818 21.3339 74.2138 22.5521 74.7184C23.7703 75.223 24.8116 76.0775 25.5441 77.1739C26.2767 78.2703 26.6677 79.5592 26.6677 80.8778C26.6659 82.6455 25.963 84.3402 24.7131 85.5901C23.4632 86.84 21.7684 87.543 20.0008 87.5447ZM46.6684 54.2102C45.3498 54.2102 44.0608 53.8192 42.9645 53.0867C41.8681 52.3541 41.0136 51.3129 40.509 50.0946C40.0044 48.8764 39.8724 47.5359 40.1296 46.2427C40.3869 44.9494 41.0218 43.7615 41.9542 42.8291C42.8866 41.8967 44.0745 41.2618 45.3678 41.0045C46.661 40.7473 48.0015 40.8793 49.2197 41.3839C50.4379 41.8885 51.4792 42.743 52.2117 43.8394C52.9443 44.9358 53.3353 46.2247 53.3353 47.5433C53.3335 49.311 52.6306 51.0057 51.3807 52.2556C50.1308 53.5055 48.436 54.2085 46.6684 54.2102ZM86.6698 54.2102C85.3512 54.2102 84.0622 53.8192 82.9659 53.0867C81.8695 52.3541 81.015 51.3129 80.5104 50.0946C80.0058 48.8764 79.8738 47.5359 80.131 46.2427C80.3883 44.9494 81.0232 43.7615 81.9556 42.8291C82.888 41.8967 84.0759 41.2618 85.3692 41.0045C86.6624 40.7473 88.0029 40.8793 89.2211 41.3839C90.4393 41.8885 91.4806 42.743 92.2131 43.8394C92.9457 44.9358 93.3367 46.2247 93.3367 47.5433C93.335 49.311 92.632 51.0057 91.3821 52.2556C90.1322 53.5055 88.4374 54.2085 86.6698 54.2102Z" fill="#555555"/>
</svg>
