<?xml version="1.0" encoding="UTF-8"?>
<!DOCTYPE svg PUBLIC "-//W3C//DTD SVG 1.1//EN" "http://www.w3.org/Graphics/SVG/1.1/DTD/svg11.dtd">
<svg xmlns="http://www.w3.org/2000/svg" version="1.1" width="219px" height="171px" style="shape-rendering:geometricPrecision; text-rendering:geometricPrecision; image-rendering:optimizeQuality; fill-rule:evenodd; clip-rule:evenodd" xmlns:xlink="http://www.w3.org/1999/xlink">
<g><path style="opacity:0.118" fill="#121110" d="M 97.5,19.5 C 99.1238,19.3601 100.29,20.0267 101,21.5C 101.417,20.244 102.25,19.5774 103.5,19.5C 105.745,20.2919 106.078,21.6253 104.5,23.5C 102.974,25.3334 101.308,27 99.5,28.5C 98.1667,28.5 96.8333,28.5 95.5,28.5C 94.4937,28.0623 94.4937,27.3957 95.5,26.5C 96.1667,24.1667 96.8333,21.8333 97.5,19.5 Z"/></g>
<g><path style="opacity:0.051" fill="#40403f" d="M 103.5,19.5 C 102.25,19.5774 101.417,20.244 101,21.5C 100.29,20.0267 99.1238,19.3601 97.5,19.5C 97.1667,18.8333 96.8333,18.1667 96.5,17.5C 97.2161,17.2169 98.0494,16.8836 99,16.5C 100.878,17.0527 102.378,18.0527 103.5,19.5 Z"/></g>
<g><path style="opacity:0.996" fill="#d5bb8d" d="M 92.5,16.5 C 90.9174,18.5078 89.9174,20.8411 89.5,23.5C 88.8333,23.5 88.1667,23.5 87.5,23.5C 88.475,20.9333 89.1417,18.2666 89.5,15.5C 90.791,15.2627 91.791,15.596 92.5,16.5 Z"/></g>
<g><path style="opacity:1" fill="#926d40" d="M 92.5,16.5 C 93.9587,16.4326 95.2921,16.7659 96.5,17.5C 96.8333,18.1667 97.1667,18.8333 97.5,19.5C 96.8333,21.8333 96.1667,24.1667 95.5,26.5C 94.5,26.5 93.5,26.5 92.5,26.5C 91.3065,25.7281 90.3065,24.7281 89.5,23.5C 89.9174,20.8411 90.9174,18.5078 92.5,16.5 Z"/></g>
<g><path style="opacity:0.796" fill="#54483b" d="M 104.5,23.5 C 105.167,24.5 105.833,25.5 106.5,26.5C 104.285,27.2679 101.952,27.9346 99.5,28.5C 101.308,27 102.974,25.3334 104.5,23.5 Z"/></g>
<g><path style="opacity:1" fill="#c5aa7c" d="M 89.5,26.5 C 89.5674,27.9587 89.2341,29.2921 88.5,30.5C 87.1667,30.5 86.5,29.8333 86.5,28.5C 86.5,28.1667 86.5,27.8333 86.5,27.5C 87.209,26.596 88.209,26.2627 89.5,26.5 Z"/></g>
<g><path style="opacity:1" fill="#533924" d="M 89.5,26.5 C 90.7978,27.1157 91.7978,27.1157 92.5,26.5C 93.5,26.5 94.5,26.5 95.5,26.5C 94.4937,27.3957 94.4937,28.0623 95.5,28.5C 97.0764,29.1429 98.4097,30.1429 99.5,31.5C 97.901,31.2322 96.5676,31.5655 95.5,32.5C 94.209,32.7373 93.209,32.404 92.5,31.5C 93.2016,30.3695 91.8683,30.0361 88.5,30.5C 89.2341,29.2921 89.5674,27.9587 89.5,26.5 Z"/></g>
<g><path style="opacity:1" fill="#e3c88b" d="M 108.5,30.5 C 103.87,31.7324 101.036,34.7324 100,39.5C 99.4533,43.1604 98.9533,46.827 98.5,50.5C 98.361,52.8825 99.0277,54.8825 100.5,56.5C 101.392,63.1183 104.058,68.9516 108.5,74C 110.101,74.2734 111.601,74.7734 113,75.5C 113.27,72.6383 114.104,69.9716 115.5,67.5C 115.559,71.9412 116.559,76.4412 118.5,81C 122.537,81.6067 126.537,81.44 130.5,80.5C 129.71,81.4013 128.71,82.0679 127.5,82.5C 117.101,83.3005 109.101,79.3005 103.5,70.5C 98.515,60.8975 95.8483,50.5642 95.5,39.5C 94.056,40.981 93.3894,40.6477 93.5,38.5C 94.2389,38.631 94.9056,38.4643 95.5,38C 94.5842,37.7216 93.9175,37.2216 93.5,36.5C 93.7329,34.9382 94.3995,33.6049 95.5,32.5C 96.5676,31.5655 97.901,31.2322 99.5,31.5C 104.116,28.7016 109.116,27.8683 114.5,29C 112.414,29.3153 110.414,29.8153 108.5,30.5 Z"/></g>
<g><path style="opacity:1" fill="#b9844a" d="M 92.5,31.5 C 93.209,32.404 94.209,32.7373 95.5,32.5C 94.3995,33.6049 93.7329,34.9382 93.5,36.5C 90.1149,36.8457 86.7816,37.5123 83.5,38.5C 82.8333,38.1667 82.1667,37.8333 81.5,37.5C 83.8875,33.1398 87.5542,31.1398 92.5,31.5 Z"/></g>
<g><path style="opacity:1" fill="#d9b871" d="M 108.5,30.5 C 108.523,32.9267 109.023,35.26 110,37.5C 112.212,38.1199 114.046,39.2866 115.5,41C 112.193,46.7268 113.526,51.0601 119.5,54C 117.852,55.4619 116.852,57.2953 116.5,59.5C 115.542,59.0472 114.708,58.3805 114,57.5C 113.29,58.9733 112.124,59.6399 110.5,59.5C 110.5,58.1667 110.5,56.8333 110.5,55.5C 107.241,54.3356 103.907,53.3356 100.5,52.5C 100.5,53.8333 100.5,55.1667 100.5,56.5C 99.0277,54.8825 98.361,52.8825 98.5,50.5C 98.9533,46.827 99.4533,43.1604 100,39.5C 101.036,34.7324 103.87,31.7324 108.5,30.5 Z"/></g>
<g><path style="opacity:1" fill="#d1ab65" d="M 131.5,38.5 C 131.427,40.0269 132.094,41.0269 133.5,41.5C 136.382,47.1472 138.048,53.1472 138.5,59.5C 135.407,60.2288 132.907,61.8955 131,64.5C 129.004,59.779 125.837,58.779 121.5,61.5C 122.865,63.7508 122.531,65.7508 120.5,67.5C 118.701,65.3848 117.034,63.2182 115.5,61C 116.056,60.6174 116.389,60.1174 116.5,59.5C 116.852,57.2953 117.852,55.4619 119.5,54C 113.526,51.0601 112.193,46.7268 115.5,41C 114.046,39.2866 112.212,38.1199 110,37.5C 109.023,35.26 108.523,32.9267 108.5,30.5C 110.414,29.8153 112.414,29.3153 114.5,29C 109.116,27.8683 104.116,28.7016 99.5,31.5C 98.4097,30.1429 97.0764,29.1429 95.5,28.5C 96.8333,28.5 98.1667,28.5 99.5,28.5C 101.952,27.9346 104.285,27.2679 106.5,26.5C 108.628,25.3709 110.961,25.2042 113.5,26C 120.392,28.9407 126.392,33.1073 131.5,38.5 Z"/></g>
<g><path style="opacity:0.004" fill="#000000" d="M 131.5,38.5 C 132.906,38.9731 133.573,39.9731 133.5,41.5C 132.094,41.0269 131.427,40.0269 131.5,38.5 Z"/></g>
<g><path style="opacity:1" fill="#302219" d="M 87.5,23.5 C 88.1667,23.5 88.8333,23.5 89.5,23.5C 90.3065,24.7281 91.3065,25.7281 92.5,26.5C 91.7978,27.1157 90.7978,27.1157 89.5,26.5C 88.209,26.2627 87.209,26.596 86.5,27.5C 85.1667,27.8333 85.1667,28.1667 86.5,28.5C 86.5,29.8333 87.1667,30.5 88.5,30.5C 91.8683,30.0361 93.2016,30.3695 92.5,31.5C 87.5542,31.1398 83.8875,33.1398 81.5,37.5C 82.1667,37.8333 82.8333,38.1667 83.5,38.5C 86.7816,37.5123 90.1149,36.8457 93.5,36.5C 93.9175,37.2216 94.5842,37.7216 95.5,38C 94.9056,38.4643 94.2389,38.631 93.5,38.5C 92.5084,38.3284 91.8417,38.6618 91.5,39.5C 87.8183,39.3347 84.1516,39.5014 80.5,40C 79.1772,40.8159 78.5106,41.9826 78.5,43.5C 77.5416,43.9528 76.7083,44.6195 76,45.5C 75.3828,44.5509 75.5494,43.7175 76.5,43C 75.9056,42.5357 75.2389,42.369 74.5,42.5C 76.8183,39.3484 79.3183,36.3484 82,33.5C 81.7468,30.867 81.7468,28.2004 82,25.5C 83.4443,23.8446 85.2776,23.178 87.5,23.5 Z"/></g>
<g><path style="opacity:1" fill="#ab7540" d="M 91.5,39.5 C 90.3139,41.7922 90.3139,44.1256 91.5,46.5C 87.087,46.6871 82.7536,47.3538 78.5,48.5C 78.5,46.8333 78.5,45.1667 78.5,43.5C 78.5106,41.9826 79.1772,40.8159 80.5,40C 84.1516,39.5014 87.8183,39.3347 91.5,39.5 Z"/></g>
<g><path style="opacity:1" fill="#493420" d="M 74.5,42.5 C 75.2389,42.369 75.9056,42.5357 76.5,43C 75.5494,43.7175 75.3828,44.5509 76,45.5C 76.7083,44.6195 77.5416,43.9528 78.5,43.5C 78.5,45.1667 78.5,46.8333 78.5,48.5C 82.7536,47.3538 87.087,46.6871 91.5,46.5C 92.2389,46.369 92.9056,46.5357 93.5,47C 91.9419,47.21 90.6085,47.71 89.5,48.5C 85.7802,48.5642 82.1135,49.0642 78.5,50C 77.565,52.3806 77.2317,54.8806 77.5,57.5C 75.1316,61.7494 73.6316,61.4161 73,56.5C 72.7645,58.1193 71.9311,59.1193 70.5,59.5C 70.781,56.1834 70.781,53.0168 70.5,50C 72.1152,47.658 73.4485,45.158 74.5,42.5 Z"/></g>
<g><path style="opacity:1" fill="#a0693a" d="M 89.5,48.5 C 89.5,51.1667 89.5,53.8333 89.5,56.5C 85.6849,58.127 81.6849,59.4603 77.5,60.5C 77.5,59.5 77.5,58.5 77.5,57.5C 77.2317,54.8806 77.565,52.3806 78.5,50C 82.1135,49.0642 85.7802,48.5642 89.5,48.5 Z"/></g>
<g><path style="opacity:0.166" fill="#171615" d="M 133.5,41.5 C 135.09,41.6282 136.423,42.2949 137.5,43.5C 139.375,47.6417 141.708,51.475 144.5,55C 144.167,55.3333 143.833,55.6667 143.5,56C 145.646,59.8801 146.979,64.0468 147.5,68.5C 146.928,70.6873 146.928,73.0206 147.5,75.5C 146.833,75.5 146.5,75.8333 146.5,76.5C 143.953,77.9336 141.619,79.6002 139.5,81.5C 135.5,83.1667 131.5,84.8333 127.5,86.5C 129.514,84.8171 131.18,82.8171 132.5,80.5C 137.658,74.4874 139.658,67.4874 138.5,59.5C 138.048,53.1472 136.382,47.1472 133.5,41.5 Z"/></g>
<g><path style="opacity:1" fill="#c4a86b" d="M 93.5,38.5 C 93.3894,40.6477 94.056,40.981 95.5,39.5C 95.8483,50.5642 98.515,60.8975 103.5,70.5C 101.521,68.8325 99.188,68.1658 96.5,68.5C 97.463,67.6365 97.463,66.9698 96.5,66.5C 95.2638,67.2458 93.9305,67.5792 92.5,67.5C 91.8333,64.5 91.1667,61.5 90.5,58.5C 94.4123,57.0067 94.079,56.3401 89.5,56.5C 89.5,53.8333 89.5,51.1667 89.5,48.5C 90.6085,47.71 91.9419,47.21 93.5,47C 92.9056,46.5357 92.2389,46.369 91.5,46.5C 90.3139,44.1256 90.3139,41.7922 91.5,39.5C 91.8417,38.6618 92.5084,38.3284 93.5,38.5 Z"/></g>
<g><path style="opacity:1" fill="#2b1b12" d="M 77.5,57.5 C 77.5,58.5 77.5,59.5 77.5,60.5C 81.6849,59.4603 85.6849,58.127 89.5,56.5C 94.079,56.3401 94.4123,57.0067 90.5,58.5C 86.8056,59.5083 83.1389,60.675 79.5,62C 78.6634,63.0113 78.33,64.1779 78.5,65.5C 77.8826,65.3893 77.3826,65.056 77,64.5C 76.8295,66.7148 76.1628,68.7148 75,70.5C 74.8462,67.7682 75.3462,65.1015 76.5,62.5C 74.6587,61.7696 72.8254,61.1029 71,60.5C 70.6012,60.7284 70.4346,61.0618 70.5,61.5C 69.1667,60.8333 69.1667,60.1667 70.5,59.5C 71.9311,59.1193 72.7645,58.1193 73,56.5C 73.6316,61.4161 75.1316,61.7494 77.5,57.5 Z"/></g>
<g><path style="opacity:1" fill="#905a33" d="M 90.5,58.5 C 91.1667,61.5 91.8333,64.5 92.5,67.5C 93.9305,67.5792 95.2638,67.2458 96.5,66.5C 97.463,66.9698 97.463,67.6365 96.5,68.5C 95.5222,68.811 94.8555,69.4777 94.5,70.5C 95.9308,73.0387 97.5975,75.3721 99.5,77.5C 95.6174,80.447 91.284,81.6137 86.5,81C 84.9684,78.9656 83.6351,76.7989 82.5,74.5C 86.0001,72.3854 89.6667,70.5521 93.5,69C 89.7881,69.2849 86.1214,70.1182 82.5,71.5C 81.2613,71.0576 80.2613,70.3909 79.5,69.5C 79.5674,68.0413 79.2341,66.7079 78.5,65.5C 78.33,64.1779 78.6634,63.0113 79.5,62C 83.1389,60.675 86.8056,59.5083 90.5,58.5 Z"/></g>
<g><path style="opacity:0.142" fill="#141414" d="M 189.5,60.5 C 190.249,61.531 190.915,62.6976 191.5,64C 191.272,64.3988 190.938,64.5654 190.5,64.5C 189.167,65.1667 189.167,65.8333 190.5,66.5C 190.092,67.6431 189.425,68.6431 188.5,69.5C 178.345,75.0533 168.345,80.8866 158.5,87C 152.639,90.097 146.639,92.9303 140.5,95.5C 138.303,96.8446 135.97,98.0112 133.5,99C 132.748,99.6708 132.414,100.504 132.5,101.5C 123.16,105.561 114.493,109.894 106.5,114.5C 105.29,114.932 104.29,115.599 103.5,116.5C 101.819,118.008 99.8185,119.008 97.5,119.5C 95.8212,119.285 94.8212,119.952 94.5,121.5C 91.2227,123.078 88.2227,122.745 85.5,120.5C 84.848,118.517 83.848,116.683 82.5,115C 83.3479,113.334 84.3479,111.834 85.5,110.5C 86.5,111.833 87.5,113.167 88.5,114.5C 88.56,115.043 88.8933,115.376 89.5,115.5C 95.5266,112.487 101.527,109.487 107.5,106.5C 118.372,99.8988 129.372,93.5655 140.5,87.5C 146.65,85.2604 152.316,82.2604 157.5,78.5C 167.15,73.1949 176.816,67.8615 186.5,62.5C 187.5,61.8333 188.5,61.1667 189.5,60.5 Z"/></g>
<g><path style="opacity:1" fill="#916f43" d="M 189.5,60.5 C 188.5,61.1667 187.5,61.8333 186.5,62.5C 186.719,61.325 186.386,60.325 185.5,59.5C 175.447,65.19 165.447,70.8567 155.5,76.5C 151.5,78.8333 147.5,81.1667 143.5,83.5C 141.716,83.8925 140.05,84.5592 138.5,85.5C 138.833,84.1667 139.167,82.8333 139.5,81.5C 141.619,79.6002 143.953,77.9336 146.5,76.5C 147.167,76.5 147.5,76.1667 147.5,75.5C 159.171,68.9979 170.838,62.4979 182.5,56C 185.668,55.9683 188.001,57.4683 189.5,60.5 Z"/></g>
<g><path style="opacity:0.004" fill="#dddddd" d="M 190.5,64.5 C 191.506,65.3957 191.506,66.0623 190.5,66.5C 189.167,65.8333 189.167,65.1667 190.5,64.5 Z"/></g>
<g><path style="opacity:1" fill="#dbb771" d="M 116.5,59.5 C 116.389,60.1174 116.056,60.6174 115.5,61C 117.034,63.2182 118.701,65.3848 120.5,67.5C 122.531,65.7508 122.865,63.7508 121.5,61.5C 125.837,58.779 129.004,59.779 131,64.5C 132.907,61.8955 135.407,60.2288 138.5,59.5C 139.658,67.4874 137.658,74.4874 132.5,80.5C 131.833,80.5 131.167,80.5 130.5,80.5C 126.537,81.44 122.537,81.6067 118.5,81C 116.559,76.4412 115.559,71.9412 115.5,67.5C 114.104,69.9716 113.27,72.6383 113,75.5C 111.601,74.7734 110.101,74.2734 108.5,74C 104.058,68.9516 101.392,63.1183 100.5,56.5C 100.5,55.1667 100.5,53.8333 100.5,52.5C 103.907,53.3356 107.241,54.3356 110.5,55.5C 110.5,56.8333 110.5,58.1667 110.5,59.5C 112.124,59.6399 113.29,58.9733 114,57.5C 114.708,58.3805 115.542,59.0472 116.5,59.5 Z"/></g>
<g><path style="opacity:1" fill="#b79966" d="M 186.5,62.5 C 176.816,67.8615 167.15,73.1949 157.5,78.5C 157.5,77.1667 156.833,76.5 155.5,76.5C 165.447,70.8567 175.447,65.19 185.5,59.5C 186.386,60.325 186.719,61.325 186.5,62.5 Z"/></g>
<g><path style="opacity:1" fill="#5a4229" d="M 78.5,65.5 C 79.2341,66.7079 79.5674,68.0413 79.5,69.5C 79.5,70.5 79.5,71.5 79.5,72.5C 74.2889,72.4421 71.4555,69.7754 71,64.5C 70.7216,65.4158 70.2216,66.0825 69.5,66.5C 69.6287,64.7839 69.962,63.1172 70.5,61.5C 70.4346,61.0618 70.6012,60.7284 71,60.5C 72.8254,61.1029 74.6587,61.7696 76.5,62.5C 75.3462,65.1015 74.8462,67.7682 75,70.5C 76.1628,68.7148 76.8295,66.7148 77,64.5C 77.3826,65.056 77.8826,65.3893 78.5,65.5 Z"/></g>
<g><path style="opacity:0.17" fill="#0f0f0e" d="M 80.5,79.5 C 83.2791,80.6168 83.6124,81.7834 81.5,83C 84.3618,87.105 88.0285,88.605 92.5,87.5C 93.1667,87.5 93.5,87.8333 93.5,88.5C 93.0825,89.2216 92.4158,89.7216 91.5,90C 96.1426,92.103 100.976,93.603 106,94.5C 107.984,94.2587 109.817,93.5921 111.5,92.5C 112.739,92.9424 113.739,93.6091 114.5,94.5C 110.136,96.3437 106.136,98.677 102.5,101.5C 99.3652,103.023 96.0318,103.69 92.5,103.5C 88.4466,103.118 85.4466,101.118 83.5,97.5C 80.8777,104.982 78.7111,112.649 77,120.5C 76.2935,122.081 75.4601,123.581 74.5,125C 74.24,127.39 74.24,129.89 74.5,132.5C 72.9182,134.577 71.9182,136.91 71.5,139.5C 70.0462,140.52 69.7129,141.687 70.5,143C 63.432,145.966 58.7654,143.799 56.5,136.5C 57.1667,136.5 57.8333,136.5 58.5,136.5C 60.1667,136.5 61.8333,136.5 63.5,136.5C 67.9893,119.88 72.4893,103.213 77,86.5C 77.7264,83.857 78.8931,81.5236 80.5,79.5 Z"/></g>
<g><path style="opacity:1" fill="#ae9158" d="M 96.5,68.5 C 99.188,68.1658 101.521,68.8325 103.5,70.5C 109.101,79.3005 117.101,83.3005 127.5,82.5C 127.389,83.1174 127.056,83.6174 126.5,84C 123.479,84.8494 120.479,85.6827 117.5,86.5C 117.167,86.5 116.833,86.5 116.5,86.5C 113.813,86.6641 111.146,86.4974 108.5,86C 108.957,85.586 109.291,85.086 109.5,84.5C 107.238,83.6551 106.571,82.3217 107.5,80.5C 106.609,79.4104 105.609,79.4104 104.5,80.5C 103.478,80.1445 102.811,79.4778 102.5,78.5C 103.463,77.6365 103.463,76.9698 102.5,76.5C 101.583,77.1272 100.583,77.4606 99.5,77.5C 97.5975,75.3721 95.9308,73.0387 94.5,70.5C 94.8555,69.4777 95.5222,68.811 96.5,68.5 Z"/></g>
<g><path style="opacity:1" fill="#cfb78b" d="M 155.5,76.5 C 156.833,76.5 157.5,77.1667 157.5,78.5C 152.316,82.2604 146.65,85.2604 140.5,87.5C 140.062,87.5654 139.728,87.3988 139.5,87C 141.093,86.0513 142.426,84.8846 143.5,83.5C 147.5,81.1667 151.5,78.8333 155.5,76.5 Z"/></g>
<g><path style="opacity:1" fill="#322116" d="M 79.5,69.5 C 80.2613,70.3909 81.2613,71.0576 82.5,71.5C 86.1214,70.1182 89.7881,69.2849 93.5,69C 89.6667,70.5521 86.0001,72.3854 82.5,74.5C 83.6351,76.7989 84.9684,78.9656 86.5,81C 91.284,81.6137 95.6174,80.447 99.5,77.5C 100.583,77.4606 101.583,77.1272 102.5,76.5C 103.463,76.9698 103.463,77.6365 102.5,78.5C 98.2478,79.9594 94.2478,81.9594 90.5,84.5C 91.1925,85.5178 91.8592,86.5178 92.5,87.5C 88.0285,88.605 84.3618,87.105 81.5,83C 83.6124,81.7834 83.2791,80.6168 80.5,79.5C 78.2632,77.3529 76.2632,75.0196 74.5,72.5C 73.1429,73.5903 72.1429,74.9236 71.5,76.5C 70.0309,73.3155 69.3643,69.9821 69.5,66.5C 70.2216,66.0825 70.7216,65.4158 71,64.5C 71.4555,69.7754 74.2889,72.4421 79.5,72.5C 79.5,71.5 79.5,70.5 79.5,69.5 Z"/></g>
<g><path style="opacity:1" fill="#784c2b" d="M 102.5,78.5 C 102.811,79.4778 103.478,80.1445 104.5,80.5C 105.609,79.4104 106.609,79.4104 107.5,80.5C 106.571,82.3217 107.238,83.6551 109.5,84.5C 109.291,85.086 108.957,85.586 108.5,86C 111.146,86.4974 113.813,86.6641 116.5,86.5C 115.992,88.2327 115.159,88.566 114,87.5C 111.345,90.48 108.012,92.1466 104,92.5C 102.188,92.5066 100.688,91.84 99.5,90.5C 102.005,88.7467 104.671,87.2467 107.5,86C 106.975,85.3076 106.308,84.8076 105.5,84.5C 102.073,87.5467 98.0728,88.88 93.5,88.5C 93.5,87.8333 93.1667,87.5 92.5,87.5C 91.8592,86.5178 91.1925,85.5178 90.5,84.5C 94.2478,81.9594 98.2478,79.9594 102.5,78.5 Z"/></g>
<g><path style="opacity:1" fill="#816842" d="M 130.5,80.5 C 131.167,80.5 131.833,80.5 132.5,80.5C 131.18,82.8171 129.514,84.8171 127.5,86.5C 126.504,86.5858 125.671,86.2524 125,85.5C 122.471,88.626 119.971,88.9593 117.5,86.5C 120.479,85.6827 123.479,84.8494 126.5,84C 127.056,83.6174 127.389,83.1174 127.5,82.5C 128.71,82.0679 129.71,81.4013 130.5,80.5 Z"/></g>
<g><path style="opacity:0.998" fill="#79603c" d="M 139.5,81.5 C 139.167,82.8333 138.833,84.1667 138.5,85.5C 135.824,88.1144 132.824,90.281 129.5,92C 122.286,95.7737 114.953,99.2737 107.5,102.5C 107.5,103.5 107.5,104.5 107.5,105.5C 106.833,105.167 106.167,104.833 105.5,104.5C 104.5,103.5 103.5,102.5 102.5,101.5C 106.136,98.677 110.136,96.3437 114.5,94.5C 119.037,92.0699 123.37,89.4032 127.5,86.5C 131.5,84.8333 135.5,83.1667 139.5,81.5 Z"/></g>
<g><path style="opacity:0.437" fill="#dec79c" d="M 74.5,72.5 C 75.5587,77.6833 74.892,82.6833 72.5,87.5C 70.1154,90.6535 68.7821,94.3201 68.5,98.5C 67.5,98.5 66.5,98.5 65.5,98.5C 67.5,91.1667 69.5,83.8333 71.5,76.5C 72.1429,74.9236 73.1429,73.5903 74.5,72.5 Z"/></g>
<g><path style="opacity:0.796" fill="#231812" d="M 116.5,86.5 C 116.833,86.5 117.167,86.5 117.5,86.5C 119.971,88.9593 122.471,88.626 125,85.5C 125.671,86.2524 126.504,86.5858 127.5,86.5C 123.37,89.4032 119.037,92.0699 114.5,94.5C 113.739,93.6091 112.739,92.9424 111.5,92.5C 109.817,93.5921 107.984,94.2587 106,94.5C 100.976,93.603 96.1426,92.103 91.5,90C 92.4158,89.7216 93.0825,89.2216 93.5,88.5C 98.0728,88.88 102.073,87.5467 105.5,84.5C 106.308,84.8076 106.975,85.3076 107.5,86C 104.671,87.2467 102.005,88.7467 99.5,90.5C 100.688,91.84 102.188,92.5066 104,92.5C 108.012,92.1466 111.345,90.48 114,87.5C 115.159,88.566 115.992,88.2327 116.5,86.5 Z"/></g>
<g><path style="opacity:0.949" fill="#9a8461" d="M 143.5,83.5 C 142.426,84.8846 141.093,86.0513 139.5,87C 139.728,87.3988 140.062,87.5654 140.5,87.5C 129.372,93.5655 118.372,99.8988 107.5,106.5C 107.5,106.167 107.5,105.833 107.5,105.5C 107.5,104.5 107.5,103.5 107.5,102.5C 114.953,99.2737 122.286,95.7737 129.5,92C 132.824,90.281 135.824,88.1144 138.5,85.5C 140.05,84.5592 141.716,83.8925 143.5,83.5 Z"/></g>
<g><path style="opacity:0.004" fill="#b7b7b7" d="M 140.5,95.5 C 138.505,98.3885 135.838,100.389 132.5,101.5C 132.414,100.504 132.748,99.6708 133.5,99C 135.97,98.0112 138.303,96.8446 140.5,95.5 Z"/></g>
<g><path style="opacity:1" fill="#946f42" d="M 102.5,101.5 C 103.5,102.5 104.5,103.5 105.5,104.5C 99.8297,107.834 94.163,111.167 88.5,114.5C 87.5,113.167 86.5,111.833 85.5,110.5C 87.5102,107.973 90.1769,106.139 93.5,105C 92.944,104.617 92.6107,104.117 92.5,103.5C 96.0318,103.69 99.3652,103.023 102.5,101.5 Z"/></g>
<g><path style="opacity:1" fill="#c4a572" d="M 72.5,87.5 C 68.9646,101.795 64.2979,115.795 58.5,129.5C 59.8217,131.865 59.8217,134.198 58.5,136.5C 57.8333,136.5 57.1667,136.5 56.5,136.5C 56.1961,135.85 55.8627,135.183 55.5,134.5C 59.1474,122.576 62.4808,110.576 65.5,98.5C 66.5,98.5 67.5,98.5 68.5,98.5C 68.7821,94.3201 70.1154,90.6535 72.5,87.5 Z"/></g>
<g><path style="opacity:0.863" fill="#c7ac7f" d="M 105.5,104.5 C 106.167,104.833 106.833,105.167 107.5,105.5C 107.5,105.833 107.5,106.167 107.5,106.5C 101.527,109.487 95.5266,112.487 89.5,115.5C 88.8933,115.376 88.56,115.043 88.5,114.5C 94.163,111.167 99.8297,107.834 105.5,104.5 Z"/></g>
<g><path style="opacity:0.004" fill="#fefffe" d="M 106.5,114.5 C 106.179,116.048 105.179,116.715 103.5,116.5C 104.29,115.599 105.29,114.932 106.5,114.5 Z"/></g>
<g><path style="opacity:1" fill="#8d6b3c" d="M 74.5,72.5 C 76.2632,75.0196 78.2632,77.3529 80.5,79.5C 78.8931,81.5236 77.7264,83.857 77,86.5C 72.4893,103.213 67.9893,119.88 63.5,136.5C 61.8333,136.5 60.1667,136.5 58.5,136.5C 59.8217,134.198 59.8217,131.865 58.5,129.5C 64.2979,115.795 68.9646,101.795 72.5,87.5C 74.892,82.6833 75.5587,77.6833 74.5,72.5 Z"/></g>
<g><path style="opacity:0.004" fill="#e4e4e4" d="M 97.5,119.5 C 96.7095,120.401 95.7095,121.068 94.5,121.5C 94.8212,119.952 95.8212,119.285 97.5,119.5 Z"/></g>
<g><path style="opacity:0.004" fill="#fefffe" d="M 85.5,120.5 C 84.8333,121.167 84.8333,121.167 85.5,120.5 Z"/></g>
<g><path style="opacity:0.004" fill="#fefffe" d="M 71.5,139.5 C 72.8333,140.167 72.8333,140.167 71.5,139.5 Z"/></g>
</svg>
