<svg width="100" height="59" viewBox="0 0 100 59" fill="none" xmlns="http://www.w3.org/2000/svg">
<path d="M64.4582 26.2207C64.0713 25.8336 63.612 25.5264 63.1065 25.3168C62.6009 25.1072 62.059 24.9992 61.5118 24.999C60.9645 24.9988 60.4225 25.1064 59.9168 25.3157C59.4111 25.5249 58.9516 25.8318 58.5645 26.2186C58.1773 26.6055 57.8702 27.0648 57.6606 27.5703C57.451 28.0759 57.343 28.6178 57.3428 29.1651C57.3426 29.7123 57.4502 30.2543 57.6594 30.76C57.8687 31.2657 58.1755 31.7252 58.5624 32.1124C59.3437 32.8942 60.4035 33.3337 61.5088 33.334C62.6141 33.3344 63.6743 32.8957 64.4561 32.1145C65.238 31.3332 65.6774 30.2733 65.6778 29.168C65.6782 28.0627 65.2395 27.0025 64.4582 26.2207Z" fill="#555555"/>
<path d="M67.404 17.3838C67.7884 16.9859 68.2481 16.6685 68.7565 16.4501C69.2648 16.2317 69.8116 16.1168 70.3648 16.112C70.9181 16.1072 71.4667 16.2126 71.9788 16.4221C72.4909 16.6316 72.9561 16.941 73.3473 17.3322C73.7385 17.7234 74.0479 18.1886 74.2574 18.7007C74.4669 19.2128 74.5724 19.7614 74.5675 20.3147C74.5627 20.8679 74.4478 21.4147 74.2294 21.923C74.0111 22.4314 73.6936 22.8912 73.2957 23.2755C72.5098 24.0345 71.4573 24.4545 70.3648 24.445C69.2723 24.4355 68.2273 23.9973 67.4548 23.2248C66.6822 22.4522 66.244 21.4072 66.2345 20.3147C66.225 19.2222 66.645 18.1697 67.404 17.3838Z" fill="#555555"/>
<path d="M82.1334 26.2208C81.7491 25.8228 81.2893 25.5054 80.7809 25.287C80.2726 25.0686 79.7258 24.9537 79.1726 24.9489C78.6194 24.9441 78.0707 25.0495 77.5586 25.259C77.0465 25.4685 76.5813 25.7779 76.1901 26.1691C75.7989 26.5603 75.4895 27.0256 75.28 27.5376C75.0705 28.0497 74.9651 28.5984 74.9699 29.1516C74.9747 29.7049 75.0896 30.2516 75.308 30.76C75.5264 31.2683 75.8438 31.7281 76.2418 32.1124C77.0276 32.8714 78.0801 33.2914 79.1726 33.2819C80.2651 33.2724 81.3101 32.8342 82.0827 32.0617C82.8552 31.2891 83.2934 30.2441 83.3029 29.1516C83.3124 28.0591 82.8924 27.0066 82.1334 26.2208Z" fill="#555555"/>
<path d="M67.4043 35.0585C67.7914 34.6716 68.251 34.3648 68.7567 34.1555C69.2624 33.9463 69.8043 33.8387 70.3516 33.8389C70.8989 33.8391 71.4408 33.947 71.9463 34.1567C72.4519 34.3663 72.9112 34.6734 73.298 35.0605C73.6849 35.4477 73.9917 35.9072 74.201 36.4129C74.4102 36.9186 74.5178 37.4606 74.5176 38.0079C74.5174 38.5551 74.4095 39.097 74.1998 39.6026C73.9902 40.1081 73.6831 40.5674 73.296 40.9543C72.5141 41.7356 71.4539 42.1743 70.3487 42.1739C69.2434 42.1735 68.1835 41.734 67.4022 40.9522C66.6209 40.1704 66.1822 39.1102 66.1826 38.0049C66.183 36.8996 66.6225 35.8397 67.4043 35.0585Z" fill="#555555"/>
<path d="M24.9998 33.3332H16.6665V24.9998H24.9998V16.6665H33.3332V24.9998H41.6665V33.3332H33.3332V41.6665H24.9998V33.3332Z" fill="#555555"/>
<path fill-rule="evenodd" clip-rule="evenodd" d="M29.1667 0C21.4312 1.15268e-07 14.0125 3.07291 8.54272 8.54272C3.07291 14.0125 0 21.4312 0 29.1667C0 36.9021 3.07291 44.3208 8.54272 49.7906C14.0125 55.2604 21.4312 58.3333 29.1667 58.3333H70.8333C74.6636 58.3333 78.4563 57.5789 81.9949 56.1132C85.5336 54.6474 88.7489 52.499 91.4573 49.7906C94.1656 47.0822 96.3141 43.8669 97.7798 40.3283C99.2456 36.7896 100 32.9969 100 29.1667C100 25.3364 99.2456 21.5437 97.7798 18.0051C96.3141 14.4664 94.1656 11.2511 91.4573 8.54272C88.7489 5.83434 85.5336 3.68594 81.9949 2.22018C78.4563 0.754417 74.6636 -5.70747e-08 70.8333 0H29.1667ZM70.8333 8.33333H29.1667C23.6413 8.33333 18.3423 10.5283 14.4353 14.4353C10.5283 18.3423 8.33333 23.6413 8.33333 29.1667C8.33333 34.692 10.5283 39.991 14.4353 43.8981C18.3423 47.8051 23.6413 50 29.1667 50H70.8333C76.3587 50 81.6577 47.8051 85.5647 43.8981C89.4717 39.991 91.6667 34.692 91.6667 29.1667C91.6667 23.6413 89.4717 18.3423 85.5647 14.4353C81.6577 10.5283 76.3587 8.33333 70.8333 8.33333Z" fill="#555555"/>
</svg>
