<svg width="283" height="51" viewBox="0 0 283 51" fill="none" xmlns="http://www.w3.org/2000/svg">
<g clip-path="url(#clip0_468_344)">
<path fill-rule="evenodd" clip-rule="evenodd" d="M50.1814 26.0216C50.1814 39.8018 38.9628 50.9729 25.1239 50.9729C11.285 50.9729 0.0664062 39.8018 0.0664062 26.0216C0.0664062 12.2414 11.285 1.07031 25.1239 1.07031C38.9628 1.07031 50.1814 12.2414 50.1814 26.0216ZM27.7702 28.4692C27.1772 28.4692 26.6058 28.5616 26.0701 28.7325C26.0094 28.7578 25.9476 28.7812 25.8848 28.8022C24.7418 29.1972 23.5136 29.4119 22.2346 29.4119C16.1201 29.4119 11.1633 24.5038 11.1633 18.4492C11.1633 12.3946 16.1201 7.48639 22.2346 7.48639C23.5136 7.48639 24.7417 7.70158 25.8846 8.09664C26.9806 8.46129 27.7702 9.48693 27.7702 10.6952C27.7702 12.2088 26.5311 13.4359 25.0025 13.4359C24.669 13.4359 24.3492 13.3774 24.0531 13.2704C23.4835 13.0743 22.8716 12.9678 22.2346 12.9678C19.1774 12.9678 16.6989 15.4219 16.6989 18.4492C16.6989 21.4765 19.1774 23.9306 22.2346 23.9306C22.8279 23.9306 23.3995 23.8382 23.9353 23.667C23.996 23.642 24.0575 23.6183 24.1203 23.5974C25.2631 23.2024 26.4913 22.9877 27.7702 22.9877C33.8848 22.9877 38.8415 27.8959 38.8415 33.9504C38.8415 40.005 33.8848 44.9133 27.7702 44.9133C26.4913 44.9133 25.2633 44.698 24.1205 44.3031C23.0243 43.9384 22.2347 42.9127 22.2347 41.7044C22.2347 40.1908 23.4739 38.9638 25.0026 38.9638C25.3395 38.9638 25.6623 39.0233 25.9609 39.1325C26.5278 39.3266 27.1367 39.432 27.7702 39.432C30.8275 39.432 33.3059 36.9778 33.3059 33.9505C33.3059 30.9233 30.8275 28.4692 27.7702 28.4692Z" fill="#00AF32"/>
<path d="M26.069 28.7329C26.6047 28.562 27.176 28.4696 27.7691 28.4696C30.8264 28.4696 33.3047 30.9238 33.3047 33.951C33.3047 36.9783 30.8264 39.4325 27.7691 39.4325C27.1355 39.4325 26.5267 39.327 25.9597 39.1329C25.6611 39.0238 25.3383 38.9642 25.0014 38.9642C23.4727 38.9642 22.2335 40.1912 22.2335 41.7049C22.2335 42.9132 23.0231 43.9388 24.1193 44.3035C25.2621 44.6984 26.4902 44.9137 27.7691 44.9137C33.8836 44.9137 38.8404 40.0055 38.8404 33.9509C38.8404 27.8963 33.8836 22.9881 27.7691 22.9881C26.4902 22.9881 25.2619 23.2028 24.1191 23.5978C24.0564 23.6187 23.9948 23.6424 23.9341 23.6674C23.3983 23.8386 22.8268 23.931 22.2334 23.931C19.1762 23.931 16.6978 21.4769 16.6978 18.4496C16.6978 15.4223 19.1762 12.9682 22.2334 12.9682C22.8704 12.9682 23.4824 13.0747 24.0519 13.2709C24.348 13.3779 24.6678 13.4363 25.0013 13.4363C26.5299 13.4363 27.7691 12.2093 27.7691 10.6956C27.7691 9.48735 26.9795 8.46172 25.8834 8.09706C24.7405 7.702 23.5124 7.48682 22.2334 7.48682C16.1189 7.48682 11.1621 12.395 11.1621 18.4496C11.1621 24.5042 16.1189 29.4124 22.2334 29.4124C23.5124 29.4124 24.7406 29.1977 25.8836 28.8026C25.9464 28.7817 26.0082 28.7582 26.069 28.7329Z" fill="white"/>
<path d="M266.121 32.6357C266.121 38.0187 261.739 42.3823 256.333 42.3823C250.927 42.3823 246.545 38.0187 246.545 32.6357C246.545 27.2529 250.927 22.8892 256.333 22.8892C261.739 22.8892 266.121 27.2529 266.121 32.6357ZM251.439 32.6357C251.439 35.3272 253.631 37.509 256.333 37.509C259.036 37.509 261.227 35.3272 261.227 32.6357C261.227 29.9443 259.036 27.7625 256.333 27.7625C253.631 27.7625 251.439 29.9443 251.439 32.6357Z" fill="#555555"/>
<path d="M147.6 32.6357V25.3258C147.6 23.9801 146.503 22.8892 145.153 22.8892C143.801 22.8892 142.706 23.9801 142.706 25.3258V32.6357C142.706 35.3272 140.514 37.509 137.812 37.509C135.108 37.509 132.917 35.3272 132.917 32.6357V25.3258C132.917 23.9801 131.821 22.8892 130.47 22.8892C129.119 22.8892 128.023 23.9801 128.023 25.3258V32.6357C128.023 38.0187 132.406 42.3823 137.812 42.3823C143.217 42.3823 147.6 38.0187 147.6 32.6357Z" fill="#555555"/>
<path d="M192.193 32.6357V25.3258C192.193 23.9801 191.097 22.8892 189.746 22.8892C188.395 22.8892 187.299 23.9801 187.299 25.3258V32.6357C187.299 35.3272 185.108 37.509 182.405 37.509C179.702 37.509 177.511 35.3272 177.511 32.6357V25.3258C177.511 23.9801 176.415 22.8892 175.064 22.8892C173.712 22.8892 172.617 23.9801 172.617 25.3258V32.6357C172.617 38.0187 176.999 42.3823 182.405 42.3823C187.81 42.3823 192.193 38.0187 192.193 32.6357Z" fill="#555555"/>
<path d="M125.625 32.6357V25.3258C125.625 23.9801 124.529 22.8892 123.178 22.8892C121.826 22.8892 120.731 23.9801 120.731 25.3258V32.6357C120.731 35.3272 118.539 37.509 115.837 37.509C113.133 37.509 110.943 35.3272 110.943 32.6357V25.3258C110.943 23.9801 109.847 22.8892 108.496 22.8892C107.144 22.8892 106.049 23.9801 106.049 25.3258V32.6357C106.049 38.0187 110.431 42.3823 115.837 42.3823C121.242 42.3823 125.625 38.0187 125.625 32.6357Z" fill="#555555"/>
<path fill-rule="evenodd" clip-rule="evenodd" d="M169.193 32.6358C169.193 38.0187 164.811 42.3823 159.405 42.3823C154 42.3823 149.617 38.0187 149.617 32.6358C149.617 27.2529 154 22.8892 159.405 22.8892C161.189 22.8892 162.86 23.3638 164.299 24.1931V15.5792C164.299 14.2335 165.396 13.1426 166.746 13.1426C168.098 13.1426 169.193 14.2335 169.193 15.5792V24.1075V32.6358ZM159.405 37.509C156.703 37.509 154.511 35.3272 154.511 32.6358C154.511 29.9443 156.703 27.7625 159.405 27.7625C162.109 27.7625 164.299 29.9443 164.299 32.6358C164.299 35.3272 162.109 37.509 159.405 37.509Z" fill="#555555"/>
<path d="M246.545 15.5792C246.545 14.2335 247.64 13.1426 248.992 13.1426C250.344 13.1426 251.439 14.2335 251.439 15.5792V32.6358H246.545V15.5792Z" fill="#555555"/>
<path fill-rule="evenodd" clip-rule="evenodd" d="M233.993 42.3823C228.587 42.3823 224.205 38.0187 224.205 32.6357C224.205 27.2529 228.587 22.8892 233.993 22.8892C239.399 22.8892 243.781 27.2529 243.781 32.6357V36.2907V39.9457C243.781 41.2914 242.685 42.3823 241.334 42.3823C240.342 42.3823 239.488 41.7946 239.104 40.9498C237.616 41.8585 235.866 42.3823 233.993 42.3823ZM233.993 37.509C231.29 37.509 229.099 35.3272 229.099 32.6357C229.099 29.9443 231.29 27.7625 233.993 27.7625C236.696 27.7625 238.887 29.9443 238.887 32.6357C238.887 35.3272 236.696 37.509 233.993 37.509Z" fill="#555555"/>
<path d="M214.417 42.4389C211.821 42.4389 209.331 41.4121 207.496 39.5842C205.66 37.7563 204.629 35.2773 204.629 32.6923V15.5792C204.629 14.2335 205.724 13.1426 207.076 13.1426C208.427 13.1426 209.523 14.2335 209.523 15.5792V32.6923C209.523 33.9848 210.039 35.2244 210.956 36.1383C211.874 37.0521 213.119 37.5656 214.417 37.5656H221.758C223.109 37.5656 224.205 38.6565 224.205 40.0022C224.205 41.3479 223.109 42.4389 221.758 42.4389H214.417Z" fill="#555555"/>
<path d="M98.8584 29.3004C99.3175 29.7574 99.939 30.0142 100.589 30.0142C101.238 30.0142 101.859 29.7574 102.319 29.3004C102.778 28.8435 103.036 28.2237 103.036 27.5775C103.036 26.9312 102.778 26.3115 102.319 25.8545C100.95 24.4914 99.2059 23.5634 97.307 23.1873C95.4083 22.8112 93.4402 23.0042 91.6518 23.7419C89.8632 24.4797 88.3345 25.7289 87.259 27.3317C86.1834 28.9345 85.6094 30.8189 85.6094 32.7466C85.6094 34.6743 86.1834 36.5587 87.259 38.1615C88.3345 39.7643 89.8632 41.0136 91.6518 41.7513C93.4402 42.489 95.4083 42.682 97.307 42.3059C99.2059 41.9298 100.95 41.0016 102.319 39.6385C102.546 39.4122 102.727 39.144 102.849 38.8484C102.972 38.5528 103.036 38.2359 103.036 37.9159C103.036 37.5959 102.972 37.2791 102.849 36.9835C102.727 36.6878 102.546 36.4192 102.319 36.1929C102.091 35.9667 101.822 35.7872 101.525 35.6647C101.228 35.5423 100.91 35.4793 100.589 35.4793C100.267 35.4793 99.9488 35.5423 99.6522 35.6647C99.3547 35.7872 99.0855 35.9667 98.8584 36.1929C98.1733 36.8745 97.3015 37.3382 96.3522 37.5262C95.4029 37.7143 94.4189 37.6178 93.5246 37.249C92.6303 36.8801 91.8659 36.2555 91.3282 35.454C90.7904 34.6527 90.5034 33.7105 90.5034 32.7466C90.5034 31.7828 90.7904 30.8406 91.3282 30.0391C91.8659 29.2377 92.6303 28.6131 93.5246 28.2443C94.4189 27.8755 95.4029 27.7789 96.3522 27.967C97.3015 28.155 98.1733 28.6189 98.8584 29.3004Z" fill="#555555"/>
<path d="M62.8125 21.8419C62.8125 17.1443 67.0596 13.0205 72.6831 13.0205C76.0618 13.0205 79.0828 14.4567 81.1154 16.8191C81.6072 17.3088 81.8834 17.9728 81.8834 18.6652C81.8834 19.3577 81.6072 20.0218 81.1154 20.5113C80.6238 21.001 79.9569 21.2761 79.2615 21.2761C78.5661 21.2761 77.8993 21.001 77.4075 20.5113C76.3458 19.1688 74.7049 18.0789 72.4354 18.0789C70.052 18.0789 68.3467 19.7491 68.3467 21.5951C68.3467 22.1959 68.5041 22.6989 68.8001 23.1189C69.0939 23.536 69.5134 23.8562 70.0145 24.1124C71.0081 24.6204 72.3772 24.9029 73.8787 25.1691L73.8797 25.1692L73.8806 25.1694C75.9422 25.5185 78.2922 26.0572 80.1245 27.2701C81.9389 28.4714 83.2559 30.3396 83.2559 33.3979C83.2559 38.2061 78.6928 42.2603 72.8896 42.2603C69.3282 42.2603 66.3054 40.9251 64.2444 38.7121C64.0048 38.4734 63.8146 38.1901 63.6849 37.8782C63.5552 37.5664 63.4884 37.2322 63.4884 36.8946C63.4884 36.5571 63.5552 36.2228 63.6849 35.9111C63.8146 35.5992 64.0048 35.3158 64.2444 35.0771C64.4841 34.8384 64.7686 34.6492 65.0819 34.52C65.395 34.3908 65.7307 34.3243 66.0697 34.3243C66.4086 34.3243 66.7443 34.3908 67.0575 34.52C67.3706 34.6492 67.6552 34.8384 67.8949 35.0771C69.0053 36.3774 70.6813 37.243 72.8896 37.243C75.5695 37.243 77.7217 35.6013 77.7217 33.439C77.7217 32.8224 77.5745 32.317 77.2916 31.9033C77.0101 31.4915 76.6072 31.1891 76.1269 30.9555C75.189 30.4991 73.8952 30.2783 72.4807 30.0369L72.436 30.0292L72.4352 30.0291C70.3524 29.68 67.9392 29.141 66.0491 27.9315C64.1766 26.7332 62.8125 24.8748 62.8125 21.8419Z" fill="#555555"/>
<path d="M268.166 29.1569C268.166 25.7653 271.197 22.9458 275.015 22.9458C277.303 22.9458 279.366 23.9159 280.762 25.5256C281.209 25.9835 281.459 26.597 281.459 27.2362C281.459 27.8875 281.199 28.5122 280.737 28.9727C280.274 29.4333 279.646 29.692 278.993 29.692C278.339 29.692 277.711 29.4333 277.248 28.9727L277.18 28.8951C276.672 28.2528 275.918 27.7589 274.865 27.7589C273.82 27.7589 273.273 28.4615 273.273 29.0077C273.273 29.2087 273.289 29.3185 273.36 29.4724C273.467 29.7085 273.585 29.8324 273.804 29.9445C274.267 30.1815 274.962 30.2376 275.89 30.4021C277.148 30.6152 278.728 30.8657 280.002 31.7088C281.329 32.5873 282.289 33.9834 282.289 36.1444C282.289 39.6479 279.015 42.3804 275.14 42.3804C272.764 42.3804 270.701 41.4883 269.277 39.9654C269.056 39.7423 268.881 39.4787 268.76 39.1893C268.638 38.8942 268.574 38.5782 268.574 38.2589C268.574 37.9396 268.638 37.6234 268.76 37.3284C268.883 37.0334 269.063 36.7654 269.29 36.5396C269.516 36.3138 269.785 36.1347 270.082 36.0126C270.378 35.8903 270.695 35.8275 271.016 35.8275C271.336 35.8275 271.654 35.8903 271.95 36.0126C272.247 36.1347 272.516 36.3138 272.743 36.5396L272.791 36.5916C273.291 37.1771 274.056 37.5923 275.14 37.5923C276.487 37.5923 277.181 36.8047 277.181 36.1693C277.181 35.9417 277.172 35.8453 277.101 35.6855C276.993 35.4468 276.888 35.3585 276.635 35.235C276.206 35.0265 275.644 35.033 274.744 34.8793L274.719 34.8751V34.875L274.718 34.8748C273.449 34.6621 271.833 34.4126 270.527 33.5771C269.169 32.7081 268.166 31.3195 268.166 29.1569Z" fill="#555555"/>
</g>
<defs>
<clipPath id="clip0_468_344">
<rect width="282.386" height="50" fill="white" transform="translate(0 0.980469)"/>
</clipPath>
</defs>
</svg>
