<svg width="49" height="49" viewBox="0 0 49 49" fill="none" xmlns="http://www.w3.org/2000/svg">
<rect x="0.259766" y="0.665039" width="48" height="48" rx="24" fill="#514026" fill-opacity="0.5"/>
<path d="M34.9258 16.665H13.5924C12.1216 16.665 10.9258 17.8609 10.9258 19.3317V29.9984C10.9258 31.4692 12.1216 32.665 13.5924 32.665H18.6091C19.6174 32.665 20.5424 32.0942 20.9924 31.19L22.3258 28.5234C22.6924 27.7942 23.4383 27.3317 24.2549 27.3317C25.0716 27.3317 25.8174 27.7942 26.1841 28.5234L27.5174 31.19C27.9674 32.0942 28.8924 32.665 29.9008 32.665H34.9258C36.3966 32.665 37.5924 31.4692 37.5924 29.9984V19.3317C37.5924 17.8609 36.3966 16.665 34.9258 16.665ZM14.9258 23.9984C14.9258 23.2911 15.2067 22.6129 15.7068 22.1128C16.2069 21.6127 16.8852 21.3317 17.5924 21.3317C18.2997 21.3317 18.978 21.6127 19.4781 22.1128C19.9782 22.6129 20.2591 23.2911 20.2591 23.9984C20.2591 24.7056 19.9782 25.3839 19.4781 25.884C18.978 26.3841 18.2997 26.665 17.5924 26.665C16.8852 26.665 16.2069 26.3841 15.7068 25.884C15.2067 25.3839 14.9258 24.7056 14.9258 23.9984ZM30.9258 21.3317C31.633 21.3317 32.3113 21.6127 32.8114 22.1128C33.3115 22.6129 33.5924 23.2911 33.5924 23.9984C33.5924 24.7056 33.3115 25.3839 32.8114 25.884C32.3113 26.3841 31.633 26.665 30.9258 26.665C30.2185 26.665 29.5403 26.3841 29.0402 25.884C28.5401 25.3839 28.2591 24.7056 28.2591 23.9984C28.2591 23.2911 28.5401 22.6129 29.0402 22.1128C29.5403 21.6127 30.2185 21.3317 30.9258 21.3317Z" fill="white"/>
</svg>
