<?xml version="1.0" encoding="UTF-8"?>
<!DOCTYPE svg PUBLIC "-//W3C//DTD SVG 1.1//EN" "http://www.w3.org/Graphics/SVG/1.1/DTD/svg11.dtd">
<svg xmlns="http://www.w3.org/2000/svg" version="1.1" width="315px" height="433px" style="shape-rendering:geometricPrecision; text-rendering:geometricPrecision; image-rendering:optimizeQuality; fill-rule:evenodd; clip-rule:evenodd" xmlns:xlink="http://www.w3.org/1999/xlink">
<g><path style="opacity:1" fill="#3d2a13" d="M 302.5,40.5 C 302.5,36.1667 302.5,31.8333 302.5,27.5C 302.631,26.7611 302.464,26.0944 302,25.5C 301.311,26.3567 300.478,27.0233 299.5,27.5C 290.484,23.3081 281.15,22.4747 271.5,25C 268.898,25.8834 266.731,27.3834 265,29.5C 263.037,41.9094 260.704,54.2427 258,66.5C 249.648,77.8874 241.814,89.5541 234.5,101.5C 233.833,100.167 232.833,99.1667 231.5,98.5C 230.167,96.8333 228.833,95.1667 227.5,93.5C 229.924,90.9922 231.59,87.9922 232.5,84.5C 238.689,73.4661 245.522,62.7995 253,52.5C 255.463,41.5945 257.463,30.5945 259,19.5C 259.346,17.1523 260.513,15.3189 262.5,14C 272.824,9.38736 283.157,9.38736 293.5,14C 298.05,16.883 301.55,20.7163 304,25.5C 304.149,30.6747 303.649,35.6747 302.5,40.5 Z"/></g>
<g><path style="opacity:1" fill="#593c1b" d="M 302.5,27.5 C 300.771,28.1175 299.271,29.1175 298,30.5C 292.895,39.4923 286.895,47.8256 280,55.5C 270.893,63.7267 261.56,71.7267 252,79.5C 248.614,89.2646 244.447,98.598 239.5,107.5C 237.863,105.525 236.196,103.525 234.5,101.5C 241.814,89.5541 249.648,77.8874 258,66.5C 260.704,54.2427 263.037,41.9094 265,29.5C 266.731,27.3834 268.898,25.8834 271.5,25C 281.15,22.4747 290.484,23.3081 299.5,27.5C 300.478,27.0233 301.311,26.3567 302,25.5C 302.464,26.0944 302.631,26.7611 302.5,27.5 Z"/></g>
<g><path style="opacity:1" fill="#694820" d="M 302.5,27.5 C 302.5,31.8333 302.5,36.1667 302.5,40.5C 295.658,52.1744 287.825,63.1744 279,73.5C 270.333,80.8333 261.667,88.1667 253,95.5C 251.629,99.0732 250.129,102.573 248.5,106C 251.097,106.779 251.097,107.279 248.5,107.5C 248.167,107.5 247.833,107.5 247.5,107.5C 245.707,109.426 244.707,111.759 244.5,114.5C 242.478,112.469 240.811,110.135 239.5,107.5C 244.447,98.598 248.614,89.2646 252,79.5C 261.56,71.7267 270.893,63.7267 280,55.5C 286.895,47.8256 292.895,39.4923 298,30.5C 299.271,29.1175 300.771,28.1175 302.5,27.5 Z"/></g>
<g><path style="opacity:0.004" fill="#fefffe" d="M 182.5,45.5 C 182.167,45.5 181.833,45.5 181.5,45.5C 180.209,45.7373 179.209,45.404 178.5,44.5C 179.962,43.5291 181.295,43.8624 182.5,45.5 Z"/></g>
<g><path style="opacity:1" fill="#ceae73" d="M 167.5,46.5 C 170.332,48.08 173.332,49.4134 176.5,50.5C 177.484,66.089 177.817,81.7556 177.5,97.5C 171.394,93.5186 164.727,91.6853 157.5,92C 144.346,97.4031 132.346,104.57 121.5,113.5C 121.333,96.4967 121.5,79.4967 122,62.5C 123.045,61.6266 123.878,60.6266 124.5,59.5C 130.58,54.4627 137.246,50.4627 144.5,47.5C 148.76,46.305 153.093,45.305 157.5,44.5C 160.887,44.9639 164.22,45.6306 167.5,46.5 Z"/></g>
<g><path style="opacity:0.004" fill="#000000" d="M 129.5,47.5 C 128.833,46.1667 128.833,46.1667 129.5,47.5 Z"/></g>
<g><path style="opacity:0.004" fill="#fefffe" d="M 186.5,48.5 C 187.5,48.8333 188.167,49.5 188.5,50.5C 188.565,50.9382 188.399,51.2716 188,51.5C 186.961,50.7562 186.461,49.7562 186.5,48.5 Z"/></g>
<g><path style="opacity:0.004" fill="#f0f0f0" d="M 191.5,50.5 C 192.5,50.8333 193.167,51.5 193.5,52.5C 194.087,53.7666 194.087,54.7666 193.5,55.5C 192.77,54.0663 191.77,52.8996 190.5,52C 191.056,51.6174 191.389,51.1174 191.5,50.5 Z"/></g>
<g><path style="opacity:1" fill="#cdad72" d="M 184.5,55.5 C 191.086,59.095 197.086,63.4283 202.5,68.5C 203.539,70.5311 205.205,71.8645 207.5,72.5C 214.891,78.8886 221.557,85.8886 227.5,93.5C 228.833,95.1667 230.167,96.8333 231.5,98.5C 227.7,109.369 224.367,120.369 221.5,131.5C 220.833,131.5 220.5,131.833 220.5,132.5C 209.275,119.602 196.275,108.935 181.5,100.5C 181.333,85.163 181.5,69.8297 182,54.5C 182.671,55.2524 183.504,55.5858 184.5,55.5 Z"/></g>
<g><path style="opacity:0.004" fill="#fefffe" d="M 112.5,58.5 C 111.833,57.1667 111.833,57.1667 112.5,58.5 Z"/></g>
<g><path style="opacity:0.004" fill="#fefffe" d="M 201.5,57.5 C 203.144,57.8102 204.144,58.8102 204.5,60.5C 203.833,60.5 203.167,60.5 202.5,60.5C 201.89,59.609 201.557,58.609 201.5,57.5 Z"/></g>
<g><path style="opacity:0.012" fill="#767676" d="M 200.5,57.5 C 200.833,57.5 201.167,57.5 201.5,57.5C 201.557,58.609 201.89,59.609 202.5,60.5C 203.463,61.3635 203.463,62.0302 202.5,62.5C 200.947,61.561 199.613,60.3943 198.5,59C 198.836,57.9701 199.503,57.4701 200.5,57.5 Z"/></g>
<g><path style="opacity:0.999" fill="#803019" d="M 120.5,62.5 C 120.667,80.1698 120.5,97.8365 120,115.5C 113.636,120.698 107.803,126.365 102.5,132.5C 102.737,131.209 102.404,130.209 101.5,129.5C 98.5326,117.893 94.6993,106.56 90,95.5C 89.0471,93.6269 87.8804,93.2935 86.5,94.5C 96.2453,82.0863 107.579,71.4196 120.5,62.5 Z"/></g>
<g><path style="opacity:0.004" fill="#8d8d8d" d="M 208.5,63.5 C 209.167,63.5 209.5,63.8333 209.5,64.5C 209.587,67.5983 209.087,67.9316 208,65.5C 207.667,65.8333 207.333,66.1667 207,66.5C 206.308,65.5632 206.475,64.8966 207.5,64.5C 208.167,64.5 208.5,64.1667 208.5,63.5 Z"/></g>
<g><path style="opacity:0.004" fill="#e4e4e4" d="M 98.5,70.5 C 98.7373,71.791 98.404,72.791 97.5,73.5C 96.1854,72.1054 96.5188,71.1054 98.5,70.5 Z"/></g>
<g><path style="opacity:0.004" fill="#fefffe" d="M 95.5,73.5 C 96.6793,75.409 96.346,75.7424 94.5,74.5C 94.5,73.8333 94.8333,73.5 95.5,73.5 Z"/></g>
<g><path style="opacity:0.004" fill="#dddddd" d="M 222.5,76.5 C 223.167,76.5 223.5,76.8333 223.5,77.5C 221.654,78.7424 221.321,78.409 222.5,76.5 Z"/></g>
<g><path style="opacity:0.004" fill="#c6c6c6" d="M 82.5,87.5 C 82.9382,87.4346 83.2716,87.6012 83.5,88C 82.4734,88.5133 81.4734,89.0133 80.5,89.5C 80.5,88.1667 81.1667,87.5 82.5,87.5 Z"/></g>
<g><path style="opacity:0.004" fill="#000000" d="M 78.5,90.5 C 77.8333,89.1667 77.8333,89.1667 78.5,90.5 Z"/></g>
<g><path style="opacity:0.008" fill="#949494" d="M 78.5,91.5 C 79.1331,91.8795 79.7997,92.2129 80.5,92.5C 79.2342,93.3624 77.9008,94.0291 76.5,94.5C 75.3264,92.6322 75.9931,91.6322 78.5,91.5 Z"/></g>
<g><path style="opacity:1" fill="#b39662" d="M 177.5,97.5 C 177.5,109.167 177.5,120.833 177.5,132.5C 162.566,122.851 146.233,118.018 128.5,118C 126.283,119.723 123.95,121.223 121.5,122.5C 121.5,119.5 121.5,116.5 121.5,113.5C 132.346,104.57 144.346,97.4031 157.5,92C 164.727,91.6853 171.394,93.5186 177.5,97.5 Z"/></g>
<g><path style="opacity:1" fill="#cdad72" d="M 101.5,129.5 C 101.66,131.199 101.494,132.866 101,134.5C 99.4645,137.294 97.2978,139.294 94.5,140.5C 90.3875,128.109 85.0541,116.276 78.5,105C 80.1412,103.871 81.1412,102.371 81.5,100.5C 83.914,99.0892 85.5806,97.0892 86.5,94.5C 87.8804,93.2935 89.0471,93.6269 90,95.5C 94.6993,106.56 98.5326,117.893 101.5,129.5 Z"/></g>
<g><path style="opacity:0.882" fill="#894c2e" d="M 86.5,94.5 C 85.5806,97.0892 83.914,99.0892 81.5,100.5C 82.4194,97.9108 84.086,95.9108 86.5,94.5 Z"/></g>
<g><path style="opacity:1" fill="#95673e" d="M 176.5,50.5 C 177.492,50.3284 178.158,50.6618 178.5,51.5C 177.838,96.8457 178.505,141.846 180.5,186.5C 180.833,186.5 181.167,186.5 181.5,186.5C 180.432,187.434 179.099,187.768 177.5,187.5C 177.5,169.167 177.5,150.833 177.5,132.5C 177.5,120.833 177.5,109.167 177.5,97.5C 177.817,81.7556 177.484,66.089 176.5,50.5 Z"/></g>
<g><path style="opacity:1" fill="#78391c" d="M 178.5,51.5 C 179.71,51.9321 180.71,52.5987 181.5,53.5C 180.501,97.6635 180.168,141.997 180.5,186.5C 178.505,141.846 177.838,96.8457 178.5,51.5 Z"/></g>
<g><path style="opacity:0.999" fill="#803019" d="M 231.5,98.5 C 232.833,99.1667 233.833,100.167 234.5,101.5C 236.196,103.525 237.863,105.525 239.5,107.5C 240.811,110.135 242.478,112.469 244.5,114.5C 249.963,123.036 254.963,131.869 259.5,141C 259.333,141.5 259.167,142 259,142.5C 258.632,141.09 257.799,140.09 256.5,139.5C 249.604,143.447 242.604,147.114 235.5,150.5C 230.781,145.423 226.281,140.09 222,134.5C 221.517,133.552 221.351,132.552 221.5,131.5C 224.367,120.369 227.7,109.369 231.5,98.5 Z"/></g>
<g><path style="opacity:1" fill="#87502d" d="M 181.5,53.5 C 183.027,53.427 184.027,54.0937 184.5,55.5C 183.504,55.5858 182.671,55.2524 182,54.5C 181.5,69.8297 181.333,85.163 181.5,100.5C 181.5,112.167 181.5,123.833 181.5,135.5C 181.5,152.5 181.5,169.5 181.5,186.5C 181.167,186.5 180.833,186.5 180.5,186.5C 180.168,141.997 180.501,97.6635 181.5,53.5 Z"/></g>
<g><path style="opacity:1" fill="#b29561" d="M 181.5,100.5 C 196.275,108.935 209.275,119.602 220.5,132.5C 217.913,141.768 215.58,151.101 213.5,160.5C 203.96,150.616 193.294,142.282 181.5,135.5C 181.5,123.833 181.5,112.167 181.5,100.5 Z"/></g>
<g><path style="opacity:0.999" fill="#82331b" d="M 81.5,100.5 C 81.1412,102.371 80.1412,103.871 78.5,105C 85.0541,116.276 90.3875,128.109 94.5,140.5C 94.5,140.833 94.5,141.167 94.5,141.5C 93.588,143.595 92.4213,145.595 91,147.5C 90.1841,148.823 89.0174,149.489 87.5,149.5C 82.9612,138.086 77.1279,127.42 70,117.5C 69.6232,118.942 68.7899,119.942 67.5,120.5C 71.0061,112.998 75.6727,106.332 81.5,100.5 Z"/></g>
<g><path style="opacity:0.032" fill="#191818" d="M 247.5,107.5 C 247.5,108.833 248.167,109.5 249.5,109.5C 250.931,110.082 252.264,110.915 253.5,112C 253.167,112.333 252.833,112.667 252.5,113C 254.5,114.324 256.167,115.991 257.5,118C 257.167,118.333 256.833,118.667 256.5,119C 259.428,122.029 261.428,125.529 262.5,129.5C 261.761,129.369 261.094,129.536 260.5,130C 261.701,130.903 262.535,132.069 263,133.5C 263.383,132.944 263.883,132.611 264.5,132.5C 265.338,132.842 265.672,133.508 265.5,134.5C 264.778,134.918 264.278,135.584 264,136.5C 263.667,136.167 263.333,135.833 263,135.5C 262.333,136.5 262.333,137.5 263,138.5C 263.333,138.167 263.667,137.833 264,137.5C 265.271,138.883 266.771,139.883 268.5,140.5C 268.5,140.833 268.5,141.167 268.5,141.5C 267.957,141.56 267.624,141.893 267.5,142.5C 268.243,143.182 268.909,143.849 269.5,144.5C 269.833,145.833 270.167,145.833 270.5,144.5C 273.613,152.814 276.946,161.481 280.5,170.5C 280.291,171.086 279.957,171.586 279.5,172C 279.956,175.434 280.956,178.934 282.5,182.5C 288.652,182.11 295.152,181.777 302,181.5C 305.355,181.752 307.688,183.419 309,186.5C 310.216,193.161 311.382,199.495 312.5,205.5C 311.646,207.035 311.646,208.368 312.5,209.5C 312.686,211.008 313.352,212.675 314.5,214.5C 314.5,215.5 314.5,216.5 314.5,217.5C 313.167,218.167 313.167,218.833 314.5,219.5C 314.5,219.833 314.5,220.167 314.5,220.5C 313.167,220.833 313.167,221.167 314.5,221.5C 314.5,221.833 314.5,222.167 314.5,222.5C 313.167,222.833 313.167,223.167 314.5,223.5C 314.5,230.167 314.5,236.833 314.5,243.5C 311.208,245.062 307.708,246.062 304,246.5C 301.521,245.313 299.021,245.313 296.5,246.5C 295.5,246.167 294.5,245.833 293.5,245.5C 292.002,242.875 290.335,240.542 288.5,238.5C 286.806,237.473 285.473,236.139 284.5,234.5C 284.911,231.447 285.577,228.447 286.5,225.5C 289.086,224.52 291.753,224.187 294.5,224.5C 294.197,229.43 294.531,234.263 295.5,239C 300.167,239.667 304.833,239.667 309.5,239C 310,238.5 310.5,238 311,237.5C 310.808,219.582 308.642,201.915 304.5,184.5C 296.166,183.184 287.833,183.351 279.5,185C 277.799,188.637 276.799,192.47 276.5,196.5C 275.883,196.389 275.383,196.056 275,195.5C 274.571,190.953 273.738,186.619 272.5,182.5C 272.5,182.167 272.5,181.833 272.5,181.5C 272.59,178.848 271.924,176.515 270.5,174.5C 270.3,171.37 269.634,168.37 268.5,165.5C 266.493,158.312 263.993,151.312 261,144.5C 255.131,152.238 250.298,160.572 246.5,169.5C 242.346,163.87 238.679,157.87 235.5,151.5C 235.5,151.167 235.5,150.833 235.5,150.5C 242.604,147.114 249.604,143.447 256.5,139.5C 257.799,140.09 258.632,141.09 259,142.5C 259.167,142 259.333,141.5 259.5,141C 254.963,131.869 249.963,123.036 244.5,114.5C 244.707,111.759 245.707,109.426 247.5,107.5 Z"/></g>
<g><path style="opacity:0.004" fill="#dddddd" d="M 247.5,107.5 C 247.833,107.5 248.167,107.5 248.5,107.5C 248.833,108.167 249.167,108.833 249.5,109.5C 248.167,109.5 247.5,108.833 247.5,107.5 Z"/></g>
<g><path style="opacity:0.024" fill="#191818" d="M 178.5,44.5 C 179.209,45.404 180.209,45.7373 181.5,45.5C 181.833,46.8333 182.167,46.8333 182.5,45.5C 183.239,45.369 183.906,45.5357 184.5,46C 183.66,47.6665 184.16,47.8331 186,46.5C 186.464,47.0944 186.631,47.7611 186.5,48.5C 186.461,49.7562 186.961,50.7562 188,51.5C 188.399,51.2716 188.565,50.9382 188.5,50.5C 189.5,50.5 190.5,50.5 191.5,50.5C 191.389,51.1174 191.056,51.6174 190.5,52C 191.77,52.8996 192.77,54.0663 193.5,55.5C 194.087,54.7666 194.087,53.7666 193.5,52.5C 195.027,52.427 196.027,53.0937 196.5,54.5C 195.957,54.56 195.624,54.8933 195.5,55.5C 196.257,56.7733 196.923,56.7733 197.5,55.5C 198.758,54.9836 199.758,55.6503 200.5,57.5C 199.503,57.4701 198.836,57.9701 198.5,59C 199.613,60.3943 200.947,61.561 202.5,62.5C 203.463,62.0302 203.463,61.3635 202.5,60.5C 203.167,60.5 203.833,60.5 204.5,60.5C 206.23,61.0256 207.564,62.0256 208.5,63.5C 207.833,63.5 207.5,63.8333 207.5,64.5C 206.475,64.8966 206.308,65.5632 207,66.5C 207.333,66.1667 207.667,65.8333 208,65.5C 209.087,67.9316 209.587,67.5983 209.5,64.5C 212.818,65.9861 215.318,68.3194 217,71.5C 217.333,71.1667 217.667,70.8333 218,70.5C 219.172,72.8106 220.672,74.8106 222.5,76.5C 221.321,78.409 221.654,78.7424 223.5,77.5C 226.124,78.7901 228.124,80.7901 229.5,83.5C 230.325,84.3857 231.325,84.719 232.5,84.5C 231.59,87.9922 229.924,90.9922 227.5,93.5C 221.557,85.8886 214.891,78.8886 207.5,72.5C 206.421,70.457 204.754,69.1237 202.5,68.5C 197.086,63.4283 191.086,59.095 184.5,55.5C 184.027,54.0937 183.027,53.427 181.5,53.5C 180.71,52.5987 179.71,51.9321 178.5,51.5C 178.158,50.6618 177.492,50.3284 176.5,50.5C 173.332,49.4134 170.332,48.08 167.5,46.5C 159.691,42.3783 152.025,42.7117 144.5,47.5C 137.246,50.4627 130.58,54.4627 124.5,59.5C 122.596,59.7376 121.262,60.7376 120.5,62.5C 107.579,71.4196 96.2453,82.0863 86.5,94.5C 84.086,95.9108 82.4194,97.9108 81.5,100.5C 75.6727,106.332 71.0061,112.998 67.5,120.5C 65.336,122.822 63.6693,125.489 62.5,128.5C 53.9616,142.772 47.9616,158.105 44.5,174.5C 43.5655,175.568 43.2322,176.901 43.5,178.5C 42.7487,181.246 41.7487,183.913 40.5,186.5C 34.3505,183.974 28.0172,183.308 21.5,184.5C 22.1667,183.833 22.8333,183.167 23.5,182.5C 26.5,182.5 29.5,182.5 32.5,182.5C 32.9628,179.779 33.6295,177.112 34.5,174.5C 35.7562,174.539 36.7562,174.039 37.5,173C 37.0879,171.436 36.7546,169.936 36.5,168.5C 36.5,167.833 36.5,167.167 36.5,166.5C 38.409,167.679 38.7424,167.346 37.5,165.5C 37.5,165.167 37.5,164.833 37.5,164.5C 39.7619,163.655 40.4286,162.322 39.5,160.5C 39.5,159.833 39.1667,159.5 38.5,159.5C 38.9175,158.778 39.5842,158.278 40.5,158C 40.1667,157 39.8333,156 39.5,155C 40.0442,154.283 40.7109,153.783 41.5,153.5C 42.1577,154.398 42.8243,155.398 43.5,156.5C 43.6072,153.611 44.9405,150.944 47.5,148.5C 47.1207,146.787 46.1207,145.787 44.5,145.5C 44.3893,144.883 44.056,144.383 43.5,144C 45.0629,143.241 46.0629,142.074 46.5,140.5C 47.5063,140.062 47.5063,139.396 46.5,138.5C 47.4013,137.71 48.0679,136.71 48.5,135.5C 51.3091,135.042 51.9758,133.709 50.5,131.5C 53.2936,127.577 55.2936,123.243 56.5,118.5C 57.552,118.649 58.552,118.483 59.5,118C 58.8334,116.143 59.5001,114.643 61.5,113.5C 63.3383,111.145 64.8383,108.479 66,105.5C 66.7504,104.874 67.5838,104.374 68.5,104C 68.1667,103.667 67.8333,103.333 67.5,103C 70.5663,100.066 73.5663,97.2324 76.5,94.5C 77.9008,94.0291 79.2342,93.3624 80.5,92.5C 79.7997,92.2129 79.1331,91.8795 78.5,91.5C 78.5,91.1667 78.5,90.8333 78.5,90.5C 79.1667,90.1667 79.8333,89.8333 80.5,89.5C 81.4734,89.0133 82.4734,88.5133 83.5,88C 83.2716,87.6012 82.9382,87.4346 82.5,87.5C 82.3537,85.0576 83.187,84.3909 85,85.5C 84.8246,82.1824 86.3246,80.1824 89.5,79.5C 89.369,78.7611 89.5357,78.0944 90,77.5C 91.8402,78.8331 92.3402,78.6665 91.5,77C 92.0779,75.583 93.0779,74.7496 94.5,74.5C 96.346,75.7424 96.6793,75.409 95.5,73.5C 96.1667,73.5 96.8333,73.5 97.5,73.5C 98.404,72.791 98.7373,71.791 98.5,70.5C 101.831,66.1655 105.497,62.8322 109.5,60.5C 111.137,61.4439 112.137,60.7773 112.5,58.5C 117.49,54.8206 123.157,51.1539 129.5,47.5C 131.694,46.6829 134.028,45.1829 136.5,43C 141.532,42.2895 146.532,40.7895 151.5,38.5C 157.729,38.1859 164.062,38.6859 170.5,40C 173.424,41.1195 176.091,42.6195 178.5,44.5 Z"/></g>
<g><path style="opacity:0.004" fill="#dddddd" d="M 89.5,79.5 C 92.0009,79.5109 92.1676,80.1776 90,81.5C 89.5357,80.9056 89.369,80.2389 89.5,79.5 Z"/></g>
<g><path style="opacity:0.824" fill="#83452b" d="M 202.5,68.5 C 204.754,69.1237 206.421,70.457 207.5,72.5C 205.205,71.8645 203.539,70.5311 202.5,68.5 Z"/></g>
<g><path style="opacity:0.004" fill="#dddddd" d="M 213.5,70.5 C 214.077,69.2267 214.743,69.2267 215.5,70.5C 215.03,71.463 214.363,71.463 213.5,70.5 Z"/></g>
<g><path style="opacity:0.004" fill="#dddddd" d="M 196.5,54.5 C 196.5,55.1667 196.833,55.5 197.5,55.5C 196.923,56.7733 196.257,56.7733 195.5,55.5C 195.624,54.8933 195.957,54.56 196.5,54.5 Z"/></g>
<g><path style="opacity:0.455" fill="#874528" d="M 167.5,46.5 C 164.22,45.6306 160.887,44.9639 157.5,44.5C 153.093,45.305 148.76,46.305 144.5,47.5C 152.025,42.7117 159.691,42.3783 167.5,46.5 Z"/></g>
<g><path style="opacity:0.004" fill="#fefffe" d="M 61.5,113.5 C 64.0009,113.511 64.1676,114.178 62,115.5C 61.5357,114.906 61.369,114.239 61.5,113.5 Z"/></g>
<g><path style="opacity:1" fill="#7d391f" d="M 124.5,59.5 C 123.878,60.6266 123.045,61.6266 122,62.5C 121.5,79.4967 121.333,96.4967 121.5,113.5C 121.5,116.5 121.5,119.5 121.5,122.5C 121.5,122.833 121.5,123.167 121.5,123.5C 115.434,128.563 110.101,134.23 105.5,140.5C 104.007,138.098 103.007,135.431 102.5,132.5C 107.803,126.365 113.636,120.698 120,115.5C 120.5,97.8365 120.667,80.1698 120.5,62.5C 121.262,60.7376 122.596,59.7376 124.5,59.5 Z"/></g>
<g><path style="opacity:1" fill="#9e8253" d="M 177.5,132.5 C 177.5,150.833 177.5,169.167 177.5,187.5C 176.833,191.833 176.167,196.167 175.5,200.5C 175.665,197.15 175.498,193.817 175,190.5C 174.148,189.429 173.315,188.429 172.5,187.5C 172.586,186.504 172.252,185.671 171.5,185C 160.825,184.156 150.325,184.989 140,187.5C 139.5,201.829 139.333,216.163 139.5,230.5C 139.161,216.304 138.161,202.304 136.5,188.5C 136.489,186.983 135.823,185.816 134.5,185C 130.08,184.232 125.747,184.398 121.5,185.5C 121.5,164.833 121.5,144.167 121.5,123.5C 121.5,123.167 121.5,122.833 121.5,122.5C 123.95,121.223 126.283,119.723 128.5,118C 146.233,118.018 162.566,122.851 177.5,132.5 Z"/></g>
<g><path style="opacity:1" fill="#ccad72" d="M 87.5,149.5 C 87.5,149.833 87.5,150.167 87.5,150.5C 82.6093,159.278 77.9426,168.278 73.5,177.5C 73.0431,178.298 72.3764,178.631 71.5,178.5C 65.9553,176.297 60.6219,173.63 55.5,170.5C 55.1667,169.833 54.8333,169.167 54.5,168.5C 57.5558,155.221 60.2225,141.888 62.5,128.5C 63.6693,125.489 65.336,122.822 67.5,120.5C 68.7899,119.942 69.6232,118.942 70,117.5C 77.1279,127.42 82.9612,138.086 87.5,149.5 Z"/></g>
<g><path style="opacity:1" fill="#733c20" d="M 121.5,123.5 C 121.5,144.167 121.5,164.833 121.5,185.5C 120.542,191.744 120.209,198.077 120.5,204.5C 118.167,204.5 115.833,204.5 113.5,204.5C 113.791,198.077 113.458,191.744 112.5,185.5C 111.07,170.35 108.736,155.35 105.5,140.5C 110.101,134.23 115.434,128.563 121.5,123.5 Z"/></g>
<g><path style="opacity:0.004" fill="#d0d0d0" d="M 262.5,129.5 C 263.401,130.29 264.068,131.29 264.5,132.5C 263.883,132.611 263.383,132.944 263,133.5C 262.535,132.069 261.701,130.903 260.5,130C 261.094,129.536 261.761,129.369 262.5,129.5 Z"/></g>
<g><path style="opacity:0.004" fill="#b7b7b7" d="M 50.5,131.5 C 51.9758,133.709 51.3091,135.042 48.5,135.5C 48.7329,133.938 49.3995,132.605 50.5,131.5 Z"/></g>
<g><path style="opacity:1" fill="#76381e" d="M 221.5,131.5 C 221.351,132.552 221.517,133.552 222,134.5C 226.281,140.09 230.781,145.423 235.5,150.5C 235.5,150.833 235.5,151.167 235.5,151.5C 232.452,152.016 230.118,153.516 228.5,156C 231.943,165.498 235.276,174.998 238.5,184.5C 239.5,184.5 240.5,184.5 241.5,184.5C 238.103,185.198 234.603,185.865 231,186.5C 230.501,190.821 230.334,195.154 230.5,199.5C 229.167,200.5 227.833,201.5 226.5,202.5C 226.515,197.412 225.515,192.579 223.5,188C 218.535,186.224 213.535,186.058 208.5,187.5C 209.783,178.421 211.449,169.421 213.5,160.5C 215.58,151.101 217.913,141.768 220.5,132.5C 220.5,131.833 220.833,131.5 221.5,131.5 Z"/></g>
<g><path style="opacity:1" fill="#27221f" d="M 62.5,128.5 C 60.2225,141.888 57.5558,155.221 54.5,168.5C 54.8333,169.167 55.1667,169.833 55.5,170.5C 60.6219,173.63 65.9553,176.297 71.5,178.5C 74.8333,180.5 78.1667,182.5 81.5,184.5C 67.5193,182.512 58.5193,188.178 54.5,201.5C 53.2274,192.532 50.5608,183.866 46.5,175.5C 46.0431,174.702 45.3764,174.369 44.5,174.5C 47.9616,158.105 53.9616,142.772 62.5,128.5 Z"/></g>
<g><path style="opacity:1" fill="#9d8253" d="M 181.5,135.5 C 193.294,142.282 203.96,150.616 213.5,160.5C 211.449,169.421 209.783,178.421 208.5,187.5C 206.756,195.394 204.423,203.06 201.5,210.5C 199.158,202.806 196.658,195.14 194,187.5C 189.934,186.536 185.767,186.203 181.5,186.5C 181.5,169.5 181.5,152.5 181.5,135.5 Z"/></g>
<g><path style="opacity:0.016" fill="#646464" d="M 265.5,134.5 C 267.233,135.008 267.566,135.841 266.5,137C 267.823,137.816 268.489,138.983 268.5,140.5C 266.771,139.883 265.271,138.883 264,137.5C 263.667,137.833 263.333,138.167 263,138.5C 262.333,137.5 262.333,136.5 263,135.5C 263.333,135.833 263.667,136.167 264,136.5C 264.278,135.584 264.778,134.918 265.5,134.5 Z"/></g>
<g><path style="opacity:0.004" fill="#fefffe" d="M 46.5,138.5 C 47.5063,139.396 47.5063,140.062 46.5,140.5C 46.1667,140.5 45.8333,140.5 45.5,140.5C 45.3284,139.508 45.6618,138.842 46.5,138.5 Z"/></g>
<g><path style="opacity:0.004" fill="#000000" d="M 45.5,140.5 C 44.8333,141.167 44.8333,141.167 45.5,140.5 Z"/></g>
<g><path style="opacity:0.008" fill="#9b9b9b" d="M 268.5,141.5 C 269.906,141.973 270.573,142.973 270.5,144.5C 270.167,144.5 269.833,144.5 269.5,144.5C 268.909,143.849 268.243,143.182 267.5,142.5C 267.624,141.893 267.957,141.56 268.5,141.5 Z"/></g>
<g><path style="opacity:1" fill="#a18455" d="M 101.5,129.5 C 102.404,130.209 102.737,131.209 102.5,132.5C 103.007,135.431 104.007,138.098 105.5,140.5C 108.736,155.35 111.07,170.35 112.5,185.5C 110.167,185.5 107.833,185.5 105.5,185.5C 103.689,170.257 100.023,155.59 94.5,141.5C 94.5,141.167 94.5,140.833 94.5,140.5C 97.2978,139.294 99.4645,137.294 101,134.5C 101.494,132.866 101.66,131.199 101.5,129.5 Z"/></g>
<g><path style="opacity:0.004" fill="#fefffe" d="M 43.5,146.5 C 42.8333,145.167 42.8333,145.167 43.5,146.5 Z"/></g>
<g><path style="opacity:0.007" fill="#353535" d="M 44.5,145.5 C 46.1207,145.787 47.1207,146.787 47.5,148.5C 44.9405,150.944 43.6072,153.611 43.5,156.5C 42.8243,155.398 42.1577,154.398 41.5,153.5C 40.0474,152.175 40.3808,151.342 42.5,151C 42.1667,150.667 41.8333,150.333 41.5,150C 42.8228,149.184 43.4894,148.017 43.5,146.5C 44.1667,146.5 44.5,146.167 44.5,145.5 Z"/></g>
<g><path style="opacity:0.998" fill="#7e311a" d="M 268.5,165.5 C 267.883,165.389 267.383,165.056 267,164.5C 263.327,170.841 260.494,177.508 258.5,184.5C 252.944,184.796 247.278,184.796 241.5,184.5C 242.708,179.327 244.375,174.327 246.5,169.5C 250.298,160.572 255.131,152.238 261,144.5C 263.993,151.312 266.493,158.312 268.5,165.5 Z"/></g>
<g><path style="opacity:1" fill="#2e2920" d="M 235.5,151.5 C 238.679,157.87 242.346,163.87 246.5,169.5C 244.375,174.327 242.708,179.327 241.5,184.5C 240.5,184.5 239.5,184.5 238.5,184.5C 235.276,174.998 231.943,165.498 228.5,156C 230.118,153.516 232.452,152.016 235.5,151.5 Z"/></g>
<g><path style="opacity:1" fill="#b29561" d="M 87.5,150.5 C 89.6013,153.797 90.9347,157.463 91.5,161.5C 88.8426,169.138 86.1759,176.804 83.5,184.5C 82.8333,184.5 82.1667,184.5 81.5,184.5C 78.1667,182.5 74.8333,180.5 71.5,178.5C 72.3764,178.631 73.0431,178.298 73.5,177.5C 77.9426,168.278 82.6093,159.278 87.5,150.5 Z"/></g>
<g><path style="opacity:1" fill="#763c21" d="M 94.5,141.5 C 100.023,155.59 103.689,170.257 105.5,185.5C 102.941,185.198 100.607,185.532 98.5,186.5C 96.6356,178.043 94.3023,169.71 91.5,161.5C 90.9347,157.463 89.6013,153.797 87.5,150.5C 87.5,150.167 87.5,149.833 87.5,149.5C 89.0174,149.489 90.1841,148.823 91,147.5C 92.4213,145.595 93.588,143.595 94.5,141.5 Z"/></g>
<g><path style="opacity:0.004" fill="#757575" d="M 38.5,159.5 C 39.1667,159.5 39.5,159.833 39.5,160.5C 40.4286,162.322 39.7619,163.655 37.5,164.5C 37.2155,162.585 37.5489,160.919 38.5,159.5 Z"/></g>
<g><path style="opacity:0.004" fill="#dddddd" d="M 36.5,166.5 C 36.5,165.833 36.8333,165.5 37.5,165.5C 38.7424,167.346 38.409,167.679 36.5,166.5 Z"/></g>
<g><path style="opacity:1" fill="#caaa6f" d="M 268.5,165.5 C 269.634,168.37 270.3,171.37 270.5,174.5C 270.41,177.152 271.076,179.485 272.5,181.5C 272.5,181.833 272.5,182.167 272.5,182.5C 272.699,188.559 273.366,194.559 274.5,200.5C 274.074,206.621 272.907,212.621 271,218.5C 269.844,214.175 267.344,210.842 263.5,208.5C 268.64,202.334 268.806,196.001 264,189.5C 261.625,188.285 259.791,186.619 258.5,184.5C 260.494,177.508 263.327,170.841 267,164.5C 267.383,165.056 267.883,165.389 268.5,165.5 Z"/></g>
<g><path style="opacity:0.008" fill="#979797" d="M 36.5,168.5 C 36.7546,169.936 37.0879,171.436 37.5,173C 36.7562,174.039 35.7562,174.539 34.5,174.5C 34.8928,172.875 34.8928,171.042 34.5,169C 35.0944,168.536 35.7611,168.369 36.5,168.5 Z"/></g>
<g><path style="opacity:1" fill="#c3a46c" d="M 44.5,174.5 C 45.3764,174.369 46.0431,174.702 46.5,175.5C 50.5608,183.866 53.2274,192.532 54.5,201.5C 53.236,208.79 53.236,216.123 54.5,223.5C 54.0339,235.364 51.3672,246.697 46.5,257.5C 46.0431,258.298 45.3764,258.631 44.5,258.5C 44.3732,253.849 43.3732,249.515 41.5,245.5C 41.5,242.833 41.5,240.167 41.5,237.5C 49.3097,230.938 52.9764,222.438 52.5,212C 52.8643,202.258 49.531,194.091 42.5,187.5C 43.1587,184.545 43.4921,181.545 43.5,178.5C 43.2322,176.901 43.5655,175.568 44.5,174.5 Z"/></g>
<g><path style="opacity:0.718" fill="#7f3f25" d="M 270.5,174.5 C 271.924,176.515 272.59,178.848 272.5,181.5C 271.076,179.485 270.41,177.152 270.5,174.5 Z"/></g>
<g><path style="opacity:0.01" fill="#0c0c0c" d="M 19.5,183.5 C 19.5,184.167 19.8333,184.5 20.5,184.5C 19.469,185.249 18.3024,185.915 17,186.5C 16.6012,186.272 16.4346,185.938 16.5,185.5C 16.9731,184.094 17.9731,183.427 19.5,183.5 Z"/></g>
<g><path style="opacity:0.004" fill="#c8c8c8" d="M 23.5,182.5 C 22.8333,183.167 22.1667,183.833 21.5,184.5C 21.1667,184.5 20.8333,184.5 20.5,184.5C 19.8333,184.5 19.5,184.167 19.5,183.5C 20.7079,182.766 22.0413,182.433 23.5,182.5 Z"/></g>
<g><path style="opacity:0.998" fill="#ca8f4b" d="M 40.5,186.5 C 40.8417,187.338 41.5084,187.672 42.5,187.5C 49.531,194.091 52.8643,202.258 52.5,212C 52.9764,222.438 49.3097,230.938 41.5,237.5C 32.6533,242.61 23.6533,242.777 14.5,238C 4.7639,228.915 1.2639,217.748 4,204.5C 5.4712,197.043 9.30453,191.21 15.5,187C 14.944,186.617 14.6107,186.117 14.5,185.5C 15.1667,185.5 15.8333,185.5 16.5,185.5C 16.4346,185.938 16.6012,186.272 17,186.5C 18.3024,185.915 19.469,185.249 20.5,184.5C 20.8333,184.5 21.1667,184.5 21.5,184.5C 28.0172,183.308 34.3505,183.974 40.5,186.5 Z M 29.5,209.5 C 28.6618,209.842 28.3284,210.508 28.5,211.5C 28.3836,214.749 28.5502,218.083 29,221.5C 27.4126,222.727 26.0793,222.394 25,220.5C 22.6832,214.776 23.6832,209.776 28,205.5C 30.7344,206.362 30.9011,207.195 28.5,208C 29.056,208.383 29.3893,208.883 29.5,209.5 Z"/></g>
<g><path style="opacity:1" fill="#cd924e" d="M 81.5,184.5 C 82.1667,184.5 82.8333,184.5 83.5,184.5C 87.346,186.155 90.846,188.488 94,191.5C 95.7509,193.212 96.4175,195.212 96,197.5C 92.9326,200.237 89.5993,202.571 86,204.5C 83.7281,202.788 81.5614,200.954 79.5,199C 74.6162,197.859 71.4496,199.692 70,204.5C 68.9625,210.394 69.6292,216.061 72,221.5C 77.4242,224.668 81.9242,223.502 85.5,218C 86.8333,217.333 88.1667,217.333 89.5,218C 92.5511,220.714 95.2178,223.714 97.5,227C 91.2335,236.79 82.2335,240.624 70.5,238.5C 62.5723,236.238 57.2389,231.238 54.5,223.5C 53.236,216.123 53.236,208.79 54.5,201.5C 58.5193,188.178 67.5193,182.512 81.5,184.5 Z"/></g>
<g><path style="opacity:1" fill="#cf934d" d="M 172.5,187.5 C 172.277,190.784 171.61,193.951 170.5,197C 165.192,197.83 159.859,198.33 154.5,198.5C 154.5,200.167 154.5,201.833 154.5,203.5C 159.5,203.5 164.5,203.5 169.5,203.5C 169.797,207.767 169.464,211.934 168.5,216C 163.845,216.499 159.179,216.666 154.5,216.5C 154.5,218.833 154.5,221.167 154.5,223.5C 160.167,223.5 165.833,223.5 171.5,223.5C 171.666,228.179 171.499,232.845 171,237.5C 170.5,238 170,238.5 169.5,239C 159.843,238.967 150.176,238.634 140.5,238C 139.565,235.619 139.232,233.119 139.5,230.5C 139.333,216.163 139.5,201.829 140,187.5C 150.325,184.989 160.825,184.156 171.5,185C 172.252,185.671 172.586,186.504 172.5,187.5 Z"/></g>
<g><path style="opacity:0.999" fill="#cc914c" d="M 284.5,234.5 C 284.714,236.144 284.38,237.644 283.5,239C 280.183,239.498 276.85,239.665 273.5,239.5C 271.435,239.483 269.435,239.15 267.5,238.5C 267.75,235.786 267.917,233.119 268,230.5C 263.377,235.196 257.877,237.862 251.5,238.5C 250.167,238.5 248.833,238.5 247.5,238.5C 241.907,238.807 236.407,238.473 231,237.5C 230.5,228.84 230.334,220.173 230.5,211.5C 230.5,207.5 230.5,203.5 230.5,199.5C 230.334,195.154 230.501,190.821 231,186.5C 234.603,185.865 238.103,185.198 241.5,184.5C 247.278,184.796 252.944,184.796 258.5,184.5C 259.791,186.619 261.625,188.285 264,189.5C 268.806,196.001 268.64,202.334 263.5,208.5C 267.344,210.842 269.844,214.175 271,218.5C 272.907,212.621 274.074,206.621 274.5,200.5C 275.345,199.329 276.011,197.995 276.5,196.5C 276.799,192.47 277.799,188.637 279.5,185C 287.833,183.351 296.166,183.184 304.5,184.5C 308.642,201.915 310.808,219.582 311,237.5C 310.5,238 310,238.5 309.5,239C 304.833,239.667 300.167,239.667 295.5,239C 294.531,234.263 294.197,229.43 294.5,224.5C 291.753,224.187 289.086,224.52 286.5,225.5C 285.577,228.447 284.911,231.447 284.5,234.5 Z"/></g>
<g><path style="opacity:1" fill="#cc924f" d="M 136.5,188.5 C 134.909,204.733 134.075,221.066 134,237.5C 129.934,238.464 125.767,238.797 121.5,238.5C 120.883,238.389 120.383,238.056 120,237.5C 119.501,231.509 119.334,225.509 119.5,219.5C 117.833,219.5 116.167,219.5 114.5,219.5C 114.791,225.923 114.458,232.256 113.5,238.5C 111.167,238.5 108.833,238.5 106.5,238.5C 103.721,238.721 101.054,238.388 98.5,237.5C 97.4038,220.435 97.4038,203.435 98.5,186.5C 100.607,185.532 102.941,185.198 105.5,185.5C 107.833,185.5 110.167,185.5 112.5,185.5C 113.458,191.744 113.791,198.077 113.5,204.5C 115.833,204.5 118.167,204.5 120.5,204.5C 120.209,198.077 120.542,191.744 121.5,185.5C 125.747,184.398 130.08,184.232 134.5,185C 135.823,185.816 136.489,186.983 136.5,188.5 Z"/></g>
<g><path style="opacity:0.725" fill="#7b4327" d="M 43.5,178.5 C 43.4921,181.545 43.1587,184.545 42.5,187.5C 41.5084,187.672 40.8417,187.338 40.5,186.5C 41.7487,183.913 42.7487,181.246 43.5,178.5 Z"/></g>
<g><path style="opacity:1" fill="#cd934f" d="M 181.5,186.5 C 185.767,186.203 189.934,186.536 194,187.5C 196.658,195.14 199.158,202.806 201.5,210.5C 204.423,203.06 206.756,195.394 208.5,187.5C 213.535,186.058 218.535,186.224 223.5,188C 225.515,192.579 226.515,197.412 226.5,202.5C 226.5,210.167 226.5,217.833 226.5,225.5C 225.807,229.565 225.14,233.732 224.5,238C 220.167,238.667 215.833,238.667 211.5,238C 210.703,234.255 210.203,230.421 210,226.5C 208.864,229.096 208.031,231.763 207.5,234.5C 206.636,235.688 205.636,236.855 204.5,238C 201.5,238.667 198.5,238.667 195.5,238C 193.77,233.249 192.27,228.415 191,223.5C 190.501,228.489 190.334,233.489 190.5,238.5C 185.57,238.803 180.737,238.469 176,237.5C 175.5,225.171 175.333,212.838 175.5,200.5C 176.167,196.167 176.833,191.833 177.5,187.5C 179.099,187.768 180.432,187.434 181.5,186.5 Z"/></g>
<g><path style="opacity:1" fill="#fefcfa" d="M 282.5,186.5 C 289.422,186.188 296.256,186.521 303,187.5C 305.968,203.709 307.801,220.042 308.5,236.5C 304.833,236.5 301.167,236.5 297.5,236.5C 297.666,231.821 297.499,227.155 297,222.5C 292.667,221.167 288.333,221.167 284,222.5C 282.749,227.093 281.915,231.759 281.5,236.5C 277.833,236.5 274.167,236.5 270.5,236.5C 273.074,219.453 277.074,202.787 282.5,186.5 Z"/></g>
<g><path style="opacity:1" fill="#fdfbf9" d="M 23.5,186.5 C 43.5062,187.02 52.3395,197.353 50,217.5C 47.5463,232.624 38.713,239.457 23.5,238C 14.7022,235.869 9.20215,230.369 7,221.5C 2.96256,204.92 8.46256,193.253 23.5,186.5 Z M 29.5,209.5 C 28.6618,209.842 28.3284,210.508 28.5,211.5C 28.3836,214.749 28.5502,218.083 29,221.5C 27.4126,222.727 26.0793,222.394 25,220.5C 22.6832,214.776 23.6832,209.776 28,205.5C 30.7344,206.362 30.9011,207.195 28.5,208C 29.056,208.383 29.3893,208.883 29.5,209.5 Z"/></g>
<g><path style="opacity:1" fill="#fdfbf8" d="M 70.5,186.5 C 80.0201,185.003 87.6867,188.003 93.5,195.5C 89.9096,202.193 85.9096,202.693 81.5,197C 75.3151,194.998 70.8151,196.831 68,202.5C 66.9021,209.385 67.5687,216.051 70,222.5C 72.2513,226.126 75.4179,227.293 79.5,226C 82.613,224.545 85.4463,222.712 88,220.5C 91.6299,222.107 93.6299,224.774 94,228.5C 85.7739,236.758 76.2739,238.591 65.5,234C 55.7381,224.695 52.9047,213.528 57,200.5C 59.6873,193.981 64.1873,189.314 70.5,186.5 Z"/></g>
<g><path style="opacity:1" fill="#fdfbf9" d="M 100.5,187.5 C 103.833,187.5 107.167,187.5 110.5,187.5C 110.5,194.167 110.5,200.833 110.5,207.5C 114.466,206.838 118.466,206.505 122.5,206.5C 122.5,200.167 122.5,193.833 122.5,187.5C 126.167,187.5 129.833,187.5 133.5,187.5C 132.767,203.823 132.434,220.156 132.5,236.5C 129.167,236.5 125.833,236.5 122.5,236.5C 122.5,229.833 122.5,223.167 122.5,216.5C 118.833,216.5 115.167,216.5 111.5,216.5C 111.5,223.167 111.5,229.833 111.5,236.5C 108.167,236.5 104.833,236.5 101.5,236.5C 100.741,220.178 100.408,203.845 100.5,187.5 Z"/></g>
<g><path style="opacity:1" fill="#fdfbf8" d="M 158.5,186.5 C 162.167,186.5 165.833,186.5 169.5,186.5C 169.5,189.5 169.5,192.5 169.5,195.5C 163.804,195.447 158.138,195.78 152.5,196.5C 152.5,199.5 152.5,202.5 152.5,205.5C 157.5,205.5 162.5,205.5 167.5,205.5C 167.5,208.5 167.5,211.5 167.5,214.5C 162.167,214.5 156.833,214.5 151.5,214.5C 151.5,218.167 151.5,221.833 151.5,225.5C 157.5,225.5 163.5,225.5 169.5,225.5C 169.789,229.106 169.456,232.606 168.5,236C 159.505,236.12 150.505,235.953 141.5,235.5C 141.5,220.167 141.5,204.833 141.5,189.5C 147.284,188.421 152.951,187.421 158.5,186.5 Z"/></g>
<g><path style="opacity:1" fill="#92764b" d="M 172.5,187.5 C 173.315,188.429 174.148,189.429 175,190.5C 175.498,193.817 175.665,197.15 175.5,200.5C 175.333,212.838 175.5,225.171 176,237.5C 180.737,238.469 185.57,238.803 190.5,238.5C 190.334,233.489 190.501,228.489 191,223.5C 192.27,228.415 193.77,233.249 195.5,238C 198.5,238.667 201.5,238.667 204.5,238C 205.636,236.855 206.636,235.688 207.5,234.5C 207.979,240.855 208.646,247.188 209.5,253.5C 196.812,248.077 187.479,251.411 181.5,263.5C 181.5,255.5 181.5,247.5 181.5,239.5C 180.5,239.5 179.5,239.5 178.5,239.5C 178.832,287.003 178.499,334.336 177.5,381.5C 177.5,372.167 177.5,362.833 177.5,353.5C 177.667,316.165 177.5,278.832 177,241.5C 175.667,240.833 174.333,240.167 173,239.5C 170.678,242.668 167.511,244.001 163.5,243.5C 155.844,242.852 148.177,242.352 140.5,242C 139.213,240.59 138.046,239.09 137,237.5C 135.954,239.09 134.787,240.59 133.5,242C 129.514,242.499 125.514,242.666 121.5,242.5C 121.5,241.167 121.5,239.833 121.5,238.5C 125.767,238.797 129.934,238.464 134,237.5C 134.075,221.066 134.909,204.733 136.5,188.5C 138.161,202.304 139.161,216.304 139.5,230.5C 139.232,233.119 139.565,235.619 140.5,238C 150.176,238.634 159.843,238.967 169.5,239C 170,238.5 170.5,238 171,237.5C 171.499,232.845 171.666,228.179 171.5,223.5C 165.833,223.5 160.167,223.5 154.5,223.5C 154.5,221.167 154.5,218.833 154.5,216.5C 159.179,216.666 163.845,216.499 168.5,216C 169.464,211.934 169.797,207.767 169.5,203.5C 164.5,203.5 159.5,203.5 154.5,203.5C 154.5,201.833 154.5,200.167 154.5,198.5C 159.859,198.33 165.192,197.83 170.5,197C 171.61,193.951 172.277,190.784 172.5,187.5 Z"/></g>
<g><path style="opacity:1" fill="#fdfaf7" d="M 233.5,187.5 C 240.841,187.334 248.174,187.5 255.5,188C 263.087,190.003 265.92,194.836 264,202.5C 262.75,205.171 260.917,207.337 258.5,209C 267.7,212.21 270.534,218.376 267,227.5C 266.215,229.286 265.049,230.786 263.5,232C 253.865,236.232 243.865,237.398 233.5,235.5C 232.245,219.49 232.245,203.49 233.5,187.5 Z"/></g>
<g><path style="opacity:1" fill="#fdfcfa" d="M 178.5,189.5 C 183.214,189.173 187.88,189.507 192.5,190.5C 195.484,200.099 198.317,209.766 201,219.5C 204.654,210.038 207.82,200.372 210.5,190.5C 214.5,189.167 218.5,189.167 222.5,190.5C 223.484,205.785 223.817,221.118 223.5,236.5C 220.167,236.5 216.833,236.5 213.5,236.5C 213.666,227.494 213.5,218.494 213,209.5C 209.865,218.094 207.032,226.761 204.5,235.5C 201.833,235.5 199.167,235.5 196.5,235.5C 194.314,225.437 191.814,215.437 189,205.5C 188.5,215.828 188.334,226.161 188.5,236.5C 185.167,236.5 181.833,236.5 178.5,236.5C 178.5,220.833 178.5,205.167 178.5,189.5 Z"/></g>
<g><path style="opacity:1" fill="#895131" d="M 272.5,182.5 C 273.738,186.619 274.571,190.953 275,195.5C 275.383,196.056 275.883,196.389 276.5,196.5C 276.011,197.995 275.345,199.329 274.5,200.5C 273.366,194.559 272.699,188.559 272.5,182.5 Z"/></g>
<g><path style="opacity:1" fill="#d0924a" d="M 243.5,195.5 C 246.85,195.335 250.183,195.502 253.5,196C 256.311,199.294 255.978,202.294 252.5,205C 249.607,206.149 246.607,206.649 243.5,206.5C 243.5,202.833 243.5,199.167 243.5,195.5 Z"/></g>
<g><path style="opacity:1" fill="#ca914f" d="M 288.5,195.5 C 290.833,195.5 293.167,195.5 295.5,195.5C 296.032,201.152 296.365,206.819 296.5,212.5C 292.833,212.5 289.167,212.5 285.5,212.5C 286.628,206.858 287.628,201.191 288.5,195.5 Z"/></g>
<g><path style="opacity:1" fill="#ca904d" d="M 25.5,195.5 C 33.6333,194.798 38.4666,198.465 40,206.5C 42.2137,215.203 39.7137,222.037 32.5,227C 24.2747,228.805 19.1081,225.638 17,217.5C 15.0794,208.143 17.9127,200.809 25.5,195.5 Z M 29.5,209.5 C 28.6618,209.842 28.3284,210.508 28.5,211.5C 28.3836,214.749 28.5502,218.083 29,221.5C 27.4126,222.727 26.0793,222.394 25,220.5C 22.6832,214.776 23.6832,209.776 28,205.5C 30.7344,206.362 30.9011,207.195 28.5,208C 29.056,208.383 29.3893,208.883 29.5,209.5 Z"/></g>
<g><path style="opacity:0.084" fill="#151514" d="M 25.5,198.5 C 30.814,197.74 34.6473,199.74 37,204.5C 37.6667,208.833 37.6667,213.167 37,217.5C 35.1177,224.011 30.9511,226.178 24.5,224C 18.6214,217.107 17.9548,209.607 22.5,201.5C 23.7701,200.712 24.7701,199.712 25.5,198.5 Z M 29.5,209.5 C 28.6618,209.842 28.3284,210.508 28.5,211.5C 28.3836,214.749 28.5502,218.083 29,221.5C 27.4126,222.727 26.0793,222.394 25,220.5C 22.6832,214.776 23.6832,209.776 28,205.5C 30.7344,206.362 30.9011,207.195 28.5,208C 29.056,208.383 29.3893,208.883 29.5,209.5 Z"/></g>
<g><path style="opacity:0.142" fill="#020202" d="M 291.5,198.5 C 292.525,201.974 293.192,205.64 293.5,209.5C 292.167,209.5 290.833,209.5 289.5,209.5C 289.659,205.709 290.325,202.042 291.5,198.5 Z"/></g>
<g><path style="opacity:1" fill="#6e341b" d="M 245.5,197.5 C 247.857,197.337 250.19,197.503 252.5,198C 253.86,199.938 253.527,201.604 251.5,203C 249.564,203.813 247.564,204.313 245.5,204.5C 245.5,202.167 245.5,199.833 245.5,197.5 Z"/></g>
<g><path style="opacity:1" fill="#362d20" d="M 230.5,199.5 C 230.5,203.5 230.5,207.5 230.5,211.5C 229.671,218.655 229.171,225.989 229,233.5C 226.797,231.331 225.964,228.665 226.5,225.5C 226.5,217.833 226.5,210.167 226.5,202.5C 227.833,201.5 229.167,200.5 230.5,199.5 Z"/></g>
<g><path style="opacity:0.008" fill="#adadad" d="M 312.5,205.5 C 313.686,206.705 313.686,208.039 312.5,209.5C 311.646,208.368 311.646,207.035 312.5,205.5 Z"/></g>
<g><path style="opacity:0.004" fill="#dddddd" d="M 29.5,209.5 C 30.4387,210.327 30.1054,210.994 28.5,211.5C 28.3284,210.508 28.6618,209.842 29.5,209.5 Z"/></g>
<g><path style="opacity:1" fill="#c89152" d="M 243.5,214.5 C 247.936,214.21 252.27,214.71 256.5,216C 259.539,219.805 258.872,222.805 254.5,225C 250.94,226.237 247.273,226.737 243.5,226.5C 243.5,222.5 243.5,218.5 243.5,214.5 Z"/></g>
<g><path style="opacity:1" fill="#72371d" d="M 245.5,217.5 C 247.5,217.5 249.5,217.5 251.5,217.5C 251.5,219.5 251.5,221.5 251.5,223.5C 249.5,223.5 247.5,223.5 245.5,223.5C 245.5,221.5 245.5,219.5 245.5,217.5 Z"/></g>
<g><path style="opacity:1" fill="#28221f" d="M 54.5,223.5 C 57.2389,231.238 62.5723,236.238 70.5,238.5C 73.3054,239.319 76.3054,239.819 79.5,240C 80.1667,241 80.8333,242 81.5,243C 74.6141,246.274 67.9474,249.774 61.5,253.5C 61.1667,253.5 60.8333,253.5 60.5,253.5C 57.8975,254.291 55.8975,255.791 54.5,258C 55.9254,268.08 57.9254,277.913 60.5,287.5C 60.2053,289.735 60.5386,291.735 61.5,293.5C 61.1984,296.059 61.5318,298.393 62.5,300.5C 62.5,302.167 62.5,303.833 62.5,305.5C 53.7565,290.944 47.7565,275.277 44.5,258.5C 45.3764,258.631 46.0431,258.298 46.5,257.5C 51.3672,246.697 54.0339,235.364 54.5,223.5 Z"/></g>
<g><path style="opacity:1" fill="#ab8e5c" d="M 267.5,238.5 C 265.584,236.884 264.084,237.218 263,239.5C 262.5,245.825 262.334,252.158 262.5,258.5C 259.398,252.198 257.064,245.531 255.5,238.5C 254.167,238.5 252.833,238.5 251.5,238.5C 257.877,237.862 263.377,235.196 268,230.5C 267.917,233.119 267.75,235.786 267.5,238.5 Z"/></g>
<g><path style="opacity:1" fill="#9e8355" d="M 91.5,161.5 C 94.3023,169.71 96.6356,178.043 98.5,186.5C 97.4038,203.435 97.4038,220.435 98.5,237.5C 98.0843,242.493 97.7509,247.493 97.5,252.5C 99.099,252.232 100.432,252.566 101.5,253.5C 99.5,253.5 97.5,253.5 95.5,253.5C 96.4251,266.804 96.7584,280.137 96.5,293.5C 95.6618,293.158 95.3284,292.492 95.5,291.5C 95.6665,281.494 95.4998,271.494 95,261.5C 92.8901,270.978 89.7234,279.978 85.5,288.5C 85.7135,286.856 85.3802,285.356 84.5,284C 79.8452,283.501 75.1785,283.334 70.5,283.5C 70.5,280.833 70.5,278.167 70.5,275.5C 74.8333,275.5 79.1667,275.5 83.5,275.5C 83.7771,272.552 83.4438,269.719 82.5,267C 78.5138,266.501 74.5138,266.334 70.5,266.5C 70.5,264.833 70.5,263.167 70.5,261.5C 75.2153,261.494 79.882,260.994 84.5,260C 85.4438,257.281 85.7771,254.448 85.5,251.5C 77.419,251.315 69.419,251.982 61.5,253.5C 67.9474,249.774 74.6141,246.274 81.5,243C 80.8333,242 80.1667,241 79.5,240C 76.3054,239.819 73.3054,239.319 70.5,238.5C 82.2335,240.624 91.2335,236.79 97.5,227C 95.2178,223.714 92.5511,220.714 89.5,218C 88.1667,217.333 86.8333,217.333 85.5,218C 81.9242,223.502 77.4242,224.668 72,221.5C 69.6292,216.061 68.9625,210.394 70,204.5C 71.4496,199.692 74.6162,197.859 79.5,199C 81.5614,200.954 83.7281,202.788 86,204.5C 89.5993,202.571 92.9326,200.237 96,197.5C 96.4175,195.212 95.7509,193.212 94,191.5C 90.846,188.488 87.346,186.155 83.5,184.5C 86.1759,176.804 88.8426,169.138 91.5,161.5 Z"/></g>
<g><path style="opacity:1" fill="#703b21" d="M 121.5,238.5 C 121.5,239.833 121.5,241.167 121.5,242.5C 121.5,246.167 121.5,249.833 121.5,253.5C 120.167,253.5 118.833,253.5 117.5,253.5C 117.695,260.189 117.862,266.856 118,273.5C 115.554,269.606 113.388,265.606 111.5,261.5C 111.906,253.807 112.572,246.14 113.5,238.5C 114.458,232.256 114.791,225.923 114.5,219.5C 116.167,219.5 117.833,219.5 119.5,219.5C 119.334,225.509 119.501,231.509 120,237.5C 120.383,238.056 120.883,238.389 121.5,238.5 Z"/></g>
<g><path style="opacity:1" fill="#6f3b20" d="M 230.5,211.5 C 230.334,220.173 230.5,228.84 231,237.5C 236.407,238.473 241.907,238.807 247.5,238.5C 247.5,239.833 247.5,241.167 247.5,242.5C 245.5,242.5 243.5,242.5 241.5,242.5C 241.5,244.167 241.5,245.833 241.5,247.5C 240.167,249.833 238.833,252.167 237.5,254.5C 237.5,253.167 237.5,251.833 237.5,250.5C 233.833,250.5 230.167,250.5 226.5,250.5C 226.334,260.506 226.5,270.506 227,280.5C 227.975,287.821 231.808,292.821 238.5,295.5C 238.414,296.496 238.748,297.329 239.5,298C 238.692,298.308 238.025,298.808 237.5,299.5C 234.412,306.674 231.079,313.674 227.5,320.5C 223.256,309.097 219.589,297.43 216.5,285.5C 217.331,281.524 217.497,277.524 217,273.5C 215.908,271.883 214.408,270.883 212.5,270.5C 212.552,268.097 212.219,265.764 211.5,263.5C 212.685,262.143 213.685,260.643 214.5,259C 213.321,256.657 211.654,254.824 209.5,253.5C 208.646,247.188 207.979,240.855 207.5,234.5C 208.031,231.763 208.864,229.096 210,226.5C 210.203,230.421 210.703,234.255 211.5,238C 215.833,238.667 220.167,238.667 224.5,238C 225.14,233.732 225.807,229.565 226.5,225.5C 225.964,228.665 226.797,231.331 229,233.5C 229.171,225.989 229.671,218.655 230.5,211.5 Z"/></g>
<g><path style="opacity:1" fill="#c6a56c" d="M 267.5,238.5 C 269.435,239.15 271.435,239.483 273.5,239.5C 273.873,246.178 272.873,252.511 270.5,258.5C 269.044,261.614 267.878,264.948 267,268.5C 265.214,265.264 263.714,261.93 262.5,258.5C 262.334,252.158 262.5,245.825 263,239.5C 264.084,237.218 265.584,236.884 267.5,238.5 Z"/></g>
<g><path style="opacity:1" fill="#723c21" d="M 98.5,237.5 C 101.054,238.388 103.721,238.721 106.5,238.5C 105.942,243.516 105.275,248.516 104.5,253.5C 103.5,253.5 102.5,253.5 101.5,253.5C 100.432,252.566 99.099,252.232 97.5,252.5C 97.7509,247.493 98.0843,242.493 98.5,237.5 Z"/></g>
<g><path style="opacity:1" fill="#9c8153" d="M 177.5,353.5 C 156.22,348.184 137.553,338.184 121.5,323.5C 121.5,323.167 121.5,322.833 121.5,322.5C 121.5,313.167 121.5,303.833 121.5,294.5C 123.467,294.739 125.301,294.406 127,293.5C 128.951,280.51 128.951,267.51 127,254.5C 125.301,253.594 123.467,253.261 121.5,253.5C 121.5,249.833 121.5,246.167 121.5,242.5C 125.514,242.666 129.514,242.499 133.5,242C 134.787,240.59 135.954,239.09 137,237.5C 138.046,239.09 139.213,240.59 140.5,242C 148.177,242.352 155.844,242.852 163.5,243.5C 167.511,244.001 170.678,242.668 173,239.5C 174.333,240.167 175.667,240.833 177,241.5C 177.5,278.832 177.667,316.165 177.5,353.5 Z"/></g>
<g><path style="opacity:1" fill="#997e51" d="M 106.5,238.5 C 108.833,238.5 111.167,238.5 113.5,238.5C 112.572,246.14 111.906,253.807 111.5,261.5C 109.62,258.386 107.287,255.72 104.5,253.5C 105.275,248.516 105.942,243.516 106.5,238.5 Z"/></g>
<g><path style="opacity:1" fill="#78371e" d="M 247.5,238.5 C 248.833,238.5 250.167,238.5 251.5,238.5C 252.833,238.5 254.167,238.5 255.5,238.5C 257.064,245.531 259.398,252.198 262.5,258.5C 263.714,261.93 265.214,265.264 267,268.5C 267.878,264.948 269.044,261.614 270.5,258.5C 268.539,269.051 265.205,279.051 260.5,288.5C 259.92,286.251 258.587,284.585 256.5,283.5C 258.361,273.955 258.861,264.288 258,254.5C 257.626,253.584 257.126,252.75 256.5,252C 253.518,251.502 250.518,251.335 247.5,251.5C 247.5,255.833 247.5,260.167 247.5,264.5C 244.746,259.177 242.746,253.511 241.5,247.5C 241.5,245.833 241.5,244.167 241.5,242.5C 243.5,242.5 245.5,242.5 247.5,242.5C 247.5,241.167 247.5,239.833 247.5,238.5 Z"/></g>
<g><path style="opacity:0.067" fill="#121110" d="M 284.5,234.5 C 285.473,236.139 286.806,237.473 288.5,238.5C 287.496,242.008 285.829,245.174 283.5,248C 284.935,250.267 284.602,252.267 282.5,254C 283.728,255.49 283.728,256.99 282.5,258.5C 281.504,258.414 280.671,258.748 280,259.5C 278.75,262.077 278.416,264.743 279,267.5C 280.194,265.377 280.86,263.043 281,260.5C 281.383,259.944 281.883,259.611 282.5,259.5C 281.864,264.878 280.531,270.045 278.5,275C 279.446,277.298 278.779,279.132 276.5,280.5C 275.923,279.227 275.257,279.227 274.5,280.5C 274.855,281.522 275.522,282.189 276.5,282.5C 276.938,282.435 277.272,282.601 277.5,283C 276.244,283.417 275.577,284.25 275.5,285.5C 274.167,286.167 274.167,286.833 275.5,287.5C 270.139,297.576 265.139,308.243 260.5,319.5C 259.209,319.263 258.209,319.596 257.5,320.5C 257.5,321.167 257.833,321.5 258.5,321.5C 258.082,322.222 257.416,322.722 256.5,323C 257.774,323.977 257.774,324.811 256.5,325.5C 255.719,323.372 254.719,323.205 253.5,325C 254.252,325.671 254.586,326.504 254.5,327.5C 251.725,333.539 248.392,338.539 244.5,342.5C 243.662,342.842 243.328,343.508 243.5,344.5C 242.833,344.5 242.5,344.833 242.5,345.5C 238.857,350.144 234.857,354.477 230.5,358.5C 228.788,361.844 226.121,364.844 222.5,367.5C 221.127,367.343 219.793,367.51 218.5,368C 217.226,368.977 217.226,369.811 218.5,370.5C 217.167,371.833 215.833,373.167 214.5,374.5C 212.95,376.622 210.95,378.289 208.5,379.5C 208.5,378.833 208.167,378.5 207.5,378.5C 206.749,377.427 205.749,377.26 204.5,378C 205.085,379.302 205.751,380.469 206.5,381.5C 202.294,383.53 198.461,386.197 195,389.5C 194.667,389.167 194.333,388.833 194,388.5C 191.574,392.941 188.074,395.108 183.5,395C 184.34,396.666 183.84,396.833 182,395.5C 181.667,396.5 181.333,397.5 181,398.5C 180.667,398.167 180.333,397.833 180,397.5C 178.416,398.861 176.582,399.528 174.5,399.5C 173.508,399.328 172.842,399.662 172.5,400.5C 171.5,401.167 170.5,401.833 169.5,402.5C 168.452,400.067 167.786,400.067 167.5,402.5C 164.279,402.774 160.779,403.44 157,404.5C 155.584,403.427 154.25,403.427 153,404.5C 152.536,403.906 152.369,403.239 152.5,402.5C 153.239,402.631 153.906,402.464 154.5,402C 153.11,398.141 150.776,397.475 147.5,400C 148.833,400.333 150.167,400.667 151.5,401C 150.584,401.278 149.918,401.778 149.5,402.5C 148.173,401.82 146.506,401.82 144.5,402.5C 141.634,401.818 139.134,400.484 137,398.5C 136.667,398.833 136.333,399.167 136,399.5C 133.176,398.182 130.676,396.515 128.5,394.5C 128.167,393.167 127.833,393.167 127.5,394.5C 126.206,393.71 125.039,392.71 124,391.5C 121.366,392.692 120.532,392.026 121.5,389.5C 122.043,389.44 122.376,389.107 122.5,388.5C 121.282,388.891 120.448,388.224 120,386.5C 119.517,387.448 119.351,388.448 119.5,389.5C 119.565,389.938 119.399,390.272 119,390.5C 118.015,389.186 116.848,388.186 115.5,387.5C 116.167,387.5 116.5,387.167 116.5,386.5C 116.158,385.662 115.492,385.328 114.5,385.5C 114.167,384.167 113.833,384.167 113.5,385.5C 109.209,382.682 104.876,379.849 100.5,377C 101.566,375.841 101.233,375.008 99.5,374.5C 98.8333,373.167 97.8333,372.167 96.5,371.5C 94.2404,370.637 92.7404,368.97 92,366.5C 91.2949,368.986 90.4616,368.986 89.5,366.5C 91.7602,365.762 91.9269,364.762 90,363.5C 89.6012,363.728 89.4346,364.062 89.5,364.5C 88.8333,364.5 88.5,364.167 88.5,363.5C 88.6716,362.508 88.3382,361.842 87.5,361.5C 86.8333,361.5 86.1667,361.5 85.5,361.5C 85.1667,358.833 84.8333,358.833 84.5,361.5C 83.8333,360.5 83.1667,359.5 82.5,358.5C 85.2583,357.033 84.925,356.367 81.5,356.5C 81.5,355.833 81.1667,355.5 80.5,355.5C 80.1667,354.167 79.8333,354.167 79.5,355.5C 78.7515,354.469 78.0848,353.302 77.5,352C 76.4232,351.53 75.4232,351.697 74.5,352.5C 76.5182,346.448 79.5182,341.114 83.5,336.5C 84.5,337.833 85.5,339.167 86.5,340.5C 96.6099,352.281 107.943,362.615 120.5,371.5C 120.842,372.338 121.508,372.672 122.5,372.5C 132.492,381.326 144.158,386.66 157.5,388.5C 161.795,388.508 165.795,387.508 169.5,385.5C 175.603,384.619 180.603,381.953 184.5,377.5C 202.056,365.61 217.723,351.61 231.5,335.5C 243.437,321.304 253.104,305.637 260.5,288.5C 265.205,279.051 268.539,269.051 270.5,258.5C 272.873,252.511 273.873,246.178 273.5,239.5C 276.85,239.665 280.183,239.498 283.5,239C 284.38,237.644 284.714,236.144 284.5,234.5 Z"/></g>
<g><path style="opacity:0.514" fill="#7a3f24" d="M 41.5,245.5 C 43.3732,249.515 44.3732,253.849 44.5,258.5C 42.8816,254.425 41.8816,250.092 41.5,245.5 Z"/></g>
<g><path style="opacity:1" fill="#392f22" d="M 241.5,247.5 C 242.746,253.511 244.746,259.177 247.5,264.5C 247.851,270.262 247.351,275.928 246,281.5C 241.905,284.637 239.238,283.637 238,278.5C 237.5,270.507 237.334,262.507 237.5,254.5C 238.833,252.167 240.167,249.833 241.5,247.5 Z"/></g>
<g><path style="opacity:0.004" fill="#e4e4e4" d="M 31.5,255.5 C 30.6618,255.158 30.3284,254.492 30.5,253.5C 32.6773,252.496 33.0107,253.162 31.5,255.5 Z"/></g>
<g><path style="opacity:1" fill="#bca26f" d="M 60.5,253.5 C 60.5,264.833 60.5,276.167 60.5,287.5C 57.9254,277.913 55.9254,268.08 54.5,258C 55.8975,255.791 57.8975,254.291 60.5,253.5 Z"/></g>
<g><path style="opacity:0.012" fill="#787878" d="M 282.5,258.5 C 282.5,258.833 282.5,259.167 282.5,259.5C 281.883,259.611 281.383,259.944 281,260.5C 280.86,263.043 280.194,265.377 279,267.5C 278.416,264.743 278.75,262.077 280,259.5C 280.671,258.748 281.504,258.414 282.5,258.5 Z"/></g>
<g><path style="opacity:1" fill="#f3eddd" d="M 85.5,288.5 C 85.1249,290.698 84.4582,292.698 83.5,294.5C 76.0796,294.797 68.7463,294.464 61.5,293.5C 60.5386,291.735 60.2053,289.735 60.5,287.5C 60.5,276.167 60.5,264.833 60.5,253.5C 60.8333,253.5 61.1667,253.5 61.5,253.5C 69.419,251.982 77.419,251.315 85.5,251.5C 85.7771,254.448 85.4438,257.281 84.5,260C 79.882,260.994 75.2153,261.494 70.5,261.5C 70.5,263.167 70.5,264.833 70.5,266.5C 74.5138,266.334 78.5138,266.501 82.5,267C 83.4438,269.719 83.7771,272.552 83.5,275.5C 79.1667,275.5 74.8333,275.5 70.5,275.5C 70.5,278.167 70.5,280.833 70.5,283.5C 75.1785,283.334 79.8452,283.501 84.5,284C 85.3802,285.356 85.7135,286.856 85.5,288.5 Z"/></g>
<g><path style="opacity:1" fill="#ffcf1b" d="M 67.5,253.5 C 72.8333,253.5 78.1667,253.5 83.5,253.5C 83.5,255.5 83.5,257.5 83.5,259.5C 78.8333,259.5 74.1667,259.5 69.5,259.5C 69.5,262.5 69.5,265.5 69.5,268.5C 73.8333,268.5 78.1667,268.5 82.5,268.5C 82.5,270.5 82.5,272.5 82.5,274.5C 77.8333,274.5 73.1667,274.5 68.5,274.5C 68.5,278.167 68.5,281.833 68.5,285.5C 73.5,285.5 78.5,285.5 83.5,285.5C 83.5,287.833 83.5,290.167 83.5,292.5C 76.1667,292.5 68.8333,292.5 61.5,292.5C 61.3335,280.162 61.5001,267.829 62,255.5C 63.9483,254.891 65.7816,254.224 67.5,253.5 Z"/></g>
<g><path style="opacity:1" fill="#937a50" d="M 211.5,263.5 C 212.219,265.764 212.552,268.097 212.5,270.5C 207.178,270.02 201.845,269.687 196.5,269.5C 196.5,272.167 196.5,274.833 196.5,277.5C 200.135,278.114 203.802,278.448 207.5,278.5C 207.451,281.099 206.451,283.266 204.5,285C 198.521,286.928 194.354,285.095 192,279.5C 191.333,275.5 191.333,271.5 192,267.5C 194.017,262.076 197.85,260.242 203.5,262C 205.715,265.808 208.382,266.308 211.5,263.5 Z"/></g>
<g><path style="opacity:0.008" fill="#8e8e8e" d="M 277.5,276.5 C 277.5,276.833 277.5,277.167 277.5,277.5C 276.577,278.303 275.577,278.47 274.5,278C 275.244,276.961 276.244,276.461 277.5,276.5 Z"/></g>
<g><path style="opacity:1" fill="#f1ebde" d="M 209.5,253.5 C 211.654,254.824 213.321,256.657 214.5,259C 213.685,260.643 212.685,262.143 211.5,263.5C 208.382,266.308 205.715,265.808 203.5,262C 197.85,260.242 194.017,262.076 192,267.5C 191.333,271.5 191.333,275.5 192,279.5C 194.354,285.095 198.521,286.928 204.5,285C 206.451,283.266 207.451,281.099 207.5,278.5C 203.802,278.448 200.135,278.114 196.5,277.5C 196.5,274.833 196.5,272.167 196.5,269.5C 201.845,269.687 207.178,270.02 212.5,270.5C 214.408,270.883 215.908,271.883 217,273.5C 217.497,277.524 217.331,281.524 216.5,285.5C 209.916,295.783 200.916,298.283 189.5,293C 185.789,290.145 183.123,286.645 181.5,282.5C 180.221,276.174 180.221,269.841 181.5,263.5C 187.479,251.411 196.812,248.077 209.5,253.5 Z"/></g>
<g><path style="opacity:1" fill="#ffce17" d="M 194.5,252.5 C 200.233,251.895 205.566,253.062 210.5,256C 213.336,259.495 212.503,261.995 208,263.5C 196.65,256.595 190.483,259.929 189.5,273.5C 189.381,283.888 194.381,288.388 204.5,287C 207.962,284.761 209.295,281.594 208.5,277.5C 204.865,276.886 201.198,276.552 197.5,276.5C 197.5,274.5 197.5,272.5 197.5,270.5C 203.444,271.029 209.277,272.029 215,273.5C 216.994,288.505 210.494,295.338 195.5,294C 183.942,288.374 179.775,279.208 183,266.5C 184.268,259.583 188.101,254.917 194.5,252.5 Z"/></g>
<g><path style="opacity:0.008" fill="#898989" d="M 276.5,280.5 C 276.5,281.167 276.5,281.833 276.5,282.5C 275.522,282.189 274.855,281.522 274.5,280.5C 275.257,279.227 275.923,279.227 276.5,280.5 Z"/></g>
<g><path style="opacity:1" fill="#79361d" d="M 95.5,291.5 C 90.9723,304.565 85.3056,317.232 78.5,329.5C 76.5,327.167 74.5,324.833 72.5,322.5C 70.8067,319.816 69.14,317.149 67.5,314.5C 68.4584,314.953 69.2917,315.619 70,316.5C 72.0902,313.978 73.9235,311.312 75.5,308.5C 78.5307,304.113 81.1974,299.446 83.5,294.5C 84.4582,292.698 85.1249,290.698 85.5,288.5C 89.7234,279.978 92.8901,270.978 95,261.5C 95.4998,271.494 95.6665,281.494 95.5,291.5 Z"/></g>
<g><path style="opacity:1" fill="#ebe3d6" d="M 237.5,254.5 C 237.334,262.507 237.5,270.507 238,278.5C 239.238,283.637 241.905,284.637 246,281.5C 247.351,275.928 247.851,270.262 247.5,264.5C 247.5,260.167 247.5,255.833 247.5,251.5C 250.518,251.335 253.518,251.502 256.5,252C 257.126,252.75 257.626,253.584 258,254.5C 258.861,264.288 258.361,273.955 256.5,283.5C 255.606,286.957 253.94,289.957 251.5,292.5C 247.569,295.038 243.235,296.038 238.5,295.5C 231.808,292.821 227.975,287.821 227,280.5C 226.5,270.506 226.334,260.506 226.5,250.5C 230.167,250.5 233.833,250.5 237.5,250.5C 237.5,251.833 237.5,253.167 237.5,254.5 Z"/></g>
<g><path style="opacity:1" fill="#ffce16" d="M 228.5,252.5 C 230.833,252.5 233.167,252.5 235.5,252.5C 235.5,254.5 235.5,256.5 235.5,258.5C 235.109,265.921 235.609,273.254 237,280.5C 240.721,287.148 244.387,287.148 248,280.5C 249.832,271.198 249.998,261.865 248.5,252.5C 251.127,253.092 253.794,253.425 256.5,253.5C 256.666,262.173 256.5,270.84 256,279.5C 253.898,292.302 246.732,296.469 234.5,292C 230.613,287.98 228.447,283.146 228,277.5C 227.177,268.99 227.343,260.656 228.5,252.5 Z"/></g>
<g><path style="opacity:1" fill="#ffe992" d="M 228.5,252.5 C 230.948,251.527 233.615,251.194 236.5,251.5C 236.802,254.059 236.468,256.393 235.5,258.5C 235.5,256.5 235.5,254.5 235.5,252.5C 233.167,252.5 230.833,252.5 228.5,252.5 Z"/></g>
<g><path style="opacity:1" fill="#24211f" d="M 256.5,283.5 C 258.587,284.585 259.92,286.251 260.5,288.5C 259.108,290.273 257.941,292.273 257,294.5C 255.275,293.536 253.441,292.869 251.5,292.5C 253.94,289.957 255.606,286.957 256.5,283.5 Z"/></g>
<g><path style="opacity:1" fill="#f2ece0" d="M 101.5,253.5 C 102.5,253.5 103.5,253.5 104.5,253.5C 107.287,255.72 109.62,258.386 111.5,261.5C 113.388,265.606 115.554,269.606 118,273.5C 117.862,266.856 117.695,260.189 117.5,253.5C 118.833,253.5 120.167,253.5 121.5,253.5C 123.467,253.261 125.301,253.594 127,254.5C 128.951,267.51 128.951,280.51 127,293.5C 125.301,294.406 123.467,294.739 121.5,294.5C 120.178,294.67 119.011,294.337 118,293.5C 114.333,286.833 110.667,280.167 107,273.5C 106.5,280.492 106.334,287.492 106.5,294.5C 105.5,294.5 104.5,294.5 103.5,294.5C 100.941,294.802 98.6074,294.468 96.5,293.5C 96.7584,280.137 96.4251,266.804 95.5,253.5C 97.5,253.5 99.5,253.5 101.5,253.5 Z"/></g>
<g><path style="opacity:1" fill="#ffce17" d="M 97.5,254.5 C 101.287,253.814 104.454,254.814 107,257.5C 111.508,264.513 115.508,271.847 119,279.5C 119.5,271.507 119.666,263.507 119.5,255.5C 121.833,255.5 124.167,255.5 126.5,255.5C 126.5,267.833 126.5,280.167 126.5,292.5C 123.881,292.768 121.381,292.435 119,291.5C 114.413,283.996 110.08,276.329 106,268.5C 105.5,276.493 105.334,284.493 105.5,292.5C 102.833,292.5 100.167,292.5 97.5,292.5C 97.5,279.833 97.5,267.167 97.5,254.5 Z"/></g>
<g><path style="opacity:0.004" fill="#fefffe" d="M 275.5,285.5 C 276.506,285.938 276.506,286.604 275.5,287.5C 274.167,286.833 274.167,286.167 275.5,285.5 Z"/></g>
<g><path style="opacity:0.008" fill="#b0b0b0" d="M 40.5,288.5 C 39.8333,288.5 39.5,288.167 39.5,287.5C 40.6477,286.105 41.6477,286.272 42.5,288C 41.9056,288.464 41.2389,288.631 40.5,288.5 Z"/></g>
<g><path style="opacity:1" fill="#734022" d="M 181.5,263.5 C 180.221,269.841 180.221,276.174 181.5,282.5C 181.5,306.5 181.5,330.5 181.5,354.5C 181.334,362.507 181.5,370.507 182,378.5C 182.671,377.748 183.504,377.414 184.5,377.5C 180.603,381.953 175.603,384.619 169.5,385.5C 171.849,383.659 174.515,382.326 177.5,381.5C 178.499,334.336 178.832,287.003 178.5,239.5C 179.5,239.5 180.5,239.5 181.5,239.5C 181.5,247.5 181.5,255.5 181.5,263.5 Z"/></g>
<g><path style="opacity:1" fill="#723c21" d="M 121.5,294.5 C 121.5,303.833 121.5,313.167 121.5,322.5C 114.838,316.671 108.671,310.337 103,303.5C 102.617,304.056 102.117,304.389 101.5,304.5C 102.482,301.237 103.149,297.903 103.5,294.5C 104.5,294.5 105.5,294.5 106.5,294.5C 106.334,287.492 106.5,280.492 107,273.5C 110.667,280.167 114.333,286.833 118,293.5C 119.011,294.337 120.178,294.67 121.5,294.5 Z"/></g>
<g><path style="opacity:1" fill="#f2ebd7" d="M 140.5,250.5 C 143.833,250.5 147.167,250.5 150.5,250.5C 150.13,260.889 150.63,271.223 152,281.5C 155.156,284.399 157.822,284.065 160,280.5C 160.5,270.839 160.666,261.172 160.5,251.5C 164.106,251.211 167.606,251.544 171,252.5C 171.667,261.5 171.667,270.5 171,279.5C 167.598,295.074 158.932,299.074 145,291.5C 142.158,287.644 140.491,283.31 140,278.5C 139.195,269.089 139.362,259.756 140.5,250.5 Z"/></g>
<g><path style="opacity:1" fill="#ffe78a" d="M 167.5,253.5 C 165.833,253.5 164.167,253.5 162.5,253.5C 162.5,255.167 162.5,256.833 162.5,258.5C 161.539,256.735 161.205,254.735 161.5,252.5C 163.735,252.205 165.735,252.539 167.5,253.5 Z"/></g>
<g><path style="opacity:1" fill="#ffce16" d="M 162.5,258.5 C 162.5,256.833 162.5,255.167 162.5,253.5C 164.167,253.5 165.833,253.5 167.5,253.5C 168.75,253.577 169.583,254.244 170,255.5C 170.645,264.199 170.312,272.865 169,281.5C 165.361,293.565 157.861,296.732 146.5,291C 145.206,288.913 144.039,286.746 143,284.5C 141.569,273.578 141.069,262.578 141.5,251.5C 144.167,251.5 146.833,251.5 149.5,251.5C 147.753,261.96 148.253,272.293 151,282.5C 154.843,286.729 158.177,286.395 161,281.5C 162.356,273.905 162.856,266.238 162.5,258.5 Z"/></g>
<g><path style="opacity:0.012" fill="#747474" d="M 41.5,290.5 C 42.675,290.281 43.675,290.614 44.5,291.5C 43.8075,292.518 43.1408,293.518 42.5,294.5C 40.8624,293.295 40.5291,291.962 41.5,290.5 Z"/></g>
<g><path style="opacity:1" fill="#9c8153" d="M 181.5,282.5 C 183.123,286.645 185.789,290.145 189.5,293C 200.916,298.283 209.916,295.783 216.5,285.5C 219.589,297.43 223.256,309.097 227.5,320.5C 227.5,321.167 227.5,321.833 227.5,322.5C 226.883,322.389 226.383,322.056 226,321.5C 218.262,335.238 207.762,346.405 194.5,355C 190.113,355.706 185.78,355.54 181.5,354.5C 181.5,330.5 181.5,306.5 181.5,282.5 Z"/></g>
<g><path style="opacity:0.056" fill="#131211" d="M 14.5,185.5 C 14.6107,186.117 14.944,186.617 15.5,187C 9.30453,191.21 5.4712,197.043 4,204.5C 1.2639,217.748 4.7639,228.915 14.5,238C 23.6533,242.777 32.6533,242.61 41.5,237.5C 41.5,240.167 41.5,242.833 41.5,245.5C 41.8816,250.092 42.8816,254.425 44.5,258.5C 47.7565,275.277 53.7565,290.944 62.5,305.5C 64.5595,308.24 66.2262,311.24 67.5,314.5C 69.14,317.149 70.8067,319.816 72.5,322.5C 70.9766,328.572 69.1432,334.572 67,340.5C 61.5476,348.428 56.381,356.428 51.5,364.5C 51.3433,363.127 51.51,361.793 52,360.5C 56.9572,353.42 61.7905,346.253 66.5,339C 63.1974,334.676 60.5308,330.509 58.5,326.5C 58.9382,326.565 59.2716,326.399 59.5,326C 58.7562,324.961 57.7562,324.461 56.5,324.5C 55.8688,322.552 54.8688,320.719 53.5,319C 53.8333,318.667 54.1667,318.333 54.5,318C 51.742,316.179 50.742,313.845 51.5,311C 47.7796,305.465 44.7796,299.965 42.5,294.5C 43.1408,293.518 43.8075,292.518 44.5,291.5C 43.675,290.614 42.675,290.281 41.5,290.5C 41.1667,289.833 40.8333,289.167 40.5,288.5C 41.2389,288.631 41.9056,288.464 42.5,288C 41.6477,286.272 40.6477,286.105 39.5,287.5C 36.152,276.392 33.4853,265.725 31.5,255.5C 33.0107,253.162 32.6773,252.496 30.5,253.5C 31.7846,251.194 31.1179,249.361 28.5,248C 12.8998,247.226 3.23309,239.392 -0.5,224.5C -0.5,218.833 -0.5,213.167 -0.5,207.5C 0.833333,207.167 0.833333,206.833 -0.5,206.5C -0.5,206.167 -0.5,205.833 -0.5,205.5C 1.1411,201.6 2.80777,197.6 4.5,193.5C 7.27004,190.056 10.6034,187.39 14.5,185.5 Z"/></g>
<g><path style="opacity:1" fill="#b49662" d="M 95.5,291.5 C 95.3284,292.492 95.6618,293.158 96.5,293.5C 98.6074,294.468 100.941,294.802 103.5,294.5C 103.149,297.903 102.482,301.237 101.5,304.5C 98.5716,314.952 95.2383,325.286 91.5,335.5C 90.661,336.641 89.9943,337.974 89.5,339.5C 88.675,340.386 87.675,340.719 86.5,340.5C 85.5,339.167 84.5,337.833 83.5,336.5C 82.5569,333.891 80.8903,331.891 78.5,330.5C 78.5,330.167 78.5,329.833 78.5,329.5C 85.3056,317.232 90.9723,304.565 95.5,291.5 Z"/></g>
<g><path style="opacity:1" fill="#77331b" d="M 260.5,288.5 C 253.104,305.637 243.437,321.304 231.5,335.5C 230.565,331.031 229.232,326.697 227.5,322.5C 227.5,321.833 227.5,321.167 227.5,320.5C 231.079,313.674 234.412,306.674 237.5,299.5C 238.025,298.808 238.692,298.308 239.5,298C 238.748,297.329 238.414,296.496 238.5,295.5C 243.235,296.038 247.569,295.038 251.5,292.5C 253.441,292.869 255.275,293.536 257,294.5C 257.941,292.273 259.108,290.273 260.5,288.5 Z"/></g>
<g><path style="opacity:1" fill="#ccac71" d="M 75.5,308.5 C 73.9235,311.312 72.0902,313.978 70,316.5C 69.2917,315.619 68.4584,314.953 67.5,314.5C 66.2262,311.24 64.5595,308.24 62.5,305.5C 62.5,303.833 62.5,302.167 62.5,300.5C 65.0394,298.146 68.0394,297.812 71.5,299.5C 73.1151,302.395 74.4484,305.395 75.5,308.5 Z"/></g>
<g><path style="opacity:1" fill="#ae915f" d="M 61.5,293.5 C 68.7463,294.464 76.0796,294.797 83.5,294.5C 81.1974,299.446 78.5307,304.113 75.5,308.5C 74.4484,305.395 73.1151,302.395 71.5,299.5C 68.0394,297.812 65.0394,298.146 62.5,300.5C 61.5318,298.393 61.1984,296.059 61.5,293.5 Z"/></g>
<g><path style="opacity:1" fill="#79361d" d="M 121.5,322.5 C 121.5,322.833 121.5,323.167 121.5,323.5C 121.182,339.911 121.516,356.244 122.5,372.5C 121.508,372.672 120.842,372.338 120.5,371.5C 120.662,369.473 120.495,367.473 120,365.5C 109.228,356.565 99.7276,346.565 91.5,335.5C 95.2383,325.286 98.5716,314.952 101.5,304.5C 102.117,304.389 102.617,304.056 103,303.5C 108.671,310.337 114.838,316.671 121.5,322.5 Z"/></g>
<g><path style="opacity:0.004" fill="#c6c6c6" d="M 257.5,320.5 C 258.209,319.596 259.209,319.263 260.5,319.5C 260.167,320.5 259.5,321.167 258.5,321.5C 257.833,321.5 257.5,321.167 257.5,320.5 Z"/></g>
<g><path style="opacity:1" fill="#b19360" d="M 227.5,322.5 C 229.232,326.697 230.565,331.031 231.5,335.5C 217.723,351.61 202.056,365.61 184.5,377.5C 183.504,377.414 182.671,377.748 182,378.5C 181.5,370.507 181.334,362.507 181.5,354.5C 185.78,355.54 190.113,355.706 194.5,355C 207.762,346.405 218.262,335.238 226,321.5C 226.383,322.056 226.883,322.389 227.5,322.5 Z"/></g>
<g><path style="opacity:0.004" fill="#ebebeb" d="M 256.5,325.5 C 256.167,326.5 255.5,327.167 254.5,327.5C 254.586,326.504 254.252,325.671 253.5,325C 254.719,323.205 255.719,323.372 256.5,325.5 Z"/></g>
<g><path style="opacity:0.004" fill="#c6c6c6" d="M 56.5,324.5 C 57.7562,324.461 58.7562,324.961 59.5,326C 59.2716,326.399 58.9382,326.565 58.5,326.5C 57.5,326.167 56.8333,325.5 56.5,324.5 Z"/></g>
<g><path style="opacity:1" fill="#b39561" d="M 121.5,323.5 C 137.553,338.184 156.22,348.184 177.5,353.5C 177.5,362.833 177.5,372.167 177.5,381.5C 174.515,382.326 171.849,383.659 169.5,385.5C 165.795,387.508 161.795,388.508 157.5,388.5C 144.158,386.66 132.492,381.326 122.5,372.5C 121.516,356.244 121.182,339.911 121.5,323.5 Z"/></g>
<g><path style="opacity:0.004" fill="#b1b1b1" d="M 251.5,327.5 C 252.043,327.56 252.376,327.893 252.5,328.5C 251.635,329.583 250.635,329.749 249.5,329C 250.416,328.722 251.082,328.222 251.5,327.5 Z"/></g>
<g><path style="opacity:1" fill="#3e2b14" d="M 72.5,322.5 C 74.5,324.833 76.5,327.167 78.5,329.5C 78.5,329.833 78.5,330.167 78.5,330.5C 67.2243,350.05 56.7243,370.05 47,390.5C 42.3122,395.687 37.8122,401.02 33.5,406.5C 31.5767,407.308 29.5767,407.808 27.5,408C 26.3094,408.698 25.3094,409.531 24.5,410.5C 29.8062,397.246 37.6396,385.579 48,375.5C 49.0338,371.667 50.2005,368.001 51.5,364.5C 56.381,356.428 61.5476,348.428 67,340.5C 69.1432,334.572 70.9766,328.572 72.5,322.5 Z"/></g>
<g><path style="opacity:1" fill="#7f3019" d="M 91.5,335.5 C 99.7276,346.565 109.228,356.565 120,365.5C 120.495,367.473 120.662,369.473 120.5,371.5C 107.943,362.615 96.6099,352.281 86.5,340.5C 87.675,340.719 88.675,340.386 89.5,339.5C 89.9943,337.974 90.661,336.641 91.5,335.5 Z"/></g>
<g><path style="opacity:1" fill="#5f421d" d="M 78.5,330.5 C 80.8903,331.891 82.5569,333.891 83.5,336.5C 79.5182,341.114 76.5182,346.448 74.5,352.5C 65.2817,371.269 55.7817,389.936 46,408.5C 41.9679,413.361 37.8012,418.028 33.5,422.5C 30.4669,422.868 27.8002,422.202 25.5,420.5C 24.4217,418.461 23.4217,416.294 22.5,414C 23.0848,412.698 23.7515,411.531 24.5,410.5C 25.3094,409.531 26.3094,408.698 27.5,408C 29.5767,407.808 31.5767,407.308 33.5,406.5C 37.8122,401.02 42.3122,395.687 47,390.5C 56.7243,370.05 67.2243,350.05 78.5,330.5 Z"/></g>
<g><path style="opacity:0.004" fill="#fefffe" d="M 244.5,342.5 C 245.833,343.167 245.833,343.167 244.5,342.5 Z"/></g>
<g><path style="opacity:0.004" fill="#fefffe" d="M 243.5,344.5 C 244.547,345.078 244.38,345.744 243,346.5C 242.601,346.272 242.435,345.938 242.5,345.5C 242.5,344.833 242.833,344.5 243.5,344.5 Z"/></g>
<g><path style="opacity:0.004" fill="#000000" d="M 79.5,355.5 C 79.8333,355.5 80.1667,355.5 80.5,355.5C 80.3147,356.17 79.9813,356.17 79.5,355.5 Z"/></g>
<g><path style="opacity:0.004" fill="#e8e8e8" d="M 81.5,356.5 C 84.925,356.367 85.2583,357.033 82.5,358.5C 81.5798,359.067 81.2465,358.401 81.5,356.5 Z"/></g>
<g><path style="opacity:0.004" fill="#000000" d="M 230.5,358.5 C 231.833,359.167 231.833,359.167 230.5,358.5 Z"/></g>
<g><path style="opacity:0.004" fill="#fefffe" d="M 84.5,361.5 C 84.8333,361.5 85.1667,361.5 85.5,361.5C 85.3147,362.17 84.9813,362.17 84.5,361.5 Z"/></g>
<g><path style="opacity:0.004" fill="#b8b8b8" d="M 87.5,361.5 C 88.3382,361.842 88.6716,362.508 88.5,363.5C 86.3023,363.591 85.9689,362.925 87.5,361.5 Z"/></g>
<g><path style="opacity:0.008" fill="#b0b0b0" d="M 89.5,366.5 C 89.5,365.833 89.5,365.167 89.5,364.5C 89.4346,364.062 89.6012,363.728 90,363.5C 91.9269,364.762 91.7602,365.762 89.5,366.5 Z"/></g>
<g><path style="opacity:0.004" fill="#d9d9d9" d="M 222.5,367.5 C 221.5,368.167 220.5,368.833 219.5,369.5C 218.833,369.5 218.5,369.833 218.5,370.5C 217.226,369.811 217.226,368.977 218.5,368C 219.793,367.51 221.127,367.343 222.5,367.5 Z"/></g>
<g><path style="opacity:0.004" fill="#fefffe" d="M 219.5,369.5 C 220.833,370.167 220.833,370.167 219.5,369.5 Z"/></g>
<g><path style="opacity:0.004" fill="#000000" d="M 96.5,371.5 C 95.8333,372.167 95.8333,372.167 96.5,371.5 Z"/></g>
<g><path style="opacity:0.004" fill="#fefffe" d="M 214.5,374.5 C 212.972,374.483 212.472,373.816 213,372.5C 213.717,373.044 214.217,373.711 214.5,374.5 Z"/></g>
<g><path style="opacity:0.004" fill="#fefffe" d="M 99.5,374.5 C 98.8333,375.167 98.8333,375.167 99.5,374.5 Z"/></g>
<g><path style="opacity:0.012" fill="#828282" d="M 207.5,378.5 C 206.596,379.209 206.263,380.209 206.5,381.5C 205.751,380.469 205.085,379.302 204.5,378C 205.749,377.26 206.749,377.427 207.5,378.5 Z"/></g>
<g><path style="opacity:0.005" fill="#000000" d="M 207.5,378.5 C 208.167,378.5 208.5,378.833 208.5,379.5C 208.167,380.5 207.5,381.167 206.5,381.5C 206.263,380.209 206.596,379.209 207.5,378.5 Z"/></g>
<g><path style="opacity:0.004" fill="#c6c6c6" d="M 113.5,385.5 C 113.833,385.5 114.167,385.5 114.5,385.5C 115.492,385.328 116.158,385.662 116.5,386.5C 115.833,386.5 115.5,386.833 115.5,387.5C 114.5,387.167 113.833,386.5 113.5,385.5 Z"/></g>
<g><path style="opacity:0.008" fill="#909090" d="M 121.5,389.5 C 120.833,389.5 120.167,389.5 119.5,389.5C 119.351,388.448 119.517,387.448 120,386.5C 120.448,388.224 121.282,388.891 122.5,388.5C 122.376,389.107 122.043,389.44 121.5,389.5 Z"/></g>
<g><path style="opacity:0.004" fill="#fefffe" d="M 127.5,394.5 C 127.833,394.5 128.167,394.5 128.5,394.5C 128.315,395.17 127.981,395.17 127.5,394.5 Z"/></g>
<g><path style="opacity:0.027" fill="#4a4a4a" d="M 152.5,402.5 C 151.5,403.833 150.5,403.833 149.5,402.5C 149.918,401.778 150.584,401.278 151.5,401C 150.167,400.667 148.833,400.333 147.5,400C 150.776,397.475 153.11,398.141 154.5,402C 153.906,402.464 153.239,402.631 152.5,402.5 Z"/></g>
<g><path style="opacity:0.004" fill="#b8b8b8" d="M 174.5,399.5 C 173.994,401.105 173.327,401.439 172.5,400.5C 172.842,399.662 173.508,399.328 174.5,399.5 Z"/></g>
<g><path style="opacity:0.004" fill="#fefffe" d="M 169.5,402.5 C 168.833,402.5 168.167,402.5 167.5,402.5C 167.786,400.067 168.452,400.067 169.5,402.5 Z"/></g>
<g><path style="opacity:0.389" fill="#070401" d="M 25.5,420.5 C 27.8002,422.202 30.4669,422.868 33.5,422.5C 31.0521,423.473 28.3854,423.806 25.5,423.5C 25.5,422.5 25.5,421.5 25.5,420.5 Z"/></g>
</svg>
