<svg width="102" height="84" viewBox="0 0 102 84" fill="none" xmlns="http://www.w3.org/2000/svg">
<path d="M90.0723 12.4213C90.6753 12.5875 91.2075 12.9924 91.5199 13.5808L90.0723 12.4213ZM90.0723 12.4213C90.0701 12.4208 90.0684 12.4201 90.0667 12.4195C90.0651 12.4189 90.0635 12.4182 90.0615 12.4177L90.0723 12.4213ZM44.0619 51.2204L44.0619 51.2205C43.7478 51.9148 43.1683 52.4541 42.4529 52.7171C42.4528 52.7171 42.4528 52.7171 42.4527 52.7171L42.2802 52.2478C42.0189 52.3439 41.7452 52.3916 41.4721 52.3916L44.0619 51.2204ZM44.0619 51.2204L48.2542 41.9495V75.6307L15.5358 59.84V40.9327L40.2573 52.6188L44.0619 51.2204ZM101.168 30.6925L101.168 30.6924L91.9616 13.3464L91.9615 13.3463C91.5849 12.6369 90.9447 12.1475 90.2202 11.9435C90.2137 11.9414 90.2064 11.939 90.1987 11.9368L90.1918 11.9349L51.837 1.58199L51.8367 1.5819C51.3532 1.45179 50.8435 1.45094 50.3591 1.58101L50.3591 1.58102L11.8114 11.934L11.8114 11.9339L11.8038 11.9361C11.7958 11.9384 11.7887 11.9406 11.7826 11.9426C11.0566 12.146 10.4152 12.636 10.0382 13.3464L10.0382 13.3464L0.831642 30.6924L0.831618 30.6925C0.467589 31.3785 0.400121 32.1837 0.644787 32.9206C0.889446 33.6576 1.4252 34.2626 2.12743 34.5944C2.12747 34.5944 2.12751 34.5944 2.12755 34.5944L9.8515 38.2456V61.6242C9.8515 62.715 10.4758 63.7099 11.4586 64.1837L49.8609 82.7176C49.861 82.7176 49.861 82.7176 49.8611 82.7177C50.2526 82.9068 50.6751 83.0002 51.0961 83.0002C51.502 83.0002 51.9024 82.9102 52.2721 82.7418C52.2908 82.7354 52.3115 82.7272 52.3331 82.7167L90.7341 64.1835C91.7168 63.7094 92.3411 62.7149 92.3411 61.624V38.1549L99.8727 34.5946C100.575 34.2627 101.111 33.6579 101.355 32.9208L101.355 32.9206C101.6 32.1834 101.532 31.3788 101.168 30.6925ZM11.7634 11.9493C11.7632 11.9494 11.764 11.9491 11.7655 11.9485L11.7642 11.949L11.7636 11.9492L11.7634 11.9493ZM61.7429 52.6186L86.6566 40.8417V59.84L53.9383 75.6307V42.3753L57.9381 51.2204L57.9381 51.2205C58.2522 51.9149 58.8318 52.4539 59.5471 52.7171C59.8644 52.8338 60.1966 52.8916 60.5279 52.8916C60.9439 52.8916 61.3591 52.8004 61.7429 52.6186ZM21.8947 15.1117L51.0944 7.26929L80.1231 15.1048L51 25.8983L21.8947 15.1117ZM7.24845 30.7278L13.8931 18.2082L47.174 30.5425L40.0735 46.2446L7.24845 30.7278ZM88.1066 18.208L94.7515 30.7276L61.9265 46.2444L54.8258 30.5423L88.1066 18.208Z" fill="#555555" stroke="#555555"/>
</svg>
