<svg width="102" height="83" viewBox="0 0 102 83" fill="none" xmlns="http://www.w3.org/2000/svg">
<path d="M100.727 29.943L91.5199 12.5969C91.2075 12.0085 90.6753 11.6036 90.0723 11.4375C90.0682 11.4364 90.0658 11.435 90.0615 11.4338L51.7067 1.08083C51.3079 0.973499 50.8878 0.972888 50.4888 1.08002L11.9411 11.433C11.9368 11.4342 11.934 11.4356 11.9295 11.4368C11.3254 11.6026 10.7924 12.0079 10.4798 12.5969L1.27329 29.943C0.973291 30.5083 0.91769 31.1719 1.11932 31.7792C1.32095 32.3865 1.7625 32.8851 2.34111 33.1584L10.3515 36.945V60.6403C10.3515 61.5393 10.866 62.359 11.6757 62.7495L50.0784 81.2835C50.401 81.4393 50.7491 81.5163 51.0961 81.5163C51.4405 81.5163 51.7829 81.437 52.0996 81.2867C52.1047 81.2855 52.1096 81.2857 52.1142 81.2833L90.5169 62.7493C91.3267 62.3586 91.8411 61.5391 91.8411 60.6401V36.947C91.8411 36.9165 91.8377 36.8865 91.8366 36.8564L99.659 33.1586C100.238 32.8851 100.679 32.3867 100.881 31.7794C101.082 31.1717 101.027 30.5085 100.727 29.943ZM51.0947 5.76759L81.7641 14.046L51 25.4476L20.2505 14.0517L51.0947 5.76759ZM13.6566 16.6034L47.8505 29.2761L40.3195 45.9301L6.56128 29.9721L13.6566 16.6034ZM15.0358 59.17V39.1595L40.4711 51.1829C40.7871 51.3324 41.1293 51.4077 41.4721 51.4077C41.7452 51.4077 42.0189 51.3601 42.2802 51.2639C42.8698 51.0472 43.3474 50.6028 43.6063 50.0305L48.7542 38.6464V75.4434L15.0358 59.17ZM87.1566 59.17L53.4383 75.4434V39.0723L58.3937 50.0305C58.6525 50.6028 59.1301 51.047 59.7197 51.2639C59.981 51.3601 60.2548 51.4077 60.5279 51.4077C60.8709 51.4077 61.2128 51.3326 61.5289 51.1829L87.1566 39.0684V59.17ZM61.6804 45.9299L54.1493 29.2759L88.3432 16.6032L95.4387 29.9719L61.6804 45.9299Z" fill="white" stroke="white"/>
</svg>
