<svg width="100" height="96" viewBox="0 0 100 96" fill="none" xmlns="http://www.w3.org/2000/svg">
<path d="M85 80C83.6739 80 82.4021 79.4732 81.4645 78.5355C80.5268 77.5979 80 76.3261 80 75C80 73.6739 80.5268 72.4021 81.4645 71.4645C82.4021 70.5268 83.6739 70 85 70C86.3261 70 87.5979 69.4732 88.5355 68.5355C89.4732 67.5978 90 66.3261 90 65V25C90 23.6739 89.4732 22.4021 88.5355 21.4645C87.5979 20.5268 86.3261 20 85 20H47.075L44.72 13.33C44.3738 12.3552 43.7341 11.5117 42.8889 10.9154C42.0436 10.319 41.0344 9.99926 40 10H15C13.6739 10 12.4021 10.5268 11.4645 11.4645C10.5268 12.4021 10 13.6739 10 15V65C10 66.3261 10.5268 67.5978 11.4645 68.5355C12.4021 69.4732 13.6739 70 15 70C16.3261 70 17.5979 70.5268 18.5355 71.4645C19.4732 72.4021 20 73.6739 20 75C20 76.3261 19.4732 77.5979 18.5355 78.5355C17.5979 79.4732 16.3261 80 15 80C11.0218 80 7.20644 78.4197 4.3934 75.6066C1.58035 72.7936 0 68.9782 0 65V15C0 11.0218 1.58035 7.20644 4.3934 4.3934C7.20644 1.58035 11.0218 0 15 0H40C46.53 0 52.085 4.175 54.15 10H85C88.9782 10 92.7936 11.5804 95.6066 14.3934C98.4197 17.2064 100 21.0218 100 25V65C100 68.9782 98.4197 72.7936 95.6066 75.6066C92.7936 78.4197 88.9782 80 85 80ZM59.95 79.52C54.7802 82.9119 48.5372 84.2685 42.426 83.328C36.3148 82.3875 30.7686 79.2165 26.8579 74.4272C22.9472 69.6378 20.9493 63.5695 21.2498 57.3936C21.5503 51.2178 24.1278 45.3721 28.485 40.985C32.8652 36.6006 38.7178 33.9995 44.9074 33.6862C51.097 33.373 57.1824 35.3699 61.9829 39.2897C66.7834 43.2094 69.9568 48.7725 70.8876 54.8998C71.8183 61.027 70.44 67.2815 67.02 72.45L81.52 86.95C82.4302 87.8936 82.9332 89.157 82.9209 90.468C82.9086 91.779 82.3819 93.0327 81.4542 93.9591C80.5265 94.8855 79.272 95.4105 77.961 95.4209C76.65 95.4314 75.3874 94.9265 74.445 94.015L59.945 79.52H59.95ZM56.77 69.27C58.175 67.8792 59.2913 66.2246 60.0548 64.401C60.8183 62.5775 61.2139 60.6211 61.2189 58.6442C61.2239 56.6673 60.8383 54.7089 60.0841 52.8815C59.3299 51.0541 58.222 49.3938 56.8241 47.9959C55.4262 46.598 53.7659 45.4901 51.9385 44.7359C50.1111 43.9817 48.1527 43.5961 46.1758 43.6011C44.1989 43.6061 42.2425 44.0017 40.419 44.7652C38.5954 45.5287 36.9408 46.645 35.55 48.05C32.7367 50.8633 31.1562 54.6789 31.1562 58.6575C31.1562 62.6361 32.7367 66.4517 35.55 69.265C38.3633 72.0783 42.1789 73.6588 46.1575 73.6588C50.1361 73.6588 53.9517 72.0783 56.765 69.265L56.77 69.27Z" fill="#555555"/>
</svg>
