<svg width="100" height="83" viewBox="0 0 100 83" fill="none" xmlns="http://www.w3.org/2000/svg">
<path d="M31.8179 55.5278C30.6124 55.5278 29.4562 56.0067 28.6038 56.8592C27.7514 57.7116 27.2725 58.8678 27.2725 60.0733C27.2725 61.2788 27.7514 62.435 28.6038 63.2874C29.4562 64.1398 30.6124 64.6187 31.8179 64.6187C33.0234 64.6187 34.1796 64.1398 35.032 63.2874C35.8845 62.435 36.3634 61.2788 36.3634 60.0733C36.3634 58.8678 35.8845 57.7116 35.032 56.8592C34.1796 56.0067 33.0234 55.5278 31.8179 55.5278Z" fill="#555555"/>
<path d="M45.4541 60.0733C45.4541 58.8678 45.933 57.7116 46.7854 56.8592C47.6379 56.0067 48.794 55.5278 49.9996 55.5278C51.2051 55.5278 52.3612 56.0067 53.2137 56.8592C54.0661 57.7116 54.545 58.8678 54.545 60.0733C54.545 61.2788 54.0661 62.435 53.2137 63.2874C52.3612 64.1398 51.2051 64.6187 49.9996 64.6187C48.794 64.6187 47.6379 64.1398 46.7854 63.2874C45.933 62.435 45.4541 61.2788 45.4541 60.0733Z" fill="#555555"/>
<path d="M68.1822 55.5278C66.9766 55.5278 65.8205 56.0067 64.9681 56.8592C64.1156 57.7116 63.6367 58.8678 63.6367 60.0733C63.6367 61.2788 64.1156 62.435 64.9681 63.2874C65.8205 64.1398 66.9766 64.6187 68.1822 64.6187C69.3877 64.6187 70.5439 64.1398 71.3963 63.2874C72.2487 62.435 72.7276 61.2788 72.7276 60.0733C72.7276 58.8678 72.2487 57.7116 71.3963 56.8592C70.5439 56.0067 69.3877 55.5278 68.1822 55.5278Z" fill="#555555"/>
<path fill-rule="evenodd" clip-rule="evenodd" d="M13.6364 0.981934C10.0198 0.981934 6.55131 2.41862 3.994 4.97593C1.43668 7.53325 0 11.0017 0 14.6183V69.1637C0 72.7803 1.43668 76.2488 3.994 78.8061C6.55131 81.3634 10.0198 82.8001 13.6364 82.8001H86.3636C89.9802 82.8001 93.4487 81.3634 96.006 78.8061C98.5633 76.2488 100 72.7803 100 69.1637V14.6183C100 11.0017 98.5633 7.53325 96.006 4.97593C93.4487 2.41862 89.9802 0.981934 86.3636 0.981934H13.6364ZM86.3636 10.0728H13.6364C12.4308 10.0728 11.2747 10.5517 10.4222 11.4042C9.5698 12.2566 9.09091 13.4128 9.09091 14.6183V19.1638H90.9091V14.6183C90.9091 13.4128 90.4302 12.2566 89.5778 11.4042C88.7253 10.5517 87.5692 10.0728 86.3636 10.0728ZM9.09091 69.1637V28.2547H90.9091V69.1637C90.9091 70.3693 90.4302 71.5254 89.5778 72.3779C88.7253 73.2303 87.5692 73.7092 86.3636 73.7092H13.6364C12.4308 73.7092 11.2747 73.2303 10.4222 72.3779C9.5698 71.5254 9.09091 70.3693 9.09091 69.1637Z" fill="#555555"/>
</svg>
