<svg width="100" height="82" viewBox="0 0 100 82" fill="none" xmlns="http://www.w3.org/2000/svg">
<path d="M31.8179 54.5459C30.6124 54.5459 29.4562 55.0248 28.6038 55.8772C27.7514 56.7297 27.2725 57.8858 27.2725 59.0914C27.2725 60.2969 27.7514 61.453 28.6038 62.3055C29.4562 63.1579 30.6124 63.6368 31.8179 63.6368C33.0234 63.6368 34.1796 63.1579 35.032 62.3055C35.8845 61.453 36.3634 60.2969 36.3634 59.0914C36.3634 57.8858 35.8845 56.7297 35.032 55.8772C34.1796 55.0248 33.0234 54.5459 31.8179 54.5459Z" fill="white"/>
<path d="M45.4541 59.0914C45.4541 57.8858 45.933 56.7297 46.7854 55.8772C47.6379 55.0248 48.794 54.5459 49.9996 54.5459C51.2051 54.5459 52.3612 55.0248 53.2137 55.8772C54.0661 56.7297 54.545 57.8858 54.545 59.0914C54.545 60.2969 54.0661 61.453 53.2137 62.3055C52.3612 63.1579 51.2051 63.6368 49.9996 63.6368C48.794 63.6368 47.6379 63.1579 46.7854 62.3055C45.933 61.453 45.4541 60.2969 45.4541 59.0914Z" fill="white"/>
<path d="M68.1822 54.5459C66.9766 54.5459 65.8205 55.0248 64.9681 55.8772C64.1156 56.7297 63.6367 57.8858 63.6367 59.0914C63.6367 60.2969 64.1156 61.453 64.9681 62.3055C65.8205 63.1579 66.9766 63.6368 68.1822 63.6368C69.3877 63.6368 70.5439 63.1579 71.3963 62.3055C72.2487 61.453 72.7276 60.2969 72.7276 59.0914C72.7276 57.8858 72.2487 56.7297 71.3963 55.8772C70.5439 55.0248 69.3877 54.5459 68.1822 54.5459Z" fill="white"/>
<path fill-rule="evenodd" clip-rule="evenodd" d="M13.6364 0C10.0198 0 6.55131 1.43668 3.994 3.994C1.43668 6.55131 0 10.0198 0 13.6364V68.1818C0 71.7984 1.43668 75.2669 3.994 77.8242C6.55131 80.3815 10.0198 81.8182 13.6364 81.8182H86.3636C89.9802 81.8182 93.4487 80.3815 96.006 77.8242C98.5633 75.2669 100 71.7984 100 68.1818V13.6364C100 10.0198 98.5633 6.55131 96.006 3.994C93.4487 1.43668 89.9802 0 86.3636 0H13.6364ZM86.3636 9.09091H13.6364C12.4308 9.09091 11.2747 9.5698 10.4222 10.4222C9.5698 11.2747 9.09091 12.4308 9.09091 13.6364V18.1818H90.9091V13.6364C90.9091 12.4308 90.4302 11.2747 89.5778 10.4222C88.7253 9.5698 87.5692 9.09091 86.3636 9.09091ZM9.09091 68.1818V27.2727H90.9091V68.1818C90.9091 69.3873 90.4302 70.5435 89.5778 71.3959C88.7253 72.2484 87.5692 72.7273 86.3636 72.7273H13.6364C12.4308 72.7273 11.2747 72.2484 10.4222 71.3959C9.5698 70.5435 9.09091 69.3873 9.09091 68.1818Z" fill="white"/>
</svg>
