<svg width="135" height="33" viewBox="0 0 135 33" fill="none" xmlns="http://www.w3.org/2000/svg">
<path fill-rule="evenodd" clip-rule="evenodd" d="M40.1562 21.0249C39.6598 21.1976 39.1265 21.2915 38.5713 21.2915C35.9085 21.2915 33.7499 19.1328 33.7499 16.47C33.7499 13.8072 35.9085 11.6486 38.5713 11.6486C39.1261 11.6486 39.6591 11.7423 40.1552 11.9148C40.4131 12.009 40.6916 12.0603 40.982 12.0603C42.3134 12.0603 43.3928 10.981 43.3928 9.64963C43.3928 8.58687 42.7051 7.68474 41.7504 7.36395L41.7505 7.36352C40.7551 7.01603 39.6853 6.82715 38.5713 6.82715C33.2457 6.82715 28.9285 11.1444 28.9285 16.47C28.9285 21.7956 33.2457 26.1129 38.5713 26.1129C39.6852 26.1129 40.755 25.924 41.7505 25.5765L41.7503 25.5762C42.705 25.2554 43.3928 24.3532 43.3928 23.2905C43.3928 21.9591 42.3134 20.8798 40.982 20.8798C40.6919 20.8798 40.4138 20.931 40.1562 21.0249Z" fill="#00AF32"/>
<path fill-rule="evenodd" clip-rule="evenodd" d="M62.412 12.4553C62.5847 12.9517 62.6785 13.485 62.6785 14.0402C62.6785 16.703 60.5199 18.8616 57.8571 18.8616C55.1943 18.8616 53.0357 16.703 53.0357 14.0402C53.0357 13.4854 53.1294 12.9524 53.3019 12.4563C53.396 12.1984 53.4474 11.9199 53.4474 11.6295C53.4474 10.2981 52.3681 9.21874 51.0367 9.21874C49.9739 9.21874 49.0718 9.90644 48.751 10.8611L48.7507 10.861C48.4032 11.8565 48.2144 12.9263 48.2144 14.0402C48.2144 19.3659 52.5316 23.6831 57.8572 23.6831C63.1828 23.6831 67.5001 19.3659 67.5001 14.0402C67.5001 12.9263 67.3112 11.8564 66.9637 10.861L66.9632 10.8612C66.6424 9.90646 65.7403 9.21874 64.6775 9.21874C63.3461 9.21874 62.2668 10.2981 62.2668 11.6295C62.2668 11.9196 62.3181 12.1977 62.412 12.4553Z" fill="#00AF32"/>
<path fill-rule="evenodd" clip-rule="evenodd" d="M86.5193 12.4553C86.692 12.9517 86.7859 13.485 86.7859 14.0402C86.7859 16.703 84.6272 18.8616 81.9644 18.8616C79.3016 18.8616 77.143 16.703 77.143 14.0402C77.143 13.4854 77.2367 12.9524 77.4092 12.4563C77.5034 12.1984 77.5547 11.9199 77.5547 11.6295C77.5547 10.2981 76.4754 9.21874 75.144 9.21874C74.0813 9.21874 73.1791 9.90646 72.8583 10.8612L72.8579 10.861C72.5104 11.8564 72.3215 12.9263 72.3215 14.0402C72.3215 19.3659 76.6388 23.6831 81.9644 23.6831C87.29 23.6831 91.6072 19.3659 91.6072 14.0402C91.6072 12.9263 91.4184 11.8565 91.0709 10.861L91.0706 10.8611C90.7498 9.90645 89.8476 9.21874 88.7849 9.21874C87.4535 9.21874 86.3742 10.2981 86.3742 11.6295C86.3742 11.9196 86.4254 12.1977 86.5193 12.4553Z" fill="#00AF32"/>
<path fill-rule="evenodd" clip-rule="evenodd" d="M129.912 12.4553C130.085 12.9517 130.179 13.485 130.179 14.0402C130.179 16.703 128.02 18.8616 125.357 18.8616C122.694 18.8616 120.536 16.703 120.536 14.0402C120.536 13.4854 120.629 12.9524 120.802 12.4563C120.896 12.1984 120.947 11.9199 120.947 11.6295C120.947 10.2981 119.868 9.21874 118.537 9.21874C117.474 9.21874 116.572 9.90644 116.251 10.8611L116.251 10.861C115.903 11.8565 115.714 12.9263 115.714 14.0402C115.714 19.3659 120.032 23.6831 125.357 23.6831C130.683 23.6831 135 19.3659 135 14.0402C135 12.9263 134.811 11.8564 134.464 10.861L134.463 10.8612C134.142 9.90646 133.24 9.21874 132.178 9.21874C130.846 9.21874 129.767 10.2981 129.767 11.6295C129.767 11.9196 129.818 12.1977 129.912 12.4553Z" fill="#00AF32"/>
<path fill-rule="evenodd" clip-rule="evenodd" d="M99.6713 11.8937C100.166 11.7224 100.697 11.6293 101.25 11.6293C103.913 11.6293 106.071 13.7879 106.071 16.4507C106.071 19.1135 103.913 21.2722 101.25 21.2722C100.693 21.2722 100.158 21.1777 99.6603 21.004L99.6603 21.004C99.404 20.9112 99.1275 20.8605 98.8392 20.8605C97.5078 20.8605 96.4284 21.9399 96.4284 23.2713C96.4284 24.334 97.1162 25.2362 98.0709 25.557L98.0707 25.5574C99.0662 25.9049 100.136 26.0938 101.25 26.0938C106.576 26.0938 110.893 21.7765 110.893 16.4509C110.893 11.1253 106.576 6.80803 101.25 6.80803C100.136 6.80803 99.0662 6.99692 98.0707 7.34442L98.0708 7.34474C97.1162 7.66552 96.4284 8.56766 96.4284 9.63042C96.4284 10.9618 97.5078 12.0411 98.8392 12.0411C99.1316 12.0411 99.4119 11.9891 99.6713 11.8937Z" fill="#00AF32"/>
<path fill-rule="evenodd" clip-rule="evenodd" d="M12.9836 18.6881C13.4501 18.5377 13.9477 18.4565 14.4643 18.4565C17.1271 18.4565 19.2857 20.6151 19.2857 23.2779C19.2857 25.9407 17.1271 28.0993 14.4643 28.0993C13.9124 28.0993 13.3822 28.0066 12.8884 27.8359C12.6283 27.7399 12.3471 27.6875 12.0537 27.6875C10.7223 27.6875 9.64296 28.7668 9.64296 30.0982C9.64296 31.161 10.3307 32.0631 11.2854 32.3839L11.2852 32.3843C12.2806 32.7318 13.3504 32.9207 14.4643 32.9207C19.7899 32.9207 24.1071 28.6034 24.1071 23.2778C24.1071 17.9522 19.7899 13.6349 14.4643 13.6349C13.3504 13.6349 12.2806 13.8238 11.2852 14.1713L11.2854 14.1718C11.2307 14.1901 11.1769 14.2104 11.1241 14.2325C10.6574 14.383 10.1596 14.4643 9.64287 14.4643C6.98007 14.4643 4.82145 12.3057 4.82145 9.64287C4.82145 6.98007 6.98007 4.82145 9.64287 4.82145C10.1977 4.82145 10.7307 4.91517 11.2268 5.08764C11.4847 5.1818 11.7631 5.23318 12.0536 5.23318C13.385 5.23318 14.4643 4.15386 14.4643 2.82246C14.4643 1.75969 13.7766 0.857545 12.8219 0.536767L12.8221 0.536371C11.8266 0.188884 10.7568 0 9.64286 0C4.31725 0 0 4.31725 0 9.64286C0 14.9685 4.31725 19.2857 9.64286 19.2857C10.7568 19.2857 11.8266 19.0968 12.8221 18.7493L12.8219 18.749C12.8767 18.7306 12.9306 18.7103 12.9836 18.6881Z" fill="#00AF32"/>
</svg>
