<svg width="111" height="115" viewBox="0 0 111 115" fill="none" xmlns="http://www.w3.org/2000/svg">
<path fill-rule="evenodd" clip-rule="evenodd" d="M60.5285 110.555C15.4719 121.819 2.13656 46.7719 2.72347 11.5717C15.3956 27.7638 78.7154 15.2208 107.169 3.19409C110.396 34.2876 109.315 98.3582 60.5285 110.555ZM47.9167 61.2634C47.9167 69.9207 44.7348 73.4385 39.221 73.4385C33.7072 73.4385 27.9494 69.9207 27.9494 61.2634C27.9494 52.6061 32.4193 45.5879 37.9331 45.5879C43.4469 45.5879 47.9167 52.6061 47.9167 61.2634ZM74.3611 65.3259C79.8749 65.3259 84.3447 60.8719 84.3447 52.2146C84.3447 43.5573 79.8749 39.665 74.3611 39.665C68.8473 39.665 64.3774 43.5573 64.3774 52.2146C64.3774 60.8719 68.8473 65.3259 74.3611 65.3259Z" fill="#FFBD73" stroke="#514026" stroke-width="5" stroke-linejoin="round"/>
</svg>
