<svg width="156" height="113" viewBox="0 0 156 113" fill="none" xmlns="http://www.w3.org/2000/svg">
<path fill-rule="evenodd" clip-rule="evenodd" d="M52.0158 108.578C13.8815 118.112 2.595 54.5948 3.09174 24.8026C13.8169 38.5071 67.4085 27.8912 91.4905 17.7122C94.2215 44.0285 93.3065 98.2555 52.0158 108.578ZM41.3416 66.8599C41.3416 74.1871 38.6486 77.1644 33.9819 77.1644C29.3152 77.1644 24.4421 74.1871 24.4421 66.8599C24.4421 59.5326 28.2252 53.5927 32.8918 53.5927C37.5585 53.5927 41.3416 59.5326 41.3416 66.8599ZM63.7232 70.2983C68.3898 70.2983 72.1729 66.5286 72.1729 59.2013C72.1729 51.8741 68.3898 48.5798 63.7232 48.5798C59.0565 48.5798 55.2734 51.8741 55.2734 59.2013C55.2734 66.5286 59.0565 70.2983 63.7232 70.2983Z" fill="#FFBD73" stroke="#514026" stroke-width="5" stroke-linejoin="round"/>
<path fill-rule="evenodd" clip-rule="evenodd" d="M116.586 85.1023C82.2748 93.6801 72.1198 36.531 72.5667 9.72558C82.2167 22.0561 130.436 12.5045 152.103 3.34595C154.56 27.024 153.737 75.8145 116.586 85.1023ZM106.982 47.5664C106.982 54.1591 104.559 56.8379 100.36 56.8379C96.1612 56.8379 91.7766 54.1591 91.7766 47.5664C91.7766 40.9738 95.1804 35.6294 99.3793 35.6294C103.578 35.6294 106.982 40.9738 106.982 47.5664ZM127.12 50.6601C131.318 50.6601 134.722 47.2683 134.722 40.6757C134.722 34.083 131.318 31.119 127.12 31.119C122.921 31.119 119.517 34.083 119.517 40.6757C119.517 47.2683 122.921 50.6601 127.12 50.6601Z" fill="#FFBD73" stroke="#514026" stroke-width="5" stroke-linejoin="round"/>
</svg>
