<svg width="168" height="146" viewBox="0 0 168 146" fill="none" xmlns="http://www.w3.org/2000/svg">
<path fill-rule="evenodd" clip-rule="evenodd" d="M64.0025 57.4712C45.6495 62.0594 40.2176 31.4905 40.4567 17.1524C45.6184 23.748 71.4106 18.6389 83.0005 13.74C84.3149 26.4053 83.8745 52.5032 64.0025 57.4712ZM58.8653 37.3934C58.8653 40.9198 57.5692 42.3527 55.3233 42.3527C53.0773 42.3527 50.732 40.9198 50.732 37.3934C50.732 33.867 52.5527 31.0083 54.7986 31.0083C57.0446 31.0083 58.8653 33.867 58.8653 37.3934ZM69.6369 39.0482C71.8828 39.0482 73.7035 37.2339 73.7035 33.7075C73.7035 30.1811 71.8828 28.5957 69.6369 28.5957C67.3909 28.5957 65.5703 30.1811 65.5703 33.7075C65.5703 37.2339 67.3909 39.0482 69.6369 39.0482Z" fill="#FFBD73" stroke="#514026" stroke-width="3" stroke-linejoin="round"/>
<path fill-rule="evenodd" clip-rule="evenodd" d="M112.1 45.4624C93.7472 50.0506 88.3153 19.4818 88.5544 5.14365C93.7161 11.7392 119.508 6.63006 131.098 1.7312C132.413 14.3965 131.972 40.4944 112.1 45.4624ZM106.963 25.3846C106.963 28.911 105.667 30.3439 103.421 30.3439C101.175 30.3439 98.8297 28.911 98.8297 25.3846C98.8297 21.8582 100.65 18.9995 102.896 18.9995C105.142 18.9995 106.963 21.8582 106.963 25.3846ZM117.735 27.0394C119.98 27.0394 121.801 25.2251 121.801 21.6987C121.801 18.1724 119.98 16.5869 117.735 16.5869C115.489 16.5869 113.668 18.1724 113.668 21.6987C113.668 25.2251 115.489 27.0394 117.735 27.0394Z" fill="#FFBD73" stroke="#514026" stroke-width="3" stroke-linejoin="round"/>
<path fill-rule="evenodd" clip-rule="evenodd" d="M34.8517 111.469C9.26854 117.865 1.69672 75.253 2.02998 55.2663C9.2252 64.4602 45.1783 57.3383 61.3341 50.5095C63.1663 68.1644 62.5525 104.544 34.8517 111.469ZM27.6907 83.4813C27.6907 88.397 25.884 90.3943 22.7533 90.3943C19.6225 90.3943 16.3533 88.397 16.3533 83.4813C16.3533 78.5657 18.8913 74.5808 22.022 74.5808C25.1527 74.5808 27.6907 78.5657 27.6907 83.4813ZM42.7058 85.788C45.8366 85.788 48.3745 83.259 48.3745 78.3434C48.3745 73.4278 45.8366 71.2177 42.7058 71.2177C39.5751 71.2177 37.0371 73.4278 37.0371 78.3434C37.0371 83.259 39.5751 85.788 42.7058 85.788Z" fill="#FFBD73" stroke="#514026" stroke-width="4" stroke-linejoin="round"/>
<path fill-rule="evenodd" clip-rule="evenodd" d="M138.867 101.327C113.284 107.723 105.712 65.1109 106.046 45.1242C113.241 54.3181 149.194 47.1962 165.35 40.3674C167.182 58.0223 166.568 94.4016 138.867 101.327ZM131.706 73.3392C131.706 78.2549 129.9 80.2522 126.769 80.2522C123.638 80.2522 120.369 78.2549 120.369 73.3392C120.369 68.4236 122.907 64.4387 126.038 64.4387C129.168 64.4387 131.706 68.4236 131.706 73.3392ZM146.721 75.6459C149.852 75.6459 152.39 73.1169 152.39 68.2013C152.39 63.2857 149.852 61.0756 146.721 61.0756C143.591 61.0756 141.053 63.2857 141.053 68.2013C141.053 73.1169 143.591 75.6459 146.721 75.6459Z" fill="#FFBD73" stroke="#514026" stroke-width="4" stroke-linejoin="round"/>
<path fill-rule="evenodd" clip-rule="evenodd" d="M85.9954 142.334C53.4548 150.469 43.8238 96.2694 44.2477 70.8473C53.3997 82.5415 99.1303 73.4828 119.68 64.7969C122.01 87.2531 121.229 133.526 85.9954 142.334ZM76.8869 106.735C76.8869 112.988 74.5889 115.528 70.6067 115.528C66.6246 115.528 62.4662 112.988 62.4662 106.735C62.4662 100.483 65.6944 95.4144 69.6766 95.4144C73.6587 95.4144 76.8869 100.483 76.8869 106.735ZM95.9855 109.669C99.9676 109.669 103.196 106.453 103.196 100.2C103.196 93.9478 99.9676 91.1367 95.9855 91.1367C92.0033 91.1367 88.7751 93.9478 88.7751 100.2C88.7751 106.453 92.0033 109.669 95.9855 109.669Z" fill="#FFBD73" stroke="#514026" stroke-width="5" stroke-linejoin="round"/>
</svg>
