<svg width="100" height="100" viewBox="0 0 100 100" fill="none" xmlns="http://www.w3.org/2000/svg">
<path d="M85.3555 14.6639C76.0716 5.38496 63.7792 0.208203 50.6771 0.0351562C50.4489 0.0144531 50.2224 0 50 0C49.7776 0 49.5511 0.0144531 49.3229 0.0351562C36.2208 0.208008 23.9284 5.38477 14.6445 14.6637C5.20087 24.1025 0 36.6518 0 49.9998C0 63.3479 5.20087 75.8973 14.6447 85.3359C23.9286 94.6148 36.2208 99.7916 49.3231 99.9645C49.5513 99.9854 49.7778 99.9996 50 99.9996C50.2224 99.9996 50.4489 99.9852 50.6771 99.9645C63.7794 99.7916 76.0718 94.6148 85.3555 85.3359C94.7991 75.8975 100 63.3482 100 49.9998C100 36.6518 94.7993 24.1025 85.3555 14.6639ZM18.8477 18.8646C24.1594 13.5559 30.5897 9.77246 37.6064 7.72832C36.0248 9.54805 34.4875 11.641 33.0566 13.9604C31.2316 16.9186 29.6515 20.1248 28.3283 23.5148H14.7985C16.0296 21.8873 17.3792 20.3324 18.8477 18.8646ZM11.0114 29.4557H26.327C24.7343 35.0264 23.7924 40.9611 23.5597 47.0295H6.04488C6.45624 40.8178 8.15423 34.8564 11.0114 29.4557ZM11.0116 70.5441C8.15404 65.1434 6.45604 59.182 6.04469 52.9703H23.5595C23.7922 59.0389 24.7341 64.9736 26.3268 70.5441H11.0116ZM18.8479 81.1352C17.379 79.6674 16.0294 78.1127 14.7985 76.485H28.3285C29.6516 79.875 31.2316 83.0813 33.0568 86.0395C34.4877 88.3588 36.025 90.4518 37.6066 92.2715C30.59 90.2273 24.1598 86.4439 18.8479 81.1352ZM47.0279 92.8363C44.5517 91.2172 41.2269 87.9641 38.1158 82.9215C36.8681 80.8992 35.7466 78.7453 34.7552 76.4852H47.0277V92.8363H47.0279ZM47.0279 70.5441H32.5288C30.7919 65.0398 29.7611 59.0889 29.5078 52.9703H47.0279V70.5441ZM47.0279 47.0295H29.5078C29.7609 40.9109 30.7917 34.9598 32.5288 29.4557H47.0279V47.0295ZM47.0279 23.5146H34.7554C35.7468 21.2545 36.8683 19.1006 38.116 17.0783C41.2269 12.0357 44.5519 8.78242 47.0281 7.16348V23.5146H47.0279ZM88.9886 29.4557C91.8462 34.8566 93.544 40.8178 93.9553 47.0295H76.4403C76.2076 40.9609 75.2657 35.0262 73.673 29.4557H88.9886ZM81.1525 18.8646C82.621 20.3324 83.9706 21.8873 85.2017 23.5148H71.6719C70.3487 20.1248 68.7688 16.9186 66.9436 13.9604C65.5127 11.641 63.9756 9.54805 62.3938 7.72832C69.4103 9.77246 75.8406 13.5559 81.1525 18.8646ZM52.9721 7.16348C55.4483 8.78262 58.7731 12.0357 61.8842 17.0783C63.1319 19.1006 64.2534 21.2545 65.2448 23.5146H52.9723V7.16348H52.9721ZM52.9721 29.4557H67.4712C69.2083 34.96 70.2391 40.9113 70.4922 47.0295H52.9721V29.4557ZM70.492 52.9703C70.2389 59.0889 69.2081 65.04 67.471 70.5441H52.9719V52.9703H70.492ZM52.9721 92.8363V76.4852H65.2446C64.2533 78.7453 63.1317 80.8992 61.884 82.9215C58.7731 87.9643 55.4483 91.2172 52.9721 92.8363ZM81.1525 81.1354C75.8406 86.4441 69.4105 90.2273 62.3938 92.2717C63.9754 90.452 65.5127 88.359 66.9436 86.0396C68.7686 83.0814 70.3487 79.8752 71.6719 76.4852H85.2017C83.9708 78.1127 82.621 79.6676 81.1525 81.1354ZM88.9886 70.5441H73.673C75.2657 64.9736 76.2078 59.0389 76.4403 52.9703H93.9551C93.5438 59.182 91.8458 65.1434 88.9886 70.5441Z" fill="#555555"/>
</svg>
