<svg width="100" height="100" viewBox="0 0 100 100" fill="none" xmlns="http://www.w3.org/2000/svg">
<path d="M85.3555 14.6644C76.0716 5.38545 63.7792 0.208691 50.6771 0.0356445C50.4489 0.0149414 50.2224 0.000488281 50 0.000488281C49.7776 0.000488281 49.5511 0.0149414 49.3229 0.0356445C36.2208 0.208496 23.9284 5.38525 14.6445 14.6642C5.20087 24.103 0 36.6522 0 50.0003C0 63.3483 5.20087 75.8978 14.6447 85.3364C23.9286 94.6153 36.2208 99.7921 49.3231 99.9649C49.5513 99.9858 49.7778 100 50 100C50.2224 100 50.4489 99.9856 50.6771 99.9649C63.7794 99.7921 76.0718 94.6153 85.3555 85.3364C94.7991 75.8979 100 63.3487 100 50.0003C100 36.6522 94.7993 24.103 85.3555 14.6644ZM18.8477 18.8651C24.1594 13.5563 30.5897 9.77295 37.6064 7.72881C36.0248 9.54854 34.4875 11.6415 33.0566 13.9608C31.2316 16.919 29.6515 20.1253 28.3283 23.5153H14.7985C16.0296 21.8878 17.3792 20.3329 18.8477 18.8651ZM11.0114 29.4562H26.327C24.7343 35.0269 23.7924 40.9616 23.5597 47.03H6.04488C6.45624 40.8183 8.15423 34.8569 11.0114 29.4562ZM11.0116 70.5446C8.15404 65.1439 6.45604 59.1825 6.04469 52.9708H23.5595C23.7922 59.0394 24.7341 64.9741 26.3268 70.5446H11.0116ZM18.8479 81.1356C17.379 79.6679 16.0294 78.1132 14.7985 76.4855H28.3285C29.6516 79.8755 31.2316 83.0817 33.0568 86.0399C34.4877 88.3593 36.025 90.4522 37.6066 92.272C30.59 90.2278 24.1598 86.4444 18.8479 81.1356ZM47.0279 92.8368C44.5517 91.2177 41.2269 87.9646 38.1158 82.922C36.8681 80.8997 35.7466 78.7458 34.7552 76.4856H47.0277V92.8368H47.0279ZM47.0279 70.5446H32.5288C30.7919 65.0403 29.7611 59.0894 29.5078 52.9708H47.0279V70.5446ZM47.0279 47.03H29.5078C29.7609 40.9114 30.7917 34.9603 32.5288 29.4562H47.0279V47.03ZM47.0279 23.5151H34.7554C35.7468 21.255 36.8683 19.1011 38.116 17.0788C41.2269 12.0362 44.5519 8.78291 47.0281 7.16396V23.5151H47.0279ZM88.9886 29.4562C91.8462 34.8571 93.544 40.8183 93.9553 47.03H76.4403C76.2076 40.9614 75.2657 35.0267 73.673 29.4562H88.9886ZM81.1525 18.8651C82.621 20.3329 83.9706 21.8878 85.2017 23.5153H71.6719C70.3487 20.1253 68.7688 16.919 66.9436 13.9608C65.5127 11.6415 63.9756 9.54854 62.3938 7.72881C69.4103 9.77295 75.8406 13.5563 81.1525 18.8651ZM52.9721 7.16396C55.4483 8.7831 58.7731 12.0362 61.8842 17.0788C63.1319 19.1011 64.2534 21.255 65.2448 23.5151H52.9723V7.16396H52.9721ZM52.9721 29.4562H67.4712C69.2083 34.9604 70.2391 40.9118 70.4922 47.03H52.9721V29.4562ZM70.492 52.9708C70.2389 59.0894 69.2081 65.0405 67.471 70.5446H52.9719V52.9708H70.492ZM52.9721 92.8368V76.4856H65.2446C64.2533 78.7458 63.1317 80.8997 61.884 82.922C58.7731 87.9648 55.4483 91.2177 52.9721 92.8368ZM81.1525 81.1358C75.8406 86.4446 69.4105 90.2278 62.3938 92.2722C63.9754 90.4524 65.5127 88.3595 66.9436 86.0401C68.7686 83.0819 70.3487 79.8757 71.6719 76.4856H85.2017C83.9708 78.1132 82.621 79.6681 81.1525 81.1358ZM88.9886 70.5446H73.673C75.2657 64.9741 76.2078 59.0394 76.4403 52.9708H93.9551C93.5438 59.1825 91.8458 65.1439 88.9886 70.5446Z" fill="white"/>
</svg>
