<svg width="144" height="169" viewBox="0 0 144 169" fill="none" xmlns="http://www.w3.org/2000/svg">
<path d="M28.7398 163.104C29.7698 163.104 30.6898 162.754 31.3098 162.074L30.8398 161.604C30.2698 162.194 29.5698 162.444 28.7698 162.444C27.0798 162.444 25.8098 161.204 25.8098 159.544C25.8098 157.884 27.0798 156.644 28.7698 156.644C29.5698 156.644 30.2698 156.894 30.8398 157.474L31.3098 157.004C30.6898 156.324 29.7698 155.984 28.7498 155.984C26.6398 155.984 25.0798 157.494 25.0798 159.544C25.0798 161.594 26.6398 163.104 28.7398 163.104ZM32.7373 163.044H33.4473V155.624H32.7373V163.044ZM40.0129 160.414C40.0129 158.834 38.9429 157.744 37.4629 157.744C35.9829 157.744 34.8929 158.854 34.8929 160.414C34.8929 161.974 36.0129 163.094 37.6529 163.094C38.4829 163.094 39.2129 162.794 39.6829 162.234L39.2829 161.774C38.8829 162.234 38.3129 162.464 37.6729 162.464C36.5229 162.464 35.6829 161.734 35.6029 160.634H40.0029C40.0029 160.554 40.0129 160.474 40.0129 160.414ZM37.4629 158.354C38.4929 158.354 39.2429 159.074 39.3329 160.104H35.6029C35.6929 159.074 36.4429 158.354 37.4629 158.354ZM43.1515 157.744C42.3215 157.744 41.5415 158.004 41.0115 158.454L41.3315 158.984C41.7615 158.604 42.4015 158.364 43.0815 158.364C44.0615 158.364 44.5715 158.854 44.5715 159.754V160.074H42.9015C41.3915 160.074 40.8715 160.754 40.8715 161.564C40.8715 162.474 41.6015 163.094 42.7915 163.094C43.6615 163.094 44.2815 162.764 44.6015 162.224V163.044H45.2815V159.784C45.2815 158.424 44.5115 157.744 43.1515 157.744ZM42.9015 162.534C42.0615 162.534 41.5715 162.154 41.5715 161.544C41.5715 161.004 41.9015 160.604 42.9215 160.604H44.5715V161.464C44.2915 162.154 43.7015 162.534 42.9015 162.534ZM49.89 157.744C48.98 157.744 48.27 158.114 47.89 158.754V157.784H47.21V163.044H47.92V160.284C47.92 159.084 48.63 158.384 49.76 158.384C50.76 158.384 51.34 158.954 51.34 160.064V163.044H52.05V159.994C52.05 158.484 51.17 157.744 49.89 157.744ZM58.4347 157.744C57.6047 157.744 56.8247 158.004 56.2947 158.454L56.6147 158.984C57.0447 158.604 57.6847 158.364 58.3647 158.364C59.3447 158.364 59.8547 158.854 59.8547 159.754V160.074H58.1847C56.6747 160.074 56.1547 160.754 56.1547 161.564C56.1547 162.474 56.8847 163.094 58.0747 163.094C58.9447 163.094 59.5647 162.764 59.8847 162.224V163.044H60.5647V159.784C60.5647 158.424 59.7947 157.744 58.4347 157.744ZM58.1847 162.534C57.3447 162.534 56.8547 162.154 56.8547 161.544C56.8547 161.004 57.1847 160.604 58.2047 160.604H59.8547V161.464C59.5747 162.154 58.9847 162.534 58.1847 162.534ZM62.4932 163.044H63.2032V155.624H62.4932V163.044ZM65.1787 163.044H65.8887V155.624H65.1787V163.044ZM71.8915 163.094C73.2615 163.094 74.0615 162.504 74.0615 161.594C74.0615 159.574 70.6515 160.644 70.6515 159.224C70.6515 158.724 71.0715 158.354 72.0215 158.354C72.5615 158.354 73.1115 158.484 73.5715 158.804L73.8815 158.234C73.4415 157.934 72.7015 157.744 72.0215 157.744C70.6815 157.744 69.9415 158.384 69.9415 159.244C69.9415 161.324 73.3515 160.244 73.3515 161.614C73.3515 162.134 72.9415 162.474 71.9415 162.474C71.2015 162.474 70.4915 162.214 70.0715 161.884L69.7515 162.444C70.1815 162.814 71.0215 163.094 71.8915 163.094ZM79.404 157.784V160.544C79.404 161.744 78.714 162.454 77.614 162.454C76.614 162.454 76.034 161.884 76.034 160.764V157.784H75.324V160.834C75.324 162.344 76.204 163.094 77.544 163.094C78.384 163.094 79.064 162.724 79.434 162.084V163.044H80.114V157.784H79.404ZM82.7825 158.814V157.784H82.1025V163.044H82.8125V160.364C82.8125 159.124 83.4825 158.424 84.5825 158.424C84.6325 158.424 84.6925 158.434 84.7525 158.434V157.744C83.7825 157.744 83.1125 158.114 82.7825 158.814ZM87.8562 156.174C88.1562 156.174 88.4362 156.264 88.6362 156.434L88.8762 155.904C88.6162 155.684 88.2162 155.574 87.8262 155.574C86.7962 155.574 86.2362 156.194 86.2362 157.134V157.784H85.2962V158.384H86.2362V163.044H86.9462V158.384H88.5462V157.784H86.9262V157.164C86.9262 156.514 87.2462 156.174 87.8562 156.174ZM91.2472 157.744C90.4172 157.744 89.6372 158.004 89.1072 158.454L89.4272 158.984C89.8572 158.604 90.4972 158.364 91.1772 158.364C92.1572 158.364 92.6672 158.854 92.6672 159.754V160.074H90.9972C89.4872 160.074 88.9672 160.754 88.9672 161.564C88.9672 162.474 89.6972 163.094 90.8872 163.094C91.7572 163.094 92.3772 162.764 92.6972 162.224V163.044H93.3772V159.784C93.3772 158.424 92.6072 157.744 91.2472 157.744ZM90.9972 162.534C90.1572 162.534 89.6672 162.154 89.6672 161.544C89.6672 161.004 89.9972 160.604 91.0172 160.604H92.6672V161.464C92.3872 162.154 91.7972 162.534 90.9972 162.534ZM97.5052 163.094C98.3952 163.094 99.1452 162.734 99.5652 162.054L99.0352 161.694C98.6752 162.224 98.1152 162.464 97.5052 162.464C96.3552 162.464 95.5152 161.654 95.5152 160.414C95.5152 159.184 96.3552 158.364 97.5052 158.364C98.1152 158.364 98.6752 158.614 99.0352 159.144L99.5652 158.784C99.1452 158.094 98.3952 157.744 97.5052 157.744C95.9352 157.744 94.7952 158.844 94.7952 160.414C94.7952 161.984 95.9352 163.094 97.5052 163.094ZM105.462 160.414C105.462 158.834 104.392 157.744 102.912 157.744C101.432 157.744 100.342 158.854 100.342 160.414C100.342 161.974 101.462 163.094 103.102 163.094C103.932 163.094 104.662 162.794 105.132 162.234L104.732 161.774C104.332 162.234 103.762 162.464 103.122 162.464C101.972 162.464 101.132 161.734 101.052 160.634H105.452C105.452 160.554 105.462 160.474 105.462 160.414ZM102.912 158.354C103.942 158.354 104.692 159.074 104.782 160.104H101.052C101.142 159.074 101.892 158.354 102.912 158.354ZM108.317 163.094C109.687 163.094 110.487 162.504 110.487 161.594C110.487 159.574 107.077 160.644 107.077 159.224C107.077 158.724 107.497 158.354 108.447 158.354C108.987 158.354 109.537 158.484 109.997 158.804L110.307 158.234C109.867 157.934 109.127 157.744 108.447 157.744C107.107 157.744 106.367 158.384 106.367 159.244C106.367 161.324 109.777 160.244 109.777 161.614C109.777 162.134 109.367 162.474 108.367 162.474C107.627 162.474 106.917 162.214 106.497 161.884L106.177 162.444C106.607 162.814 107.447 163.094 108.317 163.094Z" fill="#4F4F4F"/>
<path d="M2.93555 70.1732C2.93555 31.4937 34.2944 0.134766 72.9633 0.134766C111.643 0.134766 143.002 31.4937 143.002 70.1732C143.002 108.853 111.643 140.201 72.9633 140.201C34.2944 140.201 2.93555 108.853 2.93555 70.1732Z" fill="#64AF19"/>
<mask id="mask0" mask-type="alpha" maskUnits="userSpaceOnUse" x="2" y="0" width="142" height="141">
<path d="M2.93555 70.1732C2.93555 31.4937 34.2944 0.134766 72.9633 0.134766C111.643 0.134766 143.002 31.4937 143.002 70.1732C143.002 108.853 111.643 140.201 72.9633 140.201C34.2944 140.201 2.93555 108.853 2.93555 70.1732Z" fill="#64AF19"/>
</mask>
<g mask="url(#mask0)">
<path opacity="0.5" d="M23.4629 109.784C23.4629 102.688 46.3453 96.9297 74.579 96.9297C102.813 96.9297 125.706 102.688 125.706 109.784C125.706 116.879 102.823 122.627 74.579 122.627C46.356 122.627 23.4629 116.879 23.4629 109.784Z" fill="#D1E7E0"/>
<path d="M74.3124 55.8946C74.1947 42.7303 64.2305 40.9001 64.2305 40.9001C57.6269 39.8192 58.2049 32.9694 58.2049 32.9694L57.4022 26.0983C52.9392 24.8354 47.1169 27.5646 47.1169 27.5646L47.5878 34.0611C47.5129 39.6051 42.2793 41.9811 42.2793 41.9811C32.4542 46.4976 33.5673 57.1896 33.5673 57.1896L35.3867 106.861C55.283 116.044 75.7359 103.746 75.7359 103.746L74.3124 55.8946ZM68.9932 61.2995C68.9932 61.2995 65.2365 62.2199 62.3361 54.9742C62.3361 54.9742 58.5046 46.2622 61.7582 44.8494C61.7582 44.8494 64.8191 43.8327 65.6325 47.0863C65.6325 47.0863 69.1966 48.0709 68.7791 51.5493C68.7791 51.5493 71.5404 53.326 69.9029 56.5689C69.9029 56.5689 71.1123 59.6727 68.9932 61.2995Z" fill="#FFD369"/>
<path d="M31.8965 68.9416C31.8965 68.9416 57.1656 75.9198 76.6552 66.084L76.2699 89.2553C76.2699 89.2553 55.6137 100.675 33.1273 93.1618L31.8965 68.9416Z" fill="white"/>
<path d="M49.6719 75.4053C49.6719 75.4053 50.3247 81.0349 47.0176 82.4262C47.0176 82.4262 50.0571 83.6999 50.2926 88.8265C50.2926 88.8265 50.4638 83.2182 52.7756 82.1908C52.7756 82.1908 50.0893 81.6985 49.6719 75.4053Z" fill="#D1E7E0"/>
<path d="M42.8242 80.0303C42.8242 80.0303 43.4771 85.6492 40.1699 87.0512C40.1699 87.0512 43.2095 88.3249 43.4449 93.4515C43.4449 93.4515 43.6162 87.8432 45.928 86.8158C45.928 86.8158 43.2416 86.3235 42.8242 80.0303Z" fill="#D1E7E0"/>
<path d="M61.0512 82.8975C61.0512 82.8975 61.4793 86.6006 59.3066 87.5103C59.3066 87.5103 61.308 88.3451 61.4579 91.7272C61.4579 91.7272 61.5649 88.0348 63.0847 87.3605C63.0954 87.3605 61.3294 87.0394 61.0512 82.8975Z" fill="#D1E7E0"/>
<path d="M95.5782 44.4121H96.1454C97.1622 44.4121 97.9756 45.2362 97.9756 46.2423V53.5522C97.9756 54.569 97.1515 55.3824 96.1454 55.3824H95.5782C94.5615 55.3824 93.748 54.5583 93.748 53.5522V46.2423C93.748 45.2362 94.5722 44.4121 95.5782 44.4121Z" fill="#940A37"/>
<path d="M80.433 104.134C80.433 104.134 78.2496 69.5963 82.4023 60.0388C82.4023 60.0388 84.6391 52.6646 95.7485 52.4505C95.7485 52.4505 108.164 51.5087 109.405 60.2421C109.405 60.2421 113.301 87.7159 112.573 101.64C112.584 101.64 104.375 109.432 80.433 104.134Z" fill="white"/>
<path d="M93.3946 70.7285C92.3779 70.7285 91.5644 71.5526 91.5644 72.5694V76.8184H87.3155C86.2987 76.8184 85.4746 77.6317 85.4746 78.6485V81.7095C85.4746 82.7262 86.2987 83.5396 87.3155 83.5396H91.5644V87.7886C91.5644 88.7947 92.3779 89.6188 93.3946 89.6188H96.4556C97.4723 89.6188 98.2964 88.7947 98.2964 87.7886V83.5396H102.545C103.562 83.5396 104.376 82.7155 104.376 81.7095V78.6485C104.376 77.6317 103.562 76.8184 102.545 76.8184H98.2964V72.5694C98.2964 71.5526 97.4723 70.7285 96.4556 70.7285H93.3946Z" fill="#E26241"/>
<path d="M85.4111 47.4949L102.557 46.2105C102.557 46.2105 102.867 37.6698 97.0664 37.9481C97.0664 37.9481 92.4963 37.7447 90.5912 41.3408C88.6969 44.9369 87.6801 44.0486 84.3516 44.2519C84.3623 44.2412 84.4907 46.3176 85.4111 47.4949Z" fill="white"/>
<path d="M81.8901 47.9756C81.8901 47.9756 78.2298 51.7001 79.9208 55.5638C79.9208 55.5638 80.6379 56.5806 82.0185 55.9063C82.0185 55.9063 83.945 54.044 82.8319 50.5228L81.8901 47.9756Z" fill="#D1E7E0"/>
<path d="M47.1045 33.5481L46.3125 26.966C46.3125 26.966 54.286 23.4876 58.2674 25.9278L58.5778 32.1354C58.5778 32.1247 54.0077 34.8753 47.1045 33.5481Z" fill="#E26241"/>
<path d="M76.3228 108.555L65.6094 115.8L65.6308 123.025L93.5327 123.239L101.399 116.389L101.367 109.143L76.3228 108.555Z" fill="#FFD369"/>
<path d="M65.4395 115.798L76.1529 108.553L101.24 109.141L93.3735 115.991L65.4395 115.798Z" fill="#FFAA9B"/>
<path d="M93.4481 122.455C93.309 122.455 93.1912 122.337 93.1912 122.198C93.1591 120.271 93.1484 117.028 93.1484 117.028H93.6622C93.6622 117.028 93.6729 120.271 93.705 122.198C93.7157 122.326 93.5979 122.455 93.4481 122.455C93.4588 122.455 93.4588 122.455 93.4481 122.455Z" fill="#FFAA9B"/>
<path opacity="0.5" d="M86.7812 120.699C86.7812 119.854 87.4662 119.18 88.301 119.18C89.1465 119.18 89.8208 119.865 89.8208 120.699C89.8208 121.545 89.1358 122.23 88.301 122.23C87.4662 122.23 86.7812 121.545 86.7812 120.699Z" fill="#FFAA9B"/>
<path opacity="0.5" d="M82.2969 117.736C82.2969 117.265 82.6822 116.88 83.1531 116.88C83.624 116.88 84.0093 117.265 84.0093 117.736C84.0093 118.218 83.624 118.592 83.1531 118.592C82.6822 118.603 82.2969 118.218 82.2969 117.736Z" fill="#FFAA9B"/>
<path opacity="0.5" d="M73.4238 118.998C73.4238 118.216 74.066 117.574 74.8473 117.574C75.6286 117.574 76.2707 118.216 76.2707 118.998C76.2707 119.779 75.6393 120.421 74.8473 120.421C74.0553 120.421 73.4238 119.779 73.4238 118.998Z" fill="#FFAA9B"/>
<path opacity="0.5" d="M78.8086 121.995C78.8086 121.642 79.0976 121.353 79.4508 121.353C79.804 121.353 80.0929 121.642 80.0929 121.995C80.0929 122.348 79.804 122.637 79.4508 122.637C79.0976 122.637 78.8086 122.348 78.8086 121.995Z" fill="#FFAA9B"/>
<path opacity="0.5" d="M67.3887 120.41C67.3887 119.843 67.8489 119.383 68.4161 119.383C68.9834 119.383 69.4436 119.843 69.4436 120.41C69.4436 120.978 68.9834 121.438 68.4161 121.438C67.8489 121.448 67.3887 120.988 67.3887 120.41Z" fill="#FFAA9B"/>
<path opacity="0.5" d="M98.5325 114.043C98.297 113.744 98.4576 113.219 98.8857 112.887C99.3138 112.545 99.8596 112.523 100.095 112.823C100.331 113.133 100.17 113.647 99.7419 113.979C99.3031 114.311 98.7679 114.343 98.5325 114.043Z" fill="#FFAA9B"/>
<path opacity="0.5" d="M95.5449 119.126C95.181 118.655 95.4272 117.853 96.1015 117.328C96.7757 116.804 97.6213 116.761 97.9851 117.221C98.349 117.692 98.1029 118.495 97.4286 119.03C96.7543 119.544 95.9088 119.597 95.5449 119.126Z" fill="#FFAA9B"/>
<path d="M74.2279 114.973C74.1851 114.973 74.1423 114.963 74.0995 114.93C73.9817 114.856 73.9389 114.706 74.0138 114.577C74.549 113.678 75.266 112.94 75.9617 112.233C76.454 111.72 76.9785 111.195 77.4066 110.617C77.4922 110.5 77.6528 110.478 77.7705 110.564C77.8882 110.649 77.9096 110.81 77.824 110.928C77.3745 111.527 76.85 112.073 76.3363 112.597C75.662 113.293 74.9664 113.999 74.4633 114.845C74.3991 114.931 74.3135 114.973 74.2279 114.973Z" fill="#FFAA9B"/>
<path d="M78.7099 113.261C78.6456 113.261 78.5921 113.239 78.5386 113.197C78.4316 113.1 78.4209 112.94 78.5172 112.833C79.2129 112.051 79.7694 111.463 80.2939 110.917C80.3902 110.821 80.5614 110.821 80.6577 110.917C80.7541 111.013 80.7541 111.185 80.6577 111.281C80.1333 111.805 79.5875 112.394 78.9025 113.165C78.8597 113.239 78.7848 113.261 78.7099 113.261Z" fill="#FFAA9B"/>
<path d="M80.1878 113.08C80.1236 113.08 80.0594 113.059 80.0058 113.005C79.9095 112.909 79.9095 112.738 80.0058 112.641L80.1878 112.449C80.4661 112.17 80.7443 111.892 81.0547 111.624C81.1617 111.539 81.3223 111.55 81.4186 111.657C81.5042 111.764 81.4935 111.924 81.3865 112.02C81.0975 112.267 80.8192 112.534 80.5624 112.802L80.3697 112.994C80.3269 113.048 80.252 113.08 80.1878 113.08Z" fill="#FFAA9B"/>
<path d="M89.5335 111.785C89.4586 111.785 89.3837 111.753 89.3302 111.689C89.2446 111.582 89.266 111.421 89.373 111.325C89.5656 111.175 89.7583 111.015 89.9509 110.854C90.4861 110.415 91.0426 109.966 91.6313 109.612C91.749 109.538 91.9095 109.58 91.9844 109.698C92.0594 109.816 92.0166 109.976 91.8988 110.051C91.3423 110.383 90.8071 110.822 90.2827 111.25C90.0794 111.411 89.8867 111.571 89.6941 111.721C89.6406 111.774 89.587 111.785 89.5335 111.785Z" fill="#FFAA9B"/>
<path d="M88.5804 115.039C88.5161 115.039 88.4519 115.007 88.3984 114.964C88.3021 114.868 88.3021 114.696 88.3984 114.6C89.1797 113.829 90.2393 112.759 91.2774 111.989C91.3952 111.903 91.5557 111.924 91.6413 112.042C91.727 112.16 91.7055 112.32 91.5878 112.406C90.5818 113.166 89.5329 114.215 88.773 114.975C88.7195 115.007 88.6446 115.039 88.5804 115.039Z" fill="#FFAA9B"/>
<path d="M91.7698 113.85C91.7056 113.85 91.6414 113.829 91.5879 113.775C91.4915 113.679 91.4915 113.508 91.5879 113.411L91.6949 113.304C91.8982 113.101 92.0695 112.93 92.3157 112.705C92.4227 112.608 92.5832 112.619 92.6795 112.716C92.7759 112.823 92.7652 112.983 92.6581 113.079C92.4227 113.293 92.2514 113.465 92.0588 113.657L91.9518 113.764C91.8983 113.829 91.834 113.85 91.7698 113.85Z" fill="#FFAA9B"/>
<path d="M95.62 111.238C95.5451 111.238 95.4809 111.206 95.4274 111.152C95.331 111.045 95.3417 110.885 95.4488 110.788C95.6093 110.649 95.7591 110.499 95.8983 110.36C95.9946 110.264 96.1658 110.264 96.2622 110.36C96.3585 110.457 96.3585 110.628 96.2622 110.724C96.1123 110.874 95.9518 111.035 95.7912 111.174C95.7484 111.217 95.6842 111.238 95.62 111.238Z" fill="#FFAA9B"/>
</g>
</svg>
