<svg width="690" height="435" viewBox="0 0 690 435" fill="none" xmlns="http://www.w3.org/2000/svg">
<path d="M330.614 55.152H338.742C338.742 47.6 349.686 46.64 349.686 36.208C349.686 28.848 343.414 24.56 334.006 24.56C326.006 24.56 320.246 27.504 316.662 32.368L322.87 36.4C325.11 33.264 328.566 31.472 333.302 31.472C338.23 31.472 341.302 33.904 341.302 37.488C341.302 43.888 330.614 45.68 330.614 55.152ZM334.71 70.448C337.654 70.448 339.766 68.208 339.766 65.456C339.766 62.704 337.654 60.528 334.71 60.528C331.702 60.528 329.59 62.704 329.59 65.456C329.59 68.208 331.702 70.448 334.71 70.448Z" fill="#4F4F4F"/>
<path d="M543.703 395.578H157.057V401.131H543.703V395.578Z" fill="#E0EFD1"/>
<path d="M84.993 435C131.933 435 169.986 417.886 169.986 396.775C169.986 375.664 131.933 358.55 84.993 358.55C38.0526 358.55 0 375.664 0 396.775C0 417.886 38.0526 435 84.993 435Z" fill="#64AF19"/>
<path d="M605.007 435C651.947 435 690 417.886 690 396.775C690 375.664 651.947 358.55 605.007 358.55C558.066 358.55 520.014 375.664 520.014 396.775C520.014 417.886 558.066 435 605.007 435Z" fill="#64AF19"/>
<path d="M605.008 423.246C644.29 423.246 676.134 410.859 676.134 395.578C676.134 380.297 644.29 367.909 605.008 367.909C565.727 367.909 533.883 380.297 533.883 395.578C533.883 410.859 565.727 423.246 605.008 423.246Z" fill="#E0EFD1"/>
<path d="M84.9925 423.246C124.274 423.246 156.118 410.859 156.118 395.578C156.118 380.297 124.274 367.909 84.9925 367.909C45.7111 367.909 13.8672 380.297 13.8672 395.578C13.8672 410.859 45.7111 423.246 84.9925 423.246Z" fill="#E0EFD1"/>
<path d="M585.648 374.412C585.648 374.412 575.581 385.874 573.611 387.027C571.641 388.181 566.397 391.793 564.265 395.567C562.134 399.341 563.447 400.495 563.447 400.495C563.447 400.495 578.079 400.657 583.237 396.883C588.383 393.109 591.333 387.459 591.333 387.459L592.97 389.162L598.87 386.693L601.099 376.999C601.109 377.01 587.22 375.263 585.648 374.412Z" fill="#0F1129"/>
<path d="M603.533 372.859L604.287 383.976C604.287 383.976 607.797 387.642 608.647 387.782C609.487 387.922 610.478 387.782 610.478 387.782C610.478 387.782 611.748 386.801 612.168 386.801C612.588 386.801 620.319 391.588 620.889 393.842C621.449 396.096 634.111 398.209 636.07 398.349C638.041 398.489 641.691 397.228 641.691 396.796C641.691 396.376 636.21 389.054 632.97 387.081C629.74 385.108 624.475 380.73 622.612 378.552C620.739 376.374 618.779 371.748 618.779 371.748L603.533 372.859Z" fill="#0F1129"/>
<path d="M567.057 199.299C567.057 199.299 580.784 332.197 580.601 336.402C580.418 340.618 584.079 373.57 584.079 373.57C584.079 373.57 593.769 379.059 597.613 378.509C601.457 377.959 601.457 377.959 601.457 377.959L602.372 372.471C602.372 372.471 609.865 375.22 613.526 373.937C617.187 372.654 620.288 371.004 620.288 371.004L642.963 199.288L638.72 184.969L567.057 199.299Z" fill="#593227"/>
<path d="M613.331 74.6501C613.331 74.6501 617.734 79.7503 619.209 80.2463C620.695 80.7424 644.899 84.6996 649.841 93.1102C654.783 101.521 670.341 159.166 668.618 165.355C666.885 171.544 632.054 218.298 629.341 218.05C626.628 217.802 619.209 211.376 618.229 210.136C617.239 208.896 616.248 202.48 616.248 202.48L616.991 198.016C616.991 198.016 593.272 201.499 585.617 202.48C577.962 203.461 567.83 200.496 567.335 198.016C566.84 195.547 567.335 182.92 567.335 182.92C567.335 182.92 561.65 174.509 560.423 168.816C559.184 163.123 555.481 136.155 555.481 136.155C555.481 136.155 539.18 162.627 529.296 164.363C519.412 166.099 510.766 162.875 509.776 136.403C508.785 109.931 508.29 84.4516 509.776 83.4596C511.261 82.4676 511.261 82.4676 511.261 82.4676C511.261 82.4676 510.239 65.6788 511.671 65.075C513.113 64.4711 526.432 65.916 526.798 67.3609C527.153 68.8058 527.401 81.0658 527.401 81.0658C527.401 81.0658 532.084 86.9532 532.687 89.843C533.29 92.7328 534.249 109.683 534.97 109.802C535.691 109.921 557.3 82.0255 559.583 80.8286C561.865 79.621 579.587 77.583 579.587 77.583L613.331 74.6501Z" fill="#5574A6"/>
<path d="M567.333 182.92C567.333 182.92 589.847 185.778 599.128 184.505C608.419 183.233 624.031 180.138 624.031 180.138L616.979 198.016C616.979 198.016 585.475 204.238 582.654 204.378C579.844 204.518 571.403 203.677 569.993 202.48C568.582 201.283 566.332 199.019 566.332 197.477C566.332 195.935 567.333 182.92 567.333 182.92Z" fill="#7B8EAD"/>
<path d="M581.149 18.8491C581.149 18.8491 569.025 25.8255 567.346 38.3335C565.666 50.8416 569.392 66.5952 575.755 69.3556C582.118 72.116 598.57 65.0317 604.093 54.5616C604.093 54.5616 610.693 55.1655 613.223 48.9115C615.742 42.6574 609.024 40.4901 606.741 42.4202C606.741 42.4202 606.978 26.548 600.734 21.6202C594.478 16.6817 581.149 18.8491 581.149 18.8491Z" fill="#FFAA82"/>
<path d="M582.204 31.7132C581.989 31.8534 575.744 48.653 576.325 48.2864C576.907 47.9198 583.151 42.399 583.151 42.1833C583.151 41.9677 583.151 31.7887 583.151 31.7132C583.151 31.6378 582.204 31.7132 582.204 31.7132Z" fill="#DB6240"/>
<path d="M575.67 39.5626C575.67 41.73 573.915 43.4876 571.751 43.4876C569.587 43.4876 567.832 41.73 567.832 39.5626C567.832 37.3953 569.587 35.6377 571.751 35.6377C573.915 35.6377 575.67 37.3953 575.67 39.5626Z" fill="#DB6240"/>
<path d="M590.687 45.6658C592.851 45.6658 594.606 43.9085 594.606 41.7409C594.606 39.5732 592.851 37.8159 590.687 37.8159C588.522 37.8159 586.768 39.5732 586.768 41.7409C586.768 43.9085 588.522 45.6658 590.687 45.6658Z" fill="#DB6240"/>
<path d="M590.355 34.5278C590.355 35.4551 589.602 36.1991 588.686 36.1991C587.771 36.1991 587.018 35.4443 587.018 34.5278C587.018 33.6112 587.771 32.8564 588.686 32.8564C589.602 32.8564 590.355 33.6005 590.355 34.5278Z" fill="#2E1711"/>
<path d="M577.951 31.4433C577.951 32.3706 577.197 33.1146 576.282 33.1146C575.356 33.1146 574.613 32.3598 574.613 31.4433C574.613 30.5268 575.367 29.772 576.282 29.772C577.208 29.772 577.951 30.516 577.951 31.4433Z" fill="#2E1711"/>
<path d="M593.272 29.7723C593.272 29.7723 590.871 25.7611 588.674 25.8582C586.478 25.966 586.769 28.6833 586.769 28.6833C586.769 28.6833 588.147 27.0659 589.557 27.5295C590.968 28.004 593.272 29.7723 593.272 29.7723Z" fill="#2E1711"/>
<path d="M580.471 25.8581C580.471 25.8581 579.352 23.4536 577.952 23.7124C576.552 23.9711 574.604 26.958 574.604 26.958C574.604 26.958 577.392 25.1572 578.221 25.3298C579.061 25.4915 580.471 25.8581 580.471 25.8581Z" fill="#2E1711"/>
<path d="M581.151 18.8492C581.151 18.8492 588.881 26.1168 594.609 28.4028C600.337 30.6887 602.329 31.4543 602.329 31.4543C602.329 31.4543 599.196 34.6029 599.196 36.2203C599.196 37.8377 601.974 34.9048 601.974 34.9048C601.974 34.9048 598.335 40.5442 599.627 44.6848C600.908 48.8254 602.91 48.8254 603.836 47.3266C604.762 45.8278 603.793 45.914 605.258 44.1672C606.722 42.4204 608.035 41.5362 609.672 41.7519C611.308 41.9675 613.16 44.1672 613.16 44.1672C613.16 44.1672 619.287 39.3581 616.014 31.4543C612.73 23.5505 609.812 20.4882 608.391 16.7035C606.969 12.9187 605.042 13.5657 605.042 16.7035C605.042 19.8412 606.259 21.5557 606.259 21.5557C606.259 21.5557 600.133 4.56204 595.277 1.78008C590.432 -1.00188 584.122 -0.430386 583.143 2.84758C582.163 6.13633 582.303 6.98817 582.303 6.98817C582.303 6.98817 578.244 1.42425 572.107 2.49175C565.98 3.55924 564.764 8.20662 565.83 12.9834C566.896 17.771 574.594 24.1112 574.594 24.1112L581.151 18.8492Z" fill="#2E1711"/>
<path d="M580.642 69.8623C580.642 69.8623 579.803 71.4582 579.717 73.0324C579.63 74.6067 579.458 79.7932 579.717 80.5804C579.975 81.3675 589.45 85.5405 594.618 84.5269C599.786 83.5133 602.488 82.2733 602.488 82.2733C602.488 82.2733 604.383 149.256 605.481 149.806C606.58 150.356 607.495 149.806 607.495 149.806C607.495 149.806 607.624 161.775 608.248 162.184C608.862 162.594 609.379 162.702 609.379 162.184C609.379 161.667 609.121 150.27 609.121 150.119C609.121 149.968 610.456 149.342 610.456 149.342C610.456 149.342 610.865 162.81 611.382 162.853C611.898 162.907 612.566 162.745 612.566 162.54C612.566 162.335 612.049 148.566 612.049 148.566L613.696 147.994C613.696 147.994 613.029 161.462 613.696 161.667C614.364 161.872 614.881 161.462 614.881 161.462V147.692L616.216 146.97C616.216 146.97 616.065 158.27 616.474 158.367C616.883 158.475 617.142 157.796 617.142 157.645C617.142 157.494 617.142 146.765 617.142 146.765C617.142 146.765 617.809 146.194 618.068 146.097C618.326 145.989 618.994 155.952 619.252 155.952C619.51 155.952 620.081 155.23 620.027 154.971C619.973 154.712 619.36 146.097 619.36 146.097L620.027 145.223C620.027 145.223 621.266 155.025 621.728 154.615C622.191 154.205 622.299 152.857 622.138 152.297C621.976 151.736 621.524 147.444 621.47 147.293C621.416 147.143 616.808 102.761 616.076 96.1723C615.344 89.584 611.231 77.2161 611.231 77.2161C611.231 77.2161 613.33 75.3831 613.33 74.6499C613.33 73.9166 607.387 59.5432 606.106 58.3571C604.825 57.171 604.071 54.5615 604.071 54.5615C604.071 54.5615 594.779 65.1934 590.343 66.8539C585.907 68.5144 580.642 69.8623 580.642 69.8623Z" fill="#AB3E20"/>
<path d="M581.945 71.0595C581.945 71.0595 590.763 71.5448 597.902 68.3315C605.04 65.1182 605.998 61.9912 605.998 61.9912C605.998 61.9912 604.233 70.984 599.021 75.3942C593.81 79.8044 588.438 78.7692 588.438 78.7692" stroke="#5C2111" stroke-width="0.5" stroke-miterlimit="10" stroke-linecap="round" stroke-linejoin="round"/>
<path d="M567.087 48.6203C567.087 48.6203 573.709 51.1758 581.375 50.324C589.041 49.4722 591.022 48.092 591.668 48.2861C592.303 48.4801 597.202 61.193 596.567 63.1124C595.932 65.0317 585.359 69.8516 580.89 70.4231C576.422 70.9946 573.515 70.8544 571.028 65.8081C568.541 60.7617 567.357 53.8284 567.098 52.06C566.84 50.3132 567.087 48.6203 567.087 48.6203Z" fill="#7FA6A5"/>
<path d="M591.668 48.2865L607.893 41.8276L607 42.4746L592.486 49.7422L591.668 48.2865Z" fill="#7FA6A5"/>
<path d="M595.92 61.6674L604.081 54.5508H605.416L595.92 63.4897V61.6674Z" fill="#7FA6A5"/>
<path d="M635.371 90.5332C635.371 90.5332 628.211 99.9358 628.211 104.885C628.211 109.834 633.4 149.655 633.4 149.655C633.4 149.655 624.259 104.389 624.507 101.424C624.755 98.4585 626.488 94.2533 626.488 94.2533" stroke="#334563" stroke-miterlimit="10"/>
<path d="M660.812 156.588C660.812 156.588 641.055 150.895 635.37 156.588C629.685 162.282 616.604 200.356 616.604 200.356" stroke="#334563" stroke-miterlimit="10"/>
<path d="M635.371 156.588C635.371 156.588 641.54 151.391 648.463 148.426C655.376 145.461 654.644 146.442 654.644 146.442" stroke="#334563" stroke-miterlimit="10"/>
<path d="M550.936 103.591C550.936 103.591 552.551 115.291 552.734 119.248C552.917 123.205 555.468 136.166 555.468 136.166" stroke="#334563" stroke-miterlimit="10"/>
<path d="M526.12 66.8326C526.12 66.8326 531.6 59.0798 531.848 58.0446C532.095 57.0095 533.614 40.9 533.183 40.4687C532.752 40.0374 531.719 41.2666 531.169 42.2371C530.62 43.2183 528.305 48.89 527.207 49.6772C526.109 50.4751 525.442 50.7123 525.442 50.7123C525.442 50.7123 521.91 22.5261 520.629 20.5744C519.348 18.6228 518.196 19.8412 518.196 19.8412C518.196 19.8412 516.247 17.9542 515.213 18.1375C514.18 18.3208 512.715 21.6743 512.597 22.1056C512.478 22.5369 510.766 23.9387 510.282 24.8552C509.797 25.7717 506.686 53.7099 507.601 56.3409C508.516 58.9612 511.671 65.0858 511.671 65.0858L526.12 66.8326Z" fill="#FFAA82"/>
<path d="M511.67 65.0859C511.67 65.0859 521.468 65.9593 522.405 65.8839C523.342 65.8084 527.336 65.0859 527.336 65.0859C527.336 65.0859 528.327 65.9054 528.402 66.8435C528.477 67.7709 527.659 81.4219 527.659 81.4219C527.659 81.4219 521.102 83.9882 518.647 84.344C516.192 84.7106 511.25 82.4786 511.25 82.4786C511.25 82.4786 509.969 67.5013 510.335 66.8435C510.701 66.175 511.67 65.0859 511.67 65.0859Z" fill="#7B8EAD"/>
<path d="M512.854 65.2476C512.747 65.323 511.896 67.5766 511.821 67.9864C511.745 68.3961 512.671 82.4353 512.854 82.651C513.037 82.8774 513.737 83.2009 513.737 83.2009C513.737 83.2009 513.22 69.0539 513.328 68.7196C513.436 68.3853 514.588 65.9484 514.588 65.9484L515.589 65.7651C515.589 65.7651 516.031 68.1697 515.772 68.7627C515.514 69.3558 515.105 68.504 515.029 70.7899C514.954 73.0759 515.589 84.0096 515.848 84.0635C516.106 84.1282 517.527 83.7832 517.506 84.0635C517.484 84.3439 516.73 71.1565 516.806 70.9409C516.881 70.7144 518.388 66.2504 518.388 66.0994C518.388 65.9484 519.713 65.9161 519.713 65.9161C519.713 65.9161 519.681 68.7628 519.713 69.2048C519.745 69.6469 519.045 71.0163 519.045 71.0163C519.045 71.0163 519.67 83.3626 519.896 83.5783C520.122 83.8047 521.414 83.6322 521.414 83.6322C521.414 83.6322 521.306 71.3075 521.414 70.833C521.522 70.3478 521.629 66.6601 521.629 66.6601L522.738 66.1749C522.738 66.1749 523.438 74.5208 523.546 76.6665C523.653 78.8123 523.514 82.5 523.546 82.5431C523.578 82.5863 524.655 82.1334 524.87 82.0256C525.096 81.9177 525.021 69.3882 524.87 68.4285C524.719 67.4688 524.644 65.9161 524.644 65.9161L526.108 65.3015C526.108 65.3015 526.97 71.1565 527.002 71.6417C527.034 72.127 527.185 81.2169 527.002 81.3247" stroke="#334563" stroke-width="0.5" stroke-miterlimit="10"/>
<path d="M534.959 109.812C534.959 109.812 539.729 115.786 539.933 119.884C540.138 123.981 539.933 132.564 539.933 132.564C539.933 132.564 543.691 129.847 543.691 128.585C543.691 127.335 542.022 116.034 541.398 115.193C540.773 114.352 538.264 109.823 538.264 109.823L543.702 113.101" stroke="#334563" stroke-miterlimit="10"/>
<path d="M570.285 183.265C570.285 183.265 568.261 199.105 568.466 199.644C568.67 200.183 568.778 201.477 569.37 201.477C569.962 201.477 572.105 183.459 572.363 183.491C572.622 183.524 573.752 184.106 573.752 184.106C573.752 184.106 571.244 201.822 571.448 202.167C571.653 202.502 572.934 202.987 573.139 203.051C573.343 203.116 575.852 184.861 575.852 184.861C575.852 184.861 578.156 184.451 578.296 184.796C578.436 185.13 576.056 202.782 576.196 203.051C576.336 203.321 577.887 203.051 577.887 203.051C577.887 203.051 579.782 186.015 580.126 185.67C580.46 185.335 583.044 185.605 583.044 186.414C583.044 187.233 581.827 203.591 582.032 203.795C582.236 204 583.593 204 583.862 203.795C584.131 203.591 585.014 186.489 585.628 186.079C586.242 185.67 586.845 185.745 586.845 185.745C586.845 185.745 586.435 202.351 586.845 202.329C587.254 202.307 587.997 202.243 588.137 202.038C588.277 201.833 588.47 187.039 589.084 186.694C589.698 186.36 590.581 185.81 590.645 186.155C590.71 186.489 590.441 201.089 590.645 201.359C590.85 201.628 592.271 201.154 592.271 201.154C592.271 201.154 592.745 186.219 593.014 185.885C593.283 185.551 594.78 185.271 594.78 185.271C594.78 185.271 594.511 200.615 594.78 200.744C595.049 200.884 596.61 200.367 596.61 200.367C596.61 200.367 596.675 185.4 596.879 185.335C597.084 185.271 598.71 185.81 598.71 185.81V200.668C598.71 200.668 600.131 200.668 600.335 200.367C600.54 200.065 599.926 186.284 600.335 186.079C600.745 185.874 602.23 185.335 602.23 185.335C602.23 185.335 601.552 199.59 602.23 199.655C602.909 199.72 603.856 199.515 603.856 199.515C603.856 199.515 603.792 185.12 604.33 184.85C604.868 184.581 605.956 184.581 605.956 184.581C605.956 184.581 606.096 199.45 606.365 199.515C606.634 199.579 607.861 199.18 607.861 199.18C607.861 199.18 608.131 185.13 608.4 184.99C608.669 184.85 610.564 184.581 610.564 184.581V198.156C610.564 198.156 611.576 198.016 611.781 197.951C611.985 197.886 612.663 183.513 613.073 183.265C613.482 183.017 615.312 183.265 615.312 183.265C615.312 183.265 613.482 197.067 613.751 197.207C614.02 197.347 615.581 197.477 615.721 197.272C615.861 197.067 617.756 183.556 617.756 183.556" stroke="#334563" stroke-width="0.5" stroke-miterlimit="10"/>
<path d="M585.271 208.799C585.271 208.799 586.101 212.249 588.792 214.87C591.495 217.49 599.85 227.83 599.85 227.83L590.838 223.075" stroke="#361E17" stroke-miterlimit="10"/>
<path d="M599.85 227.83L602.358 372.47" stroke="#361E17" stroke-miterlimit="10"/>
<path d="M602.359 287.06C602.359 287.06 613.783 295.654 616.593 295.654C619.414 295.654 626.111 294.576 626.111 294.576C626.111 294.576 616.292 301.164 614.235 300.15" stroke="#361E17" stroke-miterlimit="10"/>
<path d="M601.111 341.018C601.111 341.018 598.139 347.455 593.101 349.342C588.062 351.218 583.238 351.218 583.238 351.218C583.238 351.218 590.926 353.903 592.175 353.633C593.424 353.364 597.978 350.679 597.978 350.679" stroke="#361E17" stroke-miterlimit="10"/>
<path d="M568.455 141.493C568.455 141.493 576.196 151.521 581.946 155.435C587.706 159.349 609.337 169.269 609.337 169.269C609.337 169.269 587.792 165.355 585.273 164.827" stroke="#334563" stroke-miterlimit="10"/>
<path d="M573.796 38.312C577.584 38.312 580.654 35.2368 580.654 31.4433C580.654 27.6499 577.584 24.5747 573.796 24.5747C570.008 24.5747 566.938 27.6499 566.938 31.4433C566.938 35.2368 570.008 38.312 573.796 38.312Z" stroke="#334563" stroke-width="0.5" stroke-miterlimit="10"/>
<path d="M590.689 40.6953C594.476 40.6953 597.547 37.6201 597.547 33.8266C597.547 30.0332 594.476 26.958 590.689 26.958C586.901 26.958 583.83 30.0332 583.83 33.8266C583.83 37.6201 586.901 40.6953 590.689 40.6953Z" stroke="#334563" stroke-width="0.5" stroke-miterlimit="10"/>
<path d="M580.514 32.8564L583.83 33.8269" stroke="#334563" stroke-width="0.5" stroke-miterlimit="10"/>
<path d="M570.252 54.0228C570.252 54.0228 571.867 56.2009 576.712 55.5539C581.557 54.907 588.792 53.2896 588.792 53.2896C588.792 53.2896 580.362 56.6861 579.705 56.9233" stroke="#334563" stroke-width="0.5" stroke-miterlimit="10"/>
<path d="M518.195 19.8521C518.195 19.8521 518.766 37.1476 519.175 38.9699" stroke="#964D39" stroke-width="0.5" stroke-miterlimit="10"/>
<path d="M513.006 21.1353L514.363 39.8542" stroke="#964D39" stroke-width="0.5" stroke-miterlimit="10"/>
<path d="M510.93 23.9927V40.6629" stroke="#964D39" stroke-width="0.5" stroke-miterlimit="10"/>
<path d="M527.219 49.688C527.219 49.688 519.392 54.0011 517.701 56.934" stroke="#964D39" stroke-width="0.5" stroke-miterlimit="10"/>
<path d="M524.418 51.3486L517.258 53.6022" stroke="#964D39" stroke-width="0.5" stroke-miterlimit="10"/>
<path d="M87.8892 303.514C87.8892 303.514 89.9672 307.008 89.5688 308.442C89.1812 309.876 78.7482 362.744 79.6634 367.057C80.5786 371.37 89.052 378.412 93.4772 379.846C97.9131 381.28 104.169 385.065 105.213 386.369C106.257 387.674 106.516 388.192 106.387 388.59C106.257 388.979 95.4367 389.507 92.0452 389.248C88.6537 388.989 84.8314 387.156 83.1626 387.286C81.4937 387.415 77.3162 387.286 76.1427 387.027C74.9691 386.768 68.186 370.184 67.4108 367.187C66.6248 364.189 67.6692 305.444 67.7338 304.787C67.7984 304.129 69.2304 299.697 69.2304 299.697C69.2304 299.697 72.7511 304.787 77.9622 304.787C83.1841 304.787 87.8892 303.514 87.8892 303.514Z" fill="#5E2212"/>
<path d="M54.9979 23.9277C54.9979 23.9277 66.9491 25.254 70.8036 29.9122C74.6581 34.5703 80.4937 57.3112 78.2434 62.6272C75.9824 67.9431 65.3663 67.6843 65.3663 67.6843L71.3419 84.3113L79.4385 81.1196C79.4385 81.1196 83.5837 105.855 65.8939 105.855C50.885 105.855 47.838 90.0262 47.838 90.0262L54.8795 89.3577L47.838 57.4406C47.838 57.4406 39.5799 62.2713 36.1237 54.8096C32.6676 47.3479 39.4722 43.0348 44.1019 43.2936C44.1019 43.2936 47.5042 35.034 50.0129 30.8719C52.4893 26.7205 54.9979 23.9277 54.9979 23.9277Z" fill="#FFAA82"/>
<path d="M65.3552 67.6736C65.3552 67.6736 58.8951 64.9779 57.6893 64.8809C56.4834 64.7946 50.5078 59.1768 50.5078 59.1768C50.5078 59.1768 57.3232 71.0809 59.7888 73.0003C62.2436 74.9196 69.0482 77.9173 69.0482 77.9173L65.3552 67.6736Z" fill="#DB6240"/>
<path d="M65.0859 35.8965L71.729 52.0168L67.3254 51.5207L65.0859 35.8965Z" fill="#DB6240"/>
<path d="M59.7759 53.7633C62.2495 53.7633 64.2548 51.755 64.2548 49.2776C64.2548 46.8003 62.2495 44.792 59.7759 44.792C57.3022 44.792 55.2969 46.8003 55.2969 49.2776C55.2969 51.755 57.3022 53.7633 59.7759 53.7633Z" fill="#DB6240"/>
<path d="M75.4536 40.6299C72.9772 40.6299 70.9746 42.6355 70.9746 45.1155C70.9746 47.5956 72.9772 49.6012 75.4536 49.6012C76.2611 49.6012 77.004 49.3747 77.6608 48.9973L75.5074 40.6299C75.4859 40.6299 75.4751 40.6299 75.4536 40.6299Z" fill="#DB6240"/>
<path d="M58.0006 53.9575C58.0006 53.9575 67.9922 54.4212 70.4685 54.2918C72.9449 54.1624 78.1345 52.6636 78.1345 52.6636C78.1345 52.6636 80.0833 60.6428 78.5328 63.4571C76.9824 66.2714 70.5547 67.6193 69.1227 68.0398C67.6907 68.4604 58.7973 67.6193 58.0006 66.8645C57.2038 66.1097 58.0006 53.9575 58.0006 53.9575Z" fill="#7FA6A5"/>
<path d="M59.5627 54.2814L44.6615 41.9243L44.0801 43.2937L59.0136 55.6508" fill="#7FA6A5"/>
<path d="M47.826 57.4404L58.7866 64.5786V66.498L47.0508 57.8286L47.826 57.4404Z" fill="#7FA6A5"/>
<path d="M59.1098 42.9914C59.9125 42.9914 60.5633 42.3397 60.5633 41.5358C60.5633 40.7318 59.9125 40.0801 59.1098 40.0801C58.307 40.0801 57.6562 40.7318 57.6562 41.5358C57.6562 42.3397 58.307 42.9914 59.1098 42.9914Z" fill="#2E1711"/>
<path d="M71.9324 38.6241C71.9324 39.4328 71.2864 40.0798 70.4789 40.0798C69.6714 40.0798 69.0254 39.4328 69.0254 38.6241C69.0254 37.8154 69.6714 37.1685 70.4789 37.1685C71.2864 37.1685 71.9324 37.8154 71.9324 38.6241Z" fill="#2E1711"/>
<path d="M72.1048 33.3088C71.9755 33.3088 69.4346 30.2896 67.0444 30.7101C64.6541 31.1306 65.9569 32.4785 67.0444 32.2197C68.1318 31.9609 69.5315 32.5324 70.3175 32.7157C71.1034 32.899 72.1048 33.3088 72.1048 33.3088Z" fill="#2E1711"/>
<path d="M58.6142 31.7773C58.6142 31.7773 56.6654 31.842 55.4488 32.7262C54.2322 33.6104 53.9199 36.36 53.9199 36.36C53.9199 36.36 55.3519 33.729 56.5685 33.3193C57.7852 32.9095 58.7004 32.7586 58.9157 32.5429C59.1418 32.3273 58.6142 31.7773 58.6142 31.7773Z" fill="#2E1711"/>
<path d="M53.1133 26.9575C53.1133 26.9575 56.2249 30.3972 60.9515 30.2139C65.6781 30.0306 69.5541 28.7258 69.5541 28.7258C69.5541 28.7258 73.0318 33.5997 74.0762 36.7375C75.1421 39.9399 79.395 54.2595 78.7274 59.1872C78.0707 64.1042 69.6833 67.9644 69.1235 68.0507C68.5744 68.1369 72.8165 74.488 81.9575 77.9277C95.3406 82.9632 100.875 64.6433 91.3676 52.6636C81.8606 40.684 77.7154 39.2822 74.916 34.0633C72.1166 28.8445 68.4882 21.5229 59.7564 21.6416C51.0245 21.7602 53.1133 26.9575 53.1133 26.9575Z" fill="#3B1D16"/>
<path d="M53.4467 26.2458C53.4467 26.2458 52.8976 34.926 50.4966 38.6245C48.0956 42.3122 44.0796 43.2934 44.0796 43.2934C44.0796 43.2934 37.1242 43.6277 35.4015 49.0514C33.6896 54.4752 38.4593 59.845 42.4322 58.9716C46.4052 58.0982 47.8156 57.4404 47.8156 57.4404L54.8571 89.3575L47.8156 90.026C47.8156 90.026 37.0058 121.264 31.8916 123.453C26.7773 125.652 11.2947 129.07 3.618 109.047C-4.05872 89.0232 11.7792 78.2836 21.7816 73.647C31.7731 69.0104 35.5523 62.9396 34.5833 53.7635C33.6035 44.5981 36.8981 37.9559 40.1928 31.9931C43.4874 26.041 49.9582 23.604 54.8679 22.6228C59.7775 21.6416 53.1237 26.9575 53.1237 26.9575" fill="#3B1D16"/>
<path d="M79.4267 81.1088C79.4267 81.1088 94.2957 72.0944 100.131 73.8304C105.967 75.5557 115.894 82.1116 115.582 82.3165C115.269 82.5214 102.22 112.099 102.22 112.099C102.22 112.099 97.9025 107.947 97.5042 108.799C97.1058 109.651 97.6657 117.339 97.5042 119.42C97.3427 121.49 97.5042 122.224 97.5042 122.224L99.7867 140.101C99.7867 140.101 81.1387 149.806 70.8995 150.539C60.6602 151.272 42.3783 141.201 42.3783 141.201L43.4765 119.043C43.4765 119.043 35.2506 116.476 30.1257 113.004C25.0114 109.521 21.7168 106.599 21.7168 106.599C21.7168 106.599 32.6881 95.245 35.9828 93.2287C39.2774 91.2123 47.8262 90.0154 47.8262 90.0154C47.8262 90.0154 54.9216 105.683 69.0368 100.194C83.1521 94.6951 79.4267 81.1088 79.4267 81.1088Z" fill="#E65430"/>
<path d="M59.7676 133.233C59.7676 133.233 70.7389 133.675 78.6848 129.696C86.6415 125.717 97.3867 112.573 97.3867 112.573C97.3867 112.573 85.2741 131.13 83.9928 132.65" stroke="#8C4634" stroke-miterlimit="10"/>
<path d="M97.3854 107.764C97.5038 107.462 91.819 82.7476 92.6372 82.9524C93.4555 83.1573 99.4418 107.871 99.3342 107.764C99.2265 107.656 102.381 87.9341 102.381 87.9341" stroke="#8C4634" stroke-miterlimit="10"/>
<path d="M113.988 85.6805L124.292 96.1613L127.813 62.0662C127.813 62.0662 119.533 50.7334 119.598 49.0406C119.662 47.3477 120.846 36.8776 121.525 36.0042C122.214 35.1308 123.269 37.751 123.334 38.743C123.398 39.7458 123.334 44.9108 123.893 46.2909C124.453 47.6604 127.188 49.0406 127.188 49.0406C127.188 49.0406 129.804 29.2757 130.429 27.3995C131.053 25.5341 132.421 24.9734 132.421 24.9734C132.421 24.9734 133.164 23.2266 133.982 22.9139C134.789 22.6012 135.274 25.7497 135.457 26.2997C135.64 26.8496 137.007 28.0357 137.19 28.9522C137.352 29.7609 143.166 98.5443 144.587 115.365C144.878 118.838 144.178 122.353 142.369 125.329C140.507 128.38 137.46 131.249 132.711 130.515C123.204 129.049 102.984 110.395 102.984 110.395L113.988 85.6805Z" fill="#FFAA82"/>
<path d="M124.292 96.1614L121.848 107.764L116.324 88.0635L124.292 96.1614Z" fill="#DB6240"/>
<path d="M91.4953 144.047L94.004 158.863C94.004 158.863 73.4515 163.777 64.3966 162.181C55.331 160.575 49.9355 153.881 49.9355 153.881L52.8749 146.172C52.8749 146.172 60.95 150.851 73.5686 149.245C73.5686 149.255 85.9612 146.614 91.4953 144.047Z" fill="#FFAA82"/>
<path d="M94.0049 158.874C94.0049 158.874 106.559 181.41 108.163 199.05C109.767 216.691 87.351 305.692 87.351 305.692C87.351 305.692 80.148 308.097 75.7444 305.692C71.3408 303.288 70.1349 301.282 70.1349 301.282C70.1349 301.282 56.1273 312.27 48.5152 309.585C40.9139 306.9 40.1063 301.681 40.1063 301.681C40.1063 301.681 38.5021 269.602 40.1063 259.585C41.7106 249.557 26.0988 221.5 27.2939 200.247C28.489 178.994 49.9257 153.881 49.9257 153.881C49.9257 153.881 60.068 163.974 74.3016 161.462C88.5461 158.949 94.0049 158.874 94.0049 158.874Z" fill="#324461"/>
<path d="M70.1348 199.428L83.4102 196.322" stroke="#222E42" stroke-miterlimit="10"/>
<path d="M25.5589 109.715C25.5589 109.715 11.7774 138.904 11.3252 143.12C10.873 147.336 11.6267 153.213 19.5941 157.278C27.5615 161.343 40.7723 166.39 40.7723 166.39L49 155L34.0216 140.263L43.464 119.053C43.4748 119.053 33.1818 116.368 25.5589 109.715Z" fill="#FFAA82"/>
<path d="M25.5621 109.715C25.5621 109.715 31.8607 114.46 36.8027 116.487C41.7446 118.525 43.4781 119.042 43.4781 119.042C43.4781 119.042 35.6829 121.965 30.3641 122.04C25.0453 122.116 21.4492 118.59 21.4492 118.59L25.5621 109.715Z" fill="#DB6240"/>
<path d="M52.8772 146.182C52.8772 146.182 62.029 150.614 72.8496 148.684C83.6702 146.754 91.5084 144.047 91.5084 144.047L91.9391 146.603C91.9391 146.603 73.2264 154.712 68.2307 155.844C63.2349 156.976 51.0469 150.981 51.0469 150.981L52.8772 146.182Z" fill="#DB6240"/>
<path d="M69.3291 301.282C69.3291 301.282 69.8351 306.35 70.1366 308.744C70.438 311.149 68.5861 364.556 69.3291 368.621C70.072 372.686 83.1644 398.381 83.1644 403.741C83.1644 409.1 83.1644 409.1 81.5063 410.027C79.8482 410.954 65.27 402.263 62.5029 391.728C59.7358 381.194 60.468 372.88 56.6027 364.556C52.7267 356.242 39.279 325.404 38.3638 317.166C37.4486 308.927 37.6316 301.239 38.3638 300.323C39.0959 299.406 39.9788 298.759 39.9788 298.759C39.9788 298.759 44.9423 309.477 55.0846 307.741C65.2377 306.005 69.3291 301.282 69.3291 301.282Z" fill="#AB3E20"/>
<path d="M70.1348 301.282V199.428C70.1348 199.428 84.4977 191.622 86.2311 188.732C87.9646 185.842 90.5593 184.106 90.5593 184.106" stroke="#222E42" stroke-miterlimit="10"/>
</svg>
