<svg width="141" height="163" viewBox="0 0 141 163" fill="none" xmlns="http://www.w3.org/2000/svg">
<path d="M44.0052 157.063V154.463H47.6252V153.833H44.0052V151.343H48.0652V150.703H43.2652V157.703H48.2152V157.063H44.0052ZM51.5665 152.403C50.7365 152.403 49.9565 152.663 49.4265 153.113L49.7465 153.643C50.1765 153.263 50.8165 153.023 51.4965 153.023C52.4765 153.023 52.9865 153.513 52.9865 154.413V154.733H51.3165C49.8065 154.733 49.2865 155.413 49.2865 156.223C49.2865 157.133 50.0165 157.753 51.2065 157.753C52.0765 157.753 52.6965 157.423 53.0165 156.883V157.703H53.6965V154.443C53.6965 153.083 52.9265 152.403 51.5665 152.403ZM51.3165 157.193C50.4765 157.193 49.9865 156.813 49.9865 156.203C49.9865 155.663 50.3165 155.263 51.3365 155.263H52.9865V156.123C52.7065 156.813 52.1165 157.193 51.3165 157.193ZM58.145 156.873C57.945 157.053 57.655 157.143 57.365 157.143C56.775 157.143 56.455 156.803 56.455 156.183V153.043H58.055V152.443H56.455V151.293H55.745V152.443H54.805V153.043H55.745V156.223C55.745 157.193 56.295 157.753 57.285 157.753C57.695 157.753 58.115 157.633 58.395 157.383L58.145 156.873ZM64.9846 152.403C64.0946 152.403 63.4046 152.753 63.0146 153.363V150.283H62.3046V157.703H63.0146V154.943C63.0146 153.743 63.7246 153.043 64.8546 153.043C65.8546 153.043 66.4346 153.613 66.4346 154.723V157.703H67.1446V154.653C67.1446 153.143 66.2646 152.403 64.9846 152.403ZM73.6818 155.073C73.6818 153.493 72.6118 152.403 71.1318 152.403C69.6518 152.403 68.5618 153.513 68.5618 155.073C68.5618 156.633 69.6818 157.753 71.3218 157.753C72.1518 157.753 72.8818 157.453 73.3518 156.893L72.9518 156.433C72.5518 156.893 71.9818 157.123 71.3418 157.123C70.1918 157.123 69.3518 156.393 69.2718 155.293H73.6718C73.6718 155.213 73.6818 155.133 73.6818 155.073ZM71.1318 153.013C72.1618 153.013 72.9118 153.733 73.0018 154.763H69.2718C69.3618 153.733 70.1118 153.013 71.1318 153.013ZM76.8204 152.403C75.9904 152.403 75.2104 152.663 74.6804 153.113L75.0004 153.643C75.4304 153.263 76.0704 153.023 76.7504 153.023C77.7304 153.023 78.2404 153.513 78.2404 154.413V154.733H76.5704C75.0604 154.733 74.5404 155.413 74.5404 156.223C74.5404 157.133 75.2704 157.753 76.4604 157.753C77.3304 157.753 77.9504 157.423 78.2704 156.883V157.703H78.9504V154.443C78.9504 153.083 78.1804 152.403 76.8204 152.403ZM76.5704 157.193C75.7304 157.193 75.2404 156.813 75.2404 156.203C75.2404 155.663 75.5704 155.263 76.5904 155.263H78.2404V156.123C77.9604 156.813 77.3704 157.193 76.5704 157.193ZM80.8789 157.703H81.5889V150.283H80.8789V157.703ZM86.1039 156.873C85.9039 157.053 85.6139 157.143 85.3239 157.143C84.7339 157.143 84.4139 156.803 84.4139 156.183V153.043H86.0139V152.443H84.4139V151.293H83.7039V152.443H82.7639V153.043H83.7039V156.223C83.7039 157.193 84.2539 157.753 85.2439 157.753C85.6539 157.753 86.0739 157.633 86.3539 157.383L86.1039 156.873ZM90.3264 152.403C89.4364 152.403 88.7464 152.753 88.3564 153.363V150.283H87.6464V157.703H88.3564V154.943C88.3564 153.743 89.0664 153.043 90.1964 153.043C91.1964 153.043 91.7764 153.613 91.7764 154.723V157.703H92.4864V154.653C92.4864 153.143 91.6064 152.403 90.3264 152.403ZM98.0364 152.443L96.0564 156.913L94.0764 152.443H93.3364L95.6864 157.693L95.4564 158.203C95.1564 158.863 94.8364 159.083 94.3664 159.083C93.9864 159.083 93.6664 158.943 93.4064 158.683L93.0764 159.213C93.3964 159.533 93.8664 159.693 94.3564 159.693C95.1064 159.693 95.6664 159.363 96.1064 158.333L98.7364 152.443H98.0364Z" fill="#4F4F4F"/>
<path d="M0.869141 70.0336C0.869141 31.354 32.2173 0.00585938 70.8969 0.00585938C109.576 0.00585938 140.925 31.3647 140.925 70.0336C140.925 108.713 109.576 140.072 70.8969 140.072C32.2173 140.061 0.869141 108.713 0.869141 70.0336Z" fill="white"/>
<path opacity="0.5" d="M21.8672 109.666C21.8672 102.977 43.4545 97.5508 70.0721 97.5508C96.7004 97.5508 118.277 102.977 118.277 109.666C118.277 116.355 96.6897 121.782 70.0721 121.782C43.4438 121.771 21.8672 116.355 21.8672 109.666Z" fill="#D1E7E0"/>
<path d="M73.7647 101.874C73.7647 101.874 47.6394 105.867 53.3226 58.7961C53.3226 58.7961 54.3179 37.059 74.5567 34.8649C74.5567 34.8649 96.9896 30.8728 97.2893 72.5491C97.3 72.5598 99.0873 100.269 73.7647 101.874Z" fill="#FFD369"/>
<g opacity="0.7">
<path opacity="0.7" d="M84.3595 52.6206C84.199 52.6206 84.0384 52.5457 83.9421 52.4065L79.3185 45.9528L75.1659 51.9463C75.0696 52.0855 74.9197 52.1604 74.7378 52.1711C74.5665 52.1711 74.406 52.0748 74.3097 51.9356L70.8313 46.4773L65.8545 51.1651C65.7368 51.2828 65.5656 51.3256 65.405 51.2935C65.2445 51.2614 65.1054 51.1544 65.0411 50.9938L62.4083 45.0752L54.9378 51.0901C54.713 51.2721 54.3919 51.2293 54.21 51.0152C54.0281 50.7905 54.0709 50.4694 54.2849 50.2874L62.2798 43.8551C62.4083 43.7588 62.5688 43.716 62.7293 43.7588C62.8792 43.7909 63.0076 43.9086 63.0825 44.0477L65.694 49.9128L70.5958 45.2893C70.7029 45.1822 70.8634 45.1287 71.0132 45.1501C71.1631 45.1715 71.3022 45.2571 71.3878 45.3856L74.7913 50.7262L78.9225 44.7756C79.0188 44.6364 79.1794 44.5508 79.3399 44.5508C79.5005 44.5615 79.661 44.6257 79.7573 44.7648L84.3381 51.1543L87.6773 45.2358C87.7415 45.118 87.8593 45.0324 87.9877 44.9896C88.1161 44.9575 88.266 44.9682 88.3837 45.0431L96.2074 49.6346C96.4535 49.7737 96.5392 50.0948 96.3893 50.3409C96.2395 50.5871 95.9291 50.662 95.6829 50.5229L88.3088 46.199L84.8304 52.3744C84.7448 52.5243 84.5843 52.6206 84.413 52.6313C84.3809 52.6206 84.3702 52.6206 84.3595 52.6206Z" fill="#5B0909"/>
</g>
<g opacity="0.7">
<path opacity="0.7" d="M91.6512 67.4757C91.5014 67.4757 91.3623 67.4115 91.266 67.3045L85.8397 61.2575L82.5861 66.7693C82.5004 66.9085 82.3506 67.0048 82.1794 67.0155C82.0081 67.0262 81.8476 66.962 81.7406 66.8336L77.5879 61.8033L72.7396 67.0904C72.6326 67.2081 72.4934 67.2617 72.3329 67.2617C72.183 67.251 72.0332 67.1761 71.9476 67.0476L67.8592 61.3431L62.9573 66.2449C62.7647 66.4376 62.465 66.4483 62.2509 66.2663L56.4715 61.2681L50.7883 66.1593C50.5743 66.3412 50.2532 66.3198 50.0606 66.1058C49.8786 65.8917 49.9 65.5707 50.1141 65.378L56.1397 60.1979C56.3323 60.0266 56.6213 60.0266 56.814 60.1979L62.5613 65.1746L67.5488 60.1872C67.6558 60.0802 67.8056 60.0266 67.9555 60.0373C68.1053 60.048 68.2445 60.123 68.3301 60.2514L72.4078 65.9345L77.224 60.6795C77.3203 60.5725 77.4702 60.5083 77.62 60.5083C77.7699 60.5083 77.909 60.5832 78.0053 60.6902L82.0616 65.6135L85.2938 60.123C85.3795 59.9838 85.5186 59.8875 85.6898 59.8768C85.8504 59.8661 86.0109 59.9196 86.1287 60.048L91.6191 66.17L96.9491 59.7912C97.131 59.5771 97.4521 59.545 97.6769 59.727C97.8909 59.9089 97.923 60.23 97.7411 60.4548L92.0365 67.2938C91.9509 67.4115 91.8118 67.4757 91.6512 67.4757Z" fill="#5B0909"/>
</g>
<g opacity="0.7">
<path opacity="0.7" d="M61.8108 82.2032C61.6717 82.2032 61.5326 82.1496 61.4255 82.0319L55.9993 75.9742L50.6158 81.0259C50.4125 81.2185 50.0807 81.2078 49.888 81.0044C49.6954 80.8011 49.7061 80.4693 49.9094 80.2767L55.6782 74.8611C55.7745 74.7648 55.9137 74.722 56.0528 74.722C56.1919 74.722 56.3204 74.7862 56.4167 74.8932L61.8644 80.9723L67.3655 76.2845C67.5475 76.124 67.8151 76.124 68.0077 76.2631L73.1771 80.2017L79.7057 74.829C79.9091 74.6684 80.1981 74.6791 80.38 74.8504L84.7574 78.9388L90.2265 72.849C90.3228 72.742 90.4513 72.6777 90.6011 72.6777C90.7402 72.6777 90.8794 72.7313 90.9864 72.8383L95.7384 77.7401L98.885 73.9621C99.0669 73.7373 99.388 73.7159 99.6128 73.8979C99.8268 74.0798 99.8589 74.4009 99.677 74.6256L96.1665 78.8425C96.0702 78.9602 95.931 79.0245 95.7919 79.0245C95.6528 79.0459 95.5029 78.9709 95.4066 78.8746L90.6439 73.9621L85.1962 80.0305C85.0999 80.1375 84.9715 80.191 84.8323 80.2017C84.6932 80.2017 84.5648 80.1589 84.4577 80.0626L80.0268 75.9314L73.5303 81.272C73.3483 81.4218 73.0808 81.4325 72.8881 81.2827L67.7294 77.3548L62.164 82.0961C62.0463 82.171 61.9286 82.2032 61.8108 82.2032Z" fill="#5B0909"/>
</g>
<g opacity="0.7">
<path opacity="0.7" d="M55.0883 93.3663C54.992 93.3663 54.9063 93.3449 54.8207 93.2914C54.5746 93.1415 54.5103 92.8204 54.6602 92.585L58.1814 86.934C58.2563 86.8055 58.3847 86.7199 58.5346 86.6985C58.6844 86.6771 58.8235 86.7092 58.9413 86.8055L65.3415 91.9214L71.0781 86.9768C71.2601 86.8162 71.5383 86.8162 71.731 86.9553L77.0288 91.0331L83.8999 85.6818C84.0926 85.5319 84.3709 85.5426 84.5528 85.7032L88.7376 89.3207L94.3672 84.6222C94.5384 84.483 94.7739 84.4616 94.9558 84.5687L97.7492 86.1848C97.9954 86.3239 98.081 86.645 97.9419 86.8911C97.8027 87.1373 97.4817 87.2229 97.2355 87.0838L94.7525 85.6496L89.0586 90.4016C88.866 90.5622 88.5877 90.5622 88.3951 90.4016L84.1889 86.7734L77.3285 92.1034C77.1465 92.2425 76.879 92.2425 76.697 92.1034L71.4099 88.0363L65.6733 92.981C65.4913 93.1415 65.213 93.1522 65.0204 92.9917L58.7379 87.9721L55.5164 93.1308C55.4201 93.2807 55.2595 93.3663 55.0883 93.3663Z" fill="#5B0909"/>
</g>
<path opacity="0.5" d="M90.6435 35.5601C90.1726 41.5429 89.7445 47.0869 88.4816 52.8984C87.8715 55.6918 87.0153 58.528 85.9236 61.1823C84.543 64.5323 82.2098 67.2721 80.1977 70.2368C77.0511 74.8817 73.1339 79.2378 68.8207 82.8553C65.7598 85.4239 62.2814 87.2969 58.9849 89.5123C57.3902 90.5826 55.3032 92.0061 54.1045 93.6115C51.5573 97.047 53.2804 101.863 56.7374 103.907C59.9375 105.802 63.8547 105.716 67.4187 105.845C68.5746 105.887 69.7411 106.048 70.897 106.005C74.3861 105.855 77.2758 104.56 80.4224 103.222C83.3978 101.949 86.2447 100.632 88.7812 98.5775C93.6831 94.6068 98.2317 87.9819 100.008 81.9348C102.352 73.9613 102.374 65.4099 102.181 57.1581C102.128 55.0282 102.02 52.9733 101.56 50.8863C100.511 46.1664 98.7776 41.7248 95.9092 37.8076C95.2029 36.8337 93.8329 35.1748 92.5807 34.9393C92.1419 34.8537 90.6863 35.0677 90.6435 35.5601Z" fill="#FFD369"/>
<path opacity="0.7" d="M56.9199 52.5571C56.9199 51.5938 57.3587 50.8232 57.9046 50.8232C58.4504 50.8232 58.8892 51.6045 58.8892 52.5571C58.8892 53.5203 58.4504 54.2909 57.9046 54.2909C57.3587 54.2909 56.9199 53.5096 56.9199 52.5571Z" fill="white"/>
<path opacity="0.7" d="M60.0977 55.7152C60.0977 54.752 60.5044 53.96 60.9967 53.96C61.489 53.96 61.8957 54.7413 61.8957 55.7152C61.8957 56.6785 61.489 57.4704 60.9967 57.4704C60.4937 57.4597 60.0977 56.6785 60.0977 55.7152Z" fill="white"/>
<path opacity="0.7" d="M57.6055 58.6779C57.6055 57.9715 57.9051 57.4043 58.2797 57.4043C58.6436 57.4043 58.954 57.9715 58.954 58.6779C58.954 59.3843 58.6543 59.9515 58.2797 59.9515C57.9051 59.9515 57.6055 59.3843 57.6055 58.6779Z" fill="white"/>
<path opacity="0.7" d="M75.2852 67.829C75.2852 66.7908 75.7989 65.9453 76.4303 65.9453C77.0618 65.9453 77.5755 66.7908 77.5755 67.829C77.5755 68.8671 77.0618 69.7126 76.4303 69.7126C75.7989 69.7019 75.2852 68.8671 75.2852 67.829Z" fill="white"/>
<path opacity="0.7" d="M73.7773 71.3388C73.7773 70.6003 74.0877 70.001 74.4623 70.001C74.8476 70.001 75.1473 70.6003 75.1473 71.3388C75.1473 72.0773 74.8369 72.6767 74.4623 72.6767C74.0877 72.6874 73.7773 72.088 73.7773 71.3388Z" fill="white"/>
<path opacity="0.7" d="M86.0195 53.7771C86.0195 52.7175 86.544 51.8613 87.1861 51.8613C87.8283 51.8613 88.3527 52.7175 88.3527 53.7771C88.3527 54.8367 87.8283 55.6929 87.1861 55.6929C86.544 55.6929 86.0195 54.8367 86.0195 53.7771Z" fill="white"/>
<path opacity="0.7" d="M89.3906 56.1845C89.3906 55.446 89.7438 54.8467 90.1933 54.8467C90.6428 54.8467 90.996 55.446 90.996 56.1845C90.996 56.923 90.6321 57.5224 90.1933 57.5224C89.7545 57.5224 89.3906 56.923 89.3906 56.1845Z" fill="white"/>
<path d="M67.4699 39.5102C67.4699 39.5102 59.5713 27.4804 54.8086 25.5753C54.8086 25.5753 64.3554 26.5278 68.2405 31.7507C68.2405 31.7507 64.9976 21.123 64.8691 13.9308C64.8691 13.9308 69.3215 22.9638 72.4466 28.0583C72.4466 28.0583 75.5718 12.5287 80.281 9.72461C80.281 9.72461 76.3959 23.1565 77.9264 28.9466C77.9264 28.9466 86.5207 16.3496 95.1042 15.7074C95.1042 15.7074 81.9934 32.2538 83.0744 38.3008C83.0637 38.3008 74.7905 42.5712 67.4699 39.5102Z" fill="#8DD3BA"/>
<path opacity="0.3" d="M80.2926 40.7524C80.2926 37.9804 80.9562 35.4866 81.8873 32.9073C83.5249 28.4015 85.9758 24.9231 89.2936 21.4661C90.5458 20.1711 91.7338 18.9617 93.168 17.87C94.6021 16.7783 96.2825 15.7188 97.8986 14.9161C98.0698 14.8304 98.2518 14.7234 98.4551 14.7341C98.53 14.7341 98.5514 14.884 98.5193 14.9482C98.3267 15.2693 98.0484 15.5261 97.813 15.8044C97.1601 16.575 96.4537 17.2921 95.7794 18.052C94.0242 20.0534 92.7399 22.4508 91.1345 24.5699C88.9083 27.5132 87.1638 30.9915 85.8473 34.4378C85.537 35.2512 85.2587 36.0753 84.9804 36.8994C84.7664 37.5523 84.5309 38.4513 84.06 38.9865C83.5463 39.5751 83.1075 39.5537 82.4332 39.8534C81.5342 40.2494 80.7207 41.0092 79.9395 41.5765" fill="#8DD3BA"/>
<path opacity="0.3" d="M82.2172 8.12942C82.0673 8.12942 81.9068 8.0438 81.7677 8.09731C81.2753 8.26855 81.0399 8.8465 80.6867 9.23179C80.0766 9.92747 79.6164 10.7195 79.092 11.4794C78.2786 12.646 77.4759 13.7805 76.8765 15.0755C75.7099 17.6334 75.2176 21.1653 75.3353 23.9908C75.3889 25.1467 75.5708 28.1221 76.9622 28.5716C77.8719 28.8605 77.8933 27.6939 78.011 27.1909C78.2251 26.1956 78.4712 25.3608 78.5354 24.3333C78.7067 21.3366 79.4773 18.1257 80.569 15.3216C81.0185 14.1657 81.5643 13.0634 82.0138 11.9075C82.3777 10.9763 82.9557 9.9596 83.0306 8.95354C83.052 8.71809 83.0199 8.08661 82.6881 8.0331C82.549 8.01169 82.3563 8.11871 82.2172 8.12942Z" fill="#8DD3BA"/>
<path opacity="0.3" d="M65.6301 12.1863C65.6194 12.1007 65.6622 11.8866 65.598 11.9401C65.2876 12.2505 65.2662 12.7642 65.1699 13.2031C64.9237 14.2733 64.8381 15.3329 65.0414 16.4353C65.2234 17.4092 65.598 18.3403 65.8441 19.2929C66.4756 21.7866 67.3746 24.0449 68.8837 26.1533C69.1085 26.4637 69.3546 26.7634 69.6222 27.0416C69.9968 27.4376 70.8637 28.4544 71.5273 28.2724C72.2122 28.0905 72.041 26.7634 72.0196 26.3674C71.9554 25.4148 71.645 24.4302 71.4416 23.5097C71.0349 21.7545 70.4035 20.1384 69.8469 18.4367C69.4295 17.1844 69.087 15.9322 68.4877 14.7442C67.9098 13.5776 67.6101 12.6465 66.3365 12.1328" fill="#8DD3BA"/>
<path opacity="0.3" d="M53.5456 25.0598C54.6587 26.0552 56.8099 26.6974 58.2334 27.2325C59.796 27.8104 61.1659 28.8165 62.4609 29.8653C64.9761 31.9096 66.9347 34.628 67.4056 37.8924C67.5019 38.6094 67.7052 39.7225 66.8062 40.0115C66.3567 40.1506 65.7681 39.8296 65.4363 39.5941C64.4409 38.8663 63.6489 37.8603 62.8248 36.9612C60.1277 34.018 57.6768 30.8928 55.4935 27.5536C55.0119 26.8151 54.4553 26.1836 53.8881 25.5094C53.7596 25.3595 53.4064 24.9314 53.5456 25.0598Z" fill="#8DD3BA"/>
<path d="M86.5533 113.969C86.5533 113.969 69.2899 102.335 87.1099 87.8007C87.1099 87.8007 98.1872 77.0338 101.708 70.4195C101.708 70.4195 104.502 64.137 109.157 65.8495C109.157 65.8495 120.01 71.629 111.63 101.522C111.64 101.511 104.737 118.154 86.5533 113.969Z" fill="#5B0909"/>
<path opacity="0.3" d="M77.0824 105.995C77.0074 106.337 76.9004 106.83 77.1787 107.033C77.6924 107.407 78.4202 107.333 79.0517 107.429C81.235 107.761 82.2089 107.889 84.3923 107.429C89.2085 106.412 93.8214 104.036 97.9312 101.403C105.295 96.6726 108.88 89.2771 114.627 83.0267C115.537 82.0421 117.795 79.5163 119.465 80.3618C120.846 81.0574 121.188 83.2943 121.445 84.6107C121.927 87.1045 122.184 89.1808 121.745 91.728C121.466 93.3441 120.835 94.8746 120.46 96.4693C119.722 99.5945 119.326 102.934 117.892 105.856C116.757 108.178 114.97 110.201 113.343 112.181C109.383 117.008 105.241 119.79 99.0122 120.679C94.5063 121.321 90.4179 120.925 86.4579 118.506C85.6017 117.982 84.906 117.211 84.0926 116.633C83.0652 115.895 82.0484 115.242 81.2243 114.257C79.6724 112.416 78.3453 109.848 77.7673 107.536C77.6175 106.958 77.7138 106.305 77.4677 105.759C77.4141 105.609 77.1252 105.845 77.0824 105.995Z" fill="#5B0909"/>
<path d="M108.497 50.7158C107.331 50.7265 105.961 52.0537 105.961 52.0537C106.902 53.1239 107.887 60.2519 108.208 62.6493C107.673 62.5851 107.266 62.5958 107.266 62.5958C99.9671 63.848 99.25 74.0263 99.25 74.0263C101.134 73.2236 103.916 69.8629 103.916 69.8629C103.681 70.6121 103.767 76.0598 103.767 76.0598C104.965 75.1929 106.999 71.0617 106.999 71.0617C106.817 72.5279 108.797 76.4986 108.797 76.4986C109.632 75.0323 110.263 72.1319 110.263 72.1319C111.216 74.5507 114.726 76.5307 114.726 76.5307C115.54 66.2989 111.687 63.6019 109.225 62.8848C111.216 56.9662 108.989 50.7907 108.989 50.7907C108.829 50.7479 108.668 50.7158 108.497 50.7158Z" fill="#8DD3BA"/>
<path d="M41.8186 77.7151C41.8186 77.7151 37.1415 62.635 38.1904 53.1738C38.1904 53.1738 39.5711 51.6968 40.8447 52.0928C40.8447 52.0928 40.2881 69.5703 42.8033 76.0027L41.8186 77.7151Z" fill="#8DD3BA"/>
<path d="M41.1769 74.0987C41.1769 74.0987 40.5883 62.893 47.3845 56.2038C47.3845 56.2038 50.4989 53.4746 51.5478 50.8203C51.5478 50.8203 53.6134 64.6375 41.1769 74.0987Z" fill="#8DD3BA"/>
<g opacity="0.5">
<path opacity="0.5" d="M41.2535 73.9719C41.2321 73.9719 41.2107 73.9719 41.1893 73.9612C41.0502 73.9291 40.9753 73.79 41.0074 73.6508C42.0776 69.2841 47.9855 59.8765 48.2317 59.4805C48.3066 59.3627 48.4672 59.3306 48.5849 59.4055C48.7026 59.4805 48.7347 59.641 48.6598 59.7587C48.5956 59.8551 42.5486 69.4875 41.4997 73.7792C41.4676 73.897 41.3606 73.9719 41.2535 73.9719Z" fill="#8DD3BA"/>
</g>
<path d="M42.8574 104.795C42.8574 104.795 24.1384 104.014 24.2347 79.644C24.2347 79.644 24.8234 68.235 32.2297 68.1386C32.2297 68.1386 39.2506 68.5347 41.6908 75.5449C41.6908 75.5449 48.6155 63.1619 59.3396 68.0423C59.3396 68.0423 68.0195 73.4044 62.6574 91.3421C62.6467 91.3528 56.2465 105.384 42.8574 104.795Z" fill="#E26241"/>
<path opacity="0.3" d="M25.3031 95.912C25.1854 95.7836 24.6717 95.6551 24.8108 95.7621C25.164 96.0404 25.5814 96.2544 25.9988 96.4578C26.3306 96.6076 27.0263 96.7147 27.3795 96.7575C29.0277 96.9608 30.7294 97.3033 32.4204 97.1535C37.7718 96.6611 42.5131 94.5741 46.944 91.6202C52.6592 87.81 55.8058 81.4633 58.8989 75.5127C59.8514 73.6932 60.7077 71.4563 62.0562 69.883C64.1432 67.4535 67.8571 69.3051 69.2698 71.467C70.4471 73.2651 70.6076 75.716 70.7575 77.7923C70.9822 80.8961 71.0251 84.246 70.1581 87.2749C69.8156 88.4843 69.1307 89.5653 68.6812 90.7319C67.461 93.8249 66.5834 97.1321 64.7319 99.9255C63.073 102.419 61.2963 103.885 59.0059 105.855C54.468 109.729 50.8612 111.624 44.782 111.88C43.9579 111.912 43.1338 111.88 42.3097 111.88C41.614 111.88 40.9077 112.041 40.2334 111.88C38.9705 111.581 37.6969 111.26 36.4768 110.799C32.3241 109.194 30.5582 105.93 28.2785 102.398C27.7327 101.552 27.0263 100.75 26.5982 99.8291C26.3841 99.3796 26.1594 98.6412 26.1058 98.1488C26.0737 97.8171 26.2129 97.4746 26.1058 97.1642C25.9346 96.6933 25.6456 96.2759 25.3031 95.912Z" fill="#E26241"/>
<path opacity="0.7" d="M28.5449 74.432C28.5449 73.6079 29.0908 72.9336 29.7543 72.9336C30.4286 72.9336 30.9744 73.6079 30.9744 74.432C30.9744 75.2561 30.4286 75.9303 29.7543 75.9303C29.0908 75.9303 28.5449 75.2561 28.5449 74.432Z" fill="white"/>
<path opacity="0.7" d="M27.6797 78.7773C27.6797 78.1887 28.0864 77.707 28.5787 77.707C29.0817 77.707 29.4884 78.1887 29.4884 78.7773C29.4884 79.3659 29.0817 79.8476 28.5787 79.8476C28.0864 79.8476 27.6797 79.3659 27.6797 78.7773Z" fill="white"/>
<path d="M32.4939 104.337C30.6958 104.273 29.1118 103.952 27.3566 103.577C26.1151 103.31 25.1946 103.138 24.1565 102.336C23.0755 101.501 22.5083 100.216 21.5878 99.2318C21.3845 99.0178 21.2025 98.7181 20.9243 98.6325C20.646 98.5362 20.2928 98.579 20.0359 98.7288C19.8754 98.8251 19.8112 99.082 19.8433 99.2639C19.8968 99.5743 20.6995 100.58 20.9243 100.848C21.0955 101.062 21.5557 101.672 21.5557 101.672C21.5557 101.672 20.5925 101.137 20.2286 101.019C19.8112 100.88 17.7028 99.8526 17.3389 100.88C16.975 101.897 19.0941 102.614 19.5543 102.753C19.8433 102.839 20.6567 103.042 20.6032 103.074C20.4212 103.149 17.7884 103.995 16.579 104.658C15.3696 105.322 15.5087 105.932 16.6432 106.242C17.7777 106.552 19.6935 106.049 21.1062 105.889C24.2528 105.536 27.4529 105.621 30.6102 105.664C33.4464 105.707 33.4892 106.092 34.6665 105.472C34.8485 105.375 34.5381 104.68 34.1956 104.583C33.6498 104.444 33.0718 104.358 32.4939 104.337Z" fill="#8DD3BA"/>
<path d="M35.4274 106.414C34.4748 106.349 33.5116 106.36 32.5591 106.306C31.5423 106.242 27.3254 106.403 26.2231 106.563C24.5962 106.799 23.4404 107.034 21.8778 107.537C20.7005 107.912 19.1165 108.03 18.0034 108.565C17.7679 108.672 16.2588 109.26 16.6227 109.667C16.9866 110.063 19.4483 109.186 19.855 109.057C20.1118 108.982 20.6791 108.768 20.6791 108.768C19.5125 109.293 17.8214 111.005 17.8643 111.711C17.8964 112.418 18.5599 112.129 18.8382 112.011C19.5553 111.722 20.754 110.32 20.754 110.32C20.5827 110.566 19.9406 112.386 19.8443 113.317C19.7586 114.248 20.1546 114.622 20.9359 113.916C21.7172 113.21 22.2631 111.23 23.0979 110.331C24.4464 108.875 26.3943 108.661 28.2673 108.34C28.888 108.233 29.5088 108.115 30.1402 108.019C31.9169 107.741 33.7363 107.816 35.4916 107.452C35.8234 107.377 35.8127 106.788 35.7806 106.595C35.7378 106.467 35.5451 106.424 35.4274 106.414Z" fill="#8DD3BA"/>
<path d="M33.33 106.553C33.33 106.553 31.9921 98.355 43.626 100.281L83.7932 107.602C83.7932 107.602 90.1613 108.234 89.4442 109.892C89.4442 109.892 90.6643 111.166 74.4283 112.258C74.4283 112.258 47.1258 113.895 43.1765 113.852C43.1765 113.863 33.223 115.447 33.33 106.553Z" fill="#FFAA9B"/>
<path opacity="0.5" d="M36.7441 116.175C36.0591 116.047 35.2136 116.229 34.6785 115.779C33.5975 114.88 32.645 113.703 32.174 112.376C31.9707 111.808 32.4095 111.081 32.8911 110.717C33.4584 110.267 34.2932 110.331 34.9995 110.171C35.5668 110.042 36.1875 109.978 36.7762 109.989C40.0512 110.021 43.3583 110.289 46.6334 110.203C49.6301 110.128 52.6162 109.711 55.6129 109.55C59.0378 109.357 62.4091 109.529 65.834 109.518C71.2817 109.507 76.7294 109.422 82.1556 109.946C85.1952 110.246 88.2776 110.503 91.2957 110.952C92.2269 111.091 93.2115 111.359 93.768 112.204C94.1961 112.857 92.9974 113.81 92.7192 113.938C92.0984 114.227 91.4027 114.345 90.7178 114.463C88.3097 114.88 85.7838 114.794 83.3543 115.019C81.1603 115.222 78.9662 115.49 76.7829 115.715C69.9652 116.411 63.0513 117.299 56.1909 117.32C49.1164 117.342 42.074 116.946 34.9888 117.352" fill="#FFAA9B"/>
<path d="M50.0471 111.091C49.8759 111.091 49.7153 111.006 49.619 110.856C48.7949 109.593 48.9447 108.244 49.0839 107.046C49.116 106.767 49.3729 106.564 49.6511 106.596C49.9294 106.628 50.1327 106.885 50.1006 107.163C49.9615 108.437 49.8973 109.4 50.4752 110.299C50.6251 110.535 50.5609 110.856 50.3254 111.006C50.2505 111.07 50.1542 111.091 50.0471 111.091Z" fill="#940A37"/>
<path d="M52.347 110.93C52.1971 110.93 52.0473 110.866 51.9402 110.737C51.6192 110.33 51.6085 109.827 51.5978 109.431C51.5978 109.303 51.5871 109.185 51.5764 109.067C51.5336 108.704 51.5978 108.35 51.662 108.04C51.6834 107.933 51.7048 107.826 51.7155 107.719C51.7583 107.441 52.0152 107.237 52.3041 107.291C52.5824 107.334 52.7751 107.59 52.743 107.869C52.7215 107.997 52.7001 108.115 52.6787 108.243C52.6252 108.5 52.5824 108.736 52.6038 108.939C52.6252 109.089 52.6252 109.239 52.6252 109.399C52.6359 109.688 52.6466 109.956 52.7537 110.095C52.9356 110.32 52.8928 110.641 52.668 110.823C52.5717 110.898 52.454 110.93 52.347 110.93Z" fill="#940A37"/>
<path d="M56.6615 107.623C56.5652 107.623 56.4689 107.591 56.3833 107.537C56.2334 107.452 56.0515 107.248 56.0301 107.088L55.9552 106.585C55.8588 105.932 55.7518 105.268 55.8053 104.573C55.8909 103.534 56.2227 102.453 56.8221 101.244C56.9505 100.987 57.2609 100.88 57.5177 101.009C57.7746 101.137 57.8709 101.447 57.7532 101.704C57.2181 102.785 56.9184 103.748 56.8435 104.658C56.8007 105.225 56.8863 105.814 56.9826 106.424L57.0254 106.734C57.2181 106.916 57.2395 107.216 57.0789 107.419C56.9612 107.559 56.8114 107.623 56.6615 107.623Z" fill="#940A37"/>
<path d="M60.6316 108.32C60.3854 108.32 60.1607 108.138 60.1286 107.881C60.1072 107.774 60.0858 107.667 60.0643 107.57C60.0001 107.313 59.9359 107.024 59.9573 106.703C60.0322 105.665 60.1286 104.37 60.4603 103.161C60.5674 102.765 60.8349 102.508 61.0597 102.273C61.1453 102.187 61.2309 102.101 61.3059 102.005C61.4771 101.78 61.8089 101.737 62.0336 101.909C62.2584 102.08 62.3012 102.401 62.1193 102.626C62.0229 102.754 61.9052 102.861 61.7982 102.979C61.6376 103.139 61.4878 103.289 61.4557 103.428C61.1667 104.456 61.0704 105.494 60.9848 106.757C60.9741 106.917 61.0169 107.11 61.0704 107.313C61.1025 107.442 61.1346 107.57 61.156 107.709C61.1988 107.988 61.0062 108.255 60.7279 108.298C60.6851 108.32 60.653 108.32 60.6316 108.32Z" fill="#940A37"/>
<path d="M64.7632 107.453C64.7418 107.453 64.7203 107.453 64.6989 107.453C64.4207 107.421 64.2173 107.164 64.2494 106.875C64.3672 105.922 64.6561 105.013 64.9344 104.135C65.02 103.857 65.1164 103.578 65.1913 103.3C65.2769 103.022 65.5552 102.872 65.8334 102.947C66.1117 103.033 66.2615 103.311 66.1866 103.589C66.101 103.878 66.0154 104.156 65.9191 104.445C65.6408 105.312 65.3839 106.136 65.2769 106.993C65.2448 107.26 65.02 107.453 64.7632 107.453Z" fill="#940A37"/>
<path d="M74.9548 111.969C74.7194 111.969 74.5053 111.808 74.4518 111.573C74.2485 110.674 74.302 109.732 74.3555 108.908C74.3769 108.63 74.591 108.405 74.9013 108.426C75.1796 108.448 75.4044 108.683 75.383 108.972C75.3401 109.764 75.2866 110.588 75.4579 111.348C75.5221 111.626 75.3508 111.905 75.0726 111.969C75.0298 111.969 74.9869 111.969 74.9548 111.969Z" fill="#940A37"/>
</svg>
