<svg width="141" height="175" viewBox="0 0 141 175" fill="none" xmlns="http://www.w3.org/2000/svg">
<path d="M27.5787 169.551H30.4287C32.6687 169.551 34.1787 168.111 34.1787 166.051C34.1787 163.991 32.6687 162.551 30.4287 162.551H27.5787V169.551ZM28.3187 168.911V163.191H30.3887C32.2487 163.191 33.4487 164.371 33.4487 166.051C33.4487 167.731 32.2487 168.911 30.3887 168.911H28.3187ZM37.8404 169.601C39.3804 169.601 40.5104 168.481 40.5104 166.921C40.5104 165.361 39.3804 164.251 37.8404 164.251C36.3004 164.251 35.1604 165.361 35.1604 166.921C35.1604 168.481 36.3004 169.601 37.8404 169.601ZM37.8404 168.971C36.7204 168.971 35.8804 168.151 35.8804 166.921C35.8804 165.691 36.7204 164.871 37.8404 164.871C38.9604 164.871 39.7904 165.691 39.7904 166.921C39.7904 168.151 38.9604 168.971 37.8404 168.971ZM46.6571 169.611C48.4471 169.611 49.2671 168.731 49.2671 167.701C49.2671 165.151 44.9571 166.311 44.9571 164.391C44.9571 163.691 45.5271 163.121 46.8071 163.121C47.4271 163.121 48.1271 163.311 48.7271 163.701L48.9771 163.111C48.4171 162.721 47.5971 162.491 46.8071 162.491C45.0271 162.491 44.2271 163.381 44.2271 164.411C44.2271 167.001 48.5371 165.821 48.5371 167.741C48.5371 168.431 47.9671 168.981 46.6571 168.981C45.7371 168.981 44.8471 168.621 44.3471 168.131L44.0571 168.701C44.5771 169.241 45.6071 169.611 46.6571 169.611ZM52.8795 169.601C54.4195 169.601 55.5495 168.481 55.5495 166.921C55.5495 165.361 54.4195 164.251 52.8795 164.251C51.3395 164.251 50.1995 165.361 50.1995 166.921C50.1995 168.481 51.3395 169.601 52.8795 169.601ZM52.8795 168.971C51.7595 168.971 50.9195 168.151 50.9195 166.921C50.9195 165.691 51.7595 164.871 52.8795 164.871C53.9995 164.871 54.8295 165.691 54.8295 166.921C54.8295 168.151 53.9995 168.971 52.8795 168.971ZM63.559 164.251C62.609 164.251 61.859 164.681 61.479 165.361C61.159 164.621 60.479 164.251 59.609 164.251C58.729 164.251 58.049 164.621 57.679 165.251V164.291H56.999V169.551H57.709V166.791C57.709 165.591 58.399 164.891 59.469 164.891C60.429 164.891 60.989 165.461 60.989 166.571V169.551H61.699V166.791C61.699 165.591 62.379 164.891 63.459 164.891C64.409 164.891 64.969 165.461 64.969 166.571V169.551H65.679V166.501C65.679 164.991 64.839 164.251 63.559 164.251ZM72.214 166.921C72.214 165.341 71.144 164.251 69.664 164.251C68.184 164.251 67.094 165.361 67.094 166.921C67.094 168.481 68.214 169.601 69.854 169.601C70.684 169.601 71.414 169.301 71.884 168.741L71.484 168.281C71.084 168.741 70.514 168.971 69.874 168.971C68.724 168.971 67.884 168.241 67.804 167.141H72.204C72.204 167.061 72.214 166.981 72.214 166.921ZM69.664 164.861C70.694 164.861 71.444 165.581 71.534 166.611H67.804C67.894 165.581 68.644 164.861 69.664 164.861ZM80.8663 166.921C80.8663 165.341 79.7963 164.251 78.3163 164.251C76.8363 164.251 75.7463 165.361 75.7463 166.921C75.7463 168.481 76.8663 169.601 78.5063 169.601C79.3363 169.601 80.0663 169.301 80.5363 168.741L80.1363 168.281C79.7363 168.741 79.1663 168.971 78.5263 168.971C77.3763 168.971 76.5363 168.241 76.4563 167.141H80.8563C80.8563 167.061 80.8663 166.981 80.8663 166.921ZM78.3163 164.861C79.3463 164.861 80.0963 165.581 80.1863 166.611H76.4563C76.5463 165.581 77.2963 164.861 78.3163 164.861ZM86.325 169.551L84.225 166.851L86.205 164.291H85.425L83.845 166.351L82.265 164.291H81.465L83.445 166.851L81.365 169.551H82.165L83.845 167.351L85.515 169.551H86.325ZM91.9113 166.921C91.9113 165.341 90.8413 164.251 89.3613 164.251C87.8813 164.251 86.7913 165.361 86.7913 166.921C86.7913 168.481 87.9113 169.601 89.5513 169.601C90.3813 169.601 91.1113 169.301 91.5813 168.741L91.1813 168.281C90.7813 168.741 90.2113 168.971 89.5713 168.971C88.4213 168.971 87.5813 168.241 87.5013 167.141H91.9013C91.9013 167.061 91.9113 166.981 91.9113 166.921ZM89.3613 164.861C90.3913 164.861 91.1413 165.581 91.2313 166.611H87.5013C87.5913 165.581 88.3413 164.861 89.3613 164.861ZM94.0364 165.321V164.291H93.3564V169.551H94.0664V166.871C94.0664 165.631 94.7364 164.931 95.8364 164.931C95.8864 164.931 95.9464 164.941 96.0064 164.941V164.251C95.0364 164.251 94.3664 164.621 94.0364 165.321ZM99.4231 169.601C100.313 169.601 101.063 169.241 101.483 168.561L100.953 168.201C100.593 168.731 100.033 168.971 99.4231 168.971C98.2731 168.971 97.4331 168.161 97.4331 166.921C97.4331 165.691 98.2731 164.871 99.4231 164.871C100.033 164.871 100.593 165.121 100.953 165.651L101.483 165.291C101.063 164.601 100.313 164.251 99.4231 164.251C97.8531 164.251 96.7131 165.351 96.7131 166.921C96.7131 168.491 97.8531 169.601 99.4231 169.601ZM103.238 163.141C103.538 163.141 103.758 162.911 103.758 162.621C103.758 162.351 103.528 162.131 103.238 162.131C102.948 162.131 102.718 162.361 102.718 162.631C102.718 162.911 102.948 163.141 103.238 163.141ZM102.878 169.551H103.588V164.291H102.878V169.551ZM106.973 169.601C108.343 169.601 109.143 169.011 109.143 168.101C109.143 166.081 105.733 167.151 105.733 165.731C105.733 165.231 106.153 164.861 107.103 164.861C107.643 164.861 108.193 164.991 108.653 165.311L108.963 164.741C108.523 164.441 107.783 164.251 107.103 164.251C105.763 164.251 105.023 164.891 105.023 165.751C105.023 167.831 108.433 166.751 108.433 168.121C108.433 168.641 108.023 168.981 107.023 168.981C106.283 168.981 105.573 168.721 105.153 168.391L104.833 168.951C105.263 169.321 106.103 169.601 106.973 169.601ZM115.046 166.921C115.046 165.341 113.976 164.251 112.496 164.251C111.016 164.251 109.926 165.361 109.926 166.921C109.926 168.481 111.046 169.601 112.686 169.601C113.516 169.601 114.246 169.301 114.716 168.741L114.316 168.281C113.916 168.741 113.346 168.971 112.706 168.971C111.556 168.971 110.716 168.241 110.636 167.141H115.036C115.036 167.061 115.046 166.981 115.046 166.921ZM112.496 164.861C113.526 164.861 114.276 165.581 114.366 166.611H110.636C110.726 165.581 111.476 164.861 112.496 164.861Z" fill="#4F4F4F"/>
<path d="M0.865234 70.1078C0.865234 31.4283 32.2241 0.0800781 70.893 0.0800781C109.573 0.0800781 140.931 31.439 140.931 70.1078C140.931 108.787 109.573 140.146 70.893 140.146C32.2134 140.136 0.865234 108.787 0.865234 70.1078Z" fill="white"/>
<path opacity="0.5" d="M10.3164 91.8228C10.3164 83.2821 37.8759 76.3574 71.8783 76.3574C105.87 76.3574 133.43 83.2821 133.43 91.8228C133.43 100.364 105.87 107.299 71.8783 107.299C37.8759 107.299 10.3164 100.364 10.3164 91.8228Z" fill="#D1E7E0"/>
<path d="M57.0335 66.9922C45.9562 66.9922 36.9659 68.2016 36.6235 69.7107H36.5485L36.4629 83.9453H36.602C36.602 83.956 36.5914 83.956 36.5914 83.9667C36.5914 85.5186 45.7421 86.7815 57.0335 86.7815C68.1001 86.7815 77.0796 85.5721 77.4435 84.063H77.4756V83.9881C77.4756 83.9774 77.4863 83.9774 77.4863 83.9667C77.4863 83.956 77.4756 83.956 77.4756 83.9453L77.4971 69.7749H77.4756C77.4114 68.2444 68.2927 66.9922 57.0335 66.9922Z" fill="#E26241"/>
<path d="M36.5469 69.808C36.5469 68.2561 45.6977 67.0039 56.989 67.0039C68.2804 67.0039 77.4312 68.2561 77.4312 69.808C77.4312 71.3599 68.2804 72.6121 56.989 72.6121C45.6977 72.6121 36.5469 71.3599 36.5469 69.808Z" fill="#FFD369"/>
<path d="M57.4298 30.7217C53.9407 30.7217 51.1045 31.107 51.1045 31.5886C51.1045 31.6314 51.1473 31.6742 51.2008 31.717H51.0938L51.1151 69.6046H51.1259L51.1151 69.6153C51.1151 70.0969 53.9514 70.4822 57.4404 70.4822C60.9295 70.4822 63.755 70.0969 63.755 69.6153C63.755 69.5832 63.7122 69.5617 63.7015 69.5403L63.7229 31.6421C63.7336 31.6207 63.755 31.61 63.755 31.5993C63.7443 31.1177 60.9188 30.7217 57.4298 30.7217Z" fill="#940A37"/>
<path opacity="0.3" d="M46 58.0984C45.9358 58.2161 45.7324 57.8522 45.8074 57.7452C46.685 56.5251 47.6696 55.4013 48.7078 54.3203C50.0028 52.9825 52.0256 51.4627 53.6203 50.446C56.8632 48.3696 60.5022 47.0853 64.2695 46.3789C65.2435 46.197 67.4696 46.3147 68.0155 45.1481C68.3579 44.4097 68.0155 42.9862 68.0155 42.2477C68.0155 39.5078 68.0369 36.7893 67.9512 34.0494C67.887 31.9731 68.0583 29.3617 66.1425 27.981C64.2053 26.579 61.84 26.686 59.5603 26.5575C57.1629 26.4291 53.0424 26.0652 51.041 27.7242C49.5319 28.9764 49.3392 31.8554 48.8469 33.5999C48.2369 35.7833 47.8409 38.0201 47.4235 40.2463C46.899 43.0504 46.4495 45.7903 46.396 48.6372C46.3532 50.5958 46.3639 52.5544 46.3318 54.513C46.3104 55.7652 46.5886 56.9853 46 58.0984Z" fill="#940A37"/>
<path d="M57.0335 15.1602C45.9562 15.1602 36.9659 16.3803 36.6235 17.8894H36.5485L36.4629 32.1239H36.602C36.602 32.1346 36.5914 32.1346 36.5914 32.1453C36.5914 33.6972 45.7421 34.9601 57.0335 34.9601C68.1001 34.9601 77.0796 33.7508 77.4435 32.2417H77.4756V32.1668C77.4756 32.1561 77.4863 32.1453 77.4863 32.1453C77.4863 32.1346 77.4756 32.1346 77.4756 32.1239L77.4971 17.9643H77.4756C77.4114 16.4124 68.2927 15.1602 57.0335 15.1602Z" fill="#FFD369"/>
<path opacity="0.3" d="M39.351 37.6673C41.8875 37.282 44.499 37.1429 46.9713 36.3723C50.364 35.3127 53.6284 33.6859 56.8499 32.1768C62.0193 29.7473 67.2101 27.2429 72.144 24.3639C75.1515 22.6086 77.977 20.6179 80.7276 18.4881C81.0273 18.2527 81.327 18.0172 81.6373 17.7817C82.0226 17.4821 82.3972 17.1717 82.7932 16.8827C83.0073 16.7329 83.4782 16.3155 83.7672 16.369C83.9705 16.4118 84.0133 17.6105 84.024 17.7282C84.131 19.1945 84.0347 20.7143 84.0882 22.1805C84.1631 24.0535 84.1524 25.8622 84.024 27.7352C83.8314 30.6142 83.4354 32.9689 80.7918 34.6385C77.3455 36.8218 72.6043 37.7636 68.655 38.5771C65.8294 39.1657 63.0039 39.7865 60.1356 40.129C56.7964 40.5143 53.425 40.5785 50.0644 40.5785C48.459 40.5785 46.8214 40.6641 45.2267 40.5142C42.7009 40.2788 40.3356 39.1657 37.8633 38.6413" fill="#FFD369"/>
<path d="M36.5469 17.9643C36.5469 16.4124 45.6977 15.1602 56.989 15.1602C68.2804 15.1602 77.4312 16.4124 77.4312 17.9643C77.4312 19.5161 68.2804 20.7684 56.989 20.7684C45.6977 20.7791 36.5469 19.5161 36.5469 17.9643Z" fill="#E26241"/>
<path d="M108.194 60.7429C107.092 60.7215 105.989 60.8286 104.876 61.064C104.341 61.1817 103.303 61.5028 103.303 61.5028L94.9547 64.5424L95.8001 67.186C92.8034 71.3814 91.5191 77.1502 92.782 83.058C94.366 90.4536 99.4926 96.0083 105.561 97.8171L106.449 100.6L114.07 97.7957C114.466 97.6672 114.851 97.5281 115.236 97.3675C122.643 94.3387 126.891 85.4126 124.911 76.1441C122.996 67.1859 115.889 60.8927 108.194 60.7429Z" fill="#FFD369"/>
<path d="M84.8497 85.9485C82.6556 75.706 88.0605 65.8595 96.933 63.9544C105.806 62.0494 114.774 68.8028 116.968 79.0345C119.162 89.277 113.758 99.1235 104.885 101.029C96.0126 102.934 87.0437 96.1803 84.8497 85.9485Z" fill="#E26241"/>
<path opacity="0.3" d="M86.3057 92.2635C89.6128 91.0648 92.8236 89.7697 96.0023 88.3035C99.5235 86.6874 103.023 85.0177 106.373 83.0485C110.515 80.6082 114.4 77.7613 118.521 75.2676C121.015 73.7585 123.69 72.3351 126.516 71.5645C127.051 71.4146 127.597 71.2969 128.143 71.1899C128.603 71.1043 129.116 70.8581 129.545 71.0401C130.925 71.618 131.814 72.913 131.771 74.4435C131.728 75.9098 131.246 77.1941 130.882 78.5854C130.379 80.5012 129.951 82.417 129.256 84.29C125.788 93.5478 118.671 101.371 109.188 104.582C107.679 105.096 106.052 105.62 104.447 105.77C102.231 105.974 99.2346 105.631 97.1154 104.882C96.0666 104.507 95.1354 103.769 94.1508 103.255C92.7487 102.527 92.0423 102.014 91.1861 100.665C90.362 99.3487 89.3667 98.0964 88.7459 96.6623C88.2964 95.6348 88.0395 94.5753 87.5579 93.5478C87.3011 92.9806 85.6314 92.5097 86.3057 92.2635Z" fill="#E26241"/>
<path d="M99.2875 75.1696C98.8486 75.1589 98.4205 75.2017 97.9817 75.298C97.7035 75.3622 97.4466 75.4693 97.179 75.5763L97.1683 75.5335L32.5133 96.682L31.7855 96.9175V96.9281C28.7353 98.0412 26.9372 101.616 27.7399 105.373C28.6068 109.418 32.1601 112.083 35.6599 111.334C35.7776 111.313 35.8847 111.259 36.0024 111.227L101.011 89.9928C101.053 89.9821 101.096 89.9821 101.139 89.9714C104.639 89.2222 106.779 85.3264 105.912 81.2808C105.131 77.7168 102.327 75.2338 99.2875 75.1696Z" fill="#940A37"/>
<path opacity="0.3" d="M47.8702 89.8535C51.3914 91.9726 55.0303 91.7157 58.9047 92.2187C60.4994 92.4328 62.1797 92.786 63.7958 92.8823C67.1136 93.0857 70.485 92.8074 73.7921 92.5826C78.0625 92.2937 82.3436 92.2188 86.6032 91.6194C90.2957 91.1057 93.9988 90.1317 97.7127 89.9177C98.6438 89.8642 100.281 89.4896 101.116 90.0675C102.572 91.0736 100.442 92.8288 99.7783 93.5459C99.104 94.2844 98.3762 95.1727 97.627 95.8363C95.7648 97.4952 93.2924 98.4477 90.9593 99.2397C87.224 100.513 83.4032 101.551 79.6358 102.718C73.2998 104.677 67.0066 106.807 60.6813 108.787C57.2244 109.868 53.3072 111.676 49.5719 111.152C46.3504 110.713 44.3918 109.921 42.9791 106.785C41.4486 103.382 41.2345 97.249 43.054 93.6101C43.9744 91.78 45.6333 90.7097 47.6454 90.2816C48.1806 90.1638 49.1545 89.5217 49.4221 90.0568" fill="#940A37"/>
<path d="M42.0493 82.3093C40.947 82.2879 39.8446 82.3949 38.7315 82.6304C38.1964 82.7481 37.1582 83.0692 37.1582 83.0692L28.8101 86.1088L29.6556 88.7523C26.6589 92.9478 25.3746 98.7165 26.6375 104.624C28.2215 112.02 33.3481 117.575 39.4165 119.383L40.3048 122.166L47.9251 119.362C48.3211 119.234 48.7064 119.094 49.0917 118.934C56.498 115.905 60.747 106.979 58.767 97.7105C56.8405 88.7523 49.7339 82.4592 42.0493 82.3093Z" fill="#FFD369"/>
<path d="M18.6973 107.513C16.5033 97.2708 21.9081 87.4243 30.7807 85.5192C39.6532 83.6034 48.622 90.3568 50.8161 100.599C53.0102 110.842 47.6053 120.688 38.7328 122.593C29.8602 124.498 20.8914 117.745 18.6973 107.513Z" fill="#E26241"/>
<path opacity="0.3" d="M25.5458 123.022C25.5244 122.797 25.2568 122.487 25.428 122.358C25.7063 122.155 26.1237 122.358 26.4662 122.358C26.9692 122.358 27.2689 122.39 27.7933 122.134C28.885 121.598 29.966 121.021 30.9721 120.357C32.4276 119.404 33.8939 117.81 35.114 116.579C36.7622 114.931 38.4104 113.261 39.7054 111.324C40.9148 109.515 42.3811 107.888 43.5584 106.069C46.2127 101.948 48.2997 97.3247 52.2169 94.2209C53.5012 93.2042 54.9889 92.2731 56.5087 91.6309C56.7762 91.5132 57.3221 91.3847 57.6218 91.4811C58.0606 91.6202 58.981 92.3908 59.2486 92.744C59.7302 93.3648 60.2332 94.5206 60.5864 95.1842C61.9563 97.7743 61.8707 99.5509 61.9242 102.366C61.9563 103.918 62.0205 105.491 61.8493 107.032C61.6352 108.894 60.6399 111.902 59.773 113.625C58.585 116.001 56.5087 117.842 54.7427 119.768C51.35 123.45 46.1484 126.736 41.0433 127.399C37.0726 127.913 32.952 126.565 29.2703 125.248C28.9278 125.12 28.5853 124.981 28.2321 124.873C27.7933 124.756 27.3438 124.681 26.8943 124.574C26.5625 124.499 25.6635 124.445 25.5672 123.985C25.5244 123.675 25.5779 123.343 25.5458 123.022Z" fill="#E26241"/>
</svg>
