<svg width="163" height="167" viewBox="0 0 163 167" fill="none" xmlns="http://www.w3.org/2000/svg">
<mask id="mask0" mask-type="alpha" maskUnits="userSpaceOnUse" x="11" y="0" width="141" height="141">
<path d="M11.3887 70.3129C11.3887 31.6334 42.7476 0.285156 81.4271 0.285156C120.107 0.285156 151.455 31.6441 151.455 70.3129C151.455 108.992 120.096 140.341 81.4271 140.341C42.7476 140.351 11.3887 108.992 11.3887 70.3129Z" fill="white"/>
</mask>
<g mask="url(#mask0)">
<path d="M54.6144 87.32C54.6144 87.32 55.8881 68.8792 56.2091 64.962C56.2091 64.962 56.8727 21.3913 89.944 18.8013C89.944 18.8013 122.427 16.1256 126.708 47.3882C126.708 47.3882 129.779 81.8616 131.481 88.7006C131.481 88.7006 115.363 100.506 92.6411 97.4126C92.6411 97.4126 67.9072 100.281 54.1328 96.2781C54.1328 96.2781 54.4111 89.9421 54.6144 87.32Z" fill="#940A37"/>
<path opacity="0.3" d="M49.3605 73.8977C49.414 74.0476 48.804 73.8335 48.9003 73.9619C49.307 74.5827 49.885 75.0857 50.4629 75.5352C51.5332 76.3593 52.6784 77.0871 53.8343 77.7721C55.9748 79.0457 59.4104 80.4906 61.7543 81.2184C64.4727 82.0639 67.3304 82.4385 70.1559 82.8452C74.5547 83.4873 78.9856 83.6693 83.4165 83.4873C90.2341 83.2091 96.9982 81.5287 103.602 79.934C108.632 78.7246 113.598 77.2905 118.628 76.0597C121.069 75.4603 123.53 74.9894 125.949 74.2937C129.128 73.3733 132.274 72.1211 135.228 70.6227C136.138 70.1625 137.026 69.638 137.904 69.1243C138.717 68.6534 139.456 67.7437 140.387 67.7972C141.853 67.8828 142.656 70.6869 142.923 71.6502C143.844 75.1285 144.475 79.3989 144.251 83.0057C143.641 92.788 131.311 96.8015 123.798 99.8518C115.46 103.234 106.77 106.113 98.122 108.607C96.6022 109.045 95.0075 109.152 93.4556 109.42C88.4361 110.298 83.4058 110.972 78.3434 111.625C73.8162 112.203 69.2033 112.074 64.6547 111.882C61.2833 111.742 57.9548 111.4 54.7868 110.158C51.5118 108.874 50.0883 106.263 48.5578 103.298C47.5625 101.372 46.2674 99.2738 45.6146 97.1975C44.341 93.1412 44.7049 88.9136 44.7263 84.761C44.737 81.4217 45.058 77.9112 46.9952 75.1071C47.3912 74.5185 48.804 72.5064 49.3605 73.8977Z" fill="#940A37"/>
<path d="M117.343 93.0345C117.107 93.0238 116.925 92.8204 116.936 92.585L117.428 79.913C117.439 79.6668 117.642 79.4849 117.889 79.4956C118.113 79.5277 118.317 79.7096 118.306 79.9558L117.814 92.6278C117.803 92.8632 117.6 93.0452 117.343 93.0345C117.353 93.0345 117.343 93.0345 117.343 93.0345Z" fill="#E26241"/>
<path d="M121.316 90.4881C121.08 90.4774 120.898 90.274 120.898 90.0279L121.252 81.4657C121.262 81.2195 121.466 81.0376 121.712 81.0483H121.723C121.958 81.059 122.14 81.2623 122.129 81.5085L121.776 90.0707C121.776 90.3061 121.573 90.4881 121.316 90.4881C121.327 90.4881 121.327 90.4881 121.316 90.4881Z" fill="#E26241"/>
<path d="M126.326 89.6655C126.112 89.6548 125.93 89.4836 125.919 89.2588L125.031 77.6999C125.01 77.4537 125.192 77.2397 125.438 77.229C125.673 77.2183 125.887 77.3895 125.909 77.6357L126.797 89.2053C126.818 89.4515 126.636 89.6548 126.39 89.6762C126.369 89.6655 126.347 89.6655 126.326 89.6655Z" fill="#E26241"/>
<path d="M65.4587 95.2921C65.234 95.2814 65.052 95.0887 65.052 94.864L64.8594 84.1185C64.8594 83.8723 65.052 83.6689 65.2875 83.6689C65.5336 83.6689 65.7263 83.8509 65.737 84.0971L65.9296 94.8426C65.9296 95.0887 65.737 95.2814 65.5015 95.2921C65.4908 95.2921 65.4801 95.2921 65.4587 95.2921Z" fill="#E26241"/>
<path d="M61.6279 94.0408C61.3924 94.0301 61.2104 93.8268 61.2212 93.5806L61.5636 85.5536C61.5743 85.3074 61.7777 85.1255 62.0239 85.1362C62.2486 85.1362 62.4519 85.3502 62.4412 85.5964L62.0988 93.6234C62.0774 93.8589 61.874 94.0515 61.6279 94.0408Z" fill="#E26241"/>
<path d="M79.0854 97.5518C79.0854 97.5518 78.9784 120.798 67.5586 125.261C67.5586 125.261 95.6853 140.941 118.011 123.388C118.011 123.388 100.79 119.514 102.471 97.3057C102.471 97.3057 86.3418 101.886 79.0854 97.5518Z" fill="#FFAA9B"/>
<path opacity="0.3" d="M72.9972 94.7477C73.1042 94.6407 73.1684 94.4267 73.3182 94.4374C74.0567 94.5123 74.7417 94.8334 75.4695 95.0046C77.9418 95.5933 80.4676 96.0963 83.0149 96.0749C85.1661 96.0642 87.296 95.7217 89.4472 95.711C90.8921 95.711 92.3369 95.8394 93.7711 95.7645C95.0875 95.6896 96.3826 95.4006 97.6883 95.2401C99.6255 95.0046 101.573 94.8976 103.521 94.8334C104.249 94.812 104.988 94.8548 105.715 94.7477C106.347 94.6621 107.706 94.2019 108.359 94.5872C109.365 95.1651 109.022 96.7705 108.616 97.5625C107.931 98.8897 106.914 100.42 105.897 101.555C103.981 103.717 101.06 105.044 98.4375 106.125C93.8353 108.03 88.8693 108.672 83.9032 108.233C82.1266 108.073 80.4462 107.869 78.7659 107.259C77.1284 106.649 74.4527 104.701 73.5965 103.16C72.9008 101.908 72.6011 100.431 72.3764 99.0288C72.2801 98.4081 72.1516 97.7766 72.1088 97.1558C72.0767 96.6635 71.9804 96.1391 72.1516 95.6789C72.2908 95.2829 72.7082 95.0474 72.9972 94.7477Z" fill="#FFAA9B"/>
<path d="M64.0584 63.8717C64.0584 63.8717 60.2482 64.1713 61.1579 70.4645C61.1579 70.4645 61.9713 76.4794 66.6377 77.1109C66.6377 77.1109 71.882 104.874 91.2539 103.857C91.2539 103.857 111.129 104.424 115.142 78.3738C115.142 78.3738 122.442 76.6614 123.03 69.6297C123.03 69.6297 124.261 64.3426 120.344 64.3426C120.344 64.3426 117.839 64.3533 116.309 67.2323C116.309 67.2323 118.674 30.019 95.0962 32.5449C95.0962 32.5449 68.6926 32.5449 67.5367 54.5817L67.1728 65.8731C67.1728 65.8731 66.3166 64.3212 64.0584 63.8717Z" fill="#FFAA9B"/>
<path d="M74.5572 65.5402C74.5572 65.5402 75.0388 62.8859 80.1654 64.1167C80.1654 64.1167 85.4097 65.2191 84.2645 68.1516C84.2645 68.1516 83.3869 69.8212 78.667 68.6653C78.667 68.6653 74.1505 67.7556 74.5572 65.5402Z" fill="white"/>
<path d="M77.6378 65.2407C77.7235 63.8921 78.8793 62.8647 80.2279 62.9503C81.5764 63.0359 82.5932 64.1918 82.5183 65.5403C82.4327 66.8889 81.2767 67.9056 79.9282 67.82C78.569 67.7451 77.5522 66.5892 77.6378 65.2407Z" fill="#5B0909"/>
<path d="M109.853 66.043C109.853 66.043 109.703 63.346 104.459 63.9346C104.459 63.9346 99.1179 64.3734 99.8885 67.4344C99.8885 67.4344 100.552 69.2003 105.379 68.6438C105.39 68.6331 109.981 68.3013 109.853 66.043Z" fill="white"/>
<path d="M106.833 65.3685C106.918 64.0199 105.891 62.864 104.542 62.7784C103.194 62.6928 102.038 63.7203 101.952 65.0688C101.867 66.4173 102.894 67.5732 104.243 67.6589C105.591 67.7445 106.747 66.717 106.833 65.3685Z" fill="#5B0909"/>
<path d="M73.6038 58.8944C73.6038 58.8944 73.5503 60.7566 77.9919 60.2429C77.9919 60.2429 82.0911 59.9432 82.0269 58.5091C82.0269 58.5091 81.7486 56.4863 77.5959 56.9786C77.5959 56.9893 73.3149 57.4816 73.6038 58.8944Z" fill="#940A37"/>
<path d="M101.217 57.7174C101.217 57.7174 100.692 59.5047 105.112 60.1576C105.112 60.1576 109.147 60.9282 109.458 59.5261C109.458 59.5261 109.704 57.5033 105.573 56.904C105.562 56.904 101.302 56.2725 101.217 57.7174Z" fill="#940A37"/>
<path d="M91.2512 81.6796C89.8599 81.594 88.811 81.0589 88.7468 81.0161C88.5327 80.8983 88.4471 80.6415 88.5648 80.4274C88.6825 80.2134 88.9394 80.1278 89.1535 80.2455C89.1749 80.2562 91.5616 81.4763 93.7342 80.299C93.9483 80.1813 94.2159 80.2562 94.3336 80.4702C94.4513 80.6843 94.3764 80.9519 94.1623 81.0696C93.1563 81.6047 92.1288 81.7332 91.2512 81.6796Z" fill="#5B0909"/>
<path d="M91.3069 88.5195L97.6536 88.6373C97.6536 88.6373 96.487 91.9979 91.3925 92.2013C91.3925 92.2013 86.3515 92.2548 85.2812 88.6587L91.3069 88.5195Z" fill="#940A37"/>
<path d="M85.207 88.8085C85.207 88.8085 86.4592 86.3362 91.6608 86.3576C91.6608 86.3576 96.9265 86.6358 97.6328 88.7229C97.6328 88.7229 92.3885 89.4078 85.207 88.8085Z" fill="#5B0909"/>
<path opacity="0.4" d="M111.31 73.7278C111.459 75.2262 109.308 76.6817 106.493 76.9707C103.679 77.2597 101.27 76.2857 101.11 74.7767C100.949 73.2783 103.111 71.8227 105.926 71.5337C108.741 71.2448 111.149 72.2294 111.31 73.7278Z" fill="#FFAA9B"/>
<path opacity="0.4" d="M81.8649 75.8687C81.683 77.3671 79.2641 78.3089 76.4493 77.9771C73.6345 77.6453 71.5047 76.1469 71.6866 74.6486C71.8686 73.1502 74.2874 72.2084 77.1022 72.5401C79.917 72.8826 82.0468 74.3703 81.8649 75.8687Z" fill="#FFAA9B"/>
<path opacity="0.4" d="M120.942 70.2818C120.62 71.7374 119.582 72.7434 118.63 72.5294C117.677 72.3153 117.174 70.9668 117.495 69.5112C117.827 68.0556 118.854 67.0603 119.807 67.2636C120.76 67.4884 121.273 68.8369 120.942 70.2818Z" fill="#FFAA9B"/>
<path opacity="0.4" d="M67.3752 70.2485C67.8248 71.672 67.4288 73.0526 66.4976 73.3416C65.5665 73.6305 64.4534 72.7208 64.0039 71.2974C63.5544 69.8739 63.9504 68.4933 64.8815 68.1936C65.8126 67.9153 66.9257 68.825 67.3752 70.2485Z" fill="#FFAA9B"/>
<path d="M69.5051 71.7376C69.5051 71.7376 64.8494 65.134 66.0802 49.8506C66.0802 49.8506 69.2268 28.777 90.0328 28.1455C90.0328 28.1455 108.548 28.1241 113.193 39.3191C113.193 39.3191 123.029 59.2689 112.637 74.7557C112.637 74.7557 114.296 52.1731 111.053 42.7226C111.053 42.7226 104.332 54.7952 69.9439 56.0795C69.9332 56.0903 68.2421 64.3099 69.5051 71.7376Z" fill="#940A37"/>
<path d="M77.7666 52.5469C77.6382 52.5362 77.5205 52.4827 77.4456 52.3757C77.2957 52.183 77.3385 51.9048 77.5312 51.7549C77.6596 51.6586 90.2246 41.9941 92.8253 37.4561C92.9431 37.2421 93.2213 37.1778 93.4247 37.2956C93.6387 37.4133 93.703 37.6809 93.5852 37.8949C90.8881 42.5827 78.58 52.0546 78.0556 52.4506C77.9807 52.5255 77.8737 52.5576 77.7666 52.5469Z" fill="#E26241"/>
<path d="M87.2082 50.8869C87.0904 50.8762 86.9727 50.8226 86.8871 50.7156C86.7372 50.523 86.7693 50.2447 86.962 50.0949C87.0583 50.0199 96.1449 42.9134 98.3818 38.9427C98.4995 38.7286 98.7671 38.6537 98.9811 38.7714C99.1952 38.8891 99.2701 39.1567 99.1524 39.3708C96.8299 43.4913 87.8824 50.4909 87.5078 50.7798C87.4115 50.8655 87.3045 50.8869 87.2082 50.8869Z" fill="#E26241"/>
<path d="M95.4463 49.11C95.3179 49.0992 95.2002 49.0457 95.1253 48.9387C94.9754 48.7461 95.0182 48.4678 95.2109 48.318C95.2751 48.2751 101.386 43.566 103.238 40.4301C103.366 40.2267 103.634 40.1518 103.837 40.2802C104.051 40.398 104.116 40.6762 103.998 40.8796C102.061 44.1653 96.0029 48.821 95.746 49.0243C95.6604 49.0885 95.5534 49.11 95.4463 49.11Z" fill="#E26241"/>
<path d="M33.6729 54.5684C24.3295 54.5684 16.752 62.1459 16.752 71.4893C16.752 80.8328 24.3295 88.3996 33.6729 88.3996C43.0164 88.3996 50.5832 80.8328 50.5832 71.4893C50.5832 62.1459 43.0057 54.5684 33.6729 54.5684ZM33.6729 57.0621C37.3439 57.0621 40.6618 58.4856 43.2197 60.7438L21.504 79.1632C20.1019 76.937 19.2457 74.3148 19.2564 71.4893C19.2457 63.5265 25.6994 57.0621 33.6729 57.0621ZM45.0285 62.6917C46.9229 65.1319 48.1002 68.1715 48.1002 71.5C48.1002 79.4628 41.6357 85.9273 33.6729 85.9273C29.4882 85.9273 25.7636 84.1292 23.1201 81.293L45.0285 62.6917Z" fill="#FF0000"/>
<path d="M40.9043 129.671C40.9043 129.671 54.882 123.817 74.5215 118.38C74.5215 118.38 89.2056 125.379 109.444 118.519C109.444 118.519 127.361 121.687 142.805 128.387C142.805 128.387 122.994 148.968 91.8598 147.941C91.8598 147.941 49.4022 147.427 40.9043 129.671Z" fill="#FFD369"/>
<path d="M32.7931 127.092C32.7931 127.092 29.3896 120.253 36.9885 108.116L42.7787 98.0337C42.7787 98.0337 43.8704 95.5186 44.962 95.8397C44.962 95.8397 47.5949 97.1454 44.5874 103.032C44.5874 103.032 43.3352 105.622 44.3627 105.772C44.3627 105.772 48.8899 101.555 51.7154 98.1194C51.7154 98.1194 58.2013 89.3432 60.4596 90.4348C60.4596 90.4348 61.7546 92.372 56.4567 97.9588C56.4567 97.9588 51.0733 105.419 50.7736 106.714C50.7736 106.714 56.6066 102.411 59.6247 98.997C59.6247 98.997 64.3125 92.8215 66.4745 93.956C66.4745 93.956 67.2129 96.5568 61.9151 102.186C61.9151 102.186 55.1189 109.475 55.5149 110.727C55.5149 110.727 59.9672 107.827 63.3172 103.931C63.3172 103.931 69.1715 97.5842 71.0873 98.6224C71.0873 98.6224 72.4573 100.057 66.8169 106.082L59.5605 113.981C59.5605 113.981 65.5861 109.775 69.011 108.276C69.011 108.276 72.6071 106.874 72.9389 107.805C72.9389 107.805 73.9235 109.047 67.5233 112.889C67.5233 112.889 57.7732 120.734 56.0928 123.635C56.0928 123.635 49.2645 134.348 43.9346 133.759C43.9239 133.791 35.8434 134.434 32.7931 127.092Z" fill="#FFBEBB"/>
</g>
<path d="M28.8565 161.043H31.7065C33.9465 161.043 35.4565 159.603 35.4565 157.543C35.4565 155.483 33.9465 154.043 31.7065 154.043H28.8565V161.043ZM29.5965 160.403V154.683H31.6665C33.5265 154.683 34.7265 155.863 34.7265 157.543C34.7265 159.223 33.5265 160.403 31.6665 160.403H29.5965ZM39.1182 161.093C40.6582 161.093 41.7882 159.973 41.7882 158.413C41.7882 156.853 40.6582 155.743 39.1182 155.743C37.5782 155.743 36.4382 156.853 36.4382 158.413C36.4382 159.973 37.5782 161.093 39.1182 161.093ZM39.1182 160.463C37.9982 160.463 37.1582 159.643 37.1582 158.413C37.1582 157.183 37.9982 156.363 39.1182 156.363C40.2382 156.363 41.0682 157.183 41.0682 158.413C41.0682 159.643 40.2382 160.463 39.1182 160.463ZM45.9177 155.743C45.0077 155.743 44.2977 156.113 43.9177 156.753V155.783H43.2377V161.043H43.9477V158.283C43.9477 157.083 44.6577 156.383 45.7877 156.383C46.7877 156.383 47.3677 156.953 47.3677 158.063V161.043H48.0777V157.993C48.0777 156.483 47.1977 155.743 45.9177 155.743ZM50.0072 153.573C49.7072 153.573 49.4772 153.793 49.4772 154.113C49.4772 154.373 49.6272 154.553 49.8472 154.623L49.4972 156.063H49.9772L50.4072 154.683C50.4972 154.403 50.5372 154.283 50.5372 154.113C50.5372 153.813 50.3172 153.573 50.0072 153.573ZM54.5859 160.213C54.3859 160.393 54.0959 160.483 53.8059 160.483C53.2159 160.483 52.8959 160.143 52.8959 159.523V156.383H54.4959V155.783H52.8959V154.633H52.1859V155.783H51.2459V156.383H52.1859V159.563C52.1859 160.533 52.7359 161.093 53.7259 161.093C54.1359 161.093 54.5559 160.973 54.8359 160.723L54.5859 160.213ZM61.2655 160.213C61.0655 160.393 60.7755 160.483 60.4855 160.483C59.8955 160.483 59.5755 160.143 59.5755 159.523V156.383H61.1755V155.783H59.5755V154.633H58.8655V155.783H57.9255V156.383H58.8655V159.563C58.8655 160.533 59.4155 161.093 60.4055 161.093C60.8155 161.093 61.2355 160.973 61.5155 160.723L61.2655 160.213ZM64.7725 161.093C66.3125 161.093 67.4425 159.973 67.4425 158.413C67.4425 156.853 66.3125 155.743 64.7725 155.743C63.2325 155.743 62.0925 156.853 62.0925 158.413C62.0925 159.973 63.2325 161.093 64.7725 161.093ZM64.7725 160.463C63.6525 160.463 62.8125 159.643 62.8125 158.413C62.8125 157.183 63.6525 156.363 64.7725 156.363C65.8925 156.363 66.7225 157.183 66.7225 158.413C66.7225 159.643 65.8925 160.463 64.7725 160.463ZM72.922 155.783V158.543C72.922 159.743 72.232 160.453 71.132 160.453C70.132 160.453 69.552 159.883 69.552 158.763V155.783H68.842V158.833C68.842 160.343 69.722 161.093 71.062 161.093C71.902 161.093 72.582 160.723 72.952 160.083V161.043H73.632V155.783H72.922ZM77.8005 161.093C78.6905 161.093 79.4405 160.733 79.8605 160.053L79.3305 159.693C78.9705 160.223 78.4105 160.463 77.8005 160.463C76.6505 160.463 75.8105 159.653 75.8105 158.413C75.8105 157.183 76.6505 156.363 77.8005 156.363C78.4105 156.363 78.9705 156.613 79.3305 157.143L79.8605 156.783C79.4405 156.093 78.6905 155.743 77.8005 155.743C76.2305 155.743 75.0905 156.843 75.0905 158.413C75.0905 159.983 76.2305 161.093 77.8005 161.093ZM83.8572 155.743C82.9672 155.743 82.2772 156.093 81.8872 156.703V153.623H81.1772V161.043H81.8872V158.283C81.8872 157.083 82.5972 156.383 83.7272 156.383C84.7272 156.383 85.3072 156.953 85.3072 158.063V161.043H86.0172V157.993C86.0172 156.483 85.1372 155.743 83.8572 155.743ZM94.282 155.783L92.302 160.253L90.322 155.783H89.582L91.932 161.033L91.702 161.543C91.402 162.203 91.082 162.423 90.612 162.423C90.232 162.423 89.912 162.283 89.652 162.023L89.322 162.553C89.642 162.873 90.112 163.033 90.602 163.033C91.352 163.033 91.912 162.703 92.352 161.673L94.982 155.783H94.282ZM97.9854 161.093C99.5254 161.093 100.655 159.973 100.655 158.413C100.655 156.853 99.5254 155.743 97.9854 155.743C96.4454 155.743 95.3054 156.853 95.3054 158.413C95.3054 159.973 96.4454 161.093 97.9854 161.093ZM97.9854 160.463C96.8654 160.463 96.0254 159.643 96.0254 158.413C96.0254 157.183 96.8654 156.363 97.9854 156.363C99.1054 156.363 99.9354 157.183 99.9354 158.413C99.9354 159.643 99.1054 160.463 97.9854 160.463ZM106.135 155.783V158.543C106.135 159.743 105.445 160.453 104.345 160.453C103.345 160.453 102.765 159.883 102.765 158.763V155.783H102.055V158.833C102.055 160.343 102.935 161.093 104.275 161.093C105.115 161.093 105.795 160.723 106.165 160.083V161.043H106.845V155.783H106.135ZM109.513 156.813V155.783H108.833V161.043H109.543V158.363C109.543 157.123 110.213 156.423 111.313 156.423C111.363 156.423 111.423 156.433 111.483 156.433V155.743C110.513 155.743 109.843 156.113 109.513 156.813ZM117.204 154.173C117.504 154.173 117.784 154.263 117.984 154.433L118.224 153.903C117.964 153.683 117.564 153.573 117.174 153.573C116.144 153.573 115.584 154.193 115.584 155.133V155.783H114.644V156.383H115.584V161.043H116.294V156.383H117.894V155.783H116.274V155.163C116.274 154.513 116.594 154.173 117.204 154.173ZM120.595 155.743C119.765 155.743 118.985 156.003 118.455 156.453L118.775 156.983C119.205 156.603 119.845 156.363 120.525 156.363C121.505 156.363 122.015 156.853 122.015 157.753V158.073H120.345C118.835 158.073 118.315 158.753 118.315 159.563C118.315 160.473 119.045 161.093 120.235 161.093C121.105 161.093 121.725 160.763 122.045 160.223V161.043H122.725V157.783C122.725 156.423 121.955 155.743 120.595 155.743ZM120.345 160.533C119.505 160.533 119.015 160.153 119.015 159.543C119.015 159.003 119.345 158.603 120.365 158.603H122.015V159.463C121.735 160.153 121.145 160.533 120.345 160.533ZM126.853 161.093C127.743 161.093 128.493 160.733 128.913 160.053L128.383 159.693C128.023 160.223 127.463 160.463 126.853 160.463C125.703 160.463 124.863 159.653 124.863 158.413C124.863 157.183 125.703 156.363 126.853 156.363C127.463 156.363 128.023 156.613 128.383 157.143L128.913 156.783C128.493 156.093 127.743 155.743 126.853 155.743C125.283 155.743 124.143 156.843 124.143 158.413C124.143 159.983 125.283 161.093 126.853 161.093ZM134.81 158.413C134.81 156.833 133.74 155.743 132.26 155.743C130.78 155.743 129.69 156.853 129.69 158.413C129.69 159.973 130.81 161.093 132.45 161.093C133.28 161.093 134.01 160.793 134.48 160.233L134.08 159.773C133.68 160.233 133.11 160.463 132.47 160.463C131.32 160.463 130.48 159.733 130.4 158.633H134.8C134.8 158.553 134.81 158.473 134.81 158.413ZM132.26 156.353C133.29 156.353 134.04 157.073 134.13 158.103H130.4C130.49 157.073 131.24 156.353 132.26 156.353Z" fill="#4F4F4F"/>
</svg>
