<svg width="690" height="436" viewBox="0 0 690 436" fill="none" xmlns="http://www.w3.org/2000/svg">
<path d="M543.703 395.828H157.057V401.381H543.703V395.828Z" fill="#E0EFD1"/>
<path d="M84.993 435.25C131.933 435.25 169.986 418.136 169.986 397.025C169.986 375.914 131.933 358.8 84.993 358.8C38.0526 358.8 0 375.914 0 397.025C0 418.136 38.0526 435.25 84.993 435.25Z" fill="#64AF19"/>
<path d="M605.007 435.25C651.947 435.25 690 418.136 690 397.025C690 375.914 651.947 358.8 605.007 358.8C558.066 358.8 520.014 375.914 520.014 397.025C520.014 418.136 558.066 435.25 605.007 435.25Z" fill="#64AF19"/>
<path d="M605.008 423.496C644.29 423.496 676.134 411.109 676.134 395.828C676.134 380.547 644.29 368.159 605.008 368.159C565.727 368.159 533.883 380.547 533.883 395.828C533.883 411.109 565.727 423.496 605.008 423.496Z" fill="#E0EFD1"/>
<path d="M84.9925 423.496C124.274 423.496 156.118 411.109 156.118 395.828C156.118 380.547 124.274 368.159 84.9925 368.159C45.7111 368.159 13.8672 380.547 13.8672 395.828C13.8672 411.109 45.7111 423.496 84.9925 423.496Z" fill="#E0EFD1"/>
<path d="M585.648 374.662C585.648 374.662 575.581 386.124 573.611 387.277C571.641 388.431 566.397 392.043 564.265 395.817C562.134 399.591 563.447 400.745 563.447 400.745C563.447 400.745 578.079 400.907 583.237 397.133C588.383 393.359 591.333 387.709 591.333 387.709L592.97 389.412L598.87 386.943L601.099 377.249C601.109 377.26 587.22 375.513 585.648 374.662Z" fill="#0F1129"/>
<path d="M603.533 373.109L604.287 384.226C604.287 384.226 607.797 387.892 608.647 388.032C609.487 388.172 610.478 388.032 610.478 388.032C610.478 388.032 611.748 387.051 612.168 387.051C612.588 387.051 620.319 391.838 620.889 394.092C621.449 396.346 634.111 398.459 636.07 398.599C638.041 398.739 641.691 397.478 641.691 397.046C641.691 396.626 636.21 389.304 632.97 387.331C629.74 385.358 624.475 380.98 622.612 378.802C620.739 376.624 618.779 371.998 618.779 371.998L603.533 373.109Z" fill="#0F1129"/>
<path d="M567.057 199.549C567.057 199.549 580.784 332.447 580.601 336.652C580.418 340.868 584.079 373.82 584.079 373.82C584.079 373.82 593.769 379.309 597.613 378.759C601.457 378.209 601.457 378.209 601.457 378.209L602.372 372.721C602.372 372.721 609.865 375.47 613.526 374.187C617.187 372.904 620.288 371.254 620.288 371.254L642.963 199.538L638.72 185.219L567.057 199.549Z" fill="#593227"/>
<path d="M613.331 74.9001C613.331 74.9001 617.734 80.0003 619.209 80.4963C620.695 80.9924 644.899 84.9496 649.841 93.3602C654.783 101.771 670.341 159.416 668.618 165.605C666.885 171.794 632.054 218.548 629.341 218.3C626.628 218.052 619.209 211.626 618.229 210.386C617.239 209.146 616.248 202.73 616.248 202.73L616.991 198.266C616.991 198.266 593.272 201.749 585.617 202.73C577.962 203.711 567.83 200.746 567.335 198.266C566.84 195.797 567.335 183.17 567.335 183.17C567.335 183.17 561.65 174.759 560.423 169.066C559.184 163.373 555.481 136.405 555.481 136.405C555.481 136.405 539.18 162.877 529.296 164.613C519.412 166.349 510.766 163.125 509.776 136.653C508.785 110.181 508.29 84.7016 509.776 83.7096C511.261 82.7176 511.261 82.7176 511.261 82.7176C511.261 82.7176 510.239 65.9288 511.671 65.325C513.113 64.7211 526.432 66.166 526.798 67.6109C527.153 69.0558 527.401 81.3158 527.401 81.3158C527.401 81.3158 532.084 87.2032 532.687 90.093C533.29 92.9828 534.249 109.933 534.97 110.052C535.691 110.171 557.3 82.2755 559.583 81.0786C561.865 79.871 579.587 77.833 579.587 77.833L613.331 74.9001Z" fill="#5574A6"/>
<path d="M567.333 183.17C567.333 183.17 589.847 186.028 599.128 184.755C608.419 183.483 624.031 180.388 624.031 180.388L616.979 198.266C616.979 198.266 585.475 204.488 582.654 204.628C579.844 204.768 571.403 203.927 569.993 202.73C568.582 201.533 566.332 199.269 566.332 197.727C566.332 196.185 567.333 183.17 567.333 183.17Z" fill="#7B8EAD"/>
<path d="M581.149 19.0991C581.149 19.0991 569.025 26.0755 567.346 38.5835C565.666 51.0916 569.392 66.8452 575.755 69.6056C582.118 72.366 598.57 65.2817 604.093 54.8116C604.093 54.8116 610.693 55.4155 613.223 49.1615C615.742 42.9074 609.024 40.7401 606.741 42.6702C606.741 42.6702 606.978 26.798 600.734 21.8702C594.478 16.9317 581.149 19.0991 581.149 19.0991Z" fill="#FFAA82"/>
<path d="M582.204 31.9632C581.989 32.1034 575.744 48.903 576.325 48.5364C576.907 48.1698 583.151 42.649 583.151 42.4333C583.151 42.2177 583.151 32.0387 583.151 31.9632C583.151 31.8878 582.204 31.9632 582.204 31.9632Z" fill="#DB6240"/>
<path d="M575.67 39.8126C575.67 41.98 573.915 43.7376 571.751 43.7376C569.587 43.7376 567.832 41.98 567.832 39.8126C567.832 37.6453 569.587 35.8877 571.751 35.8877C573.915 35.8877 575.67 37.6453 575.67 39.8126Z" fill="#DB6240"/>
<path d="M590.687 45.9158C592.851 45.9158 594.606 44.1585 594.606 41.9909C594.606 39.8232 592.851 38.0659 590.687 38.0659C588.522 38.0659 586.768 39.8232 586.768 41.9909C586.768 44.1585 588.522 45.9158 590.687 45.9158Z" fill="#DB6240"/>
<path d="M590.355 34.7778C590.355 35.7051 589.602 36.4491 588.686 36.4491C587.771 36.4491 587.018 35.6943 587.018 34.7778C587.018 33.8612 587.771 33.1064 588.686 33.1064C589.602 33.1064 590.355 33.8505 590.355 34.7778Z" fill="#2E1711"/>
<path d="M577.951 31.6933C577.951 32.6206 577.197 33.3646 576.282 33.3646C575.356 33.3646 574.613 32.6098 574.613 31.6933C574.613 30.7768 575.367 30.022 576.282 30.022C577.208 30.022 577.951 30.766 577.951 31.6933Z" fill="#2E1711"/>
<path d="M593.272 30.0223C593.272 30.0223 590.871 26.0111 588.674 26.1082C586.478 26.216 586.769 28.9333 586.769 28.9333C586.769 28.9333 588.147 27.3159 589.557 27.7795C590.968 28.254 593.272 30.0223 593.272 30.0223Z" fill="#2E1711"/>
<path d="M580.471 26.1081C580.471 26.1081 579.352 23.7036 577.952 23.9624C576.552 24.2211 574.604 27.208 574.604 27.208C574.604 27.208 577.392 25.4072 578.221 25.5798C579.061 25.7415 580.471 26.1081 580.471 26.1081Z" fill="#2E1711"/>
<path d="M581.151 19.0992C581.151 19.0992 588.881 26.3668 594.609 28.6528C600.337 30.9387 602.329 31.7043 602.329 31.7043C602.329 31.7043 599.196 34.8529 599.196 36.4703C599.196 38.0877 601.974 35.1548 601.974 35.1548C601.974 35.1548 598.335 40.7942 599.627 44.9348C600.908 49.0754 602.91 49.0754 603.836 47.5766C604.762 46.0778 603.793 46.164 605.258 44.4172C606.722 42.6704 608.035 41.7862 609.672 42.0019C611.308 42.2175 613.16 44.4172 613.16 44.4172C613.16 44.4172 619.287 39.6081 616.014 31.7043C612.73 23.8005 609.812 20.7382 608.391 16.9535C606.969 13.1687 605.042 13.8157 605.042 16.9535C605.042 20.0912 606.259 21.8057 606.259 21.8057C606.259 21.8057 600.133 4.81204 595.277 2.03008C590.432 -0.751875 584.122 -0.180386 583.143 3.09758C582.163 6.38633 582.303 7.23817 582.303 7.23817C582.303 7.23817 578.244 1.67425 572.107 2.74175C565.98 3.80924 564.764 8.45662 565.83 13.2334C566.896 18.021 574.594 24.3612 574.594 24.3612L581.151 19.0992Z" fill="#2E1711"/>
<path d="M580.642 70.1123C580.642 70.1123 579.803 71.7082 579.717 73.2824C579.63 74.8567 579.458 80.0432 579.717 80.8304C579.975 81.6175 589.45 85.7905 594.618 84.7769C599.786 83.7633 602.488 82.5233 602.488 82.5233C602.488 82.5233 604.383 149.506 605.481 150.056C606.58 150.606 607.495 150.056 607.495 150.056C607.495 150.056 607.624 162.025 608.248 162.434C608.862 162.844 609.379 162.952 609.379 162.434C609.379 161.917 609.121 150.52 609.121 150.369C609.121 150.218 610.456 149.592 610.456 149.592C610.456 149.592 610.865 163.06 611.382 163.103C611.898 163.157 612.566 162.995 612.566 162.79C612.566 162.585 612.049 148.816 612.049 148.816L613.696 148.244C613.696 148.244 613.029 161.712 613.696 161.917C614.364 162.122 614.881 161.712 614.881 161.712V147.942L616.216 147.22C616.216 147.22 616.065 158.52 616.474 158.617C616.883 158.725 617.142 158.046 617.142 157.895C617.142 157.744 617.142 147.015 617.142 147.015C617.142 147.015 617.809 146.444 618.068 146.347C618.326 146.239 618.994 156.202 619.252 156.202C619.51 156.202 620.081 155.48 620.027 155.221C619.973 154.962 619.36 146.347 619.36 146.347L620.027 145.473C620.027 145.473 621.266 155.275 621.728 154.865C622.191 154.455 622.299 153.107 622.138 152.547C621.976 151.986 621.524 147.694 621.47 147.543C621.416 147.393 616.808 103.011 616.076 96.4223C615.344 89.834 611.231 77.4661 611.231 77.4661C611.231 77.4661 613.33 75.6331 613.33 74.8999C613.33 74.1666 607.387 59.7932 606.106 58.6071C604.825 57.421 604.071 54.8115 604.071 54.8115C604.071 54.8115 594.779 65.4434 590.343 67.1039C585.907 68.7644 580.642 70.1123 580.642 70.1123Z" fill="#AB3E20"/>
<path d="M581.945 71.3095C581.945 71.3095 590.763 71.7948 597.902 68.5815C605.04 65.3682 605.998 62.2412 605.998 62.2412C605.998 62.2412 604.233 71.234 599.021 75.6442C593.81 80.0544 588.438 79.0192 588.438 79.0192" stroke="#5C2111" stroke-width="0.5" stroke-miterlimit="10" stroke-linecap="round" stroke-linejoin="round"/>
<path d="M567.087 48.8703C567.087 48.8703 573.709 51.4258 581.375 50.574C589.041 49.7222 591.022 48.342 591.668 48.5361C592.303 48.7301 597.202 61.443 596.567 63.3624C595.932 65.2817 585.359 70.1016 580.89 70.6731C576.422 71.2446 573.515 71.1044 571.028 66.0581C568.541 61.0117 567.357 54.0784 567.098 52.31C566.84 50.5632 567.087 48.8703 567.087 48.8703Z" fill="#7FA6A5"/>
<path d="M591.668 48.5365L607.893 42.0776L607 42.7246L592.486 49.9922L591.668 48.5365Z" fill="#7FA6A5"/>
<path d="M595.92 61.9174L604.081 54.8008H605.416L595.92 63.7397V61.9174Z" fill="#7FA6A5"/>
<path d="M635.371 90.7832C635.371 90.7832 628.211 100.186 628.211 105.135C628.211 110.084 633.4 149.905 633.4 149.905C633.4 149.905 624.259 104.639 624.507 101.674C624.755 98.7085 626.488 94.5033 626.488 94.5033" stroke="#334563" stroke-miterlimit="10"/>
<path d="M660.812 156.838C660.812 156.838 641.055 151.145 635.37 156.838C629.685 162.532 616.604 200.606 616.604 200.606" stroke="#334563" stroke-miterlimit="10"/>
<path d="M635.371 156.838C635.371 156.838 641.54 151.641 648.463 148.676C655.376 145.711 654.644 146.692 654.644 146.692" stroke="#334563" stroke-miterlimit="10"/>
<path d="M550.936 103.841C550.936 103.841 552.551 115.541 552.734 119.498C552.917 123.455 555.468 136.416 555.468 136.416" stroke="#334563" stroke-miterlimit="10"/>
<path d="M526.12 67.0826C526.12 67.0826 531.6 59.3298 531.848 58.2946C532.095 57.2595 533.614 41.15 533.183 40.7187C532.752 40.2874 531.719 41.5166 531.169 42.4871C530.62 43.4683 528.305 49.14 527.207 49.9272C526.109 50.7251 525.442 50.9623 525.442 50.9623C525.442 50.9623 521.91 22.7761 520.629 20.8244C519.348 18.8728 518.196 20.0912 518.196 20.0912C518.196 20.0912 516.247 18.2042 515.213 18.3875C514.18 18.5708 512.715 21.9243 512.597 22.3556C512.478 22.7869 510.766 24.1887 510.282 25.1052C509.797 26.0217 506.686 53.9599 507.601 56.5909C508.516 59.2112 511.671 65.3358 511.671 65.3358L526.12 67.0826Z" fill="#FFAA82"/>
<path d="M511.67 65.3359C511.67 65.3359 521.468 66.2093 522.405 66.1339C523.342 66.0584 527.336 65.3359 527.336 65.3359C527.336 65.3359 528.327 66.1554 528.402 67.0935C528.477 68.0209 527.659 81.6719 527.659 81.6719C527.659 81.6719 521.102 84.2382 518.647 84.594C516.192 84.9606 511.25 82.7286 511.25 82.7286C511.25 82.7286 509.969 67.7513 510.335 67.0935C510.701 66.425 511.67 65.3359 511.67 65.3359Z" fill="#7B8EAD"/>
<path d="M512.854 65.4976C512.747 65.573 511.896 67.8266 511.821 68.2364C511.745 68.6461 512.671 82.6853 512.854 82.901C513.037 83.1274 513.737 83.4509 513.737 83.4509C513.737 83.4509 513.22 69.3039 513.328 68.9696C513.436 68.6353 514.588 66.1984 514.588 66.1984L515.589 66.0151C515.589 66.0151 516.031 68.4197 515.772 69.0127C515.514 69.6058 515.105 68.754 515.029 71.0399C514.954 73.3259 515.589 84.2596 515.848 84.3135C516.106 84.3782 517.527 84.0332 517.506 84.3135C517.484 84.5939 516.73 71.4065 516.806 71.1909C516.881 70.9644 518.388 66.5004 518.388 66.3494C518.388 66.1984 519.713 66.1661 519.713 66.1661C519.713 66.1661 519.681 69.0128 519.713 69.4548C519.745 69.8969 519.045 71.2663 519.045 71.2663C519.045 71.2663 519.67 83.6126 519.896 83.8283C520.122 84.0547 521.414 83.8822 521.414 83.8822C521.414 83.8822 521.306 71.5575 521.414 71.083C521.522 70.5978 521.629 66.9101 521.629 66.9101L522.738 66.4249C522.738 66.4249 523.438 74.7708 523.546 76.9165C523.653 79.0623 523.514 82.75 523.546 82.7931C523.578 82.8363 524.655 82.3834 524.87 82.2756C525.096 82.1677 525.021 69.6382 524.87 68.6785C524.719 67.7188 524.644 66.1661 524.644 66.1661L526.108 65.5515C526.108 65.5515 526.97 71.4065 527.002 71.8917C527.034 72.377 527.185 81.4669 527.002 81.5747" stroke="#334563" stroke-width="0.5" stroke-miterlimit="10"/>
<path d="M534.959 110.062C534.959 110.062 539.729 116.036 539.933 120.134C540.138 124.231 539.933 132.814 539.933 132.814C539.933 132.814 543.691 130.097 543.691 128.835C543.691 127.585 542.022 116.284 541.398 115.443C540.773 114.602 538.264 110.073 538.264 110.073L543.702 113.351" stroke="#334563" stroke-miterlimit="10"/>
<path d="M570.285 183.515C570.285 183.515 568.261 199.355 568.466 199.894C568.67 200.433 568.778 201.727 569.37 201.727C569.962 201.727 572.105 183.709 572.363 183.741C572.622 183.774 573.752 184.356 573.752 184.356C573.752 184.356 571.244 202.072 571.448 202.417C571.653 202.752 572.934 203.237 573.139 203.301C573.343 203.366 575.852 185.111 575.852 185.111C575.852 185.111 578.156 184.701 578.296 185.046C578.436 185.38 576.056 203.032 576.196 203.301C576.336 203.571 577.887 203.301 577.887 203.301C577.887 203.301 579.782 186.265 580.126 185.92C580.46 185.585 583.044 185.855 583.044 186.664C583.044 187.483 581.827 203.841 582.032 204.045C582.236 204.25 583.593 204.25 583.862 204.045C584.131 203.841 585.014 186.739 585.628 186.329C586.242 185.92 586.845 185.995 586.845 185.995C586.845 185.995 586.435 202.601 586.845 202.579C587.254 202.557 587.997 202.493 588.137 202.288C588.277 202.083 588.47 187.289 589.084 186.944C589.698 186.61 590.581 186.06 590.645 186.405C590.71 186.739 590.441 201.339 590.645 201.609C590.85 201.878 592.271 201.404 592.271 201.404C592.271 201.404 592.745 186.469 593.014 186.135C593.283 185.801 594.78 185.521 594.78 185.521C594.78 185.521 594.511 200.865 594.78 200.994C595.049 201.134 596.61 200.617 596.61 200.617C596.61 200.617 596.675 185.65 596.879 185.585C597.084 185.521 598.71 186.06 598.71 186.06V200.918C598.71 200.918 600.131 200.918 600.335 200.617C600.54 200.315 599.926 186.534 600.335 186.329C600.745 186.124 602.23 185.585 602.23 185.585C602.23 185.585 601.552 199.84 602.23 199.905C602.909 199.97 603.856 199.765 603.856 199.765C603.856 199.765 603.792 185.37 604.33 185.1C604.868 184.831 605.956 184.831 605.956 184.831C605.956 184.831 606.096 199.7 606.365 199.765C606.634 199.829 607.861 199.43 607.861 199.43C607.861 199.43 608.131 185.38 608.4 185.24C608.669 185.1 610.564 184.831 610.564 184.831V198.406C610.564 198.406 611.576 198.266 611.781 198.201C611.985 198.136 612.663 183.763 613.073 183.515C613.482 183.267 615.312 183.515 615.312 183.515C615.312 183.515 613.482 197.317 613.751 197.457C614.02 197.597 615.581 197.727 615.721 197.522C615.861 197.317 617.756 183.806 617.756 183.806" stroke="#334563" stroke-width="0.5" stroke-miterlimit="10"/>
<path d="M585.271 209.049C585.271 209.049 586.101 212.499 588.792 215.12C591.495 217.74 599.85 228.08 599.85 228.08L590.838 223.325" stroke="#361E17" stroke-miterlimit="10"/>
<path d="M599.85 228.08L602.358 372.72" stroke="#361E17" stroke-miterlimit="10"/>
<path d="M602.359 287.31C602.359 287.31 613.783 295.904 616.593 295.904C619.414 295.904 626.111 294.826 626.111 294.826C626.111 294.826 616.292 301.414 614.235 300.4" stroke="#361E17" stroke-miterlimit="10"/>
<path d="M601.111 341.268C601.111 341.268 598.139 347.705 593.101 349.592C588.062 351.468 583.238 351.468 583.238 351.468C583.238 351.468 590.926 354.153 592.175 353.883C593.424 353.614 597.978 350.929 597.978 350.929" stroke="#361E17" stroke-miterlimit="10"/>
<path d="M568.455 141.743C568.455 141.743 576.196 151.771 581.946 155.685C587.706 159.599 609.337 169.519 609.337 169.519C609.337 169.519 587.792 165.605 585.273 165.077" stroke="#334563" stroke-miterlimit="10"/>
<path d="M573.796 38.562C577.584 38.562 580.654 35.4868 580.654 31.6933C580.654 27.8999 577.584 24.8247 573.796 24.8247C570.008 24.8247 566.938 27.8999 566.938 31.6933C566.938 35.4868 570.008 38.562 573.796 38.562Z" stroke="#334563" stroke-width="0.5" stroke-miterlimit="10"/>
<path d="M590.689 40.9453C594.476 40.9453 597.547 37.8701 597.547 34.0766C597.547 30.2832 594.476 27.208 590.689 27.208C586.901 27.208 583.83 30.2832 583.83 34.0766C583.83 37.8701 586.901 40.9453 590.689 40.9453Z" stroke="#334563" stroke-width="0.5" stroke-miterlimit="10"/>
<path d="M580.514 33.1064L583.83 34.0769" stroke="#334563" stroke-width="0.5" stroke-miterlimit="10"/>
<path d="M570.252 54.2728C570.252 54.2728 571.867 56.4509 576.712 55.8039C581.557 55.157 588.792 53.5396 588.792 53.5396C588.792 53.5396 580.362 56.9361 579.705 57.1733" stroke="#334563" stroke-width="0.5" stroke-miterlimit="10"/>
<path d="M518.195 20.1021C518.195 20.1021 518.766 37.3976 519.175 39.2199" stroke="#964D39" stroke-width="0.5" stroke-miterlimit="10"/>
<path d="M513.006 21.3853L514.363 40.1042" stroke="#964D39" stroke-width="0.5" stroke-miterlimit="10"/>
<path d="M510.93 24.2427V40.9129" stroke="#964D39" stroke-width="0.5" stroke-miterlimit="10"/>
<path d="M527.219 49.938C527.219 49.938 519.392 54.2511 517.701 57.184" stroke="#964D39" stroke-width="0.5" stroke-miterlimit="10"/>
<path d="M524.418 51.5986L517.258 53.8522" stroke="#964D39" stroke-width="0.5" stroke-miterlimit="10"/>
<path d="M87.8892 303.764C87.8892 303.764 89.9672 307.258 89.5688 308.692C89.1812 310.126 78.7482 362.994 79.6634 367.307C80.5786 371.62 89.052 378.662 93.4772 380.096C97.9131 381.53 104.169 385.315 105.213 386.619C106.257 387.924 106.516 388.442 106.387 388.84C106.257 389.229 95.4367 389.757 92.0452 389.498C88.6537 389.239 84.8314 387.406 83.1626 387.536C81.4937 387.665 77.3162 387.536 76.1427 387.277C74.9691 387.018 68.186 370.434 67.4108 367.437C66.6248 364.439 67.6692 305.694 67.7338 305.037C67.7984 304.379 69.2304 299.947 69.2304 299.947C69.2304 299.947 72.7511 305.037 77.9622 305.037C83.1841 305.037 87.8892 303.764 87.8892 303.764Z" fill="#5E2212"/>
<path d="M54.9979 24.1777C54.9979 24.1777 66.9491 25.504 70.8036 30.1622C74.6581 34.8203 80.4937 57.5612 78.2434 62.8772C75.9824 68.1931 65.3663 67.9343 65.3663 67.9343L71.3419 84.5613L79.4385 81.3696C79.4385 81.3696 83.5837 106.105 65.8939 106.105C50.885 106.105 47.838 90.2762 47.838 90.2762L54.8795 89.6077L47.838 57.6906C47.838 57.6906 39.5799 62.5213 36.1237 55.0596C32.6676 47.5979 39.4722 43.2848 44.1019 43.5436C44.1019 43.5436 47.5042 35.284 50.0129 31.1219C52.4893 26.9705 54.9979 24.1777 54.9979 24.1777Z" fill="#FFAA82"/>
<path d="M65.3552 67.9236C65.3552 67.9236 58.8951 65.2279 57.6893 65.1309C56.4834 65.0446 50.5078 59.4268 50.5078 59.4268C50.5078 59.4268 57.3232 71.3309 59.7888 73.2503C62.2436 75.1696 69.0482 78.1673 69.0482 78.1673L65.3552 67.9236Z" fill="#DB6240"/>
<path d="M65.0859 36.1465L71.729 52.2668L67.3254 51.7707L65.0859 36.1465Z" fill="#DB6240"/>
<path d="M59.7759 54.0133C62.2495 54.0133 64.2548 52.005 64.2548 49.5276C64.2548 47.0503 62.2495 45.042 59.7759 45.042C57.3022 45.042 55.2969 47.0503 55.2969 49.5276C55.2969 52.005 57.3022 54.0133 59.7759 54.0133Z" fill="#DB6240"/>
<path d="M75.4536 40.8799C72.9772 40.8799 70.9746 42.8855 70.9746 45.3655C70.9746 47.8456 72.9772 49.8512 75.4536 49.8512C76.2611 49.8512 77.004 49.6247 77.6608 49.2473L75.5074 40.8799C75.4859 40.8799 75.4751 40.8799 75.4536 40.8799Z" fill="#DB6240"/>
<path d="M58.0006 54.2075C58.0006 54.2075 67.9922 54.6712 70.4685 54.5418C72.9449 54.4124 78.1345 52.9136 78.1345 52.9136C78.1345 52.9136 80.0833 60.8928 78.5328 63.7071C76.9824 66.5214 70.5547 67.8693 69.1227 68.2898C67.6907 68.7104 58.7973 67.8693 58.0006 67.1145C57.2038 66.3597 58.0006 54.2075 58.0006 54.2075Z" fill="#7FA6A5"/>
<path d="M59.5627 54.5314L44.6615 42.1743L44.0801 43.5437L59.0136 55.9008" fill="#7FA6A5"/>
<path d="M47.826 57.6904L58.7866 64.8286V66.748L47.0508 58.0786L47.826 57.6904Z" fill="#7FA6A5"/>
<path d="M59.1098 43.2414C59.9125 43.2414 60.5633 42.5897 60.5633 41.7858C60.5633 40.9818 59.9125 40.3301 59.1098 40.3301C58.307 40.3301 57.6562 40.9818 57.6562 41.7858C57.6562 42.5897 58.307 43.2414 59.1098 43.2414Z" fill="#2E1711"/>
<path d="M71.9324 38.8741C71.9324 39.6828 71.2864 40.3298 70.4789 40.3298C69.6714 40.3298 69.0254 39.6828 69.0254 38.8741C69.0254 38.0654 69.6714 37.4185 70.4789 37.4185C71.2864 37.4185 71.9324 38.0654 71.9324 38.8741Z" fill="#2E1711"/>
<path d="M72.1048 33.5588C71.9755 33.5588 69.4346 30.5396 67.0444 30.9601C64.6541 31.3806 65.9569 32.7285 67.0444 32.4697C68.1318 32.2109 69.5315 32.7824 70.3175 32.9657C71.1034 33.149 72.1048 33.5588 72.1048 33.5588Z" fill="#2E1711"/>
<path d="M58.6142 32.0273C58.6142 32.0273 56.6654 32.092 55.4488 32.9762C54.2322 33.8604 53.9199 36.61 53.9199 36.61C53.9199 36.61 55.3519 33.979 56.5685 33.5693C57.7852 33.1595 58.7004 33.0086 58.9157 32.7929C59.1418 32.5773 58.6142 32.0273 58.6142 32.0273Z" fill="#2E1711"/>
<path d="M53.1133 27.2075C53.1133 27.2075 56.2249 30.6472 60.9515 30.4639C65.6781 30.2806 69.5541 28.9758 69.5541 28.9758C69.5541 28.9758 73.0318 33.8497 74.0762 36.9875C75.1421 40.1899 79.395 54.5095 78.7274 59.4372C78.0707 64.3542 69.6833 68.2144 69.1235 68.3007C68.5744 68.3869 72.8165 74.738 81.9575 78.1777C95.3406 83.2132 100.875 64.8933 91.3676 52.9136C81.8606 40.934 77.7154 39.5322 74.916 34.3133C72.1166 29.0945 68.4882 21.7729 59.7564 21.8916C51.0245 22.0102 53.1133 27.2075 53.1133 27.2075Z" fill="#3B1D16"/>
<path d="M53.4467 26.4958C53.4467 26.4958 52.8976 35.176 50.4966 38.8745C48.0956 42.5622 44.0796 43.5434 44.0796 43.5434C44.0796 43.5434 37.1242 43.8777 35.4015 49.3014C33.6896 54.7252 38.4593 60.095 42.4322 59.2216C46.4052 58.3482 47.8156 57.6904 47.8156 57.6904L54.8571 89.6075L47.8156 90.276C47.8156 90.276 37.0058 121.514 31.8916 123.703C26.7773 125.902 11.2947 129.32 3.618 109.297C-4.05872 89.2732 11.7792 78.5336 21.7816 73.897C31.7731 69.2604 35.5523 63.1896 34.5833 54.0135C33.6035 44.8481 36.8981 38.2059 40.1928 32.2431C43.4874 26.291 49.9582 23.854 54.8679 22.8728C59.7775 21.8916 53.1237 27.2075 53.1237 27.2075" fill="#3B1D16"/>
<path d="M79.4267 81.3588C79.4267 81.3588 94.2957 72.3444 100.131 74.0804C105.967 75.8057 115.894 82.3616 115.582 82.5665C115.269 82.7714 102.22 112.349 102.22 112.349C102.22 112.349 97.9025 108.197 97.5042 109.049C97.1058 109.901 97.6657 117.589 97.5042 119.67C97.3427 121.74 97.5042 122.474 97.5042 122.474L99.7867 140.351C99.7867 140.351 81.1387 150.056 70.8995 150.789C60.6602 151.522 42.3783 141.451 42.3783 141.451L43.4765 119.293C43.4765 119.293 35.2506 116.726 30.1257 113.254C25.0114 109.771 21.7168 106.849 21.7168 106.849C21.7168 106.849 32.6881 95.495 35.9828 93.4787C39.2774 91.4623 47.8262 90.2654 47.8262 90.2654C47.8262 90.2654 54.9216 105.933 69.0368 100.444C83.1521 94.9451 79.4267 81.3588 79.4267 81.3588Z" fill="#E65430"/>
<path d="M59.7676 133.483C59.7676 133.483 70.7389 133.925 78.6848 129.946C86.6415 125.967 97.3867 112.823 97.3867 112.823C97.3867 112.823 85.2741 131.38 83.9928 132.9" stroke="#8C4634" stroke-miterlimit="10"/>
<path d="M97.3854 108.014C97.5038 107.712 91.819 82.9976 92.6372 83.2024C93.4555 83.4073 99.4418 108.121 99.3342 108.014C99.2265 107.906 102.381 88.1841 102.381 88.1841" stroke="#8C4634" stroke-miterlimit="10"/>
<path d="M113.988 85.9305L124.292 96.4113L127.813 62.3162C127.813 62.3162 119.533 50.9834 119.598 49.2906C119.662 47.5977 120.846 37.1276 121.525 36.2542C122.214 35.3808 123.269 38.001 123.334 38.993C123.398 39.9958 123.334 45.1608 123.893 46.5409C124.453 47.9104 127.188 49.2906 127.188 49.2906C127.188 49.2906 129.804 29.5257 130.429 27.6495C131.053 25.7841 132.421 25.2234 132.421 25.2234C132.421 25.2234 133.164 23.4766 133.982 23.1639C134.789 22.8512 135.274 25.9997 135.457 26.5497C135.64 27.0996 137.007 28.2857 137.19 29.2022C137.352 30.0109 143.166 98.7943 144.587 115.615C144.878 119.088 144.178 122.603 142.369 125.579C140.507 128.63 137.46 131.499 132.711 130.765C123.204 129.299 102.984 110.645 102.984 110.645L113.988 85.9305Z" fill="#FFAA82"/>
<path d="M124.292 96.4114L121.848 108.014L116.324 88.3135L124.292 96.4114Z" fill="#DB6240"/>
<path d="M91.4953 144.297L94.004 159.113C94.004 159.113 73.4515 164.027 64.3966 162.431C55.331 160.825 49.9355 154.131 49.9355 154.131L52.8749 146.422C52.8749 146.422 60.95 151.101 73.5686 149.495C73.5686 149.505 85.9612 146.864 91.4953 144.297Z" fill="#FFAA82"/>
<path d="M94.0049 159.124C94.0049 159.124 106.559 181.66 108.163 199.3C109.767 216.941 87.351 305.942 87.351 305.942C87.351 305.942 80.148 308.347 75.7444 305.942C71.3408 303.538 70.1349 301.532 70.1349 301.532C70.1349 301.532 56.1273 312.52 48.5152 309.835C40.9139 307.15 40.1063 301.931 40.1063 301.931C40.1063 301.931 38.5021 269.852 40.1063 259.835C41.7106 249.807 26.0988 221.75 27.2939 200.497C28.489 179.244 49.9257 154.131 49.9257 154.131C49.9257 154.131 60.068 164.224 74.3016 161.712C88.5461 159.199 94.0049 159.124 94.0049 159.124Z" fill="#324461"/>
<path d="M70.1348 199.678L83.4102 196.572" stroke="#222E42" stroke-miterlimit="10"/>
<path d="M25.5589 109.965C25.5589 109.965 11.7774 139.154 11.3252 143.37C10.873 147.586 11.6267 153.463 19.5941 157.528C27.5615 161.593 40.7723 166.64 40.7723 166.64L49 155.25L34.0216 140.513L43.464 119.303C43.4748 119.303 33.1818 116.618 25.5589 109.965Z" fill="#FFAA82"/>
<path d="M25.5621 109.965C25.5621 109.965 31.8607 114.71 36.8027 116.737C41.7446 118.775 43.4781 119.292 43.4781 119.292C43.4781 119.292 35.6829 122.215 30.3641 122.29C25.0453 122.366 21.4492 118.84 21.4492 118.84L25.5621 109.965Z" fill="#DB6240"/>
<path d="M52.8772 146.432C52.8772 146.432 62.029 150.864 72.8496 148.934C83.6702 147.004 91.5084 144.297 91.5084 144.297L91.9391 146.853C91.9391 146.853 73.2264 154.962 68.2307 156.094C63.2349 157.226 51.0469 151.231 51.0469 151.231L52.8772 146.432Z" fill="#DB6240"/>
<path d="M69.3291 301.532C69.3291 301.532 69.8351 306.6 70.1366 308.994C70.438 311.399 68.5861 364.806 69.3291 368.871C70.072 372.936 83.1644 398.631 83.1644 403.991C83.1644 409.35 83.1644 409.35 81.5063 410.277C79.8482 411.204 65.27 402.513 62.5029 391.978C59.7358 381.444 60.468 373.13 56.6027 364.806C52.7267 356.492 39.279 325.654 38.3638 317.416C37.4486 309.177 37.6316 301.489 38.3638 300.573C39.0959 299.656 39.9788 299.009 39.9788 299.009C39.9788 299.009 44.9423 309.727 55.0846 307.991C65.2377 306.255 69.3291 301.532 69.3291 301.532Z" fill="#AB3E20"/>
<path d="M70.1348 301.532V199.678C70.1348 199.678 84.4977 191.872 86.2311 188.982C87.9646 186.092 90.5593 184.356 90.5593 184.356" stroke="#222E42" stroke-miterlimit="10"/>
</svg>
