<svg width="144" height="121" viewBox="0 0 144 121" fill="none" xmlns="http://www.w3.org/2000/svg">
<path d="M39.6 0.25C29.0974 0.25 19.025 4.42005 11.5986 11.8428C4.17213 19.2655 0 29.3329 0 39.8302C0 43.4284 0.648 47.0266 1.584 50.6248H30.96L40.104 26.3729C42.264 20.6158 50.76 20.0401 53.496 26.3729L68.4 65.0176L72.648 54.7987C73.584 52.4239 76.104 50.6248 79.2 50.6248H142.416C143.352 47.0266 144 43.4284 144 39.8302C144 29.3329 139.828 19.2655 132.401 11.8428C124.975 4.42005 114.903 0.25 104.4 0.25C91.008 0.25 79.2 6.94265 72 17.0896C64.8 6.94265 52.992 0.25 39.6 0.25ZM7.2 61.4194C5.29044 61.4194 3.45909 62.1776 2.10883 63.5272C0.758569 64.8768 0 66.7072 0 68.6158C0 70.5244 0.758569 72.3549 2.10883 73.7044C3.45909 75.054 5.29044 75.8122 7.2 75.8122H24.768L64.8 115.392C72 121.869 72 121.869 79.2 115.392L119.232 75.8122H136.8C138.71 75.8122 140.541 75.054 141.891 73.7044C143.241 72.3549 144 70.5244 144 68.6158C144 66.7072 143.241 64.8768 141.891 63.5272C140.541 62.1776 138.71 61.4194 136.8 61.4194H82.08L75.384 77.9711C72.504 85.2395 64.224 84.232 61.56 78.187L46.8 39.8302L39.888 56.5978C38.808 59.3325 36.36 61.4194 33.12 61.4194H7.2Z" fill="#64AF18"/>
</svg>
