<svg width="165" height="191" viewBox="0 0 165 191" fill="none" xmlns="http://www.w3.org/2000/svg">
<path d="M18.5784 167.393C20.3684 167.393 21.1884 166.513 21.1884 165.483C21.1884 162.933 16.8784 164.093 16.8784 162.173C16.8784 161.473 17.4484 160.903 18.7284 160.903C19.3484 160.903 20.0484 161.093 20.6484 161.483L20.8984 160.893C20.3384 160.503 19.5184 160.273 18.7284 160.273C16.9484 160.273 16.1484 161.163 16.1484 162.193C16.1484 164.783 20.4584 163.603 20.4584 165.523C20.4584 166.213 19.8884 166.763 18.5784 166.763C17.6584 166.763 16.7684 166.403 16.2684 165.913L15.9784 166.483C16.4984 167.023 17.5284 167.393 18.5784 167.393ZM25.1708 166.503C24.9708 166.683 24.6808 166.773 24.3908 166.773C23.8008 166.773 23.4808 166.433 23.4808 165.813V162.673H25.0808V162.073H23.4808V160.923H22.7708V162.073H21.8308V162.673H22.7708V165.853C22.7708 166.823 23.3208 167.383 24.3108 167.383C24.7208 167.383 25.1408 167.263 25.4208 167.013L25.1708 166.503ZM28.5533 162.033C27.7233 162.033 26.9433 162.293 26.4133 162.743L26.7333 163.273C27.1633 162.893 27.8033 162.653 28.4833 162.653C29.4633 162.653 29.9733 163.143 29.9733 164.043V164.363H28.3033C26.7933 164.363 26.2733 165.043 26.2733 165.853C26.2733 166.763 27.0033 167.383 28.1933 167.383C29.0633 167.383 29.6833 167.053 30.0033 166.513V167.333H30.6833V164.073C30.6833 162.713 29.9133 162.033 28.5533 162.033ZM28.3033 166.823C27.4633 166.823 26.9733 166.443 26.9733 165.833C26.9733 165.293 27.3033 164.893 28.3233 164.893H29.9733V165.753C29.6933 166.443 29.1033 166.823 28.3033 166.823ZM36.2341 162.073L34.2541 166.543L32.2741 162.073H31.5341L33.8841 167.323L33.6541 167.833C33.3541 168.493 33.0341 168.713 32.5641 168.713C32.1841 168.713 31.8641 168.573 31.6041 168.313L31.2741 168.843C31.5941 169.163 32.0641 169.323 32.5541 169.323C33.3041 169.323 33.8641 168.993 34.3041 167.963L36.9341 162.073H36.2341ZM42.3912 162.033C41.5612 162.033 40.7812 162.293 40.2512 162.743L40.5712 163.273C41.0012 162.893 41.6412 162.653 42.3212 162.653C43.3012 162.653 43.8112 163.143 43.8112 164.043V164.363H42.1412C40.6312 164.363 40.1112 165.043 40.1112 165.853C40.1112 166.763 40.8412 167.383 42.0312 167.383C42.9012 167.383 43.5212 167.053 43.8412 166.513V167.333H44.5212V164.073C44.5212 162.713 43.7512 162.033 42.3912 162.033ZM42.1412 166.823C41.3012 166.823 40.8112 166.443 40.8112 165.833C40.8112 165.293 41.1412 164.893 42.1612 164.893H43.8112V165.753C43.5312 166.443 42.9412 166.823 42.1412 166.823ZM48.9696 166.503C48.7696 166.683 48.4796 166.773 48.1896 166.773C47.5996 166.773 47.2796 166.433 47.2796 165.813V162.673H48.8796V162.073H47.2796V160.923H46.5696V162.073H45.6296V162.673H46.5696V165.853C46.5696 166.823 47.1196 167.383 48.1096 167.383C48.5196 167.383 48.9396 167.263 49.2196 167.013L48.9696 166.503ZM55.8093 162.033C54.9193 162.033 54.2293 162.383 53.8393 162.993V159.913H53.1293V167.333H53.8393V164.573C53.8393 163.373 54.5493 162.673 55.6793 162.673C56.6793 162.673 57.2593 163.243 57.2593 164.353V167.333H57.9693V164.283C57.9693 162.773 57.0893 162.033 55.8093 162.033ZM62.0664 167.383C63.6064 167.383 64.7364 166.263 64.7364 164.703C64.7364 163.143 63.6064 162.033 62.0664 162.033C60.5264 162.033 59.3864 163.143 59.3864 164.703C59.3864 166.263 60.5264 167.383 62.0664 167.383ZM62.0664 166.753C60.9464 166.753 60.1064 165.933 60.1064 164.703C60.1064 163.473 60.9464 162.653 62.0664 162.653C63.1864 162.653 64.0164 163.473 64.0164 164.703C64.0164 165.933 63.1864 166.753 62.0664 166.753ZM72.7459 162.033C71.7959 162.033 71.0459 162.463 70.6659 163.143C70.3459 162.403 69.6659 162.033 68.7959 162.033C67.9159 162.033 67.2359 162.403 66.8659 163.033V162.073H66.1859V167.333H66.8959V164.573C66.8959 163.373 67.5859 162.673 68.6559 162.673C69.6159 162.673 70.1759 163.243 70.1759 164.353V167.333H70.8859V164.573C70.8859 163.373 71.5659 162.673 72.6459 162.673C73.5959 162.673 74.1559 163.243 74.1559 164.353V167.333H74.8659V164.283C74.8659 162.773 74.0259 162.033 72.7459 162.033ZM81.4009 164.703C81.4009 163.123 80.3309 162.033 78.8509 162.033C77.3709 162.033 76.2809 163.143 76.2809 164.703C76.2809 166.263 77.4009 167.383 79.0409 167.383C79.8709 167.383 80.6009 167.083 81.0709 166.523L80.6709 166.063C80.2709 166.523 79.7009 166.753 79.0609 166.753C77.9109 166.753 77.0709 166.023 76.9909 164.923H81.3909C81.3909 164.843 81.4009 164.763 81.4009 164.703ZM78.8509 162.643C79.8809 162.643 80.6309 163.363 80.7209 164.393H76.9909C77.0809 163.363 77.8309 162.643 78.8509 162.643ZM87.3033 162.033C86.4733 162.033 85.6933 162.293 85.1633 162.743L85.4833 163.273C85.9133 162.893 86.5533 162.653 87.2333 162.653C88.2133 162.653 88.7233 163.143 88.7233 164.043V164.363H87.0533C85.5433 164.363 85.0233 165.043 85.0233 165.853C85.0233 166.763 85.7533 167.383 86.9433 167.383C87.8133 167.383 88.4333 167.053 88.7533 166.513V167.333H89.4333V164.073C89.4333 162.713 88.6633 162.033 87.3033 162.033ZM87.0533 166.823C86.2133 166.823 85.7233 166.443 85.7233 165.833C85.7233 165.293 86.0533 164.893 87.0733 164.893H88.7233V165.753C88.4433 166.443 87.8533 166.823 87.0533 166.823ZM94.0417 162.033C93.1317 162.033 92.4217 162.403 92.0417 163.043V162.073H91.3617V167.333H92.0717V164.573C92.0717 163.373 92.7817 162.673 93.9117 162.673C94.9117 162.673 95.4917 163.243 95.4917 164.353V167.333H96.2017V164.283C96.2017 162.773 95.3217 162.033 94.0417 162.033ZM102.239 159.913V163.073C101.799 162.393 101.079 162.033 100.239 162.033C98.7388 162.033 97.6188 163.113 97.6188 164.703C97.6188 166.293 98.7388 167.383 100.239 167.383C101.109 167.383 101.839 167.003 102.269 166.293V167.333H102.949V159.913H102.239ZM100.299 166.753C99.1788 166.753 98.3388 165.933 98.3388 164.703C98.3388 163.473 99.1788 162.653 100.299 162.653C101.409 162.653 102.249 163.473 102.249 164.703C102.249 165.933 101.409 166.753 100.299 166.753ZM108.953 167.383C110.323 167.383 111.123 166.793 111.123 165.883C111.123 163.863 107.713 164.933 107.713 163.513C107.713 163.013 108.133 162.643 109.083 162.643C109.623 162.643 110.173 162.773 110.633 163.093L110.943 162.523C110.503 162.223 109.763 162.033 109.083 162.033C107.743 162.033 107.003 162.673 107.003 163.533C107.003 165.613 110.413 164.533 110.413 165.903C110.413 166.423 110.003 166.763 109.003 166.763C108.263 166.763 107.553 166.503 107.133 166.173L106.813 166.733C107.243 167.103 108.083 167.383 108.953 167.383ZM114.956 166.503C114.756 166.683 114.466 166.773 114.176 166.773C113.586 166.773 113.266 166.433 113.266 165.813V162.673H114.866V162.073H113.266V160.923H112.556V162.073H111.616V162.673H112.556V165.853C112.556 166.823 113.106 167.383 114.096 167.383C114.506 167.383 114.926 167.263 115.206 167.013L114.956 166.503ZM118.338 162.033C117.508 162.033 116.728 162.293 116.198 162.743L116.518 163.273C116.948 162.893 117.588 162.653 118.268 162.653C119.248 162.653 119.758 163.143 119.758 164.043V164.363H118.088C116.578 164.363 116.058 165.043 116.058 165.853C116.058 166.763 116.788 167.383 117.978 167.383C118.848 167.383 119.468 167.053 119.788 166.513V167.333H120.468V164.073C120.468 162.713 119.698 162.033 118.338 162.033ZM118.088 166.823C117.248 166.823 116.758 166.443 116.758 165.833C116.758 165.293 117.088 164.893 118.108 164.893H119.758V165.753C119.478 166.443 118.888 166.823 118.088 166.823ZM126.019 162.073L124.039 166.543L122.059 162.073H121.319L123.669 167.323L123.439 167.833C123.139 168.493 122.819 168.713 122.349 168.713C121.969 168.713 121.649 168.573 121.389 168.313L121.059 168.843C121.379 169.163 121.849 169.323 122.339 169.323C123.089 169.323 123.649 168.993 124.089 167.963L126.719 162.073H126.019ZM131.746 167.383C133.116 167.383 133.916 166.793 133.916 165.883C133.916 163.863 130.506 164.933 130.506 163.513C130.506 163.013 130.926 162.643 131.876 162.643C132.416 162.643 132.966 162.773 133.426 163.093L133.736 162.523C133.296 162.223 132.556 162.033 131.876 162.033C130.536 162.033 129.796 162.673 129.796 163.533C129.796 165.613 133.206 164.533 133.206 165.903C133.206 166.423 132.796 166.763 131.796 166.763C131.056 166.763 130.346 166.503 129.926 166.173L129.606 166.733C130.036 167.103 130.876 167.383 131.746 167.383ZM137.069 162.033C136.239 162.033 135.459 162.293 134.929 162.743L135.249 163.273C135.679 162.893 136.319 162.653 136.999 162.653C137.979 162.653 138.489 163.143 138.489 164.043V164.363H136.819C135.309 164.363 134.789 165.043 134.789 165.853C134.789 166.763 135.519 167.383 136.709 167.383C137.579 167.383 138.199 167.053 138.519 166.513V167.333H139.199V164.073C139.199 162.713 138.429 162.033 137.069 162.033ZM136.819 166.823C135.979 166.823 135.489 166.443 135.489 165.833C135.489 165.293 135.819 164.893 136.839 164.893H138.489V165.753C138.209 166.443 137.619 166.823 136.819 166.823ZM142.867 160.463C143.167 160.463 143.447 160.553 143.647 160.723L143.887 160.193C143.627 159.973 143.227 159.863 142.837 159.863C141.807 159.863 141.247 160.483 141.247 161.423V162.073H140.307V162.673H141.247V167.333H141.957V162.673H143.557V162.073H141.937V161.453C141.937 160.803 142.257 160.463 142.867 160.463ZM149.018 164.703C149.018 163.123 147.948 162.033 146.468 162.033C144.988 162.033 143.898 163.143 143.898 164.703C143.898 166.263 145.018 167.383 146.658 167.383C147.488 167.383 148.218 167.083 148.688 166.523L148.288 166.063C147.888 166.523 147.318 166.753 146.678 166.753C145.528 166.753 144.688 166.023 144.608 164.923H149.008C149.008 164.843 149.018 164.763 149.018 164.703ZM146.468 162.643C147.498 162.643 148.248 163.363 148.338 164.393H144.608C144.698 163.363 145.448 162.643 146.468 162.643Z" fill="#4F4F4F"/>
<path d="M13.457 69.6361C13.457 31.2456 44.163 0.132812 82.0399 0.132812C119.917 0.132812 150.623 31.2563 150.623 69.6361C150.623 108.016 119.917 139.139 82.0399 139.139C44.163 139.139 13.457 108.016 13.457 69.6361Z" fill="#FFD369"/>
<path d="M50.0394 93.6737C50.0394 93.6737 42.8472 85.4541 38.4912 92.3038C38.4912 92.3038 35.0449 97.9548 39.1012 100.994C39.1012 100.994 32.5191 99.1107 31.4488 103.049C31.4488 103.049 30.8601 106.035 33.6321 106.999C33.6321 106.999 30.1538 110.852 34.0388 113.163C34.0388 113.163 39.8397 115.678 44.4312 110.926C44.4312 110.926 47.9095 114.383 50.6708 112.585C50.6815 112.585 56.1399 102.14 50.0394 93.6737Z" fill="#8DD3BA"/>
<path d="M41.0059 96.7987C41.7329 96.7987 42.3223 96.1998 42.3223 95.4609C42.3223 94.722 41.7329 94.123 41.0059 94.123C40.2788 94.123 39.6895 94.722 39.6895 95.4609C39.6895 96.1998 40.2788 96.7987 41.0059 96.7987Z" fill="#E26241"/>
<path d="M35.0156 110.071C35.0156 109.418 35.5294 108.894 36.1715 108.894C36.8137 108.894 37.3274 109.418 37.3274 110.071C37.3274 110.713 36.8137 111.248 36.1715 111.248C35.5294 111.248 35.0156 110.713 35.0156 110.071Z" fill="#E26241"/>
<path d="M37.9883 103.969C37.9883 103.519 38.3522 103.155 38.791 103.155C39.2405 103.155 39.5937 103.519 39.5937 103.969C39.5937 104.418 39.2298 104.782 38.791 104.782C38.3522 104.793 37.9883 104.418 37.9883 103.969Z" fill="#E26241"/>
<path d="M81.2601 25.6045L42.5056 59.4678L42.8909 60.5595C42.4628 60.8913 42.1738 61.3943 42.1738 61.9829V111.397C42.1738 112.403 42.9765 113.217 43.9719 113.217H118.966C119.961 113.217 120.753 112.403 120.753 111.397V61.9829C120.753 61.1053 120.132 60.4096 119.33 60.2384L119.95 58.2798L81.2601 25.6045Z" fill="white"/>
<path d="M57.6809 61.373H68.2123C69.2077 61.373 70.0104 62.1865 70.0104 63.1925V73.542C70.0104 74.5481 69.2077 75.3615 68.2123 75.3615H57.6809C56.6855 75.3615 55.8828 74.5481 55.8828 73.542V63.1925C55.8935 62.1865 56.6962 61.373 57.6809 61.373Z" fill="#8DD3BA"/>
<path d="M93.7277 61.9307H104.259C105.255 61.9307 106.057 62.744 106.057 63.7501V74.0996C106.057 75.1057 105.255 75.9191 104.259 75.9191H93.7277C92.7324 75.9191 91.9297 75.1057 91.9297 74.0996V63.7501C91.9297 62.744 92.7324 61.9307 93.7277 61.9307Z" fill="#8DD3BA"/>
<path d="M74.1106 87.4453H89.4261C90.4215 87.4453 91.2242 88.2587 91.2242 89.2648V111.302C91.2242 112.308 90.4215 113.121 89.4261 113.121H74.1106C73.1152 113.121 72.3125 112.308 72.3125 111.302V89.2648C72.3125 88.2587 73.1152 87.4453 74.1106 87.4453Z" fill="#940A37"/>
<path d="M71.3586 113.121H92.1647C93.16 113.121 93.9627 113.935 93.9627 114.941V118.376C93.9627 119.382 93.16 120.196 92.1647 120.196H71.3586C70.3632 120.196 69.5605 119.382 69.5605 118.376V114.941C69.5712 113.945 70.3739 113.121 71.3586 113.121Z" fill="#5B0909"/>
<path d="M95.3977 89.8105H95.601C96.5857 89.8105 97.3991 90.624 97.3991 91.63V91.8334C97.3991 92.8394 96.5964 93.6528 95.601 93.6528H95.3977C94.4023 93.6528 93.5996 92.8394 93.5996 91.8334V91.63C93.5996 90.624 94.4023 89.8105 95.3977 89.8105Z" fill="#FFAA9B"/>
<path d="M48.9379 113.174C48.9379 113.174 47.279 113.099 46.6369 107.641C46.6369 107.641 46.0696 105.351 48.1995 105.426L53.1976 105.404C53.1976 105.404 55.2954 105.287 54.7923 107.705C54.7923 107.705 53.9789 113.067 52.9515 113.292L48.9379 113.174Z" fill="#E26241"/>
<path d="M50.6387 106.197C50.6387 106.197 46.668 104.817 46.668 100.985C46.668 100.921 46.9248 99.3048 49.3115 100.996C49.3115 100.996 48.2091 94.7454 50.8527 94.4457C50.8527 94.4457 53.0789 94.2852 52.2762 100.14C52.2762 100.14 53.5498 97.8278 55.3157 98.8659C55.3157 98.8659 58.0984 102.366 53.1324 105.823C53.1324 105.823 53.0361 106.058 50.6387 106.197Z" fill="#8DD3BA"/>
<path d="M116.922 93.9317C116.922 93.9317 118.742 84.7916 124.617 85.7014C124.617 85.7014 128.781 87.8954 125.356 94.5632C125.356 94.5632 129.605 92.915 130.333 96.3612C130.333 96.3612 130.654 101.113 127.379 101.145C127.379 101.145 134.624 102.922 129.53 110.896C129.53 110.896 124.264 117.842 117.843 111.869C117.843 111.869 113.208 105.03 116.922 93.9317Z" fill="#8DD3BA"/>
<path d="M119.809 113.7C119.809 113.7 114.629 117.638 112.403 111.067C112.403 111.067 112.243 107.353 116.641 107.749C116.641 107.749 115.903 103.436 119.627 103.842C119.627 103.842 124.925 105.095 122.977 109.14C122.977 109.14 123.159 112.704 119.809 113.7Z" fill="#8DD3BA"/>
<path d="M80.8209 57.8198C80.8209 57.8198 73.2862 56.0646 73.3718 49.3647C73.3718 49.3647 73.7357 44.4629 77.2034 44.5378C77.2034 44.5378 81.0242 44.7733 81.035 49.0222C81.035 49.0222 81.8269 44.4736 85.2946 44.4521C85.2946 44.4521 89.458 44.8482 88.9121 50.0604C88.9121 50.0497 88.773 54.9622 80.8209 57.8198Z" fill="#FFAA9B"/>
<path d="M81.5809 22.4371C81.5595 22.4371 81.5381 22.4584 81.5167 22.4584C81.3775 22.4799 81.2491 22.5441 81.1207 22.6297C81.0886 22.6404 81.0565 22.6511 81.0351 22.6725C80.9815 22.7046 80.928 22.7153 80.8745 22.7688L34.3499 64.2846C33.7077 64.8518 33.5793 65.9328 34.0609 66.6927L34.9385 68.084C35.4202 68.8439 36.3299 68.9938 36.9721 68.4158L81.7628 28.452L126.554 68.4158C127.196 68.9831 128.106 68.8332 128.587 68.084L129.465 66.6927C129.946 65.9328 129.818 64.8625 129.176 64.2846L82.6405 22.7688C82.5869 22.726 82.5334 22.7153 82.4799 22.6725C82.4585 22.6511 82.4264 22.6404 82.3943 22.6297C82.2659 22.5548 82.1374 22.4906 81.9983 22.4584C81.9234 22.437 81.8377 22.4477 81.7628 22.4477C81.7093 22.437 81.6451 22.4264 81.5809 22.4371Z" fill="#940A37"/>
<path d="M125.759 108.594C126.102 109.246 125.856 110.049 125.213 110.392C124.571 110.734 123.769 110.477 123.426 109.824C123.084 109.172 123.33 108.369 123.972 108.037C124.614 107.695 125.417 107.941 125.759 108.594Z" fill="#E26241"/>
<path d="M123.085 93.4933C123.385 94.0712 123.17 94.7776 122.603 95.0666C122.036 95.3663 121.33 95.1415 121.03 94.5636C120.73 93.9963 120.944 93.2792 121.512 92.9903C122.079 92.7013 122.785 92.9261 123.085 93.4933Z" fill="#E26241"/>
<path d="M123.298 100.277C123.513 100.673 123.363 101.166 122.967 101.369C122.571 101.583 122.078 101.423 121.875 101.027C121.661 100.631 121.811 100.138 122.207 99.9242C122.592 99.7208 123.084 99.8814 123.298 100.277Z" fill="#E26241"/>
</svg>
