<svg width="50" height="51" viewBox="0 0 50 51" fill="none" xmlns="http://www.w3.org/2000/svg">
<circle cx="25.0002" cy="25.7482" r="23.5529" fill="white"/>
<path fill-rule="evenodd" clip-rule="evenodd" d="M25 50.7485C38.8071 50.7485 50 39.5557 50 25.7485C50 11.9414 38.8071 0.748535 25 0.748535C11.1929 0.748535 0 11.9414 0 25.7485C0 39.5557 11.1929 50.7485 25 50.7485ZM29.5867 27.8655C28.9844 27.8655 28.4043 27.9605 27.8606 28.1363C27.7965 28.163 27.7312 28.1874 27.6647 28.2094C27.6178 28.2257 27.5708 28.2417 27.5236 28.2574C27.5082 28.2635 27.4929 28.2696 27.4775 28.2759C27.4646 28.2811 27.4516 28.2865 27.4387 28.2918L27.4366 28.2859C26.3482 28.6383 25.1869 28.8286 23.9811 28.8286C17.7902 28.8286 12.7714 23.8099 12.7714 17.6189C12.7714 11.428 17.7902 6.40923 23.9811 6.40923C25.2763 6.40923 26.5201 6.62887 27.6774 7.03292L27.677 7.03397C28.7869 7.40683 29.5864 8.4556 29.5864 9.6911C29.5864 11.2388 28.3317 12.4935 26.784 12.4935C26.4488 12.4935 26.1273 12.4347 25.8293 12.3267L25.8292 12.3269C25.2507 12.1249 24.6289 12.0151 23.9814 12.0151C20.886 12.0151 18.3766 14.5245 18.3766 17.62C18.3766 20.7155 20.886 23.2248 23.9814 23.2248C24.5573 23.2248 25.1129 23.138 25.6358 22.9767C25.697 22.9536 25.7584 22.9311 25.8201 22.9091C25.8401 22.9018 25.8601 22.8947 25.8803 22.8878C27.0403 22.4816 28.2875 22.2608 29.5862 22.2608C35.7771 22.2608 40.7959 27.2795 40.7959 33.4705C40.7959 39.6614 35.7771 44.6802 29.5862 44.6802C28.0684 44.6802 26.621 44.3785 25.3008 43.8319L25.3165 43.7871C24.5156 43.2938 23.9817 42.4088 23.9817 41.3992C23.9817 39.8515 25.2364 38.5968 26.7841 38.5968C26.8983 38.5968 27.0109 38.6036 27.1215 38.6169L27.1548 38.5215C27.8904 38.8763 28.7153 39.0752 29.5867 39.0752C32.6822 39.0752 35.1916 36.5658 35.1916 33.4703C35.1916 30.3749 32.6822 27.8655 29.5867 27.8655Z" fill="#00AF32"/>
</svg>
