<svg width="300" height="301" viewBox="0 0 300 301" fill="none" xmlns="http://www.w3.org/2000/svg">
<circle cx="150.001" cy="150.25" r="141.318" fill="white"/>
<path fill-rule="evenodd" clip-rule="evenodd" d="M150 300.25C232.843 300.25 300 233.093 300 150.25C300 67.4073 232.843 0.25 150 0.25C67.1573 0.25 0 67.4073 0 150.25C0 233.093 67.1573 300.25 150 300.25ZM177.52 162.951C173.906 162.951 170.426 163.521 167.163 164.576C166.803 164.726 166.436 164.864 166.063 164.989L166.063 164.99C159.12 167.414 151.657 168.732 143.887 168.732C106.741 168.732 76.6289 138.619 76.6289 101.474C76.6289 64.3279 106.741 34.2153 143.887 34.2153C151.658 34.2153 159.12 35.5331 166.064 37.9572L166.062 37.9619C172.721 40.1992 177.518 46.4917 177.518 53.9045C177.518 63.191 169.99 70.7191 160.704 70.7191C158.692 70.7191 156.764 70.3659 154.976 69.7183L154.976 69.7186C151.504 68.5067 147.773 67.848 143.888 67.848C125.316 67.848 110.259 82.9043 110.259 101.477C110.259 120.05 125.316 135.106 143.888 135.106C147.488 135.106 150.955 134.541 154.206 133.494C154.579 133.337 154.959 133.194 155.346 133.064L155.345 133.062C162.287 130.639 169.749 129.322 177.518 129.322C214.663 129.322 244.776 159.434 244.776 196.58C244.776 233.726 214.663 263.838 177.518 263.838C169.748 263.838 162.287 262.521 155.344 260.097L155.345 260.095C148.686 257.857 143.89 251.565 143.89 244.153C143.89 234.866 151.418 227.338 160.704 227.338C162.715 227.338 164.644 227.691 166.431 228.339L166.431 228.338C169.903 229.55 173.635 230.209 177.52 230.209C196.093 230.209 211.149 215.153 211.149 196.58C211.149 178.007 196.093 162.951 177.52 162.951Z" fill="#00AF32"/>
</svg>
