<svg width="181" height="210" viewBox="0 0 181 210" fill="none" xmlns="http://www.w3.org/2000/svg">
<path d="M37.8494 158.483L34.8394 163.673L31.7994 158.483H31.1894V165.483H31.8994V159.913L34.6494 164.593H34.9994L37.7494 159.883V165.483H38.4594V158.483H37.8494ZM42.4302 160.183C41.6002 160.183 40.8202 160.443 40.2902 160.893L40.6102 161.423C41.0402 161.043 41.6802 160.803 42.3602 160.803C43.3402 160.803 43.8502 161.293 43.8502 162.193V162.513H42.1802C40.6702 162.513 40.1502 163.193 40.1502 164.003C40.1502 164.913 40.8802 165.533 42.0702 165.533C42.9402 165.533 43.5602 165.203 43.8802 164.663V165.483H44.5602V162.223C44.5602 160.863 43.7902 160.183 42.4302 160.183ZM42.1802 164.973C41.3402 164.973 40.8502 164.593 40.8502 163.983C40.8502 163.443 41.1802 163.043 42.2002 163.043H43.8502V163.903C43.5702 164.593 42.9802 164.973 42.1802 164.973ZM46.8486 159.073C47.1486 159.073 47.3686 158.843 47.3686 158.553C47.3686 158.283 47.1386 158.063 46.8486 158.063C46.5586 158.063 46.3286 158.293 46.3286 158.563C46.3286 158.843 46.5586 159.073 46.8486 159.073ZM46.4886 165.483H47.1986V160.223H46.4886V165.483ZM51.8541 160.183C50.9441 160.183 50.2341 160.553 49.8541 161.193V160.223H49.1741V165.483H49.8841V162.723C49.8841 161.523 50.5941 160.823 51.7241 160.823C52.7241 160.823 53.3041 161.393 53.3041 162.503V165.483H54.0141V162.433C54.0141 160.923 53.1341 160.183 51.8541 160.183ZM58.4617 164.653C58.2617 164.833 57.9717 164.923 57.6817 164.923C57.0917 164.923 56.7717 164.583 56.7717 163.963V160.823H58.3717V160.223H56.7717V159.073H56.0617V160.223H55.1217V160.823H56.0617V164.003C56.0617 164.973 56.6117 165.533 57.6017 165.533C58.0117 165.533 58.4317 165.413 58.7117 165.163L58.4617 164.653ZM61.8442 160.183C61.0142 160.183 60.2342 160.443 59.7042 160.893L60.0242 161.423C60.4542 161.043 61.0942 160.803 61.7742 160.803C62.7542 160.803 63.2642 161.293 63.2642 162.193V162.513H61.5942C60.0842 162.513 59.5642 163.193 59.5642 164.003C59.5642 164.913 60.2942 165.533 61.4842 165.533C62.3542 165.533 62.9742 165.203 63.2942 164.663V165.483H63.9742V162.223C63.9742 160.863 63.2042 160.183 61.8442 160.183ZM61.5942 164.973C60.7542 164.973 60.2642 164.593 60.2642 163.983C60.2642 163.443 60.5942 163.043 61.6142 163.043H63.2642V163.903C62.9842 164.593 62.3942 164.973 61.5942 164.973ZM66.2627 159.073C66.5627 159.073 66.7827 158.843 66.7827 158.553C66.7827 158.283 66.5527 158.063 66.2627 158.063C65.9727 158.063 65.7427 158.293 65.7427 158.563C65.7427 158.843 65.9727 159.073 66.2627 159.073ZM65.9027 165.483H66.6127V160.223H65.9027V165.483ZM71.2682 160.183C70.3582 160.183 69.6482 160.553 69.2682 161.193V160.223H68.5882V165.483H69.2982V162.723C69.2982 161.523 70.0082 160.823 71.1382 160.823C72.1382 160.823 72.7182 161.393 72.7182 162.503V165.483H73.4282V162.433C73.4282 160.923 72.5482 160.183 71.2682 160.183ZM79.813 160.183C78.983 160.183 78.203 160.443 77.673 160.893L77.993 161.423C78.423 161.043 79.063 160.803 79.743 160.803C80.723 160.803 81.233 161.293 81.233 162.193V162.513H79.563C78.053 162.513 77.533 163.193 77.533 164.003C77.533 164.913 78.263 165.533 79.453 165.533C80.323 165.533 80.943 165.203 81.263 164.663V165.483H81.943V162.223C81.943 160.863 81.173 160.183 79.813 160.183ZM79.563 164.973C78.723 164.973 78.233 164.593 78.233 163.983C78.233 163.443 78.563 163.043 79.583 163.043H81.233V163.903C80.953 164.593 80.363 164.973 79.563 164.973ZM87.8986 165.533C89.2686 165.533 90.0686 164.943 90.0686 164.033C90.0686 162.013 86.6586 163.083 86.6586 161.663C86.6586 161.163 87.0786 160.793 88.0286 160.793C88.5686 160.793 89.1186 160.923 89.5786 161.243L89.8886 160.673C89.4486 160.373 88.7086 160.183 88.0286 160.183C86.6886 160.183 85.9486 160.823 85.9486 161.683C85.9486 163.763 89.3586 162.683 89.3586 164.053C89.3586 164.573 88.9486 164.913 87.9486 164.913C87.2086 164.913 86.4986 164.653 86.0786 164.323L85.7586 164.883C86.1886 165.253 87.0286 165.533 87.8986 165.533ZM93.2212 160.183C92.3912 160.183 91.6112 160.443 91.0812 160.893L91.4012 161.423C91.8312 161.043 92.4712 160.803 93.1512 160.803C94.1312 160.803 94.6412 161.293 94.6412 162.193V162.513H92.9712C91.4612 162.513 90.9412 163.193 90.9412 164.003C90.9412 164.913 91.6712 165.533 92.8612 165.533C93.7312 165.533 94.3512 165.203 94.6712 164.663V165.483H95.3512V162.223C95.3512 160.863 94.5812 160.183 93.2212 160.183ZM92.9712 164.973C92.1312 164.973 91.6412 164.593 91.6412 163.983C91.6412 163.443 91.9712 163.043 92.9912 163.043H94.6412V163.903C94.3612 164.593 93.7712 164.973 92.9712 164.973ZM99.0196 158.613C99.3196 158.613 99.5996 158.703 99.7996 158.873L100.04 158.343C99.7796 158.123 99.3796 158.013 98.9896 158.013C97.9596 158.013 97.3996 158.633 97.3996 159.573V160.223H96.4596V160.823H97.3996V165.483H98.1096V160.823H99.7096V160.223H98.0896V159.603C98.0896 158.953 98.4096 158.613 99.0196 158.613ZM105.17 162.853C105.17 161.273 104.1 160.183 102.62 160.183C101.14 160.183 100.05 161.293 100.05 162.853C100.05 164.413 101.17 165.533 102.81 165.533C103.64 165.533 104.37 165.233 104.84 164.673L104.44 164.213C104.04 164.673 103.47 164.903 102.83 164.903C101.68 164.903 100.84 164.173 100.76 163.073H105.16C105.16 162.993 105.17 162.913 105.17 162.853ZM102.62 160.793C103.65 160.793 104.4 161.513 104.49 162.543H100.76C100.85 161.513 101.6 160.793 102.62 160.793ZM113.323 158.063V161.223C112.883 160.543 112.163 160.183 111.323 160.183C109.823 160.183 108.703 161.263 108.703 162.853C108.703 164.443 109.823 165.533 111.323 165.533C112.193 165.533 112.923 165.153 113.353 164.443V165.483H114.033V158.063H113.323ZM111.383 164.903C110.263 164.903 109.423 164.083 109.423 162.853C109.423 161.623 110.263 160.803 111.383 160.803C112.493 160.803 113.333 161.623 113.333 162.853C113.333 164.083 112.493 164.903 111.383 164.903ZM116.37 159.073C116.67 159.073 116.89 158.843 116.89 158.553C116.89 158.283 116.66 158.063 116.37 158.063C116.08 158.063 115.85 158.293 115.85 158.563C115.85 158.843 116.08 159.073 116.37 159.073ZM116.01 165.483H116.72V160.223H116.01V165.483ZM120.106 165.533C121.476 165.533 122.276 164.943 122.276 164.033C122.276 162.013 118.866 163.083 118.866 161.663C118.866 161.163 119.286 160.793 120.236 160.793C120.776 160.793 121.326 160.923 121.786 161.243L122.096 160.673C121.656 160.373 120.916 160.183 120.236 160.183C118.896 160.183 118.156 160.823 118.156 161.683C118.156 163.763 121.566 162.683 121.566 164.053C121.566 164.573 121.156 164.913 120.156 164.913C119.416 164.913 118.706 164.653 118.286 164.323L117.966 164.883C118.396 165.253 119.236 165.533 120.106 165.533ZM126.108 164.653C125.908 164.833 125.618 164.923 125.328 164.923C124.738 164.923 124.418 164.583 124.418 163.963V160.823H126.018V160.223H124.418V159.073H123.708V160.223H122.768V160.823H123.708V164.003C123.708 164.973 124.258 165.533 125.248 165.533C125.658 165.533 126.078 165.413 126.358 165.163L126.108 164.653ZM129.491 160.183C128.661 160.183 127.881 160.443 127.351 160.893L127.671 161.423C128.101 161.043 128.741 160.803 129.421 160.803C130.401 160.803 130.911 161.293 130.911 162.193V162.513H129.241C127.731 162.513 127.211 163.193 127.211 164.003C127.211 164.913 127.941 165.533 129.131 165.533C130.001 165.533 130.621 165.203 130.941 164.663V165.483H131.621V162.223C131.621 160.863 130.851 160.183 129.491 160.183ZM129.241 164.973C128.401 164.973 127.911 164.593 127.911 163.983C127.911 163.443 128.241 163.043 129.261 163.043H130.911V163.903C130.631 164.593 130.041 164.973 129.241 164.973ZM136.229 160.183C135.319 160.183 134.609 160.553 134.229 161.193V160.223H133.549V165.483H134.259V162.723C134.259 161.523 134.969 160.823 136.099 160.823C137.099 160.823 137.679 161.393 137.679 162.503V165.483H138.389V162.433C138.389 160.923 137.509 160.183 136.229 160.183ZM142.516 165.533C143.406 165.533 144.156 165.173 144.576 164.493L144.046 164.133C143.686 164.663 143.126 164.903 142.516 164.903C141.366 164.903 140.526 164.093 140.526 162.853C140.526 161.623 141.366 160.803 142.516 160.803C143.126 160.803 143.686 161.053 144.046 161.583L144.576 161.223C144.156 160.533 143.406 160.183 142.516 160.183C140.946 160.183 139.806 161.283 139.806 162.853C139.806 164.423 140.946 165.533 142.516 165.533ZM150.473 162.853C150.473 161.273 149.403 160.183 147.923 160.183C146.443 160.183 145.353 161.293 145.353 162.853C145.353 164.413 146.473 165.533 148.113 165.533C148.943 165.533 149.673 165.233 150.143 164.673L149.743 164.213C149.343 164.673 148.773 164.903 148.133 164.903C146.983 164.903 146.143 164.173 146.063 163.073H150.463C150.463 162.993 150.473 162.913 150.473 162.853ZM147.923 160.793C148.953 160.793 149.703 161.513 149.793 162.543H146.063C146.153 161.513 146.903 160.793 147.923 160.793Z" fill="#4F4F4F"/>
<mask id="mask0" mask-type="alpha" maskUnits="userSpaceOnUse" x="21" y="0" width="141" height="141">
<path d="M21.8047 70.473C21.8047 31.7935 53.1636 0.43457 91.8431 0.43457C130.523 0.43457 161.882 31.7935 161.882 70.473C161.882 109.153 130.523 140.501 91.8431 140.501C53.1529 140.511 21.8047 109.153 21.8047 70.473Z" fill="#FFD369"/>
</mask>
<g mask="url(#mask0)">
<path d="M85.2516 9.33789C78.038 9.33789 72.1836 15.1923 72.1836 22.4059C72.1836 29.6195 78.038 35.4632 85.2516 35.4632C92.4652 35.4632 98.3089 29.6195 98.3089 22.4059C98.3089 15.1923 92.4652 9.33789 85.2516 9.33789ZM85.2516 11.2644C88.0878 11.2644 90.6564 12.356 92.6257 14.1113L75.8546 28.3352C74.7629 26.6227 74.1101 24.5892 74.1101 22.4059C74.1101 16.2518 79.0975 11.2644 85.2516 11.2644ZM94.0278 15.599C95.4941 17.4826 96.4038 19.8265 96.4038 22.3952C96.4038 28.5492 91.4163 33.5367 85.2516 33.5367C82.0301 33.5367 79.1403 32.1453 77.1068 29.962L94.0278 15.599Z" fill="#FF0000"/>
<path d="M113.1 85.0277C113.1 85.0277 115.133 92.1985 110.959 98.0101L124.83 108.402L144.619 92.4875C144.619 92.4875 136.967 90.7858 137.138 74.2715C137.138 74.2608 129.143 87.2539 113.1 85.0277Z" fill="#FFAA9B"/>
<path d="M85.0566 118.024L89.3484 107.129C89.3484 107.129 90.1297 102.719 97.3433 99.53C97.3433 99.53 109.48 94.1679 113.601 92.5625C113.601 92.5625 119.573 99.3801 125.673 102.056C125.673 102.056 138.955 91.8668 140.572 89.6514C140.572 89.6514 149.915 96.073 158.167 96.1158C158.167 96.1158 156.422 131.734 115.431 147.499C115.42 147.489 96.5299 123.665 85.0566 118.024Z" fill="#64AF19"/>
<path d="M107.725 94.0181L125.951 110.179L147.389 91.61L141.834 87.2861L112.487 90.2722L107.725 94.0181Z" fill="#940A37"/>
<path d="M101.852 63.7287C101.852 63.7287 101.21 62.3588 99.0584 62.2518C99.0584 62.2518 96.5647 63.6003 98.427 68.5021C98.427 68.5021 100.289 72.9117 103.543 72.0983C103.543 72.0983 107.492 89.351 120.325 89.9932C120.325 89.9932 133.874 89.7577 139.375 70.7069C139.375 70.7069 144.877 70.7069 145.187 65.1308C145.187 65.1308 145.615 60.9996 143.218 61.0638C143.218 61.0638 140.135 61.0317 139.311 64.799C139.311 64.799 139.482 35.495 119.222 36.5225C119.233 36.5118 98.245 39.3159 101.852 63.7287Z" fill="#FFBEBB"/>
<path d="M106.358 60.7446C106.358 60.7446 106.497 58.0797 111.538 58.8717C111.538 58.8717 115.252 59.4389 115.091 62.1146C115.091 62.1146 114.931 64.1481 110.297 63.5809C110.307 63.5809 106.165 62.6176 106.358 60.7446Z" fill="white"/>
<path d="M104.861 61.2043C104.861 59.6203 106.146 58.3359 107.73 58.3359C109.314 58.3359 110.598 59.6203 110.598 61.2043C110.598 62.7883 109.314 64.0726 107.73 64.0726C106.146 64.0726 104.861 62.7883 104.861 61.2043Z" fill="#5B0909"/>
<path d="M122.404 60.999C122.404 60.999 121.858 58.3876 126.942 57.8738C126.942 57.8738 130.677 57.4779 131.201 60.1C131.201 60.1 131.565 62.1121 126.942 62.7329C126.942 62.7329 122.693 62.8506 122.404 60.999Z" fill="white"/>
<path d="M121.077 61.8236C120.67 60.2931 121.59 58.7198 123.121 58.3238C124.651 57.9171 126.214 58.8375 126.621 60.368C127.027 61.8985 126.107 63.4611 124.576 63.8678C123.046 64.2638 121.473 63.354 121.077 61.8236Z" fill="#5B0909"/>
<path d="M106.018 55.413C106.018 54.8244 107.527 54.3428 109.378 54.3428C111.23 54.3428 112.739 54.8244 112.739 55.413C112.739 56.0017 111.23 56.4833 109.378 56.4833C107.527 56.4833 106.018 56.0017 106.018 55.413Z" fill="#940A37"/>
<path d="M124.563 55.1682C124.606 54.5796 126.147 54.2157 127.999 54.3441C129.851 54.4833 131.317 55.0719 131.274 55.6605C131.231 56.2492 129.69 56.6131 127.838 56.474C125.987 56.3455 124.521 55.7569 124.563 55.1682Z" fill="#940A37"/>
<path d="M140.47 65.4311C140.706 64.4143 141.476 63.74 142.193 63.9006C142.911 64.0611 143.306 65.0137 143.082 66.0304C142.846 67.0472 142.076 67.7321 141.359 67.5609C140.631 67.4004 140.235 66.4478 140.47 65.4311Z" fill="#FFAA9B"/>
<path d="M99.6062 67.9775C99.3065 66.9821 99.6276 66.0082 100.334 65.7941C101.04 65.5801 101.854 66.2008 102.164 67.1962C102.464 68.1915 102.143 69.1655 101.436 69.3795C100.73 69.6043 99.9166 68.9728 99.6062 67.9775Z" fill="#FFAA9B"/>
<path d="M128.354 70.7619C128.172 70.7726 127.99 70.6977 127.883 70.5371C127.723 70.3017 127.776 69.9806 128.012 69.82L138.971 62.2639C139.207 62.1034 139.528 62.1569 139.688 62.3924C139.849 62.6278 139.795 62.9489 139.56 63.1095L128.6 70.6656C128.525 70.7298 128.44 70.7512 128.354 70.7619Z" fill="#8DD3BA"/>
<path d="M110.683 70.8261C110.565 70.8154 110.447 70.7619 110.351 70.687L102.217 64.0085C101.949 63.7838 101.907 63.3771 102.121 63.0988C102.345 62.8205 102.741 62.7777 103.009 63.0025L111.143 69.681C111.411 69.9057 111.453 70.3124 111.239 70.5907C111.1 70.7726 110.886 70.8475 110.683 70.8261Z" fill="#8DD3BA"/>
<path d="M110.682 85.7455C110.682 85.7455 107.439 77.5473 110.029 69.563C110.029 69.563 122.112 68.1824 128.501 69.1349C128.501 69.1349 131.306 75.8669 130.92 85.1034C130.92 85.1141 121.994 89.4059 110.682 85.7455Z" fill="white"/>
<path d="M113.401 73.9302C113.123 73.9302 112.898 73.7161 112.887 73.4379C112.876 73.1596 113.101 72.9134 113.379 72.9027L124.821 72.4746C125.088 72.4746 125.345 72.6887 125.356 72.9669C125.366 73.2452 125.142 73.4914 124.863 73.5021L113.422 73.9302C113.412 73.9302 113.401 73.9302 113.401 73.9302Z" fill="#8DD3BA"/>
<path d="M113.401 78.6724C113.123 78.6724 112.898 78.4584 112.887 78.1801C112.876 77.8911 113.101 77.6557 113.379 77.645L125.463 77.1312C125.773 77.1205 125.987 77.3453 125.998 77.6235C126.009 77.9125 125.784 78.148 125.506 78.1587L113.422 78.6724C113.412 78.6724 113.401 78.6724 113.401 78.6724Z" fill="#8DD3BA"/>
<path d="M119.618 84.5805C116.675 84.5805 114.106 84.1738 113.924 84.1524C113.646 84.1096 113.453 83.842 113.496 83.5638C113.539 83.2855 113.796 83.0928 114.085 83.1356C114.16 83.1463 121.791 84.345 125.665 82.6112C125.922 82.4935 126.232 82.6112 126.35 82.8681C126.468 83.1249 126.35 83.4353 126.093 83.553C124.295 84.3557 121.844 84.5805 119.618 84.5805Z" fill="#8DD3BA"/>
<path d="M113.55 40.6877C113.55 40.6877 120.678 46.7775 122.722 51.5724L123.61 45.4718C123.61 45.4718 125.044 48.2117 128.127 50.0633C128.127 50.0633 128.063 47.8692 128.608 46.5742C128.608 46.5742 136.689 53.6915 137.171 60.2736C137.171 60.2736 137.47 63.859 137.192 67.1127C137.192 67.1127 138.915 65.7213 139.365 64.3728C139.365 64.3728 140.51 61.0442 143.689 61.2904C143.689 61.2904 144.159 57.9191 143.656 54.5798C143.656 54.5798 144.748 55.2755 145.187 56.6989C145.187 56.6989 146.3 52.6854 145.658 50.5984C145.658 50.5984 146.6 51.6259 146.824 52.5784C146.824 52.5784 146.45 45.1721 142.95 40.57C142.95 40.57 145.144 40.1205 146.45 38.9539C146.45 38.9539 143.539 38.1191 142.426 36.7384C142.426 36.7384 136.175 30.1456 133.007 29.9315C133.007 29.9315 134.174 29.0325 135.126 29.1609C135.126 29.1609 130.011 27.3522 127.966 27.8017C127.966 27.8017 129.807 25.0404 130.802 24.6016C130.802 24.6016 121.951 25.9287 117.863 29.1074C117.863 29.1074 114.374 25.6397 109.622 25.6504C109.622 25.6504 111.655 26.9776 112.768 28.7756C112.768 28.7756 105.844 28.9362 101.488 36.0641C101.488 36.0641 97.8703 43.0423 95.8047 45.0865C95.8047 45.0865 98.2128 44.9046 99.1118 43.9734C99.1118 43.9734 97.0997 50.3737 97.6884 53.8841C97.6884 53.8841 98.3091 53.3597 99.0476 52.5249C99.0476 52.5249 98.6623 59.289 100.439 62.3179C100.439 62.3179 101.648 63.0028 102.965 66.128C102.965 66.128 101.766 58.1545 103.982 53.8948C103.982 53.8948 106.497 51.08 107.203 48.1689C107.203 48.1689 107.77 50.9516 106.978 53.4132C106.989 53.4239 113.989 46.7454 113.55 40.6877Z" fill="#940A37"/>
<g opacity="0.6">
<path opacity="0.6" d="M122.37 33.9768C122.145 33.9768 121.931 33.827 121.878 33.6023C121.803 33.324 121.963 33.0457 122.242 32.9708C122.499 32.9066 128.471 31.3012 133.608 32.7567C133.886 32.8317 134.036 33.1206 133.961 33.3882C133.886 33.6558 133.597 33.8163 133.33 33.7414C128.471 32.3607 122.573 33.9447 122.52 33.9554C122.456 33.9768 122.413 33.9768 122.37 33.9768Z" fill="#FFAA9B"/>
</g>
<g opacity="0.6">
<path opacity="0.6" d="M141.924 47.0535C141.721 47.0535 141.539 46.9357 141.453 46.7431C138.638 40.1395 131.446 37.0572 131.382 37.025C131.114 36.918 130.997 36.6183 131.104 36.3508C131.211 36.0832 131.51 35.9655 131.778 36.0725C132.088 36.2009 139.42 39.3368 142.406 46.3257C142.513 46.5825 142.395 46.8929 142.138 47C142.063 47.0428 141.999 47.0535 141.924 47.0535Z" fill="#FFAA9B"/>
</g>
<g opacity="0.6">
<path opacity="0.6" d="M132.011 45.815C131.84 45.815 131.669 45.7294 131.573 45.5688C128.116 39.9285 122.625 38.5586 122.561 38.5479C122.283 38.4836 122.111 38.2054 122.176 37.9271C122.24 37.6488 122.518 37.4776 122.796 37.5418C123.042 37.5953 128.768 39.0295 132.439 45.0337C132.589 45.2798 132.514 45.5902 132.268 45.7401C132.193 45.7936 132.108 45.815 132.011 45.815Z" fill="#FFAA9B"/>
</g>
<g opacity="0.6">
<path opacity="0.6" d="M105.308 35.4538C105.169 35.4538 105.03 35.4002 104.923 35.2825C104.73 35.0685 104.752 34.7474 104.966 34.5547C109.718 30.3058 116.043 32.168 116.311 32.2536C116.578 32.3393 116.739 32.6282 116.653 32.8958C116.568 33.1634 116.279 33.3239 116.011 33.2383C115.947 33.2169 109.964 31.4617 105.651 35.3253C105.555 35.4109 105.437 35.4538 105.308 35.4538Z" fill="#FFAA9B"/>
</g>
<g opacity="0.6">
<path opacity="0.6" d="M101.403 49.7946C101.36 49.7946 101.328 49.7946 101.286 49.7839C101.007 49.7197 100.836 49.4414 100.9 49.1631C103.009 40.13 110.575 37.0691 110.897 36.9406C111.164 36.8336 111.464 36.9728 111.56 37.2296C111.667 37.4972 111.539 37.7969 111.271 37.8932C111.196 37.9253 103.886 40.9006 101.906 49.3879C101.853 49.634 101.639 49.7946 101.403 49.7946Z" fill="#FFAA9B"/>
</g>
<g opacity="0.6">
<path opacity="0.6" d="M140.189 59.877C139.9 59.877 139.675 59.6523 139.675 59.3633C139.675 55.0073 137.524 48.2539 137.503 48.179C137.417 47.9114 137.567 47.6224 137.834 47.5368C138.102 47.4512 138.391 47.601 138.487 47.8686C138.573 48.1469 140.703 54.8467 140.703 59.3633C140.703 59.6416 140.478 59.877 140.189 59.877Z" fill="#FFAA9B"/>
</g>
<path d="M80.5296 96.6621C80.5296 96.6621 77.9503 110.222 85.2495 113.54L57.2726 125.998L51.2363 108.039L80.5296 96.6621Z" fill="#FFAA9B"/>
<path d="M56.0634 115.197C56.0634 115.197 57.2728 120.538 65.0644 120.281C65.0644 120.281 75.6921 118.237 83.366 112.875C83.366 112.875 98.4889 118.708 112.071 134.901C112.071 134.901 117.625 143.838 118.524 149.35C118.524 149.35 66.841 165.179 25.1433 127.056L19.7812 117.081C19.7812 117.081 36.3169 104.741 54.062 109.15L56.0634 115.197Z" fill="#E26241"/>
<path d="M41.1336 77.1412C41.1336 77.1412 41.9148 113.659 55.6785 114.911C55.6785 114.911 68.2328 117.522 81.183 97.5834C81.183 97.5834 88.6749 96.2669 88.6535 90.1878C88.6535 90.1878 88.5572 84.8257 85.0895 84.9221C85.0895 84.9221 82.3496 85.2752 81.183 87.8225C81.183 87.8225 83.7089 58.1011 59.7776 57.5232C59.7884 57.5339 40.6626 56.5706 41.1336 77.1412Z" fill="#FFBEBB"/>
<path d="M45.982 81.421C45.982 81.421 46.0142 79.2376 50.0063 80.5112C50.0063 80.5112 54.1696 82.0417 53.2171 84.803C53.2171 84.803 52.7676 86.1301 49.5782 84.9849C49.5782 84.9849 45.7359 83.8398 45.982 81.421Z" fill="white"/>
<path d="M49.5059 82.8895C49.5059 81.5516 50.5975 80.46 51.9354 80.46C53.2732 80.46 54.3649 81.5516 54.3649 82.8895C54.3649 84.2273 53.2732 85.319 51.9354 85.319C50.5975 85.3083 49.5059 84.2273 49.5059 82.8895Z" fill="#5B0909"/>
<path d="M61.8542 84.0984C61.8542 84.0984 61.1692 82.0328 65.3539 81.915C65.3539 81.915 69.7956 82.0007 69.7849 84.9118C69.7849 84.9118 69.7956 86.3138 66.4135 86.2817C66.4135 86.2924 62.4107 86.4637 61.8542 84.0984Z" fill="white"/>
<path d="M65.6556 84.3336C65.2167 83.0707 65.891 81.6793 67.1539 81.2405C68.4168 80.8017 69.8082 81.476 70.247 82.7389C70.6858 84.0018 70.0116 85.3932 68.7486 85.832C67.475 86.2708 66.0944 85.5965 65.6556 84.3336Z" fill="#5B0909"/>
<path d="M45.8086 76.7025C45.8086 76.1674 46.6434 75.7393 47.6602 75.7393C48.6876 75.7393 49.5224 76.1674 49.5224 76.7025C49.5224 77.2376 48.6876 77.6657 47.6602 77.6657C46.6434 77.6657 45.8086 77.2376 45.8086 76.7025Z" fill="#5B0909"/>
<path d="M67.9969 78.8316C68.136 78.3179 69.0564 78.1252 70.0411 78.3928C71.0364 78.6604 71.7214 79.3025 71.5823 79.8163C71.4431 80.33 70.5227 80.5333 69.5381 80.2551C68.5427 79.9875 67.847 79.356 67.9969 78.8316Z" fill="#5B0909"/>
<path d="M82.8714 90.4664C83.2888 89.1821 84.3591 88.3794 85.2581 88.6898C86.1571 89.0002 86.5424 90.2845 86.125 91.5795C85.7076 92.8745 84.6373 93.6665 83.7383 93.3669C82.8393 93.0458 82.454 91.7614 82.8714 90.4664Z" fill="#FFAA9B"/>
<path d="M66.8273 96.1062C66.6454 96.1169 66.4634 96.0206 66.3671 95.8601C66.2173 95.6139 66.3029 95.3035 66.549 95.1537L81.0084 86.5059C81.2439 86.3668 81.5649 86.4417 81.7148 86.6878C81.8646 86.934 81.779 87.2444 81.5328 87.3942L67.0735 96.042C66.9879 96.0848 66.9022 96.1062 66.8273 96.1062Z" fill="#8DD3BA"/>
<path d="M48.4092 93.9975C48.2593 93.9975 48.1095 93.9226 48.0024 93.7621L40.9708 82.7811C40.7781 82.5135 40.7781 82.1925 41.0029 81.957C41.2276 81.7322 41.3133 82.064 41.5059 82.3423L48.8159 92.9166C49.0085 93.1948 48.9764 93.6015 48.7516 93.837C48.6553 93.944 48.5269 93.9975 48.4092 93.9975Z" fill="#8DD3BA"/>
<path d="M47.4573 109.015C47.4573 109.015 45.7341 100.527 47.682 92.6394C47.682 92.6394 58.6202 91.7189 67.4499 94.5123C67.4499 94.5123 69.2586 105.129 68.488 110.887C68.4988 110.887 57.5071 115.297 47.4573 109.015Z" fill="white"/>
<path d="M62.258 98.663C62.1938 98.663 62.1296 98.6523 62.076 98.6309C60.7917 98.1279 54.049 97.6891 51.5553 97.5499C51.277 97.5392 51.0523 97.2931 51.0737 97.0041C51.0844 96.7258 51.3412 96.4904 51.6088 96.5225C52.5399 96.5653 60.7703 97.0148 62.4506 97.6677C62.7182 97.7747 62.8466 98.0744 62.7396 98.3312C62.654 98.5346 62.4613 98.663 62.258 98.663Z" fill="#8DD3BA"/>
<path d="M62.0439 102.848C62.0225 102.848 62.0011 102.848 61.9797 102.848L51.2556 101.606C50.9773 101.574 50.774 101.317 50.8061 101.039C50.8382 100.761 51.095 100.557 51.3733 100.589L62.0974 101.831C62.3757 101.863 62.579 102.12 62.5469 102.398C62.5255 102.655 62.3008 102.848 62.0439 102.848Z" fill="#8DD3BA"/>
<path d="M62.6325 108.5C62.6111 108.5 62.5897 108.5 62.5576 108.5L51.2021 106.873C50.9238 106.83 50.7312 106.573 50.7633 106.295C50.8061 106.017 51.0629 105.824 51.3412 105.856L62.6968 107.494C62.975 107.536 63.1784 107.793 63.1356 108.071C63.1035 108.318 62.8894 108.5 62.6325 108.5Z" fill="#8DD3BA"/>
<path d="M41.7008 85.2843C41.7008 85.2843 40.5449 69.273 49.0107 62.541C49.0107 62.541 53.7948 79.0767 69.3458 76.7114C69.3458 76.7114 81.9643 78.2098 79.6632 91.8022L81.4506 87.7138C81.4506 87.7138 83.9229 84.1391 86.0634 85.1237C86.0634 85.1237 88.8247 78.3275 89.4027 73.8966C89.4027 73.8966 90.3231 76.6579 90.2696 78.1028C90.2696 78.1028 97.3013 57.3609 84.3938 48.1994C84.3938 48.1994 71.9573 39.862 59.4351 43.715C59.4351 43.715 60.6766 40.9216 62.1215 39.5195C62.1215 39.5195 55.3146 43.4367 53.5272 46.0696C53.5272 46.0696 40.6198 51.4958 39.6565 65.3665C39.6458 65.3451 38.5542 78.2847 41.7008 85.2843Z" fill="#5B0909"/>
<path d="M64.8283 75.2461C64.7748 75.2461 64.7106 75.2354 64.6571 75.214C59.6268 73.4374 55.517 67.0907 55.3457 66.8231C55.1959 66.5877 55.2601 66.2666 55.5063 66.1167C55.7417 65.9669 56.0628 66.0311 56.2126 66.2666C56.2554 66.3308 60.3011 72.5812 64.9996 74.2401C65.2671 74.3364 65.4063 74.6254 65.3099 74.893C65.235 75.1177 65.0424 75.2461 64.8283 75.2461Z" fill="#940A37"/>
<path d="M70.8444 75.0846C70.7909 75.0846 70.7267 75.0739 70.6732 75.0525C64.4442 72.8264 61.822 70.2363 61.715 70.1186C61.5117 69.9152 61.5117 69.5941 61.715 69.3908C61.9184 69.1874 62.2395 69.1874 62.4428 69.3908C62.4642 69.4122 65.0436 71.938 71.0264 74.0786C71.2939 74.1749 71.4331 74.4639 71.3367 74.7314C71.2511 74.9562 71.0478 75.0846 70.8444 75.0846Z" fill="#940A37"/>
<path d="M84.1142 72.592C83.8466 72.592 83.6218 72.3887 83.6004 72.1211C82.3482 57.7046 67.8033 52.4175 67.6534 52.3746C67.3858 52.2783 67.2467 51.9893 67.343 51.7218C67.4394 51.4542 67.7283 51.3151 67.9959 51.4114C68.1457 51.4649 83.3222 56.9554 84.6279 72.0462C84.6493 72.3245 84.4459 72.5813 84.157 72.6027C84.1463 72.592 84.1249 72.592 84.1142 72.592Z" fill="#940A37"/>
<path d="M87.7736 66.373C87.506 66.373 87.2813 66.1696 87.2599 65.9021C86.5107 56.1626 77.0067 50.3511 76.9104 50.2975C76.6642 50.1477 76.5893 49.8373 76.7391 49.5912C76.889 49.345 77.1994 49.2701 77.4455 49.4092C77.8522 49.6554 87.4953 55.5312 88.2873 65.8165C88.3087 66.0947 88.0947 66.3516 87.8164 66.373C87.8057 66.373 87.7843 66.373 87.7736 66.373Z" fill="#940A37"/>
<path d="M83.0563 127.229C83.0563 127.229 80.7766 131.682 79.8883 129.466C78.7003 126.502 81.3652 120.658 87.8083 113.262C87.8083 113.262 93.074 109.966 97.9223 111.989C97.9223 111.989 107.266 116.676 108.539 122.103C108.539 122.103 109.995 126.352 108.914 131.093L105.275 127.433C105.275 127.433 102.054 129.092 98.7678 135.717C98.2327 136.808 97.2802 140.18 95.4072 140.062C95.4072 140.062 90.6231 140.297 99.1531 124.864C99.1531 124.864 95.3644 127.315 93.1382 134.218C93.1382 134.218 91.5542 140.64 88.9963 139.933C88.9963 139.933 85.8283 138.446 90.6231 127.358C90.6231 127.358 92.8278 123.152 95.1931 121.257C95.1931 121.257 90.7729 123.419 87.0912 132.998C87.0912 132.998 85.7962 137.311 83.9232 136.937C83.9232 136.937 81.7827 136.637 83.5593 130.718C83.5593 130.718 85.6998 122.713 90.409 118.432C90.3983 118.41 88.2578 118.796 83.0563 127.229Z" fill="#FFAA9B"/>
</g>
</svg>
