<svg width="213" height="184" viewBox="0 0 213 184" fill="none" xmlns="http://www.w3.org/2000/svg">
<mask id="mask0" mask-type="alpha" maskUnits="userSpaceOnUse" x="36" y="0" width="141" height="141">
<path d="M36.3887 70.0657C36.378 31.3862 67.7155 0.0165648 106.395 0.00586212C145.075 -0.00484058 176.444 31.3327 176.455 70.0122C176.466 108.692 145.128 140.061 106.449 140.072C67.769 140.083 36.3994 108.735 36.3887 70.0657Z" fill="white"/>
</mask>
<g mask="url(#mask0)">
<path d="M36.3887 70.0657C36.378 31.3862 67.7155 0.0165648 106.395 0.00586212C145.075 -0.00484058 176.444 31.3327 176.455 70.0122C176.466 108.692 145.128 140.061 106.449 140.072C67.769 140.083 36.3994 108.735 36.3887 70.0657Z" fill="white"/>
<path d="M88.7243 93.5596C88.7243 93.5596 90.7043 111.412 86.1236 116.966C86.1236 116.966 81.7997 120.252 75.9453 123.431C75.9453 123.431 118.499 132.164 138.074 121.387C138.074 121.387 126.976 117.673 125.21 111.626C125.21 111.626 122.224 103.877 123.369 92.2324C123.358 92.2431 112.056 102.357 88.7243 93.5596Z" fill="#FFAA9B"/>
<path opacity="0.3" d="M82.365 96.054C82.4399 96.2466 83.8206 97.3383 84.1202 97.5845C85.5651 98.7403 87.406 100.003 88.99 100.892C92.5754 102.904 96.6852 104.209 100.731 104.841C105.226 105.537 109.946 106.007 114.484 105.365C119.568 104.638 124.801 102.272 127.562 97.7343C128.943 95.4546 128.676 92.9181 126.813 90.8953C126.374 90.4243 125.829 90.0605 125.326 89.6537C124.544 89.0223 123.56 88.6691 122.618 88.3159C120.295 87.4597 118.38 87.4704 115.843 87.2885C114.494 87.1921 113.157 87.0958 111.808 87.0851C108.811 87.053 105.804 87.2778 102.818 87.5239C101.127 87.6738 99.3716 87.952 97.7448 88.4765C96.5996 88.8403 95.4116 89.1079 94.2557 89.4504C91.2803 90.3173 88.2087 91.0879 85.3403 92.2866C84.452 92.6612 83.05 93.0358 82.5041 93.9027C82.1295 94.5128 82.0974 95.3904 82.365 96.054Z" fill="#FFAA9B"/>
<path d="M83.0218 118.86C83.0218 118.86 105.69 128.428 130.285 118.143C130.285 118.143 146.489 120.701 164.394 124.361C164.394 124.361 169.136 123.558 173.47 134.453C173.47 134.453 98.241 154.435 49.2976 141.549C49.2976 141.549 47.5423 130.675 59.1655 126.887C59.1655 126.887 77.8845 121.278 83.0218 118.86Z" fill="#E26241"/>
<path d="M76.4504 59.8555C76.4504 59.8555 74.8557 57.0406 71.859 57.3938C71.859 57.3938 67.5993 59.0635 68.905 66.2022C68.905 66.2022 70.0288 71.789 77.5528 71.9388C77.5528 71.9388 79.4258 101.649 105.53 100.215C105.53 100.215 128.958 103.159 132.575 72.0137C132.575 72.0137 140.677 73.6191 141.587 64.3613C141.587 64.3613 142.122 58.0895 137.488 57.8969C137.488 57.8969 132.725 58.935 131.848 61.8997C131.848 61.8997 135.915 28.3895 105.712 29.021C105.712 29.021 74.6524 26.2383 76.4504 59.8555Z" fill="#FFAA9B"/>
<path opacity="0.3" d="M71.6765 65.1422C71.4089 63.5261 72.2972 62.0277 73.6565 61.7923C75.0264 61.5675 76.3536 62.6913 76.6318 64.3074C76.8994 65.9235 76.0111 67.4219 74.6518 67.6574C73.2819 67.8821 71.9547 66.7583 71.6765 65.1422Z" fill="#FFAA9B"/>
<path opacity="0.3" d="M134.201 65.6891C133.923 64.073 134.811 62.5746 136.181 62.3392C137.551 62.1144 138.878 63.2382 139.157 64.8543C139.424 66.4704 138.536 67.9688 137.177 68.2042C135.807 68.429 134.48 67.3052 134.201 65.6891Z" fill="#FFAA9B"/>
<path d="M87.4749 56.6445C87.507 55.1675 90.279 54.0223 93.6718 54.0866C97.0645 54.1508 99.7937 55.4137 99.7616 56.8907C99.7295 58.3676 96.9575 59.5128 93.5647 59.4486C90.172 59.3844 87.4428 58.1215 87.4749 56.6445Z" fill="white"/>
<path d="M89.9791 55.4233C90.0112 53.7644 91.3918 52.448 93.0508 52.4801C94.7097 52.5122 96.0261 53.8821 95.994 55.5517C95.9619 57.2107 94.592 58.5378 92.9223 58.495C91.2634 58.4629 89.947 57.0822 89.9791 55.4233Z" fill="#5B0909"/>
<path d="M112.549 57.1504C112.581 55.6734 115.353 54.5282 118.746 54.5924C122.139 54.6566 124.868 55.9196 124.836 57.3965C124.804 58.8735 122.032 60.0187 118.639 59.9545C115.257 59.8903 112.528 58.638 112.549 57.1504Z" fill="white"/>
<path d="M115.063 55.9292C115.095 54.2702 116.465 52.9538 118.135 52.9859C119.794 53.018 121.121 54.388 121.078 56.0576C121.046 57.7165 119.676 59.0437 118.006 59.0008C116.347 58.9687 115.031 57.5988 115.063 55.9292Z" fill="#5B0909"/>
<path d="M87.6114 46.7249C87.6328 45.8259 89.9017 45.1516 92.6737 45.2051C95.4564 45.2586 97.6933 46.0399 97.6719 46.9283C97.6505 47.8273 95.3815 48.5016 92.6095 48.448C89.8375 48.3838 87.6007 47.6132 87.6114 46.7249Z" fill="#5B0909"/>
<path d="M113.865 47.2495C113.887 46.3505 116.156 45.6655 118.928 45.7298C121.71 45.7833 123.947 46.5539 123.926 47.4529C123.905 48.3412 121.636 49.0262 118.864 48.9727C116.081 48.9192 113.844 48.1486 113.865 47.2495Z" fill="#5B0909"/>
<path d="M121.733 74.0573C121.604 74.068 121.465 74.0252 121.358 73.9396C121.112 73.747 121.059 73.3831 121.251 73.1369L131.055 60.4328C131.248 60.1759 131.611 60.1331 131.858 60.3258C132.104 60.5184 132.157 60.8823 131.965 61.1285L122.161 73.8326C122.054 73.9717 121.893 74.0573 121.733 74.0573Z" fill="#8DD3BA"/>
<path d="M90.3763 74.5938C90.2371 74.5831 90.098 74.5189 90.0017 74.4012L76.8695 59.2033C76.6661 58.9679 76.6875 58.604 76.923 58.3899C77.1691 58.1866 77.5223 58.208 77.7257 58.4542L90.8686 73.6413C91.0719 73.8767 91.0505 74.2406 90.8151 74.444C90.6866 74.5617 90.5261 74.6045 90.3763 74.5938Z" fill="#8DD3BA"/>
<path d="M89.4228 93.6663C89.4228 93.6663 88.9625 80.9729 89.6475 74.1018C89.6475 74.1018 89.7331 71.1264 93.843 70.6769C93.843 70.6769 110.079 67.9905 119.38 70.9017C119.38 70.9017 122.376 71.5331 122.633 75.0757L122.879 91.3331C122.879 91.3331 122.676 95.5179 118.93 97.4015C118.93 97.4015 105.391 104.54 93.1366 98.14C93.1473 98.14 89.9044 97.0483 89.4228 93.6663Z" fill="white"/>
<path d="M99.3342 77.3992C99.0346 77.3885 98.7884 77.153 98.7777 76.8533C98.767 76.5323 99.0025 76.2754 99.3235 76.254C99.3985 76.254 107.094 75.9115 113.002 76.2219C113.323 76.2433 113.558 76.5109 113.537 76.8212C113.515 77.1316 113.248 77.3885 112.937 77.3671C107.094 77.046 99.452 77.3885 99.3771 77.3992C99.3556 77.3992 99.3449 77.3992 99.3342 77.3992Z" fill="#8DD3BA"/>
<path d="M99.1194 82.5905C98.809 82.5798 98.5628 82.3336 98.5628 82.0339C98.5521 81.7129 98.809 81.456 99.1301 81.4453L113.407 81.1777C113.729 81.1991 113.985 81.4239 113.985 81.745C113.985 82.0554 113.739 82.3229 113.418 82.3336L99.1408 82.6012C99.1301 82.5905 99.1301 82.5905 99.1194 82.5905Z" fill="#8DD3BA"/>
<path d="M98.8222 89.7918C98.5118 89.7811 98.2656 89.5349 98.2656 89.2138C98.2656 88.9035 98.5225 88.6359 98.8436 88.6359C98.9613 88.6359 111.141 88.6252 114.009 87.6727C114.309 87.5656 114.641 87.7369 114.737 88.0365C114.833 88.3362 114.673 88.6573 114.373 88.7643C111.323 89.7811 99.3466 89.7918 98.8436 89.7918C98.8329 89.7918 98.8329 89.7918 98.8222 89.7918Z" fill="#8DD3BA"/>
<path d="M119.379 90.8205C119.08 90.8098 118.833 90.5743 118.823 90.2746L118.309 78.309C118.298 77.9986 118.544 77.7311 118.855 77.7097C119.197 77.6775 119.433 77.9451 119.454 78.2555L119.968 90.2211C119.979 90.5422 119.732 90.799 119.422 90.8205C119.401 90.8205 119.39 90.8205 119.379 90.8205Z" fill="#8DD3BA"/>
<path d="M92.4748 91.8905C92.1538 91.8798 91.9076 91.623 91.9183 91.3019L92.3036 77.3349C92.3143 77.0245 92.5712 76.7783 92.8922 76.7783C93.2133 76.789 93.4595 77.0459 93.4488 77.367L93.0635 91.3233C93.0528 91.6444 92.7959 91.8905 92.4748 91.8905Z" fill="#8DD3BA"/>
<path d="M81.0513 70.6456C81.0513 70.6456 82.1751 44.4454 82.935 40.1001C82.935 40.1001 104.191 43.846 114.99 41.7055C114.99 41.7055 122.931 43.739 127.94 43.8353C127.94 43.8353 129.47 63.8066 128.336 69.4041C128.336 69.4041 131.044 63.9029 131.878 61.8052C131.878 61.8052 134.319 57.6846 137.636 57.8131C137.636 57.8131 145.535 31.2597 131.504 19.8613C131.504 19.8613 114.091 5.38055 96.7093 11.9948C96.7093 11.9948 97.4906 9.64022 100.498 7.41406C100.498 7.41406 94.9541 8.7412 92.5246 13.3648C92.5246 13.3648 76.9736 16.8752 72.5319 33.047C72.5319 33.047 69.3854 47.7097 73.5059 57.3528C73.5059 57.3528 78.6539 59.3756 81.0513 70.6456Z" fill="#5B0909"/>
<path d="M107.87 40.2381C98.6545 40.0562 85.8434 31.676 85.3083 31.3228C85.0407 31.1515 84.9765 30.7876 85.1477 30.5308C85.319 30.2632 85.6829 30.1883 85.9397 30.3702C86.0682 30.4558 99.0184 38.9324 107.902 39.1036C107.977 39.1036 108.041 39.1036 108.116 39.1036C108.426 39.1143 108.683 39.3712 108.672 39.6816C108.672 39.992 108.415 40.2488 108.094 40.2488C108.019 40.2381 107.944 40.2381 107.87 40.2381Z" fill="#E26241"/>
<path d="M114.047 39.5961C113.983 39.5961 113.919 39.5854 113.865 39.564C107.304 37.1452 94.29 26.9883 93.7442 26.5602C93.498 26.3676 93.4552 26.0037 93.6479 25.7575C93.8405 25.5113 94.2044 25.4578 94.4506 25.6612C94.579 25.7682 107.872 36.1284 114.261 38.4937C114.561 38.6007 114.711 38.9325 114.604 39.2322C114.518 39.457 114.283 39.6068 114.047 39.5961Z" fill="#E26241"/>
<path d="M125.178 40.8908C125.103 40.8908 125.028 40.8694 124.954 40.8373C117.408 37.4445 107.562 25.3933 107.144 24.8796C106.952 24.6334 106.984 24.2695 107.23 24.0768C107.476 23.8842 107.84 23.9163 108.033 24.1625C108.129 24.2909 118.114 36.5134 125.424 39.7991C125.713 39.9275 125.842 40.27 125.713 40.559C125.606 40.7624 125.392 40.8908 125.178 40.8908Z" fill="#E26241"/>
</g>
<path d="M29.7808 160.774H30.5608L27.3608 153.774H26.6308L23.4308 160.774H24.2008L25.0408 158.904H28.9408L29.7808 160.774ZM25.3108 158.304L26.9908 154.544L28.6708 158.304H25.3108ZM31.5687 160.774H32.2787V153.354H31.5687V160.774ZM41.3243 155.514L39.6543 159.984L37.9743 155.514H37.3643L35.6743 159.984L34.0243 155.514H33.3443L35.3243 160.774H35.9943L37.6543 156.464L39.3143 160.774H39.9843L41.9743 155.514H41.3243ZM44.7271 155.474C43.8971 155.474 43.1171 155.734 42.5871 156.184L42.9071 156.714C43.3371 156.334 43.9771 156.094 44.6571 156.094C45.6371 156.094 46.1471 156.584 46.1471 157.484V157.804H44.4771C42.9671 157.804 42.4471 158.484 42.4471 159.294C42.4471 160.204 43.1771 160.824 44.3671 160.824C45.2371 160.824 45.8571 160.494 46.1771 159.954V160.774H46.8571V157.514C46.8571 156.154 46.0871 155.474 44.7271 155.474ZM44.4771 160.264C43.6371 160.264 43.1471 159.884 43.1471 159.274C43.1471 158.734 43.4771 158.334 44.4971 158.334H46.1471V159.194C45.8671 159.884 45.2771 160.264 44.4771 160.264ZM52.4079 155.514L50.4279 159.984L48.4479 155.514H47.7079L50.0579 160.764L49.8279 161.274C49.5279 161.934 49.2079 162.154 48.7379 162.154C48.3579 162.154 48.0379 162.014 47.7779 161.754L47.4479 162.284C47.7679 162.604 48.2379 162.764 48.7279 162.764C49.4779 162.764 50.0379 162.434 50.4779 161.404L53.1079 155.514H52.4079ZM55.4592 160.824C56.8292 160.824 57.6292 160.234 57.6292 159.324C57.6292 157.304 54.2192 158.374 54.2192 156.954C54.2192 156.454 54.6392 156.084 55.5892 156.084C56.1292 156.084 56.6792 156.214 57.1392 156.534L57.4492 155.964C57.0092 155.664 56.2692 155.474 55.5892 155.474C54.2492 155.474 53.5092 156.114 53.5092 156.974C53.5092 159.054 56.9192 157.974 56.9192 159.344C56.9192 159.864 56.5092 160.204 55.5092 160.204C54.7692 160.204 54.0592 159.944 53.6392 159.614L53.3192 160.174C53.7492 160.544 54.5892 160.824 55.4592 160.824ZM65.589 155.514V158.274C65.589 159.474 64.899 160.184 63.799 160.184C62.799 160.184 62.219 159.614 62.219 158.494V155.514H61.509V158.564C61.509 160.074 62.389 160.824 63.729 160.824C64.569 160.824 65.249 160.454 65.619 159.814V160.774H66.299V155.514H65.589ZM69.6975 160.824C71.0675 160.824 71.8675 160.234 71.8675 159.324C71.8675 157.304 68.4575 158.374 68.4575 156.954C68.4575 156.454 68.8775 156.084 69.8275 156.084C70.3675 156.084 70.9175 156.214 71.3775 156.534L71.6875 155.964C71.2475 155.664 70.5075 155.474 69.8275 155.474C68.4875 155.474 67.7475 156.114 67.7475 156.974C67.7475 159.054 71.1575 157.974 71.1575 159.344C71.1575 159.864 70.7475 160.204 69.7475 160.204C69.0075 160.204 68.2975 159.944 67.8775 159.614L67.5575 160.174C67.9875 160.544 68.8275 160.824 69.6975 160.824ZM77.7701 158.144C77.7701 156.564 76.7001 155.474 75.2201 155.474C73.7401 155.474 72.6501 156.584 72.6501 158.144C72.6501 159.704 73.7701 160.824 75.4101 160.824C76.2401 160.824 76.9701 160.524 77.4401 159.964L77.0401 159.504C76.6401 159.964 76.0701 160.194 75.4301 160.194C74.2801 160.194 73.4401 159.464 73.3601 158.364H77.7601C77.7601 158.284 77.7701 158.204 77.7701 158.144ZM75.2201 156.084C76.2501 156.084 77.0001 156.804 77.0901 157.834H73.3601C73.4501 156.804 74.2001 156.084 75.2201 156.084ZM88.3924 155.474C87.4424 155.474 86.6924 155.904 86.3124 156.584C85.9924 155.844 85.3124 155.474 84.4424 155.474C83.5624 155.474 82.8824 155.844 82.5124 156.474V155.514H81.8324V160.774H82.5424V158.014C82.5424 156.814 83.2324 156.114 84.3024 156.114C85.2624 156.114 85.8224 156.684 85.8224 157.794V160.774H86.5324V158.014C86.5324 156.814 87.2124 156.114 88.2924 156.114C89.2424 156.114 89.8024 156.684 89.8024 157.794V160.774H90.5124V157.724C90.5124 156.214 89.6724 155.474 88.3924 155.474ZM94.2779 155.474C93.4479 155.474 92.6679 155.734 92.1379 156.184L92.4579 156.714C92.8879 156.334 93.5279 156.094 94.2079 156.094C95.1879 156.094 95.6979 156.584 95.6979 157.484V157.804H94.0279C92.5179 157.804 91.9979 158.484 91.9979 159.294C91.9979 160.204 92.7279 160.824 93.9179 160.824C94.7879 160.824 95.4079 160.494 95.7279 159.954V160.774H96.4079V157.514C96.4079 156.154 95.6379 155.474 94.2779 155.474ZM94.0279 160.264C93.1879 160.264 92.6979 159.884 92.6979 159.274C92.6979 158.734 93.0279 158.334 94.0479 158.334H95.6979V159.194C95.4179 159.884 94.8279 160.264 94.0279 160.264ZM99.7463 160.824C101.116 160.824 101.916 160.234 101.916 159.324C101.916 157.304 98.5063 158.374 98.5063 156.954C98.5063 156.454 98.9263 156.084 99.8763 156.084C100.416 156.084 100.966 156.214 101.426 156.534L101.736 155.964C101.296 155.664 100.556 155.474 99.8763 155.474C98.5363 155.474 97.7963 156.114 97.7963 156.974C97.7963 159.054 101.206 157.974 101.206 159.344C101.206 159.864 100.796 160.204 99.7963 160.204C99.0563 160.204 98.3463 159.944 97.9263 159.614L97.6063 160.174C98.0363 160.544 98.8763 160.824 99.7463 160.824ZM107.299 160.774H108.169L105.709 157.664L107.959 155.514H107.079L103.939 158.384V153.354H103.229V160.774H103.939V159.274L105.179 158.134L107.299 160.774ZM118.922 155.514L117.252 159.984L115.572 155.514H114.962L113.272 159.984L111.622 155.514H110.942L112.922 160.774H113.592L115.252 156.464L116.912 160.774H117.582L119.572 155.514H118.922ZM123.321 155.474C122.431 155.474 121.741 155.824 121.351 156.434V153.354H120.641V160.774H121.351V158.014C121.351 156.814 122.061 156.114 123.191 156.114C124.191 156.114 124.771 156.684 124.771 157.794V160.774H125.481V157.724C125.481 156.214 124.601 155.474 123.321 155.474ZM127.769 154.364C128.069 154.364 128.289 154.134 128.289 153.844C128.289 153.574 128.059 153.354 127.769 153.354C127.479 153.354 127.249 153.584 127.249 153.854C127.249 154.134 127.479 154.364 127.769 154.364ZM127.409 160.774H128.119V155.514H127.409V160.774ZM130.094 160.774H130.804V153.354H130.094V160.774ZM137.37 158.144C137.37 156.564 136.3 155.474 134.82 155.474C133.34 155.474 132.25 156.584 132.25 158.144C132.25 159.704 133.37 160.824 135.01 160.824C135.84 160.824 136.57 160.524 137.04 159.964L136.64 159.504C136.24 159.964 135.67 160.194 135.03 160.194C133.88 160.194 133.04 159.464 132.96 158.364H137.36C137.36 158.284 137.37 158.204 137.37 158.144ZM134.82 156.084C135.85 156.084 136.6 156.804 136.69 157.834H132.96C133.05 156.804 133.8 156.084 134.82 156.084ZM145.622 155.514V156.524C145.182 155.834 144.422 155.474 143.542 155.474C142.042 155.474 140.902 156.504 140.902 158.014C140.902 159.524 142.042 160.574 143.542 160.574C144.402 160.574 145.152 160.224 145.592 159.554V160.224C145.592 161.524 144.982 162.134 143.652 162.134C142.842 162.134 142.082 161.864 141.582 161.414L141.222 161.954C141.772 162.474 142.712 162.764 143.672 162.764C145.412 162.764 146.302 161.944 146.302 160.134V155.514H145.622ZM143.612 159.944C142.452 159.944 141.622 159.154 141.622 158.014C141.622 156.874 142.452 156.094 143.612 156.094C144.772 156.094 145.612 156.874 145.612 158.014C145.612 159.154 144.772 159.944 143.612 159.944ZM150.437 160.824C151.977 160.824 153.107 159.704 153.107 158.144C153.107 156.584 151.977 155.474 150.437 155.474C148.897 155.474 147.757 156.584 147.757 158.144C147.757 159.704 148.897 160.824 150.437 160.824ZM150.437 160.194C149.317 160.194 148.477 159.374 148.477 158.144C148.477 156.914 149.317 156.094 150.437 156.094C151.557 156.094 152.387 156.914 152.387 158.144C152.387 159.374 151.557 160.194 150.437 160.194ZM154.917 154.364C155.217 154.364 155.437 154.134 155.437 153.844C155.437 153.574 155.207 153.354 154.917 153.354C154.627 153.354 154.397 153.584 154.397 153.854C154.397 154.134 154.627 154.364 154.917 154.364ZM154.557 160.774H155.267V155.514H154.557V160.774ZM159.923 155.474C159.013 155.474 158.303 155.844 157.923 156.484V155.514H157.243V160.774H157.953V158.014C157.953 156.814 158.663 156.114 159.793 156.114C160.793 156.114 161.373 156.684 161.373 157.794V160.774H162.083V157.724C162.083 156.214 161.203 155.474 159.923 155.474ZM168.22 155.514V156.524C167.78 155.834 167.02 155.474 166.14 155.474C164.64 155.474 163.5 156.504 163.5 158.014C163.5 159.524 164.64 160.574 166.14 160.574C167 160.574 167.75 160.224 168.19 159.554V160.224C168.19 161.524 167.58 162.134 166.25 162.134C165.44 162.134 164.68 161.864 164.18 161.414L163.82 161.954C164.37 162.474 165.31 162.764 166.27 162.764C168.01 162.764 168.9 161.944 168.9 160.134V155.514H168.22ZM166.21 159.944C165.05 159.944 164.22 159.154 164.22 158.014C164.22 156.874 165.05 156.094 166.21 156.094C167.37 156.094 168.21 156.874 168.21 158.014C168.21 159.154 167.37 159.944 166.21 159.944ZM175.652 160.824C177.192 160.824 178.322 159.704 178.322 158.144C178.322 156.584 177.192 155.474 175.652 155.474C174.112 155.474 172.972 156.584 172.972 158.144C172.972 159.704 174.112 160.824 175.652 160.824ZM175.652 160.194C174.532 160.194 173.692 159.374 173.692 158.144C173.692 156.914 174.532 156.094 175.652 156.094C176.772 156.094 177.602 156.914 177.602 158.144C177.602 159.374 176.772 160.194 175.652 160.194ZM183.802 155.514V158.274C183.802 159.474 183.112 160.184 182.012 160.184C181.012 160.184 180.432 159.614 180.432 158.494V155.514H179.722V158.564C179.722 160.074 180.602 160.824 181.942 160.824C182.782 160.824 183.462 160.454 183.832 159.814V160.774H184.512V155.514H183.802ZM189.02 159.944C188.82 160.124 188.53 160.214 188.24 160.214C187.65 160.214 187.33 159.874 187.33 159.254V156.114H188.93V155.514H187.33V154.364H186.62V155.514H185.68V156.114H186.62V159.294C186.62 160.264 187.17 160.824 188.16 160.824C188.57 160.824 188.99 160.704 189.27 160.454L189.02 159.944Z" fill="#4F4F4F"/>
</svg>
