<svg width="141" height="211" viewBox="0 0 141 211" fill="none" xmlns="http://www.w3.org/2000/svg">
<path d="M93.9877 161.441C90.2802 161.441 86.7921 159.466 84.9054 156.307L70.7994 132.922L56.7153 156.307C54.8067 159.488 51.3186 161.463 47.6111 161.463C46.6239 161.463 45.6367 161.331 44.6934 161.046L14.6386 152.446V191.496C14.6386 194.72 16.8324 197.529 19.9476 198.296L67.3771 210.165C69.6148 210.713 71.9621 210.713 74.1778 210.165L121.651 198.296C124.766 197.507 126.96 194.699 126.96 191.496V152.446L96.9054 161.024C95.9621 161.309 94.9749 161.441 93.9877 161.441ZM140.627 136.827L129.33 114.275C128.649 112.914 127.18 112.125 125.666 112.322L70.7994 119.32L90.9164 152.688C91.75 154.07 93.4173 154.728 94.9749 154.289L138.39 141.894C140.562 141.258 141.615 138.845 140.627 136.827ZM12.2693 114.275L0.97134 136.827C-0.0378001 138.845 1.03715 141.258 3.18706 141.872L46.602 154.267C48.1596 154.706 49.8269 154.048 50.6605 152.666L70.7994 119.32L15.911 112.322C14.3973 112.147 12.9494 112.914 12.2693 114.275Z" fill="#00AF32"/>
<circle cx="40" cy="15.7632" r="15" fill="#00AF32"/>
<rect x="46.0193" y="72.9292" width="30" height="30" transform="rotate(-30 46.0193 72.9292)" fill="#00AF32"/>
<path d="M106.5 17.7729L121.5 43.7537H91.5L106.5 17.7729Z" fill="#00AF32"/>
</svg>
