<svg width="208" height="215" viewBox="0 0 208 215" fill="none" xmlns="http://www.w3.org/2000/svg">
<path d="M45.9011 209.868H46.6811L43.4811 202.868H42.7511L39.5511 209.868H40.3211L41.1611 207.998H45.0611L45.9011 209.868ZM41.4311 207.398L43.1111 203.638L44.7911 207.398H41.4311ZM47.6891 209.868H48.3991V202.448H47.6891V209.868ZM57.4447 204.608L55.7747 209.078L54.0947 204.608H53.4847L51.7947 209.078L50.1447 204.608H49.4647L51.4447 209.868H52.1147L53.7747 205.558L55.4347 209.868H56.1047L58.0947 204.608H57.4447ZM60.8475 204.568C60.0175 204.568 59.2375 204.828 58.7075 205.278L59.0275 205.808C59.4575 205.428 60.0975 205.188 60.7775 205.188C61.7575 205.188 62.2675 205.678 62.2675 206.578V206.898H60.5975C59.0875 206.898 58.5675 207.578 58.5675 208.388C58.5675 209.298 59.2975 209.918 60.4875 209.918C61.3575 209.918 61.9775 209.588 62.2975 209.048V209.868H62.9775V206.608C62.9775 205.248 62.2075 204.568 60.8475 204.568ZM60.5975 209.358C59.7575 209.358 59.2675 208.978 59.2675 208.368C59.2675 207.828 59.5975 207.428 60.6175 207.428H62.2675V208.288C61.9875 208.978 61.3975 209.358 60.5975 209.358ZM68.5282 204.608L66.5482 209.078L64.5682 204.608H63.8282L66.1782 209.858L65.9482 210.368C65.6482 211.028 65.3282 211.248 64.8582 211.248C64.4782 211.248 64.1582 211.108 63.8982 210.848L63.5682 211.378C63.8882 211.698 64.3582 211.858 64.8482 211.858C65.5982 211.858 66.1582 211.528 66.5982 210.498L69.2282 204.608H68.5282ZM71.5796 209.918C72.9496 209.918 73.7496 209.328 73.7496 208.418C73.7496 206.398 70.3396 207.468 70.3396 206.048C70.3396 205.548 70.7596 205.178 71.7096 205.178C72.2496 205.178 72.7996 205.308 73.2596 205.628L73.5696 205.058C73.1296 204.758 72.3896 204.568 71.7096 204.568C70.3696 204.568 69.6296 205.208 69.6296 206.068C69.6296 208.148 73.0396 207.068 73.0396 208.438C73.0396 208.958 72.6296 209.298 71.6296 209.298C70.8896 209.298 70.1796 209.038 69.7596 208.708L69.4396 209.268C69.8696 209.638 70.7096 209.918 71.5796 209.918ZM81.7093 204.608V207.368C81.7093 208.568 81.0193 209.278 79.9193 209.278C78.9193 209.278 78.3393 208.708 78.3393 207.588V204.608H77.6293V207.658C77.6293 209.168 78.5093 209.918 79.8493 209.918C80.6893 209.918 81.3693 209.548 81.7393 208.908V209.868H82.4193V204.608H81.7093ZM85.8179 209.918C87.1879 209.918 87.9879 209.328 87.9879 208.418C87.9879 206.398 84.5779 207.468 84.5779 206.048C84.5779 205.548 84.9979 205.178 85.9479 205.178C86.4879 205.178 87.0379 205.308 87.4979 205.628L87.8079 205.058C87.3679 204.758 86.6279 204.568 85.9479 204.568C84.6079 204.568 83.8679 205.208 83.8679 206.068C83.8679 208.148 87.2779 207.068 87.2779 208.438C87.2779 208.958 86.8679 209.298 85.8679 209.298C85.1279 209.298 84.4179 209.038 83.9979 208.708L83.6779 209.268C84.1079 209.638 84.9479 209.918 85.8179 209.918ZM93.8904 207.238C93.8904 205.658 92.8204 204.568 91.3404 204.568C89.8604 204.568 88.7704 205.678 88.7704 207.238C88.7704 208.798 89.8904 209.918 91.5304 209.918C92.3604 209.918 93.0904 209.618 93.5604 209.058L93.1604 208.598C92.7604 209.058 92.1904 209.288 91.5504 209.288C90.4004 209.288 89.5604 208.558 89.4804 207.458H93.8804C93.8804 207.378 93.8904 207.298 93.8904 207.238ZM91.3404 205.178C92.3704 205.178 93.1204 205.898 93.2104 206.928H89.4804C89.5704 205.898 90.3204 205.178 91.3404 205.178ZM100.633 204.568C99.7428 204.568 99.0528 204.918 98.6628 205.528V202.448H97.9528V209.868H98.6628V207.108C98.6628 205.908 99.3728 205.208 100.503 205.208C101.503 205.208 102.083 205.778 102.083 206.888V209.868H102.793V206.818C102.793 205.308 101.913 204.568 100.633 204.568ZM106.56 204.568C105.73 204.568 104.95 204.828 104.42 205.278L104.74 205.808C105.17 205.428 105.81 205.188 106.49 205.188C107.47 205.188 107.98 205.678 107.98 206.578V206.898H106.31C104.8 206.898 104.28 207.578 104.28 208.388C104.28 209.298 105.01 209.918 106.2 209.918C107.07 209.918 107.69 209.588 108.01 209.048V209.868H108.69V206.608C108.69 205.248 107.92 204.568 106.56 204.568ZM106.31 209.358C105.47 209.358 104.98 208.978 104.98 208.368C104.98 207.828 105.31 207.428 106.33 207.428H107.98V208.288C107.7 208.978 107.11 209.358 106.31 209.358ZM113.299 204.568C112.389 204.568 111.679 204.938 111.299 205.578V204.608H110.619V209.868H111.329V207.108C111.329 205.908 112.039 205.208 113.169 205.208C114.169 205.208 114.749 205.778 114.749 206.888V209.868H115.459V206.818C115.459 205.308 114.579 204.568 113.299 204.568ZM121.496 202.448V205.608C121.056 204.928 120.336 204.568 119.496 204.568C117.996 204.568 116.876 205.648 116.876 207.238C116.876 208.828 117.996 209.918 119.496 209.918C120.366 209.918 121.096 209.538 121.526 208.828V209.868H122.206V202.448H121.496ZM119.556 209.288C118.436 209.288 117.596 208.468 117.596 207.238C117.596 206.008 118.436 205.188 119.556 205.188C120.666 205.188 121.506 206.008 121.506 207.238C121.506 208.468 120.666 209.288 119.556 209.288ZM128.21 209.918C129.58 209.918 130.38 209.328 130.38 208.418C130.38 206.398 126.97 207.468 126.97 206.048C126.97 205.548 127.39 205.178 128.34 205.178C128.88 205.178 129.43 205.308 129.89 205.628L130.2 205.058C129.76 204.758 129.02 204.568 128.34 204.568C127 204.568 126.26 205.208 126.26 206.068C126.26 208.148 129.67 207.068 129.67 208.438C129.67 208.958 129.26 209.298 128.26 209.298C127.52 209.298 126.81 209.038 126.39 208.708L126.07 209.268C126.5 209.638 127.34 209.918 128.21 209.918ZM133.533 204.568C132.703 204.568 131.923 204.828 131.393 205.278L131.713 205.808C132.143 205.428 132.783 205.188 133.463 205.188C134.443 205.188 134.953 205.678 134.953 206.578V206.898H133.283C131.773 206.898 131.253 207.578 131.253 208.388C131.253 209.298 131.983 209.918 133.173 209.918C134.043 209.918 134.663 209.588 134.983 209.048V209.868H135.663V206.608C135.663 205.248 134.893 204.568 133.533 204.568ZM133.283 209.358C132.443 209.358 131.953 208.978 131.953 208.368C131.953 207.828 132.283 207.428 133.303 207.428H134.953V208.288C134.673 208.978 134.083 209.358 133.283 209.358ZM140.271 204.568C139.361 204.568 138.651 204.938 138.271 205.578V204.608H137.591V209.868H138.301V207.108C138.301 205.908 139.011 205.208 140.141 205.208C141.141 205.208 141.721 205.778 141.721 206.888V209.868H142.431V206.818C142.431 205.308 141.551 204.568 140.271 204.568ZM144.719 203.458C145.019 203.458 145.239 203.228 145.239 202.938C145.239 202.668 145.009 202.448 144.719 202.448C144.429 202.448 144.199 202.678 144.199 202.948C144.199 203.228 144.429 203.458 144.719 203.458ZM144.359 209.868H145.069V204.608H144.359V209.868ZM149.565 209.038C149.365 209.218 149.075 209.308 148.785 209.308C148.195 209.308 147.875 208.968 147.875 208.348V205.208H149.475V204.608H147.875V203.458H147.165V204.608H146.225V205.208H147.165V208.388C147.165 209.358 147.715 209.918 148.705 209.918C149.115 209.918 149.535 209.798 149.815 209.548L149.565 209.038ZM151.467 203.458C151.767 203.458 151.987 203.228 151.987 202.938C151.987 202.668 151.757 202.448 151.467 202.448C151.177 202.448 150.947 202.678 150.947 202.948C150.947 203.228 151.177 203.458 151.467 203.458ZM151.107 209.868H151.817V204.608H151.107V209.868ZM154.133 209.278L157.443 205.078V204.608H153.283V205.208H156.533L153.223 209.398V209.868H157.503V209.278H154.133ZM163.402 207.238C163.402 205.658 162.332 204.568 160.852 204.568C159.372 204.568 158.282 205.678 158.282 207.238C158.282 208.798 159.402 209.918 161.042 209.918C161.872 209.918 162.602 209.618 163.072 209.058L162.672 208.598C162.272 209.058 161.702 209.288 161.062 209.288C159.912 209.288 159.072 208.558 158.992 207.458H163.392C163.392 207.378 163.402 207.298 163.402 207.238ZM160.852 205.178C161.882 205.178 162.632 205.898 162.722 206.928H158.992C159.082 205.898 159.832 205.178 160.852 205.178ZM165.527 205.638V204.608H164.847V209.868H165.557V207.188C165.557 205.948 166.227 205.248 167.327 205.248C167.377 205.248 167.437 205.258 167.497 205.258V204.568C166.527 204.568 165.857 204.938 165.527 205.638Z" fill="#4F4F4F"/>
<path d="M155.378 155.757C183.905 127.23 183.905 80.9788 155.378 52.4518C126.851 23.9247 80.5997 23.9247 52.0727 52.4518C23.5456 80.9788 23.5456 127.23 52.0727 155.757C80.5997 184.284 126.851 184.284 155.378 155.757Z" fill="#EFF7E8" fill-opacity="0.1"/>
<path d="M96.3887 69.2459L104.538 90.8301C104.538 90.8301 106.595 95.536 110.269 94.6087C113.406 93.807 114.222 91.8201 113.316 85.8245C112.584 80.9653 109.112 68.8834 107.32 63.8848" fill="#E49D7D"/>
<path d="M93.1406 67.8316L94.2421 90.8798C94.2421 90.8798 94.7441 95.997 98.5297 96.2341C101.765 96.4432 103.145 94.7979 104.135 88.8162C104.93 83.971 105.355 71.4011 105.195 66.0957" fill="#F2A988"/>
<mask id="mask0" mask-type="alpha" maskUnits="userSpaceOnUse" x="30" y="31" width="147" height="147">
<path d="M155.378 155.882C183.905 127.355 183.905 81.1038 155.378 52.5768C126.851 24.0497 80.5997 24.0497 52.0727 52.5768C23.5456 81.1038 23.5456 127.355 52.0727 155.882C80.5997 184.409 126.851 184.409 155.378 155.882Z" fill="#E0EFD1"/>
</mask>
<g mask="url(#mask0)">
<path d="M89.918 140.921C84.6614 140.175 80.7225 135.922 79.2794 133.392C77.8362 130.861 76.5674 128.086 74.2598 126.316C71.9522 124.538 68.9335 124.203 67.9295 126.936C66.7234 130.227 73.3186 145.655 82.3538 150.821" fill="#F2A988"/>
<path d="M147.819 166.473C148.474 159.989 147.317 153.338 144.507 147.461C143.217 144.763 141.565 142.197 139.327 140.224C133.931 135.463 126.046 134.821 118.893 135.623C111.748 136.425 104.678 138.433 97.4906 138.07C94.8623 137.938 92.2061 137.492 89.6335 138.028C87.061 138.558 84.5094 140.406 84.1887 143.013C84.126 143.543 84.1469 144.115 83.882 144.575C83.4706 145.3 82.5225 145.516 81.6859 145.488C78.7718 145.39 76.3177 143.327 74.3517 141.179C72.3788 139.032 70.5243 136.613 67.8821 135.4C65.2329 134.18 62.2141 134.529 61.8446 137.422C61.3985 140.901 71.2773 154.467 81.2327 157.486C91.1882 160.505 103.577 158.685 113.937 159.619C126.123 160.721 122.17 176.791 122.17 183.574C122.17 183.916 122.17 184.696 122.233 185.163C126.388 185.219 145.727 185.163 149.708 185.163C149.931 183.616 147.63 170.168 147.819 166.473Z" fill="#FCB58F"/>
<path d="M82.0957 144.771C82.0957 144.771 94.7004 150.118 110.387 147.733" stroke="#F2A988" stroke-width="3" stroke-miterlimit="10" stroke-linecap="round" stroke-linejoin="round"/>
<path d="M71.1265 67.711C71.1265 67.711 66.2464 69.3214 66.832 73.0582C67.3339 76.2582 69.2372 77.2551 75.2886 76.9065C80.1966 76.6277 100.149 74.3968 105.281 73.9227C106.229 73.8321 107.163 74.1806 107.832 74.8639L113.8 80.9571C114.887 82.0725 114.622 83.92 113.256 84.6729C108.348 87.3988 98.4204 92.8995 97.535 93.3108C96.3568 93.8615 93.9307 95.2071 95.1159 99.0554C96.2034 102.604 99.0479 101.963 103.05 101.035C107.051 100.115 129.388 93.2899 129.388 93.2899L204.027 98.1212L195.744 67.6273L139.072 65.487L119.551 58.8709C113.883 56.9468 107.748 56.891 102.039 58.6967L71.1265 67.711Z" fill="#FCB58F"/>
</g>
<path d="M108.243 116.003H92.5289C90.4304 116.003 88.7363 114.302 88.7363 112.211V90.8219C88.7363 88.7234 90.4374 87.0293 92.5289 87.0293H108.243C110.341 87.0293 112.036 88.7304 112.036 90.8219V112.211C112.036 114.302 110.334 116.003 108.243 116.003Z" fill="#64AF19"/>
<path d="M104.554 120.145H96.1955C95.5262 120.145 94.9824 119.601 94.9824 118.932V114.979C94.9824 114.309 95.5262 113.766 96.1955 113.766H104.554C105.224 113.766 105.768 114.309 105.768 114.979V118.932C105.768 119.601 105.224 120.145 104.554 120.145Z" fill="#64AF19"/>
<path d="M112.029 96.8174H88.7227V109.478H112.029V96.8174Z" fill="white"/>
<path d="M104.583 101.496H102.031V98.9375H98.7196V101.496H96.168V104.801H98.7196V107.352H102.031V104.801H104.583V101.496Z" fill="#64AF19"/>
<path d="M105.766 116.003H94.9883V116.958H105.766V116.003Z" fill="#64AF19"/>
<path d="M104.582 128.092C104.582 129.891 103.124 131.341 101.333 131.341C99.5341 131.341 98.084 129.884 98.084 128.092C98.084 126.293 101.333 122.814 101.333 122.814C101.333 122.814 104.582 126.293 104.582 128.092Z" fill="#64AF19"/>
<path d="M113.265 84.6875C108.357 87.4134 98.429 92.914 97.5436 93.3253C96.3654 93.8761 93.9393 95.2216 95.1245 99.07C96.212 102.619 99.0565 101.977 103.058 101.05C107.06 100.13 129.397 93.3044 129.397 93.3044" fill="#FCB58F"/>
<path opacity="0.6" d="M99.0223 96.2116C97.5025 96.5323 96.5334 98.0451 96.9029 99.5719C97.2585 101.043 98.7922 101.914 100.27 101.601L102.836 101.029L101.602 95.626L99.0223 96.2116Z" fill="white"/>
</svg>
