<svg width="346" height="85" viewBox="0 0 346 85" fill="none" xmlns="http://www.w3.org/2000/svg">
<path fill-rule="evenodd" clip-rule="evenodd" d="M103.152 54.6176C101.886 55.0575 100.526 55.2964 99.1104 55.2964C92.3091 55.2964 86.7954 49.7828 86.7954 42.9814C86.7954 36.1801 92.3091 30.6665 99.1104 30.6665C100.526 30.6665 101.886 30.9055 103.153 31.3453C103.812 31.5865 104.524 31.7182 105.268 31.7182C108.669 31.7182 111.425 28.9614 111.425 25.5607C111.425 22.8462 109.669 20.5419 107.23 19.7226L107.231 19.7215C104.688 18.834 101.956 18.3516 99.1104 18.3516C85.5078 18.3516 74.4805 29.3788 74.4805 42.9814C74.4805 56.584 85.5078 67.6113 99.1104 67.6113C101.956 67.6113 104.688 67.1291 107.231 66.2414L107.23 66.2404C109.669 65.4207 111.425 63.1169 111.425 60.4022C111.425 57.0013 108.669 54.2447 105.268 54.2447C104.524 54.2447 103.812 54.3762 103.152 54.6176Z" fill="#111111"/>
<path fill-rule="evenodd" clip-rule="evenodd" d="M160.006 32.7326C160.446 33.9986 160.685 35.3586 160.685 36.7744C160.685 43.5758 155.171 49.0894 148.37 49.0894C141.569 49.0894 136.055 43.5758 136.055 36.7744C136.055 35.3585 136.294 33.9984 136.734 32.7323C136.975 32.0726 137.107 31.3602 137.107 30.6169C137.107 27.2162 134.35 24.4595 130.949 24.4595C128.235 24.4595 125.931 26.216 125.111 28.6545L125.11 28.6541C124.223 31.1966 123.74 33.9292 123.74 36.7744C123.74 50.377 134.768 61.4043 148.37 61.4043C161.973 61.4043 173 50.377 173 36.7744C173 33.9292 172.518 31.1966 171.63 28.6541L171.629 28.6545C170.809 26.216 168.506 24.4595 165.791 24.4595C162.39 24.4595 159.633 27.2162 159.633 30.6169C159.633 31.3603 159.765 32.0729 160.006 32.7326Z" fill="#111111"/>
<path fill-rule="evenodd" clip-rule="evenodd" d="M221.581 32.7326C222.021 33.9986 222.26 35.3586 222.26 36.7744C222.26 43.5758 216.746 49.0894 209.945 49.0894C203.144 49.0894 197.63 43.5758 197.63 36.7744C197.63 35.3585 197.869 33.9984 198.309 32.7323C198.55 32.0726 198.682 31.3602 198.682 30.6169C198.682 27.2162 195.925 24.4595 192.524 24.4595C189.809 24.4595 187.506 26.216 186.686 28.6545L186.685 28.6541C185.797 31.1966 185.315 33.9292 185.315 36.7744C185.315 50.377 196.342 61.4043 209.945 61.4043C223.547 61.4043 234.575 50.377 234.575 36.7744C234.575 33.9292 234.092 31.1966 233.205 28.6541L233.204 28.6545C232.384 26.216 230.08 24.4595 227.366 24.4595C223.965 24.4595 221.208 27.2162 221.208 30.6169C221.208 31.3603 221.34 32.0729 221.581 32.7326Z" fill="#111111"/>
<path fill-rule="evenodd" clip-rule="evenodd" d="M332.415 32.7326C332.855 33.9986 333.094 35.3586 333.094 36.7744C333.094 43.5758 327.581 49.0894 320.779 49.0894C313.978 49.0894 308.464 43.5758 308.464 36.7744C308.464 35.3585 308.703 33.9984 309.143 32.7323C309.385 32.0726 309.516 31.3602 309.516 30.6169C309.516 27.2162 306.759 24.4595 303.359 24.4595C300.644 24.4595 298.34 26.216 297.52 28.6545L297.519 28.6541C296.632 31.1966 296.149 33.9292 296.149 36.7744C296.149 50.377 307.177 61.4043 320.779 61.4043C334.382 61.4043 345.409 50.377 345.409 36.7744C345.409 33.9292 344.927 31.1966 344.039 28.6541L344.038 28.6545C343.219 26.216 340.915 24.4595 338.2 24.4595C334.799 24.4595 332.043 27.2162 332.043 30.6169C332.043 31.3603 332.174 32.0729 332.415 32.7326Z" fill="#111111"/>
<path fill-rule="evenodd" clip-rule="evenodd" d="M255.163 31.2958C256.429 30.8561 257.789 30.6172 259.205 30.6172C266.006 30.6172 271.52 36.1308 271.52 42.9321C271.52 49.7335 266.006 55.2471 259.205 55.2471C257.789 55.2471 256.429 55.0082 255.162 54.5683C254.503 54.3269 253.79 54.1954 253.047 54.1954C249.646 54.1954 246.89 56.952 246.89 60.3528C246.89 63.0676 248.646 65.3714 251.085 66.1911L251.084 66.1921C253.627 67.0798 256.359 67.562 259.205 67.562C272.807 67.562 283.835 56.5347 283.835 42.9321C283.835 29.3294 272.807 18.3022 259.205 18.3022C256.359 18.3022 253.627 18.7847 251.084 19.6722L251.085 19.6733C248.646 20.4926 246.89 22.7969 246.89 25.5114C246.89 28.9121 249.646 31.6689 253.047 31.6689C253.79 31.6689 254.503 31.5372 255.163 31.2958Z" fill="#111111"/>
<path fill-rule="evenodd" clip-rule="evenodd" d="M33.7527 48.6471C34.9446 48.2628 36.2159 48.0552 37.5356 48.0552C44.337 48.0552 49.8506 53.5688 49.8506 60.3701C49.8506 67.1714 44.337 72.6851 37.5356 72.6851C36.1197 72.6851 34.7597 72.4462 33.4935 72.0063C32.8339 71.7649 32.1214 71.6334 31.3782 71.6334C27.9775 71.6334 25.2207 74.3899 25.2207 77.7908C25.2207 80.5055 26.9773 82.8094 29.4157 83.6291L29.4154 83.6301C31.9579 84.5177 34.6905 85 37.5356 85C51.1382 85 62.1655 73.9727 62.1655 60.3701C62.1655 46.7674 51.1382 35.7402 37.5356 35.7402C34.6905 35.7402 31.9579 36.2227 29.4154 37.1102L29.4157 37.1113C29.2761 37.1582 29.1386 37.21 29.0036 37.2665C27.8117 37.6508 26.5405 37.8584 25.2207 37.8584C18.4194 37.8584 12.9058 32.3448 12.9058 25.5435C12.9058 18.7421 18.4194 13.2285 25.2207 13.2285C26.6366 13.2285 27.9967 13.4675 29.2629 13.9073C29.9225 14.1485 30.6349 14.2802 31.3782 14.2802C34.7789 14.2802 37.5356 11.5234 37.5356 8.12274C37.5356 5.4082 35.7791 3.10394 33.3406 2.2846L33.341 2.28356C30.7984 1.39602 28.0659 0.913574 25.2207 0.913574C11.618 0.913574 0.59082 11.9408 0.59082 25.5435C0.59082 39.1462 11.618 50.1733 25.2207 50.1733C28.0659 50.1733 30.7985 49.6909 33.341 48.8034L33.3406 48.8023C33.4803 48.7554 33.6177 48.7036 33.7527 48.6471Z" fill="#111111"/>
</svg>
