<svg width="62" height="62" viewBox="0 0 62 62" fill="none" xmlns="http://www.w3.org/2000/svg">
<path d="M34.4326 33.8652L34.1249 32.9137L34.086 32.9263L34.0482 32.942L34.4326 33.8652ZM34.2125 33.9479L33.894 33L32.9419 33.3199L33.266 34.2706L34.2125 33.9479ZM34.2126 33.948L34.5422 34.8922L35.4794 34.565L35.1591 33.6254L34.2126 33.948ZM34.2128 8.54144L35.1579 8.86815L35.4836 7.92593L34.5424 7.59733L34.2128 8.54144ZM34.2125 8.54237L33.2673 8.21566L32.9378 9.16903L33.894 9.4903L34.2125 8.54237ZM31.9952 14.8937L32.3358 13.9535L31.3878 13.61L31.0522 14.5608L31.9952 14.8937ZM31.9951 14.8937L31.6656 15.8378L32.6064 16.1663L32.9381 15.2265L31.9951 14.8937ZM31.8413 27.6487L32.1478 28.6006L32.1886 28.5875L32.228 28.5709L31.8413 27.6487ZM32.0691 27.5628L32.3876 28.5108L33.3462 28.1887L33.0134 27.2338L32.0691 27.5628ZM32.069 27.5625L31.7394 26.6183L30.7958 26.9477L31.1247 27.8915L32.069 27.5625ZM32.0688 52.9695L31.125 52.6388L30.794 53.5837L31.7392 53.9136L32.0688 52.9695ZM32.069 52.969L33.0127 53.2997L33.3476 52.3438L32.3875 52.0211L32.069 52.969ZM34.2863 46.6177L33.9457 47.5579L34.8937 47.9013L35.2292 46.9505L34.2863 46.6177ZM34.2863 46.6177L34.6159 45.6735L33.675 45.345L33.3433 46.2848L34.2863 46.6177ZM60 31C60 47.0163 47.0163 60 31 60V62C48.1208 62 62 48.1208 62 31H60ZM31 2C47.0163 2 60 14.9837 60 31H62C62 13.8792 48.1208 0 31 0V2ZM2 31C2 14.9837 14.9837 2 31 2V0C13.8792 0 0 13.8792 0 31H2ZM31 60C14.9837 60 2 47.0163 2 31H0C0 48.1208 13.8792 62 31 62V60ZM34.7403 34.8167C35.2946 34.6374 35.887 34.5402 36.504 34.5402V32.5402C35.6755 32.5402 34.8756 32.671 34.1249 32.9137L34.7403 34.8167ZM34.531 34.8958C34.628 34.8632 34.7233 34.8274 34.8171 34.7883L34.0482 32.942C33.9976 32.9631 33.9462 32.9824 33.894 33L34.531 34.8958ZM35.1591 33.6254L35.159 33.6252L33.266 34.2706L33.2661 34.2707L35.1591 33.6254ZM29.7774 35.6964C31.4452 35.6964 33.049 35.4134 34.5422 34.8922L33.883 33.0039C32.5988 33.4522 31.2177 33.6964 29.7774 33.6964V35.6964ZM15.3258 21.2447C15.3258 29.2261 21.796 35.6964 29.7774 35.6964V33.6964C22.9006 33.6964 17.3258 28.1216 17.3258 21.2447H15.3258ZM29.7774 6.79307C21.796 6.79307 15.3258 13.2633 15.3258 21.2447H17.3258C17.3258 14.3679 22.9006 8.79307 29.7774 8.79307V6.79307ZM34.5424 7.59733C33.0492 7.07601 31.4453 6.79307 29.7774 6.79307V8.79307C31.2178 8.79307 32.5989 9.03721 33.8832 9.48556L34.5424 7.59733ZM35.1576 8.86908L35.1579 8.86815L33.2677 8.21473L33.2673 8.21566L35.1576 8.86908ZM37.5037 11.7309C37.5037 9.80592 36.2576 8.17457 34.5309 7.59444L33.894 9.4903C34.8309 9.80509 35.5037 10.6907 35.5037 11.7309H37.5037ZM33.1407 16.0938C35.5503 16.0938 37.5037 14.1405 37.5037 11.7309H35.5037C35.5037 13.0359 34.4457 14.0938 33.1407 14.0938V16.0938ZM31.6545 15.8339C32.1197 16.0024 32.6207 16.0938 33.1407 16.0938V14.0938C32.8563 14.0938 32.5857 14.044 32.3358 13.9535L31.6545 15.8339ZM32.9381 15.2265L32.9382 15.2265L31.0522 14.5608L31.0521 14.5609L32.9381 15.2265ZM29.7777 15.5196C30.4409 15.5196 31.0758 15.632 31.6656 15.8378L32.3247 13.9496C31.5259 13.6707 30.6684 13.5196 29.7777 13.5196V15.5196ZM24.0519 21.2454C24.0519 18.0831 26.6154 15.5196 29.7777 15.5196V13.5196C25.5108 13.5196 22.0519 16.9786 22.0519 21.2454H24.0519ZM29.7777 26.9712C26.6154 26.9712 24.0519 24.4077 24.0519 21.2454H22.0519C22.0519 25.5123 25.5108 28.9712 29.7777 28.9712V26.9712ZM31.5348 26.6969C30.9824 26.8748 30.3923 26.9712 29.7777 26.9712V28.9712C30.6029 28.9712 31.3997 28.8415 32.1478 28.6006L31.5348 26.6969ZM31.7506 26.6149C31.6502 26.6486 31.5515 26.6859 31.4546 26.7266L32.228 28.5709C32.2803 28.549 32.3335 28.5289 32.3876 28.5108L31.7506 26.6149ZM31.1247 27.8915L31.1248 27.8919L33.0134 27.2338L33.0133 27.2334L31.1247 27.8915ZM36.5035 25.8144C34.836 25.8144 33.2324 26.0972 31.7394 26.6183L32.3985 28.5066C33.6825 28.0584 35.0635 27.8144 36.5035 27.8144V25.8144ZM50.9552 40.266C50.9552 32.2846 44.485 25.8144 36.5035 25.8144V27.8144C43.3804 27.8144 48.9552 33.3892 48.9552 40.266H50.9552ZM36.5035 54.7177C44.485 54.7177 50.9552 48.2474 50.9552 40.266H48.9552C48.9552 47.1429 43.3804 52.7177 36.5035 52.7177V54.7177ZM31.7392 53.9136C33.2323 54.4348 34.8359 54.7177 36.5035 54.7177V52.7177C35.0634 52.7177 33.6824 52.4736 32.3984 52.0254L31.7392 53.9136ZM31.1252 52.6383L31.125 52.6388L33.0125 53.3002L33.0127 53.2997L31.1252 52.6383ZM28.778 49.7805C28.778 51.7054 30.0239 53.3367 31.7504 53.9169L32.3875 52.0211C31.4507 51.7063 30.778 50.8207 30.778 49.7805H28.778ZM33.1409 45.4176C30.7313 45.4176 28.778 47.371 28.778 49.7805H30.778C30.778 48.4755 31.8359 47.4176 33.1409 47.4176V45.4176ZM34.6268 45.6775C34.1617 45.509 33.6609 45.4176 33.1409 45.4176V47.4176C33.4253 47.4176 33.6958 47.4674 33.9457 47.5579L34.6268 45.6775ZM33.3433 46.2848L33.3433 46.2849L35.2292 46.9505L35.2293 46.9505L33.3433 46.2848ZM36.504 45.9918C35.8407 45.9918 35.2057 45.8795 34.6159 45.6735L33.9567 47.5618C34.7555 47.8407 35.6132 47.9918 36.504 47.9918V45.9918ZM42.2298 40.266C42.2298 43.4283 39.6662 45.9918 36.504 45.9918V47.9918C40.7708 47.9918 44.2298 44.5329 44.2298 40.266H42.2298ZM36.504 34.5402C39.6662 34.5402 42.2298 37.1037 42.2298 40.266H44.2298C44.2298 35.9992 40.7708 32.5402 36.504 32.5402V34.5402Z" fill="white"/>
</svg>
