<svg width="201" height="171" viewBox="0 0 201 171" fill="none" xmlns="http://www.w3.org/2000/svg">
<path d="M44.0047 158.196L41.9547 164.246L39.8947 158.196H39.2047L37.1147 164.216L35.0947 158.196H34.3347L36.6947 165.196H37.4647L39.5247 159.226L41.5747 165.196H42.3547L44.7147 158.196H44.0047ZM47.3611 159.896C46.5311 159.896 45.7511 160.156 45.2211 160.606L45.5411 161.136C45.9711 160.756 46.6111 160.516 47.2911 160.516C48.2711 160.516 48.7811 161.006 48.7811 161.906V162.226H47.1111C45.6011 162.226 45.0811 162.906 45.0811 163.716C45.0811 164.626 45.8111 165.246 47.0011 165.246C47.8711 165.246 48.4911 164.916 48.8111 164.376V165.196H49.4911V161.936C49.4911 160.576 48.7211 159.896 47.3611 159.896ZM47.1111 164.686C46.2711 164.686 45.7811 164.306 45.7811 163.696C45.7811 163.156 46.1111 162.756 47.1311 162.756H48.7811V163.616C48.5011 164.306 47.9111 164.686 47.1111 164.686ZM52.8296 165.246C54.1996 165.246 54.9996 164.656 54.9996 163.746C54.9996 161.726 51.5896 162.796 51.5896 161.376C51.5896 160.876 52.0096 160.506 52.9596 160.506C53.4996 160.506 54.0496 160.636 54.5096 160.956L54.8196 160.386C54.3796 160.086 53.6396 159.896 52.9596 159.896C51.6196 159.896 50.8796 160.536 50.8796 161.396C50.8796 163.476 54.2896 162.396 54.2896 163.766C54.2896 164.286 53.8796 164.626 52.8796 164.626C52.1396 164.626 51.4296 164.366 51.0096 164.036L50.6896 164.596C51.1196 164.966 51.9596 165.246 52.8296 165.246ZM58.9922 159.896C58.1022 159.896 57.4122 160.246 57.0222 160.856V157.776H56.3122V165.196H57.0222V162.436C57.0222 161.236 57.7322 160.536 58.8622 160.536C59.8622 160.536 60.4422 161.106 60.4422 162.216V165.196H61.1522V162.146C61.1522 160.636 60.2722 159.896 58.9922 159.896ZM69.4169 159.936L67.4369 164.406L65.4569 159.936H64.7169L67.0669 165.186L66.8369 165.696C66.5369 166.356 66.2169 166.576 65.7469 166.576C65.3669 166.576 65.0469 166.436 64.7869 166.176L64.4569 166.706C64.7769 167.026 65.2469 167.186 65.7369 167.186C66.4869 167.186 67.0469 166.856 67.4869 165.826L70.1169 159.936H69.4169ZM73.1204 165.246C74.6604 165.246 75.7904 164.126 75.7904 162.566C75.7904 161.006 74.6604 159.896 73.1204 159.896C71.5804 159.896 70.4404 161.006 70.4404 162.566C70.4404 164.126 71.5804 165.246 73.1204 165.246ZM73.1204 164.616C72.0004 164.616 71.1604 163.796 71.1604 162.566C71.1604 161.336 72.0004 160.516 73.1204 160.516C74.2404 160.516 75.0704 161.336 75.0704 162.566C75.0704 163.796 74.2404 164.616 73.1204 164.616ZM81.2699 159.936V162.696C81.2699 163.896 80.5799 164.606 79.4799 164.606C78.4799 164.606 77.8999 164.036 77.8999 162.916V159.936H77.1899V162.986C77.1899 164.496 78.0699 165.246 79.4099 165.246C80.2499 165.246 80.9299 164.876 81.2999 164.236V165.196H81.9799V159.936H81.2699ZM84.6484 160.966V159.936H83.9684V165.196H84.6784V162.516C84.6784 161.276 85.3484 160.576 86.4484 160.576C86.4984 160.576 86.5584 160.586 86.6184 160.586V159.896C85.6484 159.896 84.9784 160.266 84.6484 160.966ZM93.2793 159.896C92.3893 159.896 91.6993 160.246 91.3093 160.856V157.776H90.5993V165.196H91.3093V162.436C91.3093 161.236 92.0193 160.536 93.1493 160.536C94.1493 160.536 94.7293 161.106 94.7293 162.216V165.196H95.4393V162.146C95.4393 160.636 94.5593 159.896 93.2793 159.896ZM99.2068 159.896C98.3768 159.896 97.5968 160.156 97.0668 160.606L97.3868 161.136C97.8168 160.756 98.4568 160.516 99.1368 160.516C100.117 160.516 100.627 161.006 100.627 161.906V162.226H98.9568C97.4468 162.226 96.9268 162.906 96.9268 163.716C96.9268 164.626 97.6568 165.246 98.8468 165.246C99.7168 165.246 100.337 164.916 100.657 164.376V165.196H101.337V161.936C101.337 160.576 100.567 159.896 99.2068 159.896ZM98.9568 164.686C98.1168 164.686 97.6268 164.306 97.6268 163.696C97.6268 163.156 97.9568 162.756 98.9768 162.756H100.627V163.616C100.347 164.306 99.7568 164.686 98.9568 164.686ZM105.945 159.896C105.035 159.896 104.325 160.266 103.945 160.906V159.936H103.265V165.196H103.975V162.436C103.975 161.236 104.685 160.536 105.815 160.536C106.815 160.536 107.395 161.106 107.395 162.216V165.196H108.105V162.146C108.105 160.636 107.225 159.896 105.945 159.896ZM114.142 157.776V160.936C113.702 160.256 112.982 159.896 112.142 159.896C110.642 159.896 109.522 160.976 109.522 162.566C109.522 164.156 110.642 165.246 112.142 165.246C113.012 165.246 113.742 164.866 114.172 164.156V165.196H114.852V157.776H114.142ZM112.202 164.616C111.082 164.616 110.242 163.796 110.242 162.566C110.242 161.336 111.082 160.516 112.202 160.516C113.312 160.516 114.152 161.336 114.152 162.566C114.152 163.796 113.312 164.616 112.202 164.616ZM118.24 165.246C119.61 165.246 120.41 164.656 120.41 163.746C120.41 161.726 117 162.796 117 161.376C117 160.876 117.42 160.506 118.37 160.506C118.91 160.506 119.46 160.636 119.92 160.956L120.23 160.386C119.79 160.086 119.05 159.896 118.37 159.896C117.03 159.896 116.29 160.536 116.29 161.396C116.29 163.476 119.7 162.396 119.7 163.766C119.7 164.286 119.29 164.626 118.29 164.626C117.55 164.626 116.84 164.366 116.42 164.036L116.1 164.596C116.53 164.966 117.37 165.246 118.24 165.246ZM125.019 160.966V159.936H124.339V165.196H125.049V162.516C125.049 161.276 125.719 160.576 126.819 160.576C126.869 160.576 126.929 160.586 126.989 160.586V159.896C126.019 159.896 125.349 160.266 125.019 160.966ZM132.816 162.566C132.816 160.986 131.746 159.896 130.266 159.896C128.786 159.896 127.696 161.006 127.696 162.566C127.696 164.126 128.816 165.246 130.456 165.246C131.286 165.246 132.016 164.946 132.486 164.386L132.086 163.926C131.686 164.386 131.116 164.616 130.476 164.616C129.326 164.616 128.486 163.886 128.406 162.786H132.806C132.806 162.706 132.816 162.626 132.816 162.566ZM130.266 160.506C131.296 160.506 132.046 161.226 132.136 162.256H128.406C128.496 161.226 129.246 160.506 130.266 160.506ZM138.451 159.936V160.946C138.011 160.256 137.251 159.896 136.371 159.896C134.871 159.896 133.731 160.926 133.731 162.436C133.731 163.946 134.871 164.996 136.371 164.996C137.231 164.996 137.981 164.646 138.421 163.976V164.646C138.421 165.946 137.811 166.556 136.481 166.556C135.671 166.556 134.911 166.286 134.411 165.836L134.051 166.376C134.601 166.896 135.541 167.186 136.501 167.186C138.241 167.186 139.131 166.366 139.131 164.556V159.936H138.451ZM136.441 164.366C135.281 164.366 134.451 163.576 134.451 162.436C134.451 161.296 135.281 160.516 136.441 160.516C137.601 160.516 138.441 161.296 138.441 162.436C138.441 163.576 137.601 164.366 136.441 164.366ZM145.147 159.936V162.696C145.147 163.896 144.457 164.606 143.357 164.606C142.357 164.606 141.777 164.036 141.777 162.916V159.936H141.067V162.986C141.067 164.496 141.947 165.246 143.287 165.246C144.127 165.246 144.807 164.876 145.177 164.236V165.196H145.857V159.936H145.147ZM147.845 165.196H148.555V157.776H147.845V165.196ZM152.371 159.896C151.541 159.896 150.761 160.156 150.231 160.606L150.551 161.136C150.981 160.756 151.621 160.516 152.301 160.516C153.281 160.516 153.791 161.006 153.791 161.906V162.226H152.121C150.611 162.226 150.091 162.906 150.091 163.716C150.091 164.626 150.821 165.246 152.011 165.246C152.881 165.246 153.501 164.916 153.821 164.376V165.196H154.501V161.936C154.501 160.576 153.731 159.896 152.371 159.896ZM152.121 164.686C151.281 164.686 150.791 164.306 150.791 163.696C150.791 163.156 151.121 162.756 152.141 162.756H153.791V163.616C153.511 164.306 152.921 164.686 152.121 164.686ZM157.109 160.966V159.936H156.429V165.196H157.139V162.516C157.139 161.276 157.809 160.576 158.909 160.576C158.959 160.576 159.019 160.586 159.079 160.586V159.896C158.109 159.896 157.439 160.266 157.109 160.966ZM160.365 165.196H161.075V157.776H160.365V165.196ZM166.77 159.936L164.79 164.406L162.81 159.936H162.07L164.42 165.186L164.19 165.696C163.89 166.356 163.57 166.576 163.1 166.576C162.72 166.576 162.4 166.436 162.14 166.176L161.81 166.706C162.13 167.026 162.6 167.186 163.09 167.186C163.84 167.186 164.4 166.856 164.84 165.826L167.47 159.936H166.77Z" fill="#4F4F4F"/>
<path d="M27.9355 70.184C27.9355 31.5044 59.2944 0.15625 97.9633 0.15625C136.643 0.15625 167.991 31.5044 167.991 70.184C167.991 108.864 136.632 140.212 97.9633 140.212C59.2837 140.212 27.9355 108.864 27.9355 70.184Z" fill="#64AF19"/>
<mask id="mask0" mask-type="alpha" maskUnits="userSpaceOnUse" x="30" y="0" width="141" height="141">
<path d="M30.6211 70.184C30.6211 31.5044 61.98 0.15625 100.649 0.15625C139.328 0.15625 170.677 31.5044 170.677 70.184C170.677 108.864 139.318 140.212 100.649 140.212C61.9693 140.212 30.6211 108.864 30.6211 70.184Z" fill="#64AF19"/>
</mask>
<g mask="url(#mask0)">
<path d="M127.652 140.992C127.652 140.992 92.7502 109.323 66.0683 60.9679C66.0683 60.9679 57.6132 45.8878 56.2754 40.8576C56.2754 40.8576 57.5811 36.6942 64.5807 44.5607C64.5807 44.5607 81.0521 65.6343 85.4616 68.524C85.4616 68.524 72.0297 43.1265 68.7333 38.6742C68.7333 38.6742 63.3391 30.7649 63.2107 29.9301C63.093 29.106 63.2642 27.5969 66.4322 28.6672C66.4322 28.6672 74.4165 31.985 81.3197 43.9292C81.3197 43.9292 90.128 55.8413 93.0284 58.6348C93.0284 58.6348 78.0018 31.0753 76.7282 28.7849C76.7282 28.7849 72.9609 21.7961 72.0404 20.7793C72.0404 20.7793 70.8845 18.0287 74.5449 18.4782C74.5449 18.4782 80.7096 18.6816 88.2122 34.4038C88.2122 34.4038 97.8767 48.4565 101.569 51.5817C101.569 51.5817 88.0624 23.0269 85.5579 19.3451C85.5579 19.3451 83.1499 16.2842 85.0335 16.0701C85.0335 16.0701 91.4016 12.7523 100.745 32.1456C100.745 32.1456 111.309 51.0251 115.119 56.6869C115.119 56.6869 120.909 64.1145 124.077 66.6725C124.077 66.6725 118.64 40.1405 129.214 30.4545C129.214 30.4545 132.19 28.2926 131.269 34.4788C131.269 34.4788 131.986 52.2452 137.776 62.873C137.776 62.873 143.941 74.3677 141.587 90.3361C141.587 90.3361 152.685 108.21 161.301 112.116C161.28 112.084 147.869 132.922 127.652 140.992Z" fill="#FFBEBB"/>
<path opacity="0.6" d="M143.171 40.8154C139.297 40.8154 136.15 43.962 136.15 47.8471C136.15 51.5931 139.083 54.6219 142.765 54.836C142.765 54.8895 142.754 54.943 142.754 55.0072C142.754 57.9076 145.109 60.2622 148.009 60.2622C150.909 60.2622 153.264 57.9076 153.264 55.0072C153.264 52.7382 151.819 50.8225 149.818 50.084C150.053 49.3776 150.214 48.6391 150.214 47.8471C150.192 43.962 147.046 40.8154 143.171 40.8154Z" fill="white"/>
<path d="M147.836 72.4635C147.836 70.0768 149.773 68.1396 152.16 68.1396C154.547 68.1396 156.484 70.0768 156.484 72.4635C156.484 74.8502 154.547 76.7874 152.16 76.7874C149.773 76.7874 147.836 74.8502 147.836 72.4635Z" fill="white"/>
<path d="M112.186 19.7201C112.186 17.4404 114.037 15.5889 116.317 15.5889C118.596 15.5889 120.448 17.4404 120.448 19.7201C120.448 21.9998 118.596 23.8513 116.317 23.8513C114.037 23.8513 112.186 21.9998 112.186 19.7201Z" fill="white"/>
<path d="M113.996 59.7155C113.996 51.6242 120.557 45.0635 128.648 45.0635C136.739 45.0635 143.3 51.6242 143.3 59.7155C143.3 67.8067 136.739 74.3675 128.648 74.3675C120.557 74.3675 113.996 67.8067 113.996 59.7155Z" fill="white"/>
<path d="M125.77 117.916C125.77 113.378 129.451 109.696 133.989 109.696C138.527 109.696 142.209 113.378 142.209 117.916C142.209 122.454 138.527 126.136 133.989 126.136C129.451 126.136 125.77 122.465 125.77 117.916Z" fill="white"/>
<path opacity="0.6" d="M129.674 104.015C129.674 100.901 132.2 98.3643 135.325 98.3643C138.439 98.3643 140.976 100.89 140.976 104.015C140.976 107.13 138.45 109.666 135.325 109.666C132.21 109.666 129.674 107.14 129.674 104.015Z" fill="white"/>
<path d="M56.3418 127.882C56.3418 127.882 59.9272 100.002 60.5372 90.4869C60.5372 90.4869 62.0249 74.9252 67.5047 61.6752C67.5047 61.6752 79.2455 34.683 81.172 30.3913C81.172 30.3913 84.233 23.3596 86.3736 26.838C86.3736 26.838 89.2526 31.7505 81.6002 50.0735C81.6002 50.0735 77.0408 63.2164 76.6983 65.0573C76.6983 65.0573 85.4638 44.262 87.5188 39.8738C87.5188 39.8738 95.6635 22.1609 97.2796 20.8873C97.2796 20.8873 100.201 18.8431 100.651 25.9282C100.651 25.9282 100.49 31.5686 94.347 43.8981C94.347 43.8981 88.1716 61.9428 87.979 64.9931C87.979 64.9931 96.9692 43.3522 98.8529 39.9702C98.8529 39.9702 107.426 22.1716 108.143 20.5876C108.143 20.5876 109.235 18.447 110.861 20.502C110.861 20.502 114.265 24.0767 107.415 38.1186C107.415 38.1186 100.972 56.067 100.608 60.4658L110.091 42.1963L119.349 29.5671C119.349 29.5671 121.318 26.1958 122.624 27.8547C122.624 27.8547 125.845 31.6114 117.936 43.2559C117.936 43.2559 115.624 48.1256 114.479 52.4281C114.479 52.4281 112.884 59.2243 111.15 63.3449C111.15 63.3449 109.588 67.155 109.834 72.5599C109.834 72.5599 108.935 87.7363 105.414 96.5767C105.414 96.5767 115.892 86.5804 118.92 82.1174C118.92 82.1174 128.66 69.5417 135.071 68.1504C135.071 68.1504 136.366 67.8614 137.243 68.9424C137.243 68.9424 138.035 71.0829 129.827 80.8759C129.827 80.8759 122.699 93.7833 117.54 105.856C117.54 105.856 112.328 117.319 100.084 126.501C100.084 126.501 97.879 137.964 99.8911 142.909C99.9018 142.919 70.2018 144.835 56.3418 127.882Z" fill="#FFAA9B"/>
<path opacity="0.3" d="M77.3601 146.719C77.2852 146.644 77.114 146.602 77.1461 146.505C77.7561 144.504 78.4304 142.524 79.2224 140.597C80.2927 138.007 81.8659 135.642 83.375 133.266C89.1759 124.147 99.215 117.148 108.751 112.374C111.502 110.994 116.521 108.329 119.582 109.859C122.643 111.39 120.406 113.744 119.036 115.542C117.656 117.362 116.404 119.246 115.098 121.119C113.846 122.927 112.187 124.565 111.266 126.588C110.924 127.337 110.827 128.193 110.613 128.996C109.297 133.801 108.409 139.281 105.915 143.648C103.539 147.8 99.3328 150.69 94.9768 152.392C92.9219 153.195 91.1131 153.837 88.8548 153.601C87.1531 153.419 84.1777 152.135 82.6258 151.525C80.5495 150.712 78.5267 150.048 76.5039 149.117" fill="#FFAA9B"/>
<path d="M92.4832 88.4316C89.5186 88.4316 87.1105 90.8397 87.1105 93.8044C87.1105 94.5429 87.2603 95.2493 87.5386 95.8914C85.5479 96.0091 83.9746 97.7537 83.9746 99.9156C83.9746 102.153 85.6656 103.961 87.7527 103.961C88.8657 103.961 89.8504 103.437 90.546 102.623C90.6424 105.545 93.0291 107.9 95.983 107.9C98.9905 107.9 101.431 105.46 101.431 102.452C101.431 99.6909 99.3758 97.4326 96.7215 97.0794C97.4172 96.1697 97.856 95.0566 97.856 93.8258C97.8453 90.8398 95.4372 88.4316 92.4832 88.4316ZM91.4558 99.0594C91.5414 99.0808 91.627 99.0701 91.7126 99.0808C91.6377 99.1665 91.5628 99.2521 91.4879 99.3484C91.4772 99.2521 91.4772 99.1557 91.4558 99.0594Z" fill="white"/>
<path opacity="0.6" d="M86.8223 81.3791C86.8223 79.5061 88.3421 77.9756 90.2257 77.9756C92.1094 77.9756 93.6292 79.4954 93.6292 81.3791C93.6292 83.2627 92.1094 84.7825 90.2257 84.7825C88.3421 84.7825 86.8223 83.252 86.8223 81.3791Z" fill="white"/>
<path d="M64.6892 46.0703C57.6254 46.0703 51.9102 51.7963 51.9102 58.86C51.9102 61.4073 52.67 63.7512 53.9437 65.7419C50.4439 68.6316 48.207 72.9983 48.207 77.8894C48.207 86.5907 55.2601 93.6331 63.9507 93.6331C72.6413 93.6331 79.7051 86.58 79.7051 77.8894C79.7051 73.4264 77.8321 69.4022 74.846 66.5339C76.4728 64.3933 77.4789 61.7498 77.4789 58.8493C77.4789 51.7963 71.753 46.0703 64.6892 46.0703Z" fill="white"/>
<path d="M60.459 104.357C60.459 101.007 63.1667 98.2988 66.5167 98.2988C69.8559 98.2988 72.5744 101.007 72.5744 104.357C72.5744 107.707 69.8666 110.414 66.5167 110.414C63.1667 110.404 60.459 107.696 60.459 104.357Z" fill="white"/>
<path d="M69.3018 45.9747C74.2611 45.9747 78.2814 41.9545 78.2814 36.9952C78.2814 32.0359 74.2611 28.0156 69.3018 28.0156C64.3425 28.0156 60.3223 32.0359 60.3223 36.9952C60.3223 41.9545 64.3425 45.9747 69.3018 45.9747Z" fill="white"/>
<path opacity="0.6" d="M62.3535 24.7815C62.3535 21.0141 65.4038 17.9639 69.1711 17.9639C72.9385 17.9639 75.9995 21.0141 75.9995 24.7815C75.9995 28.5488 72.9492 31.5991 69.1711 31.5991C65.4145 31.6098 62.3535 28.5488 62.3535 24.7815Z" fill="white"/>
</g>
</svg>
